<?xml version="1.0" encoding="utf-8"?>
<!-- Generator: Adobe Illustrator 24.2.1, SVG Export Plug-In . SVG Version: 6.00 Build 0)  -->
<svg version="1.1" id="Layer_1" xmlns="http://www.w3.org/2000/svg" xmlns:xlink="http://www.w3.org/1999/xlink" x="0px" y="0px"
	 viewBox="0 0 200 228.1" style="enable-background:new 0 0 200 228.1;" xml:space="preserve">
<style type="text/css">
	.st0{fill:#FFFFFF;}
	.st1{fill-rule:evenodd;clip-rule:evenodd;fill:#FFFFFF;}
</style>
<g id="W">
	<path class="st0" d="M104,111.2c-2.7,1.6-4.8,5.5-4.8,8.6l0.8,102.6c0,3.1,2.2,4.3,4.9,2.7l83.6-50.6c2.7-1.6,4.8-5.5,4.8-8.6
		l-0.8-104.7c0-3.1-2.2-4.2-4.7-2.5l-9.2,6.2c-2.6,1.7-4.7,5.7-4.6,8.8l0.8,75.6c0,3.1-2.1,6.9-4.8,8.5l-6.5,3.7
		c-2.7,1.6-4.9,0.3-5-2.8l-1.1-74.6c0-3.1-2.3-4.3-4.9-2.7l-11,6.7c-2.7,1.6-4.8,5.5-4.8,8.6l0.8,73.8c0,3.1-2.1,6.9-4.8,8.5
		l-6.5,3.7c-2.7,1.6-4.9,0.3-5-2.8l-1-72.7c0-3.1-2.3-4.3-4.9-2.7L104,111.2z"/>
</g>
<g id="D">
	<g id="XMLID_2_">
		<path class="st1" d="M155.3,46.9c-1.6-4.2-24.7-21.3-39-23c-4-0.5-7.7,0-7.7,0c-2.6,0.4-4.7,1-6.1,1.6l-4.8,2.7l-48.8,27
			l52.2,31.1l47.7-28.7c1.4-0.8,2.8-1.7,4.2-2.5c1-1,1.9-2.7,1.9-2.7l0.8-2.4C155.8,50,155.9,48.5,155.3,46.9z M121.2,6.8
			c23.6,2.7,61.9,30.5,64.7,37.4c1,2.6,0.8,5.1,0.8,5.1c-0.2,0.9-0.6,2.2-1.4,3.6c-1.2,2.1-2.8,3.4-5.7,5.6
			c-4.7,3.5-6.1,4.3-6.1,4.3c-5,3-35.1,21.6-76.5,47.1L10.3,59.4l80.2-45.3l8-4.5c2.4-0.9,5.8-2.1,10.1-2.7
			C108.5,6.9,114.6,6,121.2,6.8z"/>
	</g>
</g>
<g id="R">
	<g>
		<g>
			<g>
				<path class="st1" d="M69.6,126.7c2.7,1.6,4.9,5.5,4.9,8.6l0,8.2c0,3.1-2.2,4.3-4.8,2.7L32,122.7c-2.6-1.6-4.8-5.5-4.8-8.7l0-7.5
					c0-3.1,2.2-4.3,4.8-2.7L69.6,126.7z M60.8,166.6c-1.2-2.9,0-3.9,2.6-2.2l13.6,8.7c2.6,1.7,7.3,3.1,10.4,3.1l1.8,0
					c3.1,0,5.7-2.6,5.7-5.7l-0.1-50.8c0-3.1-2.2-7-4.9-8.5L11.6,65.7c-2.7-1.6-4.9-0.3-4.9,2.8L7,170.8c0,3.1,2.2,7,4.9,8.5l9.9,5.8
					c2.7,1.6,4.9,0.3,4.9-2.8l-0.1-36c0-3.1,0.9-5.2,1.9-4.7s4.8,4.3,6,7.2l5.1,12.7c1.2,2.9,3.1,7.6,4.3,10.5l12.8,31.4
					c1.1,2.9,4.2,6.7,6.8,8.5l18,12.2c2.6,1.7,3.7,0.8,2.5-2.1L60.8,166.6z"/>
			</g>
		</g>
	</g>
</g>
</svg>
