<?xml version="1.0" encoding="utf-8"?>
<!-- Generator: Adobe Illustrator 24.2.1, SVG Export Plug-In . SVG Version: 6.00 Build 0)  -->
<svg version="1.1" id="Layer_1" xmlns="http://www.w3.org/2000/svg" xmlns:xlink="http://www.w3.org/1999/xlink" x="0px" y="0px"
	 viewBox="0 0 200 212.9" style="enable-background:new 0 0 200 212.9;" xml:space="preserve">
<style type="text/css">
	.st0{fill:#1D1D1B;}
	.st1{fill-rule:evenodd;clip-rule:evenodd;fill:#1D1D1B;}
</style>
<g id="W">
	<path class="st0" d="M104.1,101c-2.7,1.6-4.9,5.4-4.8,8.6l0.8,95.7c0,3.1,2.2,4.4,4.9,2.8l80-47.2c2.7-1.6,4.9-5.4,4.8-8.6
		l-0.8-97.6c0-3.1-2.2-4.3-4.8-2.6l-8.5,5.6c-2.6,1.7-4.7,5.7-4.7,8.8l0.8,70.3c0,3.1-2.2,6.9-4.9,8.4l-5.8,3.3
		c-2.7,1.5-5,0.2-5-2.9l-1-69.3c0-3.1-2.3-4.4-5-2.8l-10.2,6c-2.7,1.6-4.9,5.4-4.8,8.6l0.8,68.6c0,3.1-2.2,6.9-4.9,8.4l-5.8,3.3
		c-2.7,1.5-5,0.2-5-2.9l-1-67.6c0-3.1-2.3-4.4-5-2.8L104.1,101z"/>
</g>
<g id="D">
	<g id="XMLID_2_">
		<path class="st1" d="M153.2,40.8c-1.6-4-23.8-20-37.5-21.6c-3.9-0.5-7.4,0-7.4,0c-2.5,0.3-4.5,1-5.9,1.5l-4.7,2.5l-47,25.4
			l50.2,29.2L147,50.8c1.4-0.8,2.7-1.6,4.1-2.3c0.9-1,1.8-2.5,1.8-2.5l0.8-2.3C153.7,43.7,153.8,42.3,153.2,40.8z M120.4,3.1
			c22.7,2.5,59.6,28.6,62.2,35.1c1,2.4,0.8,4.8,0.8,4.8c-0.2,0.8-0.6,2.1-1.4,3.4c-1.2,2-2.7,3.2-5.5,5.3c-4.5,3.3-5.9,4.1-5.9,4.1
			c-4.8,2.8-33.8,20.3-73.6,44.2L13.7,52.6L90.8,10l7.6-4.2c2.3-0.9,5.6-1.9,9.7-2.5C108.2,3.3,114,2.4,120.4,3.1z"/>
	</g>
</g>
<g id="R">
	<g>
		<g>
			<g>
				<path class="st1" d="M70.5,115.6c2.7,1.6,4.9,5.4,4.9,8.6l0,7c0,3.1-2.2,4.3-4.8,2.7l-35.8-21.8c-2.7-1.6-4.8-5.5-4.9-8.6l0-6.3
					c0-3.1,2.2-4.4,4.9-2.8L70.5,115.6z M62.4,153.5c-1.2-2.9,0-3.9,2.6-2.2l12.6,7.9c2.6,1.7,7.4,3,10.5,3l1.3,0
					c3.1,0,5.7-2.6,5.7-5.7l-0.1-47c0-3.1-2.2-6.9-4.9-8.5L15.2,58.6c-2.7-1.5-4.9-0.2-4.9,2.9l0.2,95.3c0,3.1,2.2,6.9,4.9,8.5
					l9.1,5.2c2.7,1.6,4.9,0.3,4.9-2.8l-0.1-33.1c0-3.1,0.8-5.3,1.8-4.8c1,0.5,4.7,4.2,5.9,7.1l4.7,11.4c1.2,2.9,3.2,7.6,4.4,10.4
					l12,28.9c1.2,2.9,4.2,6.7,6.8,8.4L81.9,207c2.6,1.7,3.7,0.8,2.5-2.1L62.4,153.5z"/>
			</g>
		</g>
	</g>
</g>
</svg>
