<?xml version="1.0" encoding="utf-8"?>
<!-- Generator: Adobe Illustrator 24.1.2, SVG Export Plug-In . SVG Version: 6.00 Build 0)  -->
<svg version="1.1" id="Layer_1" xmlns="http://www.w3.org/2000/svg" xmlns:xlink="http://www.w3.org/1999/xlink" x="0px" y="0px"
	 viewBox="0 0 112.2 62.4" style="enable-background:new 0 0 112.2 62.4;" xml:space="preserve">
<style type="text/css">
	.st0{fill:#EB9957;}
	.st1{fill:#211E1E;}
	.st2{fill:#010101;}
	.st3{fill:#414042;}
	.st4{fill:#949598;}
	.st5{fill:#8D736C;}
	.st6{fill:#65686D;}
	.st7{fill:#51575C;}
	.st8{fill:#D2D3D4;}
	.st9{fill:#EC9957;}
	.st10{fill:#F7B078;}
	.st11{fill:#ECD5A7;}
	.st12{fill:#685550;}
	.st13{fill:none;}
	.st14{fill:#6464B5;}
	.st15{fill:#8B114E;}
	.st16{fill:#603913;}
	.st17{fill:#684225;}
	.st18{fill:#A56F3D;}
	.st19{fill:#808285;}
	.st20{fill:#BCBEC0;}
	.st21{fill:#58595B;}
	.st22{fill:#563722;}
	.st23{fill:#1D1D56;}
	.st24{fill:#2E2F72;}
	.st25{fill:#E29556;}
	.st26{fill:#603813;}
	.st27{fill:#FFB176;}
	.st28{fill:#7C4D2D;}
	.st29{fill:#8B5E3C;}
	.st30{fill:#3C2415;}
</style>
<path class="st0" d="M79.2,15.9c0,0,2.1,4.4-0.2,5.7s-8.1,2.3-8.1,2.3l-0.8,1.4c-0.2,0.1-0.4,0.3-0.6,0.4c-0.2,0-0.7,1.3-0.7,1.3
	s-0.4-0.3-0.2-0.7c0.1-0.3,0.2-0.7,0.2-1l-0.9,1.3l-0.1,0.5c0,0-0.3-0.6-0.2-0.8c0.1-0.2,0.6-1.4,0.6-1.4l-0.9,1.2l-0.2,0.3
	c0,0-0.5-0.7-0.2-0.9c0.3-0.2,1.2-0.9,1.2-0.9l-1,0.3l-0.4,0.4c0,0,0.3-1,0.5-1.1c0.3-0.2,0.7-0.3,1.1-0.4l1.8-1.3
	c0,0,7-1.6,6.9-2.2s1.1-2.3,1.1-2.3S79.1,14.7,79.2,15.9z"/>
<path class="st1" d="M95.6,54.1c-0.1,0.6,0.2,1.2,0.8,1.3c0.5,0.1,1.1-0.2,1.2-0.8l0,0c0.1-0.6-0.2-1.2-0.8-1.3c-0.1,0-0.3,0-0.4,0
	C95.9,53.3,95.6,53.6,95.6,54.1z"/>
<path class="st2" d="M95.9,54.2c-0.1,0.4,0.2,0.9,0.6,0.9c0.1,0,0.1,0,0.2,0c0.3-0.1,0.5-0.3,0.6-0.7c0.1-0.5-0.3-0.9-0.7-0.9
	c-0.1,0-0.1,0-0.2,0C96.2,53.5,95.9,53.7,95.9,54.2C95.9,54.1,95.9,54.1,95.9,54.2L95.9,54.2z"/>
<path class="st3" d="M87.4,48.4c0,0-0.3,1.2,0.1,1.2s8.5,4.7,8.5,4.7s0.6-0.2,0.3-0.6C95.9,53.3,87.4,48.4,87.4,48.4z"/>
<path class="st4" d="M87.4,48.4l9,5.6c0-0.3-0.1-0.6-0.3-0.8c-0.3-0.4-8.5-5.3-8.5-5.3L87.4,48.4z"/>
<path class="st4" d="M87.6,49.7c0,0.2-0.2,0.4-0.4,0.5H87c-0.2,0-0.4-0.2-0.4-0.4l0,0l0,0V39.3c0-0.2,0.1-0.5,0.4-0.5l0,0h0.1
	c0.2,0,0.4,0.2,0.4,0.4L87.6,49.7L87.6,49.7z"/>
<path class="st3" d="M87.3,39.1c-0.2,0.1-0.3,0.2-0.3,0.4v10c0,0.2,0.1,0.4,0.3,0.4s0.2-0.2,0.2-0.4v-9.9
	C87.6,39.4,87.5,39.2,87.3,39.1z"/>
<path class="st1" d="M78.7,54.3c0.1,0.6-0.2,1.2-0.8,1.3c-0.5,0.1-1.1-0.2-1.2-0.8l0,0c-0.1-0.6,0.2-1.2,0.8-1.3c0.1,0,0.3,0,0.4,0
	C78.4,53.4,78.6,53.8,78.7,54.3z"/>
<path d="M78.4,54.4c0.1,0.5-0.2,0.9-0.7,0.9c-0.1,0-0.1,0-0.2,0c-0.3-0.1-0.5-0.3-0.6-0.6c-0.1-0.4,0.2-0.9,0.7-0.9
	c0.1,0,0.1,0,0.2,0C78.1,53.8,78.4,54,78.4,54.4z"/>
<path class="st3" d="M86.9,48.5c0,0,0.3,1.2-0.1,1.2s-8.5,4.7-8.5,4.7s-0.6-0.2-0.3-0.5C78.4,53.5,86.9,48.5,86.9,48.5z"/>
<path class="st4" d="M86.9,48.6l-9,5.6c0-0.3,0.1-0.6,0.3-0.9c0.4-0.4,8.5-5.4,8.5-5.4L86.9,48.6z"/>
<path class="st1" d="M87.5,53.8c0.6,0.2,0.8,0.9,0.6,1.4c0,0.1-0.1,0.2-0.2,0.3c-0.3,0.4-0.7,0.5-1.1,0.3c-0.5-0.2-0.8-0.8-0.6-1.4
	c0.2-0.6,0.7-0.9,1.2-0.7C87.4,53.8,87.4,53.8,87.5,53.8z"/>
<path class="st2" d="M87.4,54.2c0.4,0.2,0.5,0.6,0.4,0.9c0,0.1-0.1,0.2-0.2,0.2c-0.2,0.3-0.5,0.3-0.8,0.2l0,0
	c-0.4-0.2-0.5-0.6-0.4-0.9c0-0.1,0.1-0.2,0.2-0.2C86.8,54.2,87.1,54.1,87.4,54.2z"/>
<path class="st4" d="M87,49.3c-0.1,2.4-0.1,4.8-0.1,5c0.2,0.5,0.6,0.1,0.6,0.1s0.2-2.5,0.3-5C87.5,49.2,87.2,49.2,87,49.3z"/>
<path class="st2" d="M86.7,49.4L86.7,49.4c-0.1,2.2-0.1,4.2-0.1,4.5s0.2,0.6,0.5,0.7l0.1-5.4C87,49.3,86.8,49.3,86.7,49.4z"/>
<path class="st2" d="M79.3,38.3c0,0,8,1.8,10.9,1s3.7-2.6,2.6-5s-3.7-0.5-3.7-0.5s-8.9,1.8-9,1.6C80.1,35.3,78.4,36.8,79.3,38.3z"/>
<path class="st2" d="M86.5,11.8c0,0-0.5-0.8,1.4-0.6s9.6-0.1,9.4,0.3s-2.4,1.1-2.7,3.1s-1.7,16.7-1.7,16.7s-0.1,2.4-0.9,2.2
	S86.2,33,86.2,33l-3.3,0.6L86.5,11.8z"/>
<path class="st1" d="M96.2,11.8c0-0.3,0.4-0.5,0.7-0.5c0.1,0,0.2,0.1,0.3,0.1c0.8,0.5-0.3,8.8-0.8,10.9c-0.6,2.1-1.6,7.7-1.8,9
	s-0.5,2.6-2.3,2.2c0,0-1.3-0.2-0.6-1.3c0.7-1.2,2.6-17.8,2.6-17.8C94.4,13.3,95.1,12.3,96.2,11.8z"/>
<path class="st2" d="M84.2,49.8l1.2,1.8c0,0-4,2.2-4,2.9c0,0.1,0.1,0.2,0.1,0.3c0.3,0.8,1,1.1,1.1,1.2c0.8,0.4,1.6,0.2,1.8,0.2
	c0.1,0,0.2-0.1,0.3-0.1c1.5-0.9,2.9-1.9,4.2-3.1L87,49.3L84.2,49.8z"/>
<path class="st2" d="M84.3,55.7c1.5-1.1,2.9-2.2,4.4-3.2c0.1,0.1,0.2,0.3,0.2,0.4c-0.7,0.7-2.5,2.4-4.3,3.2
	c-0.4,0.2-0.8,0.3-1.4,0.3c-0.1,0-1.1-0.2-1.6-1.2c-0.1-0.3-0.2-0.5-0.2-0.7c0,0.1,0.1,0.3,0.2,0.4c0.2,0.3,0.5,0.6,0.7,0.8
	C83,56.3,84.2,55.7,84.3,55.7z"/>
<path class="st2" d="M74.2,47.7l1,1.9c0,0-4.1,1.7-4.2,2.5c0.3,1.3,1.6,2.1,2.9,1.8c0.1,0,0.2-0.1,0.4-0.1c1.5-0.8,3-1.6,4.4-2.6
	c-0.5-1.2-1-2.4-1.4-3.6C76.2,47.6,75.2,47.6,74.2,47.7z"/>
<path class="st2" d="M73.8,53.6l4.5-2.9v0.5c-1.3,1-2.7,1.8-4.2,2.6c-1.1,0.5-2.4-0.1-2.9-1.3c-0.1-0.1-0.1-0.3-0.1-0.4
	C71.5,54,73.8,53.6,73.8,53.6z"/>
<path class="st5" d="M90.2,18.6l0.1-0.4c-0.5-1-0.8-2.1-1-3.2c-0.4-1.4-0.8-3.3-2.3-3.7h-0.6c-0.8,0.3-1.7,0.5-2.6,0.5
	c0,0-3.2,1.2-3.4,1.2c-0.5,0.3-1,0.7-1.3,1.2L79,14.7c-0.3,0.9-0.1,0.5-0.2,1.5c-0.1,0.7-0.1,1.4,0,2.2c0.1,0.1,0.6,0.1,0.7,0.2
	c0.7,2.6,1,5.3,0.8,8c-0.2,1.1-0.4,2.2-0.3,3.3c0,0,8.5,1.1,11.8-0.2c0,0,0.2-0.1,0.2-0.7S91.3,21.2,90.2,18.6z"/>
<path class="st6" d="M91.9,29.2c0,0,0.8,2.9-1.4,4.2c-2.1,1.4-8.7,5-8.7,5s3.7,6.3,5.3,10.2l0.6,1.3c0,0,0.2,0.2-1.4,1.1
	c-0.6,0.3-1.2,0.5-1.9,0.6c0,0-5.7-10.2-7.1-12.3c-1.5-2.2-0.4-2.6,0.6-3.7c1.3-1.3,5.8-5.6,5.8-5.6S90.9,30,91.9,29.2z"/>
<path class="st7" d="M72.7,36.5l5.2,12.3c-0.3,0.9-1.1,1.6-2.1,1.6c-0.7,0.1-1.3-1.2-1.3-1.2c0-1.2-2.8-5.9-4.5-8.8
	c-2.8-5.1-2.1-5.9-2-6.7s3.5-2,4.3-2.1s7.5-2.3,7.5-2.3l3.7,1l-5.7,5.6"/>
<path class="st8" d="M87.4,49.2c0,0-1.7,1.7-3.4,1.7l0.4,0.7c0,0,2.4-0.2,3.3-1.7L87.4,49.2z"/>
<path class="st8" d="M77.6,48.1c-0.1,0.2-0.4,0.9-1.2,1.2c-0.2,0.1-0.8,0.4-1.5,0.1c-0.2-0.1-0.4-0.2-0.5-0.3c0,0.1,0.1,0.3,0.2,0.5
	c0.2,0.5,0.6,0.7,0.8,0.8c0.2,0,0.9,0.1,1.5-0.3c0.7-0.4,0.9-1.1,1-1.3C77.8,48.5,77.7,48.3,77.6,48.1z"/>
<path class="st5" d="M85.2,11.8c0.1,0.8,0,1.6-0.3,2.3c-0.5,0.9-1.5,1.3-2.5,1c-0.7-0.2-1.2-2.2-1.2-2.2l1.1-0.4
	C83.2,12,84.2,11.8,85.2,11.8z"/>
<path class="st9" d="M84.2,10.6l0.1,2.9c-0.3,0.6-1,0.9-1.5,0.6c-0.1-0.1-0.2-0.1-0.3-0.2c-0.2-0.2-0.4-0.3-0.6-0.5l-0.2-2
	L84.2,10.6z"/>
<path class="st10" d="M78.3,4.7c0.2,2,0.5,3.9,1,5.9c0.3,0.9,1.7,2.9,3.8,1.6s2.2-4.1,2.2-4.1s1-1,0.5-1.9C85.1,5.1,84.3,4,83.5,3
	C83.3,3.1,78.3,4.7,78.3,4.7z"/>
<path class="st11" d="M78.4,5.1C78.3,5,78.2,5,78.1,5c-0.2-0.1-0.3-0.2-0.4-0.4c-0.8-1.4-0.7-2.7,0.2-3.5c0,0,0.2,0.5,1.7,0.2
	s5.2-0.8,6.4,1.2c0.7,1,0.8,2.3,0.2,3.3c0,0,1.4,1.8-1,2.8l0.2-0.9c0,0,0.8-0.1,0.2-1.4C85,5,84.4,6,84.5,6.6
	c-0.3,0-0.6-0.2-0.7-0.5c-0.2-0.7-0.3-1.5-0.8-1.6S79.8,5.5,78.4,5.1z"/>
<path class="st12" d="M79.1,14.2c0,0-1.1,3.6-1.9,4.4c-0.7,0.7-1.6,1.3-2.5,1.7c0,0,1.5,1,1.6,2c0,0.5,0,0.9,0.2,1.4
	c0,0,3.3-2,3.6-2.3S78.7,15.2,79.1,14.2z"/>
<path class="st0" d="M93,18.6c0,0,2.1,5.4-0.4,6S84,23.7,84,23.7l-1.2,1.2c-0.2,0.1-0.5,0.1-0.7,0.2c-0.2,0-1,1.1-1,1.1
	s-0.3-0.5,0-0.7c0.2-0.3,0.4-0.6,0.5-0.9l-1.2,1L80.2,26c0,0-0.2-0.6,0-0.8s1-1.2,1-1.2L80,24.9l-0.2,0.3c0,0-0.3-0.8,0.1-0.9
	s1.4-0.5,1.4-0.5h-1.2L79.6,24c0,0,0.6-0.9,0.8-0.9c0.3-0.1,0.7-0.1,1-0.1l2.1-0.7c0,0,7.2,0.4,7.2-0.3s-0.2-0.9-0.2-0.9
	C90.7,19.9,91.7,18.8,93,18.6z"/>
<path class="st12" d="M87.1,11.5c1.4,0.4,2.6,1.2,3.5,2.3c1.3,1.9,2.4,3.9,3.3,6c-0.2,0-0.4,0.1-0.6,0.2c-0.4,0.2-0.8,0.3-1,0.5
	c-0.1,0-0.6,0.1-1.1,0.5c-0.4,0.5-0.4,1.1-0.4,1.2c-0.7-1.1-1.4-2.2-3.8-6.5c-0.5-1.3-1.1-3-0.3-3.9C86.8,11.7,87,11.6,87.1,11.5z"
	/>
<line class="st13" x1="95.2" y1="28.3" x2="95.2" y2="26.3"/>
<path class="st14" d="M27.7,39.3c-0.1-0.1-0.1-0.1-0.2-0.1h-0.1v0.1C27.5,39.4,27.6,39.5,27.7,39.3z"/>
<path class="st14" d="M28.4,39.5h-0.2c-0.1,0-0.1,0.2,0,0.2h0.4C28.5,39.6,28.5,39.5,28.4,39.5z"/>
<path class="st14" d="M31.6,41.5"/>
<path class="st14" d="M25.3,48.6l-0.2,0.2c-0.1,0,0,0.1,0,0v-0.1C25.2,48.7,25.2,48.6,25.3,48.6z"/>
<path class="st14" d="M25.9,48L25.9,48c-0.1-0.1-0.1-0.1-0.2-0.1s-0.1,0-0.1,0.1s-0.1,0.1-0.1,0.2c0,0.1,0.1,0.2,0.2,0.1
	c0.1,0,0.1,0,0.1-0.1C25.8,48.2,25.9,48.1,25.9,48C25.9,48.1,25.9,48.1,25.9,48L25.9,48z"/>
<path class="st14" d="M26.2,47.8L26.2,47.8l-0.1,0.1h0.2v-0.1l0,0"/>
<path class="st15" d="M23.4,33.9"/>
<path class="st15" d="M32.8,25.5"/>
<rect x="24.3" y="29.2" class="st16" width="85.8" height="2.1"/>
<polyline class="st17" points="85.8,61.2 85.3,61.2 91.9,31.2 92.6,31.3 85.8,61.2 "/>
<polygon class="st18" points="92.6,31.3 85.8,61.2 94.6,31.3 "/>
<polyline class="st17" points="110.6,61.3 111.1,61.3 104.5,31.3 103.9,31.4 110.6,61.3 "/>
<polygon class="st18" points="103.9,31.4 110.6,61.3 101.9,31.4 "/>
<polyline class="st17" points="22.4,61.2 22,61.2 28.6,31.2 29.2,31.3 22.4,61.2 "/>
<polyline class="st18" points="31.2,31.3 29.2,31.3 22.4,61.2 "/>
<path class="st17" d="M47.3,61.3c0.2,0,0.3,0,0.5,0l-6.6-30c-0.2,0-0.4,0-0.6,0C42.8,41.3,45.1,51.3,47.3,61.3z"/>
<path class="st18" d="M40.6,31.3c2.2,10,4.5,20,6.7,30c-2.9-10-5.9-20-8.8-30C39.2,31.3,39.9,31.3,40.6,31.3z"/>
<path class="st19" d="M71.9,28.9c0,0.2,0.1,0.3,0.3,0.3h7c0.2,0,0.3-0.1,0.3-0.3l0,0c0-0.1-0.1-0.3-0.2-0.3h-0.1h-7
	C72.1,28.6,71.9,28.7,71.9,28.9z"/>
<path class="st19" d="M55.7,20.3l13.2,0.1c0.5,0,0.9,0.3,1.1,0.7l3,7.5c0.1,0.2,0,0.5-0.3,0.6c-0.1,0-0.2,0-0.2,0l-13.2-0.1
	c-0.5,0-0.9-0.3-1.1-0.7l-3-7.5C55,20.6,55.3,20.3,55.7,20.3z"/>
<path class="st20" d="M55.6,20.3l13.2,0.1c0.5,0,0.9,0.3,1.1,0.7l3,7.5c0.1,0.2,0,0.5-0.3,0.6c-0.1,0-0.2,0-0.2,0
	c-4.4,0-8.8,0-13.2,0c-0.1,0-0.3,0-0.3,0c-0.5-0.1-0.7-0.7-0.7-0.8l-3-7.4C54.8,20.6,55.1,20.3,55.6,20.3z"/>
<path class="st21" d="M45.6,28.8c-0.1,0.1-0.1,0.3,0,0.4l0,0c0.1,0.1,0.3,0,0.3-0.2l6.2-10.6c0.1-0.1,0.1-0.3,0-0.4l0,0
	c-0.1-0.1-0.3,0-0.3,0.2L45.6,28.8z"/>
<path class="st3" d="M45.8,28.8c0,0.2-0.3,0.4-0.5,0.4H32.6c-0.2,0-0.5-0.1-0.5-0.4l0,0c0-0.2,0.3-0.4,0.5-0.4h12.7
	C45.7,28.4,45.9,28.6,45.8,28.8L45.8,28.8z"/>
<path class="st3" d="M23.9,58c0,0.7,0.5,1.3,1.2,1.3s1.3-0.5,1.3-1.2s-0.5-1.3-1.2-1.3l0,0C24.5,56.8,24,57.4,23.9,58z"/>
<path class="st3" d="M24.4,58c0,0.5,0.4,0.8,0.8,0.9c0.5,0,0.8-0.4,0.9-0.8s-0.4-0.8-0.8-0.9l0,0C24.8,57.2,24.4,57.6,24.4,58z"/>
<path class="st3" d="M14.1,51.7c0,0-0.3,1.3,0.1,1.3s10.2,5,10.2,5s0.7-0.2,0.3-0.6S14.1,51.7,14.1,51.7z"/>
<path class="st4" d="M14.1,51.9L25,58c0-0.4-0.2-0.7-0.4-0.9c-0.4-0.4-10.3-5.8-10.3-5.8L14.1,51.9z"/>
<path class="st4" d="M14.3,53.1c0,0.3-0.2,0.5-0.5,0.5c0,0,0,0-0.1,0h-0.2c-0.3,0-0.5-0.2-0.5-0.5c0,0,0,0,0-0.1V41.9
	c0-0.3,0.2-0.5,0.5-0.5c0,0,0,0,0.1,0h0.2c0.3,0,0.5,0.2,0.5,0.4c0,0,0,0,0,0.1V53.1z"/>
<path class="st3" d="M14,41.5c-0.2,0.1-0.3,0.2-0.3,0.4v11.2c0,0.2,0.1,0.4,0.3,0.4s0.3-0.2,0.3-0.4V41.9
	C14.3,41.7,14.2,41.5,14,41.5z"/>
<ellipse class="st1" cx="2.5" cy="58.2" rx="1.2" ry="1.2"/>
<path d="M3.4,58.2c-0.1,0.5-0.5,0.8-1,0.8c-0.4,0-0.7-0.4-0.7-0.7c0-0.5,0.4-0.8,0.9-0.8C3,57.5,3.3,57.8,3.4,58.2z"/>
<path class="st3" d="M13.5,51.9c0,0,0.3,1.3-0.1,1.3s-10.2,5-10.2,5S2.4,58,2.8,57.6S13.5,51.9,13.5,51.9z"/>
<path class="st4" d="M13.6,52.1l-10.9,6c0-0.3,0.2-0.7,0.4-0.9c0.4-0.5,10.4-5.8,10.4-5.8L13.6,52.1z"/>
<path class="st1" d="M14.6,57.6c0.6,0.3,0.8,1,0.5,1.6L15,59.3c-0.3,0.6-1.1,0.8-1.7,0.4l0,0c-0.6-0.3-0.8-1-0.5-1.6V58
	C13.2,57.5,14,57.3,14.6,57.6z"/>
<path d="M14.3,58c0.4,0.2,0.5,0.7,0.3,1.1c-0.2,0.4-0.7,0.5-1.1,0.3c-0.4-0.2-0.5-0.7-0.3-1.1c0,0,0,0,0-0.1c0.2-0.4,0.6-0.5,1-0.4
	C14.3,58,14.3,58,14.3,58z"/>
<path class="st3" d="M13.6,52.4c-0.1,2.8-0.1,5.3-0.1,5.7c0.2,0.6,0.6,0.1,0.6,0.1s0.1-2.8,0.3-5.5C14.2,52.5,13.9,52.4,13.6,52.4z"
	/>
<path class="st4" d="M13.3,52.6L13.3,52.6c-0.1,2.5-0.1,4.7-0.1,5c0.1,0.4,0.3,0.7,0.6,0.8l0.1-6.1C13.7,52.3,13.5,52.4,13.3,52.6z"
	/>
<path d="M14,48.4"/>
<path d="M1.4,15c0.3-0.7,0.9-1.1,1.6-1.1c1,0,2.9,0.6,3.1,2.3S6.5,24.7,7,26.9s1.6,7.5,1.8,7.6s-2,0.1-2.3,0.9
	c-0.1,0.5-0.6,0.8-1.1,0.7C5.3,36.1-0.2,17.3,1.4,15z"/>
<path class="st1" d="M2,14.2c-0.3,0.2-0.5,0.5-0.6,0.8C0,17,4.2,32.1,5,35.4c0.5-0.7,2.3-0.7,2.2-0.8S6,29.3,5.5,27s-0.8-9-0.9-10.7
	C4.4,15,3,14.4,2,14.2z"/>
<path class="st1" d="M8.7,35.4c0,1-0.8,1.8-1.7,1.8l0,0c-0.9,0-1.7-0.7-1.7-1.6v-0.1c0-1,0.8-1.7,1.7-1.8l0,0c0.9,0,1.6,0.6,1.7,1.5
	C8.7,35.3,8.7,35.4,8.7,35.4z"/>
<path d="M23.8,39.8c0,0-9.6,1.3-13.2,0.7c-3.5-0.6-4.4-1.8-3.1-3.7c1.3-1.8,4.4-0.3,4.4-0.3s10.6,1.2,10.8,1.2
	C22.8,37.7,25,38.7,23.8,39.8z"/>
<path d="M8.2,35.4c0,0.7-0.6,1.2-1.2,1.2c-0.7,0-1.2-0.5-1.2-1.1v-0.1c0-0.7,0.6-1.2,1.2-1.2C7.7,34.2,8.2,34.7,8.2,35.4L8.2,35.4z"
	/>
<path class="st22" d="M17.2,51.8c0,0-2,1.1-2.1,2.4l-0.2,1.2c0,0,3.3,2.2,3.3,2.3s2.9,2.3,2.9,2.3c0.4-1,0.8-2,1-3.1
	c0-0.6-1.4-1.2-1.4-1.5c-0.1-0.5-0.3-0.9-0.5-1.3L17.2,51.8z"/>
<path class="st23" d="M25.5,41.3c-4.4,4.3-6.2,6.6-7,7.8c-0.1,0.2-1.6,2.5-1.6,2.5l0,0l3.4,2.9c0.8-1.7,1.8-3.3,3.2-4.6
	c2.2-2.2,3.5-8.4,3.5-8.4L25.5,41.3z"/>
<path class="st24" d="M27.6,52.1c0.9-2.9,3.7-10.4,4-11.1s1.2-1.3-2.1-3c-4.7-2.4-4.8-4.1-9.6-5.5c-1.9-0.6-5.6-1.4-10.4-0.4
	c0,0.7,0.1,1.6,0.6,2.6c0.9,2,2.7,3.2,5.7,4.2c7,2.2,9.9,3.1,9.9,3.1l-4,14.7c0,0,2.6,1.8,5.2,1.4"/>
<path class="st1" d="M16,15c0,0-4.8,4.7-5.1,5.5s0.1,2.3,1.4,3.4s4-8.8,4-8.8"/>
<path class="st25" d="M23,14.8l-1.4,2c0,0-1.5-2.2-3.5-1.9s-0.2,0-0.2,0l3.2-2.5L23,14.8z"/>
<path class="st26" d="M21.7,12.5l-1.6,1.1c0,0-0.6,0-0.6-1.3s-1.1-3-1-4.5s0.6-4,2.8-4.8s4.4-1.6,6.4,0s2.7,2.1,3.1,1.7
	c0.4-0.4-0.4,2.7-2.3,2.5C27.3,7.1,26,7.4,25,8c-0.6,0.3-1.1,0.6-1.7,1c-0.2,0.1-0.6,1.1-0.7,1.1s-0.2,0.9-0.3,1
	S21.7,12.5,21.7,12.5z"/>
<path class="st27" d="M28.1,6.6c0.3,0.7,0.4,1.5,0.2,2.2c-0.3,1.1-2.7,6.2-3.5,6.7s-3.2-0.8-3.6-1.6c-0.4-0.9-0.4-1-0.4-1
	c0.3-1,0.6-1.9,1.1-2.9c0.3-0.4,0.7-0.3,0.7-0.3c-0.5-0.3-0.7-1-0.4-1.5c0.4-0.9,1.2-0.8,1.3-0.1C23.5,7.9,27.4,7.2,28.1,6.6z"/>
<path class="st27" d="M31.8,26.1l1.2-0.3c0.7,0.9,1.8,1.3,2.9,1.2h0.2l1.2,0.8l0.5,0.6c0,0,0.6,0,0.3-0.5c-0.5-0.6-0.9-1.2-1.5-1.8
	c0.7,0.4,1.5,0.7,2.3,0.8c0.6-0.1,0.8-0.3,0.6-0.4s-2-0.5-2.3-1.1c0.6,0.3,1.3,0.5,2,0.6c0.8,0.1,1.2-0.2,0.7-0.5s-1.9-0.4-2.3-0.8
	l-0.1-0.1c-0.4-0.4,1.3,0.4,2.3,0.4s1.2-0.2-0.1-0.7s-2.3-0.9-2.3-0.9L32,23.5C31.7,24.3,31.7,25.2,31.8,26.1z"/>
<path d="M25.9,48.7"/>
<path d="M23.6,57.5L23.6,57.5L23.6,57.5L23.6,57.5L23.6,57.5L23.6,57.5C23.5,57.6,23.6,57.6,23.6,57.5z"/>
<path class="st28" d="M22.2,56.9c0,0-1.2,1.8-1,2.4c0.3,0.5,0.8,1,1.2,1.4l7.3,0.6c0,0,0.9-0.2,1-0.6c0.1-1.1-0.7-2.1-1.8-2.3
	C27.6,58.1,22.6,57.4,22.2,56.9z"/>
<path d="M20.5,32.7"/>
<path d="M20.7,23.4c-1.1-1.2-4.1-4.7-3.9-5.8c0.3-1.2,0.7-3.1,3.5-2.7l-0.4-0.2c-0.9-0.5-2-0.6-2.9-0.2C11.4,16.4,9.4,32,9.4,32
	c0,0,0.1,0.1,0.1,0.1c1.8,1,10.3,0.6,11,0.6c0-0.1-0.1-0.2-0.1-0.3C20.1,31.5,20.6,24.6,20.7,23.4z"/>
<path d="M30.3,23.7"/>
<path class="st1" d="M32.3,23.2l-6.6,0.7l-0.2-0.3c-3.3-5.7-4.5-7.9-4.7-8.1c0,0-0.1-0.1-0.2-0.2c-0.1-0.2-0.2-0.3-0.3-0.4
	c-0.3-0.1-1.1-0.3-1.9,0c-1.2,0.5-1.4,2-1.7,2.5c-0.5,0.9,1.8,4.6,2.7,6.1c0,0.1,0.1,0.1,0.1,0.2c0.4,0.4,0.7,0.7,0.8,0.9
	c0.7,0.7,1.1,1.2,1.8,1.8c0,0,0.1,0.1,0.1,0.1c0.2,0.3,0.5,0.5,0.8,0.6h0.1c0.9,0.1,1.8,0.1,2.7,0.1l6.3-0.7
	c-0.1-0.2-0.1-0.5-0.1-0.7C32.2,24.9,32.2,24,32.3,23.2z"/>
<path class="st3" d="M11.4,40.3c0,0-0.4,1.7,0.8,1.7c0.9,0,1.8-0.1,2.7-0.3c0,0,0.6-1.3,0-1.7C14.4,39.6,11.4,40.3,11.4,40.3z"/>
<rect x="24.3" y="29.2" class="st29" width="20.8" height="2.1"/>
<rect x="89.3" y="29.2" class="st30" width="20.8" height="2.1"/>
</svg>
