<?xml version="1.0" encoding="utf-8"?>
<!-- Generator: Adobe Illustrator 24.1.2, SVG Export Plug-In . SVG Version: 6.00 Build 0)  -->
<svg version="1.1" id="Layer_1" xmlns="http://www.w3.org/2000/svg" xmlns:xlink="http://www.w3.org/1999/xlink" x="0px" y="0px"
	 viewBox="0 0 439.3 443.8" style="enable-background:new 0 0 439.3 443.8;" xml:space="preserve">
<style type="text/css">
	.st0{fill-rule:evenodd;clip-rule:evenodd;fill:#211E1E;}
	.st1{fill-rule:evenodd;clip-rule:evenodd;fill:#031F6C;}
	.st2{fill-rule:evenodd;clip-rule:evenodd;}
	.st3{fill-rule:evenodd;clip-rule:evenodd;fill:#D5D5D6;}
	.st4{fill-rule:evenodd;clip-rule:evenodd;fill:#D2E9F6;}
	.st5{fill-rule:evenodd;clip-rule:evenodd;fill:#5B5B5B;}
	.st6{fill-rule:evenodd;clip-rule:evenodd;fill:#ED9870;}
	.st7{fill-rule:evenodd;clip-rule:evenodd;fill:#685550;}
	.st8{fill-rule:evenodd;clip-rule:evenodd;fill:#8D736C;}
	.st9{fill-rule:evenodd;clip-rule:evenodd;fill:#713D22;}
	.st10{fill-rule:evenodd;clip-rule:evenodd;fill:#878C90;}
	.st11{fill-rule:evenodd;clip-rule:evenodd;fill:#B3B7BA;}
	.st12{fill-rule:evenodd;clip-rule:evenodd;fill:#838383;}
	.st13{fill-rule:evenodd;clip-rule:evenodd;fill:#B7B7B7;}
	.st14{fill-rule:evenodd;clip-rule:evenodd;fill:#E3E2E2;}
	.st15{fill-rule:evenodd;clip-rule:evenodd;fill:#868082;}
	.st16{fill-rule:evenodd;clip-rule:evenodd;fill:#F3FAFF;}
	.st17{fill-rule:evenodd;clip-rule:evenodd;fill:#0F0F0F;}
	.st18{fill-rule:evenodd;clip-rule:evenodd;fill:#DC3545;}
	.st19{fill-rule:evenodd;clip-rule:evenodd;fill:#F7F7F7;}
	.st20{fill-rule:evenodd;clip-rule:evenodd;fill:#E8B588;}
	.st21{fill-rule:evenodd;clip-rule:evenodd;fill:#B58866;}
	.st22{fill-rule:evenodd;clip-rule:evenodd;fill:#DDA274;}
	.st23{fill-rule:evenodd;clip-rule:evenodd;fill:#A48263;}
	.st24{fill-rule:evenodd;clip-rule:evenodd;fill:#826448;}
	.st25{fill-rule:evenodd;clip-rule:evenodd;fill:#CEAB8B;}
	.st26{fill-rule:evenodd;clip-rule:evenodd;fill:#333333;}
	.st27{fill-rule:evenodd;clip-rule:evenodd;fill:#2EAE4A;}
	.st28{fill-rule:evenodd;clip-rule:evenodd;fill:#A0522D;}
	.st29{fill-rule:evenodd;clip-rule:evenodd;fill:#8C6E54;}
	.st30{fill-rule:evenodd;clip-rule:evenodd;fill:#D7E5EA;}
	.st31{fill-rule:evenodd;clip-rule:evenodd;fill:#EFC319;}
	.st32{fill-rule:evenodd;clip-rule:evenodd;fill:#452312;}
	.st33{fill-rule:evenodd;clip-rule:evenodd;fill:#C1603A;}
	.st34{fill-rule:evenodd;clip-rule:evenodd;fill:#404242;}
	.st35{fill-rule:evenodd;clip-rule:evenodd;fill:#1D1D56;}
	.st36{fill-rule:evenodd;clip-rule:evenodd;fill:#FFAA83;}
	.st37{fill-rule:evenodd;clip-rule:evenodd;fill:#2E2F72;}
	.st38{fill-rule:evenodd;clip-rule:evenodd;fill:#3B3635;}
	.st39{fill-rule:evenodd;clip-rule:evenodd;fill:#ECECEC;}
	.st40{fill-rule:evenodd;clip-rule:evenodd;fill:#DEF5FF;}
	.st41{fill-rule:evenodd;clip-rule:evenodd;fill:#878C90;stroke:#878C90;stroke-miterlimit:10;}
	.st42{fill:none;}
</style>
<g id="Laag_1">
	<g id="Layer_1_1_">
	</g>
	<g id="Layer_7">
	</g>
	<g id="Layer_6">
	</g>
	<path class="st0" d="M182.6,58.6l-34.2,20.3c0,0,0.2,1.7,0.6,1.2c-0.1,0.1-0.3,0.4-0.3,0.8c0,0.6,0.5,1.2,1.3,1.4
		c0.4,1,1.1,2.4,2,3.9c0.8,1.3,1.7,3,2,2.9c0.7-0.4,33.7-19.7,33.7-19.7L182.6,58.6z"/>
	<path class="st1" d="M161.9,94.9"/>
	<polygon class="st2" points="161.9,94.8 214.2,64.8 211.8,55.2 150,91.4 	"/>
	<path class="st3" d="M164.4,100c13.6-7.8,27.1-15.7,40.7-23.5c0.3-2.4,0.7-4.7,1-7.1L158,97.2C160.1,98.1,162.3,99.1,164.4,100z"/>
	<path class="st3" d="M203.2,115.4c-0.1,13.3-0.2,26.6-0.3,40c-2,0.5-4.1,1.1-6.1,1.6c-0.1-12.7-0.1-25.4-0.2-38.1
		C198.8,117.7,201,116.5,203.2,115.4z"/>
	<path class="st4" d="M196.8,150.4"/>
	<path class="st4" d="M196.8,156.9"/>
	<g>
		<path class="st5" d="M109.6,431.9c-0.3-0.4-0.4-1.1-0.2-1.4c0.2-0.3,1-1.4,1.3-1.6s1.6-1,2.1-1.1l8.9-2.3c0.5-0.1,1.1,0.2,1.2,0.7
			l0.8,3.1c0.1,0.5,0.7,1.2,1.1,1.4l8,4.4c0.5,0.3,0.4,0.5-0.1,0.5l-15.3-0.4c-0.5,0-1.4-0.1-2-0.2l-0.6-0.1
			c-0.5-0.1-1.4-0.3-1.8-0.4c-0.5-0.1-2-0.7-2.3-1.1L109.6,431.9z"/>
	</g>
	<polygon class="st5" points="137.5,402.1 140.8,402.6 150.4,407.8 155.6,413.5 155.2,416.7 152.4,418.5 150.1,418.3 144.9,414.8 
		139.4,411 138.3,410 	"/>
	<g id="Layer_3">
		<polygon class="st2" points="276.7,36 276.7,29 288.1,22.5 288.1,29.5 		"/>
		<polygon class="st6" points="326.8,128.4 327,127.4 331.3,124.5 332.4,124.1 335.6,124.1 339.2,122.4 338.9,124.1 337.6,127.9 
			335.4,129.1 334.5,130.3 331.8,131.1 329.2,131.5 327.8,131 		"/>
		<path class="st7" d="M174.7,214.8v21c0,2.7-1.2,4.8-3.5,6.1l-17.2,10c-2.2,1.3-3.4,0.5-3.4-2.2v-21c0-2.7,1.1-4.7,3.4-5.9
			l17.2-10.2C173.5,211.2,174.7,211.9,174.7,214.8z"/>
		<path class="st8" d="M174.8,174.5v21c0,2.7-1.2,4.8-3.5,6.1l-17.2,9.9c-2.2,1.3-3.4,0.5-3.4-2.2v-20.9c0-2.7,1.1-4.7,3.4-6
			l17.2-10.1C173.6,170.9,174.8,171.7,174.8,174.5z M103.1,230.6c0.4,0,0.7,0.1,1,0.3c0.9,0.4,1.5,1.1,1.8,2.1
			c0.1,0.5,0.2,1,0.2,1.6c0,0.1,0,0.2,0,0.4c-0.1,1.8-0.7,3.6-2,5.6c-0.8,1.3-1.8,2.5-2.9,3.4c-0.6,0.5-1.2,1-1.9,1.3l-20.5,11.8
			c-0.6,0.4-1.2,0.6-1.8,0.8c-1.1,0.3-2.1,0.3-3-0.1c-1.3-0.6-2-1.8-2-3.6c0-0.7,0.1-1.3,0.2-2c0.3-1.3,0.9-2.6,1.8-4
			c1.3-2.1,2.9-3.7,4.8-4.8l20.5-11.9C100.8,230.8,102,230.4,103.1,230.6z"/>
		<path class="st3" d="M105.8,233c-0.3-1-0.9-1.7-1.8-2.1c-0.3-0.1-0.6-0.2-1-0.3l38.5-22.1v3.9L105.8,233z M113,249.5l28.2-16.4v4
			l-26.7,15.4c-0.1-0.2-0.2-0.4-0.3-0.5C113.9,251.1,113.4,250.3,113,249.5z M120.7,264.6c0-0.1-0.1-0.2-0.1-0.2
			c-0.5-0.9-1-1.9-1.4-2.8l22.3-12.8v3.8L120.7,264.6z M141.2,204.3l-77.7,45v-3.8l77.7-45V204.3z M141.2,196.8l-77.7,44.9v-3.8
			l77.7-45.1V196.8z M83.1,270.7c-0.6-0.9-1.2-1.9-1.8-2.8c7.4-4.3,14.9-8.6,22.3-12.9c0.3,0.3,0.7,0.8,1,1.5
			c0.3,0.7,0.3,1.3,0.3,1.7C97.6,262.4,90.4,266.5,83.1,270.7z M90.6,282c-0.6-0.9-1.2-1.8-1.9-2.8c0-0.1-0.1-0.1-0.1-0.2
			c6.7-3.8,13.3-7.7,20-11.5c0.3,0.6,0.6,1.1,0.8,1.7c0.3,0.5,0.5,1.1,0.8,1.6C103.7,274.5,97.1,278.3,90.6,282z M73.8,276l-10.3,6
			v-3.8l8.8-5.1c0.1,0.2,0.2,0.5,0.4,0.8C73.1,274.5,73.5,275.3,73.8,276z"/>
		<path class="st9" d="M318.8,111.7c1.1-2,2.7-3.6,4.6-4.9c2-1.3,4.2-2.1,6.5-2.5c0.6,0,1.2,0,1.7,0c2.3,0,4.4,0.6,6.3,1.9
			c1.5,0.9,2.6,2.1,3.3,3.6c-0.1,0.3-0.3,0.7-0.5,1.1c-1.2,2-3.5,3.5-6.9,4.5c-1.8,0.6-4.1,0.5-6.9-0.3c-1.7-0.5-4-1.4-6.9-2.8
			C319.7,112.1,319.2,111.9,318.8,111.7z M328.6,121.4c-0.3-0.3-0.6-0.7-0.9-1c-0.1-0.1-0.2-0.2-0.4-0.4c1.2,0.1,2.4,0.1,3.7-0.1
			c1.8-0.2,3.1-0.6,3.9-0.8c3.4-1,6.2-2.7,7.9-3.9c-0.1,0.3-0.1,0.6-0.2,0.9s-0.1,0.7-0.1,1c-0.1,0-0.2,0.1-0.3,0.1
			c-0.1,0.1-1.2,0.6-3,1.6c-1.4,0.7-2.6,1.2-3.5,1.6c-0.4,0.1-1.9,0.3-4.5,0.7c-0.5,0.1-0.9,0.1-1.4,0.2
			C329.4,121.3,329,121.4,328.6,121.4z M139.6,281.6c-0.1,0.3-0.2,0.7-0.4,1.1s-0.4,0.8-0.6,1.2c-0.3,0.1-0.6,0.2-1.1,0.3
			c-2.9,0.6-6,0.2-6,0.2c-1.2-0.1-1.8-0.2-2.5-0.4c-0.6-0.2-2.1-0.8-5.8-4.7c-0.9-0.9-1.6-1.7-2-2.2c-0.2-0.2-0.5-0.6-0.7-1.2
			s-0.1-1.2,0-1.4c0.4,0.4,0.9,1.1,1.7,1.9c2.4,2.4,6.6,6.7,12,6.7C135.3,283.1,137.2,282.9,139.6,281.6z M139.4,272.8
			c1.1,2.1,1.1,3.5,1.1,4c0,0.4-0.1,0.7-0.1,0.9l-0.3,0.2l-0.3,0.2c-0.7,0.4-1.7,0.9-2.9,1.3c-1.7,0.5-3,0.6-3.4,0.6
			c-2.6,0.1-4.6-0.7-5.6-1.2c-3.1-1.4-5.1-3.5-6.1-4.8c-0.4-0.8-0.9-1.5-1.4-2.3c-0.1-0.1-0.2-0.3-0.3-0.4c0-0.3,0-0.6,0-1
			c0-0.2,0.1-1.1,0.6-2.1c0.1-0.2,0.4-0.7,0.9-1.4c0.2-0.3,1.8-2.2,3.8-2.9c2.3-0.8,4.7,0.1,6.7,1.4
			C132.2,265.4,136.6,267.6,139.4,272.8z"/>
		<path class="st10" d="M123.2,346.8c-3.5,0.1-6.5-0.6-9-2.2c-0.6-0.4-1.1-0.8-1.6-1.2c1.1-3.4,1.6-6.2,1.8-8.1
			c0.1-0.8,0.4-2.7,0.4-5c0-1.7-0.1-2.7-0.3-3.7c-0.2-0.9-0.4-1.7-0.6-2.2c-0.1-0.3-0.3-0.6-0.4-0.8c-0.1-0.2-0.3-0.5-0.4-0.9
			c-0.1-0.2-0.1-0.4-0.2-0.6c-0.2-0.7-0.4-1.4-0.5-2.2c-0.2-1-0.3-2-0.4-3c-0.1-1.5-0.1-3,0-4.5c1.1,0.4,2.2,0.6,3.4,0.7
			c2,0.2,4.1-0.1,6.2-1.1c2-1,2.9-2.6,2.7-5c-0.2-2.4-0.6-4-1.3-5c-0.7-1-1.3-1.6-1.9-2c-0.5-0.3-1.1-0.6-1.7-0.9
			c-0.2,0-0.3,0-0.3,0c-0.6-0.2-1.1-0.5-1.7-0.8c0.3,0,0.7,0,1,0c0.4,0.1,0.8,0.2,1.2,0.3c1.5,0.6,2.9,1.8,4.1,3.7
			c1.2,1.8,1.9,4,2.2,6.5c0.1,1,0.2,2,0.2,3c0,0.2-0.1,1.6-0.2,4.2c0,0.9-0.1,2-0.1,3.2c0,0.2,0,0.3,0,0.4L123.2,346.8z"/>
		<path class="st11" d="M151.5,294.4c0,2.1,0,4.3-0.7,7c-0.1,0.2-0.1,0.4-0.1,0.6c-0.5,1.8-1.3,4.6-3.1,8.7
			c-0.3,0.5-0.5,0.9-0.8,1.4c-0.1,0.3-0.3,0.5-0.4,0.8c-0.1,0.3-0.3,0.8-0.5,1.4s-0.5,1.4-0.7,2.3c-0.1,0.5-0.4,1.6-0.4,2.9
			c0,0.4,0.1,1.1,0.4,2.7c0.1,0.4,0.3,2.1,0.7,4.4c0,0.1,0,0,0,0c0.3,1.8,0.7,4.2,1.1,7.6c-1,1.7-2.3,3.2-3.7,4.7
			c-1.6,1.4-3.4,2.7-5.4,3.8c-2.1,1.2-4.5,2.1-7.2,2.9c-1.5,0.4-3,0.8-4.6,1.1c-1,0.2-2,0.3-3,0.3l2.5-26.8c0-0.1,0-0.2,0-0.4
			c0.1-1.2,0.1-2.3,0.1-3.2c0.1-2.6,0.2-4,0.2-4.2c0-1.1-0.1-2.1-0.2-3c-0.3-2.5-1.1-4.7-2.2-6.5c-1.2-1.9-2.5-3.1-4.1-3.7
			c-0.2,0-0.5,0.1-0.9,0c-0.5-0.1-0.8-0.3-0.9-0.4c-0.2-0.1-0.3-0.2-0.5-0.3c0.3-0.4,0.5-0.7,0.8-1.1c0.7-0.8,1.6-1.7,2.7-2.6
			c1.7-1.4,3.3-2.4,4.6-3.1c-0.2,0.7-0.3,1.3-0.5,2c0.5,0.1,1.3,0.2,2.2,0.2c0.9,0,1.7,0,2,0c2.7-0.1,5.4-1.7,5.7-1.9
			c1.8-1.2,3-2.5,3.7-3.5v-0.1c0,0,0-0.1,0-0.2s-0.1-0.3-0.3-0.6l-0.6-0.8c0.3-0.2,0.6-0.4,0.9-0.6c0.8-0.4,1.5-0.8,2.2-1.2
			c1.9-0.7,3.4-1.1,4.8-1.1c1.1,0,2.1,0.3,2.8,0.9c0.6,0.5,1.1,1.3,1.6,2.4c0.7,1.6,1.3,3.7,1.7,6.4
			C151.5,293.7,151.5,294,151.5,294.4z"/>
		<path class="st12" d="M429.5,233.6l1.3,0.9l-54.3,31.4l-25.2-14.5l-0.6-2l25.6,14.8c0.1,0,0.1,0.1,0.2,0.1L429.5,233.6z
			 M379.5,256c15.3-10.5,30.6-21,45.8-31.5c1.8,1,3.6,2,5.5,3.1L376.5,259l-27.8-16l-0.8-2.4c10.4,5.1,20.9,10.2,31.3,15.3
			C379.3,255.9,379.4,256,379.5,256z"/>
		<path class="st13" d="M379.5,256c-0.2-1.7-0.5-3.5-0.7-5.2l0.7-0.5l46.9-31.9l2.3-1.6l0.8,5.1l-3.9,2.7
			C410.2,235.1,394.9,245.5,379.5,256z M429.5,233.6c-17.6,10.3-35.3,20.5-52.9,30.8c0-1.8,0-3.6,0-5.4c18.1-10.5,36.1-21,54.2-31.4
			v2v3.2L429.5,233.6z M376.5,271v-5.2c18.1-10.4,36.2-20.9,54.2-31.3c0,1.7,0,3.4,0.1,5.1L376.5,271z"/>
		<path class="st14" d="M376.5,265.8v5.2v0.1l-0.2-0.1l-23-13.3l-2-6.3L376.5,265.8z M341.8,251c0.1-0.1,0.3-0.1,0.4-0.2l0.2,0.6
			L341.8,251z M378.6,255.6c-10.2-5-20.5-9.9-30.7-14.9l-1.7-5.5l30.7,14.6l1.9,1l0.7,5.2C379.2,255.9,378.9,255.7,378.6,255.6z
			 M350.7,249.4l-2-6.3c9.3,5.3,18.6,10.6,27.9,15.8c0,1.8,0,3.6,0,5.4c-0.1-0.1-0.2-0.1-0.3-0.2L350.7,249.4z"/>
		<path class="st15" d="M376.3,271l0.2,0.1L376.3,271L376.3,271z M379.5,256h-0.1C379.4,256,379.4,256,379.5,256L379.5,256z
			 M376.3,264.2l0.2,0.1L376.3,264.2L376.3,264.2z"/>
		<path class="st16" d="M344.3,226.9l43.6-29.7l24.6,11.8l0,0c-1.6-0.2-3.3-0.3-5.1-0.4c-12.3-0.8-18.5,0.3-18.5,3.3
			c0,1.2,0.3,3.2,0.8,6.1c0.5,2.9,1,4.8,1.3,5.5v3.8c-1.8,0.3-3.3,0.5-4.5,0.5c-6.2-0.4-9.8-0.6-10.9-0.5c-0.7,0-1.2,0.3-1.4,0.9
			c-0.2,0.4-0.2,1.4-0.2,2.9c0,1.8,1.1,6,3.3,12.7c0.8,2.6,1.6,4.8,2.2,6.5l-0.7,0.4l-1.9-0.9l-30.7-14.6l-2.1-6.7L344.3,226.9z
			 M364.1,229.5v-0.3c-0.1-1-0.6-1.9-1.5-2.6c-1.1-0.8-2.3-1.1-3.8-1.1s-2.7,0.4-3.7,1.1c-1,0.7-1.5,1.6-1.6,2.5v0.4
			c0.1,1,0.6,1.8,1.6,2.5c1,0.8,2.2,1.2,3.7,1.2c1.4,0,2.7-0.4,3.8-1.2C363.5,231.3,364,230.5,364.1,229.5z"/>
		<path class="st8" d="M319.2,133.7c0.1-0.1,0.2-0.1,0.2-0.2c2.4-1.9,4.9-3.6,7.4-5.1c0.2,0.4,0.4,0.8,0.8,1.2
			c1.1,1.4,2.5,1.9,4.2,1.5c1.4-0.4,2.6-1,3.6-2c0.5-0.4,0.8-0.8,1.1-1.3c0.9-1.6,1.8-3.3,2.6-5c1.1-0.4,2.3-0.7,3.5-1l3,1.6
			c0.5,0.2,1,0.5,1.3,1c3,2.3,4.4,5.5,4.1,9.6c0,0.1,0,0.4,0,0.7c-0.4,1.4-0.8,2.9-1.1,4.5c-0.3,1.4-0.6,2.8-1,4.2
			c0,0.1,0,0.3,0,0.4c-0.5,3-0.8,6-0.8,9.1c0,0.1,0,0.1,0,0.2l0.2,8.9c0.6,4.2,0.9,8.5,0.8,12.8c0,0.5-0.2,1.1-0.5,1.6l-3,2.7
			l-4.6,2.8c-3.8,1.5-7.4,2.2-10.8,2c-1.3-0.1-2.5-0.2-3.8-0.6c0.2-1.9,0.5-4.1,0.7-6.5c0.1-0.7,0.1-1.4,0.2-2.2
			c0.1-2.6,0.2-5.4,0.3-8.4c0-0.7,0-1.5,0-2.3c0.1-1.8,0.2-4.2,0.2-7c0-0.2,0-0.3,0-0.5c0-0.3,0-0.6,0-0.8c0-3.2-0.1-5.4-0.2-6.4
			c0-0.2,0-0.3,0-0.4c0-0.3,0-0.6-0.1-0.9c-0.1-1.2-0.3-2.3-0.6-3.4c0-0.2,0-0.3,0-0.4c-0.1-0.1-0.1-0.2-0.1-0.4
			c-0.1-0.4-0.2-0.9-0.4-1.3c-0.2-0.8-0.5-1.5-0.9-2.2c-0.3-0.9-0.8-1.8-1.6-2.8c-0.5-0.6-1.1-1.2-1.8-1.9c-0.7-0.5-1.4-1-2.2-1.5
			C319.6,134,319.4,133.8,319.2,133.7z M426,218.7c-15.7,10.7-31.4,21.4-47.1,32.1c-0.5-3.1-1.1-5.5-1.6-7c-1.6-5.2-3.3-8-3.3-12.7
			c0-1.5,0.1-2.5,0.2-2.9c0.2-0.5,0.7-0.8,1.4-0.9c1.1-0.1,4.7,0.1,10.9,0.5c1.2,0,2.7-0.2,4.5-0.5v-3.8c-0.4-0.8-0.8-2.6-1.3-5.5
			s-0.8-4.9-0.8-6.1c0-3,6.2-4.1,18.5-3.3c1.8,0.1,3.5,0.3,5.1,0.4c5.4,2.6,10.8,5.2,16.2,7.8c-0.1,0.1-0.3,0.3-0.4,0.4
			C427.4,217.7,426.7,218.2,426,218.7z"/>
		<path class="st0" d="M154,89.1c-42.7,25-85.3,49.9-128,74.9c-1.7,1.5-2.6,3.2-2.8,5.3v185l80.3-46.1c0.2,0.1,0.4,0.2,0.6,0.3
			c0.5,0.3,1.3,0.7,2.4,1.2c1,0.4,2.3,1.1,3.9,2.1c0.5,0.3,1.1,0.6,1.7,0.8c-0.1,1.5-0.1,3,0,4.5l-29,16.7l-0.8,0.5
			c-1.2,0.7-3.4,2-6.8,4l-3.6,2c-2.9,1.7-5.9,3.4-8.9,5.2c-4.4,2.6-8.8,5.2-13.1,7.7c-4.5,2.6-9.1,5.2-13.6,7.8
			c-2.5,1.5-5,2.8-7.6,4.1c-1.9,0.9-3.7,0.9-5.4-0.1c-1.6-1-3.2-1.9-4.8-2.9c-1.3-0.8-2.6-1.7-3.9-2.6c-0.2-0.2-0.5-0.3-0.8-0.5
			c-0.1-0.1-0.3-0.2-0.5-0.4c-1.3-1-2-2.2-2.1-3.8c-0.3-3-0.5-6-0.5-9c0-3.5,0-6.9,0-10.4c0-3.4,0-6.7,0-9.8c0-3,0-6.2,0-9.5
			c0-3.4,0-7,0-10.9c0-3.8,0-7.2,0-10.2c-0.1-3.4-0.1-6.9-0.1-10.3c0-3.6,0-7.2,0-10.9c0-2.6,0-5.2,0-7.8c0-2.7,0-5.4,0-8.1
			c-0.1-2.8-0.1-5.7-0.1-8.6c0-2.9,0-5.8,0-8.8c0-3.1,0-6.2,0-9.3c0-3.2,0-6.3,0-9.5c-0.1-3.4-0.1-6.7-0.1-10c0-3.5,0-6.9,0-10.4
			s0-7,0-10.6c0-3.7,0-7.4,0-11.1c0-3.8,0-7.6-0.1-11.4c0-1.9,0-3.9,0-5.9c-0.1-2.2,1-3.8,3.4-4.7l134.7-78.7
			c0.8,1.7,1.6,3.4,2.6,5.2C152,85.9,153,87.6,154,89.1z M187.7,69.4c-0.9-1.6-1.7-3.3-2.6-5c-0.9-1.8-1.6-3.6-2.4-5.3
			c-0.1-0.1-0.1-0.3-0.2-0.5l86.9-50.8c1.9-1.2,3.7-1.2,5.6,0l10.1,5.5c-1.1,0-2.8,0.6-4.9,1.7C249.4,33.1,218.6,51.3,187.7,69.4z
			 M272.3,224.7c-5.4,2.9-10.8,6-16.2,9.1c-4.8,2.8-9.6,5.6-14.4,8.5c-5.1,2.9-10.3,5.9-15.4,8.9c-4.8,2.8-9.7,5.7-14.5,8.5
			c-0.7,0.4-1.3,0.8-1.9,1.1c-1.2,0.7-2.4,1.4-3.5,2c-4,2.4-8,4.7-11.9,6.9l-43,24.7c0-0.3-0.1-0.7-0.1-1c-0.4-2.7-1-4.9-1.7-6.4
			c-0.1-0.4-0.3-0.7-0.4-1c-0.6-1-1.1-1.8-1.5-2.2c-0.1-0.1-0.3-0.2-0.4-0.3c-0.2-0.1-0.3-0.2-0.5-0.3
			c47.2-27.1,94.4-54.2,141.6-81.3c0,3.1-0.1,5.7-0.2,7.8c-0.2,1.9-0.7,3.6-1.7,5.2c-0.6,1-1.4,1.5-1.8,1.9
			C281.2,219.7,273.5,224,272.3,224.7z"/>
		<path class="st2" d="M146.9,283.2c-0.3-0.2-0.5-0.3-0.8-0.5c-0.2-0.1-0.3-0.1-0.3-0.2c-0.6-0.3-1.1-0.6-1.6-0.9
			c-0.6-0.4-0.9-0.7-1.3-1c-0.7-0.6-1.6-1.2-2.6-2c0.1-0.3,0.1-0.6,0.1-0.9s0-0.5,0-0.7c45.3-26,90.6-52,135.9-77.9v-40.6l12.2,39.1
			c0,0.4,0,0.8,0,1.2c0,1.1,0,2.1,0,3.1L146.9,283.2z M288.1,29.5v-7L276.7,29v7h-0.1v-7l-72,41.3L192.3,72
			c-0.6-0.4-4.1-2.2-4.7-2.6c30.9-18.1,61.8-36.3,92.7-54.4c0.8-0.5,2-1.2,3.5-1.5c0.5-0.1,1-0.2,1.5-0.2c1.7,0.7,2.7,2.8,2.9,6.5
			L288.1,29.5z M276.2,75.5l9.2-5.3c1,2.6,1.9,5.2,2.9,7.8c-0.1,4.1-0.1,8.2-0.2,12.3l-12,6.9L276.2,75.5z M288.2,119.6l-12,6.9
			c0-7.9,0.1-15.8,0.1-23.6c3.9-2.1,7.8-4.1,11.7-6.2C288,104.3,288.1,112,288.2,119.6z M288.2,144c-1.2,0.1-2.4,0.3-3.6,0.4
			c-2.2,0.2-4.3,0.5-6.5,0.7c-0.3-2.8-0.5-5.5-0.8-8.3c-0.2-1.6-0.4-3.2-0.6-4.8c3.8-1.6,7.7-3.2,11.5-4.8
			C288.3,132.8,288.2,138.4,288.2,144z M288.2,168.1l-3.2-9.9l3.2-1.8V168.1z M161.9,94.8L38.1,166v1.3l-4.6,2.7v168L95,302.8
			c0.2,0.2,0.5,0.3,0.8,0.5c1.2,0.8,2.5,1.6,3.7,2.4c1.3,0.9,2.6,1.7,4,2.5l-80.3,46.1v-185c0.2-2.1,1.1-3.8,2.8-5.3
			c42.7-25,85.3-49.9,128-74.9c0.4,0.5,1,1.1,1.8,1.7c0.2,0.2,0.9,0.6,1.7,1.4C158.9,93.4,160.4,94.3,161.9,94.8z M125.2,291.7
			c-1.5,1.1-3,2.1-4.2,3c-1,0.9-1.9,1.7-2.7,2.5c-0.4,0.5-0.8,0.9-1.2,1.3c-0.4-0.2-0.8-0.5-1.2-0.8c-1.3-0.8-2.6-1.6-4-2.4
			c-0.7-0.4-1.3-0.7-2-1l14.5-8.3l0.1,0.1L125.2,291.7z"/>
		<path class="st0" d="M226.2,266.7c-26.5,15.2-53,30.3-79.5,45.5c0.3-0.6,0.7-1.3,1-1.9c0.6-1.4,1.2-2.9,1.8-4.5
			c0.5-1.3,0.8-2.6,1.2-3.7c22.6-13,45.1-26,67.7-39L226.2,266.7z M90,337.2c7.8-4.6,15.7-9.1,23.5-13.7c0.1,0.2,0.2,0.4,0.3,0.6
			c0.1,0.2,0.2,0.4,0.3,0.5c0.2,0.6,0.4,1.2,0.4,1.8c0.3,1.4,0.5,2.7,0.5,4.1l-17.8,10.2L90,337.2z"/>
		<path class="st17" d="M150.7,302c0.3-1.2,0.5-2.6,0.7-4.1c0.1-1.3,0.1-2.4,0.1-3.5c2.2-1.3,40.2-23.2,42.5-24.5
			c0.4-0.2,17.2-9.9,17.6-10.1c2.3,1.1,4.6,2.2,6.8,3.2C195.8,276,173.3,289,150.7,302z M83,333.7c9.7-5.5,19.4-11.1,29.1-16.6
			c0,1.2,0.2,2.2,0.3,2.9c0.1,0.3,0.2,1.2,0.7,2.4c0.1,0.4,0.3,0.8,0.4,1.1L90,337.2L83,333.7z"/>
		<path class="st2" d="M178.6,307.3c-10.9,6.4-21.8,12.8-32.7,19.1c-0.3-1.9-0.6-3.4-0.8-4.5c-0.3-1.8-0.3-2.2-0.3-2.7
			c0-1.5,0.4-2.8,0.7-3.9c0.3-0.9,0.6-1.7,0.8-2.2l0.1-0.2c0.1-0.2,0.3-0.5,0.4-0.8c26.5-15.1,52.9-30.3,79.4-45.4
			c0,4.3,0,8.5,0,12.8 M112.6,343.5c-0.1,0.8-0.2,1.6-0.3,2.3l-15,8.6l-25.5-14.2l3.6-2c3.4-2,5.6-3.3,6.8-4l0.8-0.5l7,3.4l7.2,3.4
			l17.8-10.2c0,1.6-0.1,3.2-0.4,4.8C114.2,337.6,113.5,340.3,112.6,343.5z"/>
		<path class="st4" d="M272.4,146c-0.4-0.2-0.8-0.4-1-0.6c-0.5-0.4-1-0.8-1.4-1.1c0.5-0.9,0.8-1.9,0.9-3L272.4,146z M274.4,152.7
			l1.1,3.4l0.8,2.4v40.6l-135.9,77.8c0-1.4-0.4-2.8-1-4.1l40.4-23.3v-92.8V143l-7.1,4.1v-7.6L50.8,209.8v106.5l7.2-4.1v7.6
			l33.4-19.3c0.6,0.3,1.2,0.7,1.7,1s1.2,0.7,2,1.2L33.5,338V170l4.6-2.7v31.2l6.8-3.9v10.7l138.7-79.6c0.4,1.1,11.9,24.8,13.3,24.7
			V231l69.2-39.9v-38.9c1.9,0.5,3.3,0.5,4.2,0c0.8-0.4,1.8-0.8,2.8-1c0,0.1,0,0.2,0,0.4l0,0c0.1,0.3,0.2,0.6,0.4,0.9L274.4,152.7z
			 M276.2,104.8v21.7l-1,0.6l-4.4-14v-5.2L276.2,104.8z M266,81.5l10.3-6v21.8l-6.2,3.6c-0.1-0.1-0.2-0.1-0.3-0.2l-3.5-2.1l-0.3-1
			V81.5z M109.9,294.3c-1.5-0.7-2.9-1.3-4.4-1.9l15.9-9.2c0.3,0.2,0.6,0.5,1,0.8c0.5,0.4,0.9,0.8,1.4,1.2c0.1,0.2,0.2,0.3,0.3,0.4
			c0.1,0.2,0.2,0.3,0.3,0.4L109.9,294.3z"/>
		<path class="st3" d="M253.3,85.7l1.5,4.6l0.1,0.1l1.8,5.7l-31.2,18.1c-2.7,1.6-4.1,3.9-4.1,7.1v5.4c-4.8,4-7.1,9.3-7.1,16v28.1
			c0,8.2,3.6,10.2,10.8,6.1l27.3-15.7c4.8-2.8,7.9-6.5,9.5-11l0.3-0.2l1.3,1.3c0.9,0.4,1.7,0.7,2.5,0.9v38.9L196.8,231v-80.6
			c0.1,0,5.4-4.7,6.1-4.8v13.5l-0.1,60.8l2.6-1.4V113.1l15.4-8.8l0,0l0.8-0.5L253.3,85.7z M220.9,107.1v2.9l25.7-14.8v-3
			L220.9,107.1z M204.6,70.3c20.6-11.8,41.1-23.6,61.7-35.4c0.1,2.3,0.2,4.6,0.3,6.9c-11.1,6.5-22.4,13-34,19.5
			c-12.1,6.8-24.1,13.4-35.9,19.7C199.3,77.4,201.9,73.9,204.6,70.3z M44.9,194.6l-6.8,3.9v-31.2V166l123.8-71.1
			c0.4,0.1,0.8,0.3,1.1,0.4c0.6,0.4,8.1,1.4,8.1,1.4L44.9,169.1V194.6z M266,81.5v16.1l-3.2-10.4h-0.1l-1-3.2L266,81.5z M58,227.1
			v85.1l-7.2,4.1V209.8l121.8-70.3v7.6L58,213.3V227.1z M246.8,178.2c0,0.8,0.3,1.3,0.8,1.5c0.5,0.4,1.1,0.3,1.8-0.1
			c0.7-0.4,1.3-1.1,1.9-2c0.5-0.9,0.8-1.7,0.8-2.5s-0.2-1.4-0.8-1.7c-0.5-0.3-1.2-0.3-1.9,0.1c-0.7,0.4-1.3,1-1.8,1.9
			C247,176.5,246.8,177.4,246.8,178.2z M247.5,190.1c-0.5,0.9-0.8,1.8-0.8,2.7c0,0.8,0.3,1.3,0.8,1.6s1.1,0.3,1.8-0.1
			c0.7-0.5,1.3-1.2,1.9-2.1c0.5-0.8,0.8-1.6,0.8-2.4s-0.2-1.4-0.8-1.8c-0.5-0.3-1.2-0.3-1.9,0.1
			C248.7,188.5,248.1,189.2,247.5,190.1z M217.6,208v3l24.1-13.9V194L217.6,208z M241.8,182.5v-3l-24.1,14v3L241.8,182.5z
			 M196.8,150.4l-0.2-31.6l6.6-3.4l-0.3,30.2"/>
		<path class="st18" d="M65.3,170.2c1.2,0.7,1.9,2.1,1.9,4.1s-0.6,4.1-1.9,6.3c-1.2,2.2-2.8,3.8-4.5,4.8c-1.8,1-3.3,1.2-4.5,0.4
			c-1.2-0.7-1.9-2.1-1.9-4.1c0-2.1,0.6-4.2,1.9-6.3c1.2-2.1,2.7-3.7,4.5-4.8C62.5,169.7,64.1,169.5,65.3,170.2z"/>
		<path class="st19" d="M241,61.2v4.4L222.8,76v-4.4L241,61.2z M222.8,85.1v-4.4L241,70.2v4.4L222.8,85.1z M241,79v4.4l-18.2,10.4
			v-4.4L241,79z"/>
		<path class="st20" d="M104,245.5c-0.5-0.5-1-0.9-1.5-1c-0.5-0.2-0.9-0.3-1.3-0.5c1.1-0.9,2-2.1,2.9-3.4c1.3-2,1.9-3.8,2-5.6
			c1.8,1.8,2.7,3.3,2.7,4.6c0,1.5,0.3,3.2,0.9,5C107.3,244.2,105.4,244.5,104,245.5z M72.2,252.2c-0.2,0.7-0.2,1.4-0.2,2
			c0,1.9,0.7,3.1,2,3.6c0.9,0.4,1.9,0.4,3,0.1c0.1,0.3,0.3,0.7,0.4,1c0.2,0.7,0.4,1.4,0.4,2.2c0,1.5,0.1,3,0.2,4.4
			c-2.2,0-3.9,0.7-5.1,1.9c0,0.1-0.1,0.1-0.1,0.2c-0.3-0.5-0.5-1-0.8-1.5c-0.5-0.8-1-1.5-1.6-2.2c-0.8-1.1-1.1-2.4-1.1-3.9
			c0.1-0.8,0.2-1.6,0.4-2.3c0.5-1.9,1.1-3.6,1.9-5.3C71.8,252.4,72,252.3,72.2,252.2z M124.5,286.2l-0.1-0.1
			c-0.1-0.1-0.2-0.3-0.3-0.4c-0.1-0.1-0.2-0.3-0.3-0.4c-0.5-0.8-0.8-1.7-0.9-2.7l0.6,0.5l-0.4-2.4c1.1,1.3,1.6,2.6,1.8,3.9
			c0.1,0.4,0.1,0.8,0.2,1.1L124.5,286.2z"/>
		<path class="st21" d="M133.6,288c-0.2,0.1-0.5,0.2-0.6,0.3c-1.1,0.6-2.1,1.2-2.9,1.8c-1.5,1.1-2.6,2.4-3.2,3.8
			c-0.7,0-1.5-0.1-2.2-0.2l0.5-2c-0.2-1.8-0.5-3.7-0.7-5.5c0.2-0.1,0.4-0.3,0.6-0.4c0.8,0.7,2.9,2.3,5.9,2.5
			C132,288.3,132.9,288.2,133.6,288z M137.4,286.6l0.6,0.8c-0.1,0-0.3,0-0.5-0.1c-0.7-0.1-1.5,0-2.4,0.2c0.3-0.1,0.6-0.2,1-0.4l0,0
			c0.4-0.2,0.7-0.5,1.1-0.8L137.4,286.6z"/>
		<path class="st22" d="M135.1,287.5c0.9-0.3,1.7-0.3,2.4-0.2c0.2,0.1,0.4,0.1,0.5,0.1l0.6,0.7c-0.1,0-0.1,0.1-0.1,0.2
			c-0.1,0.1-0.1,0.1-0.1,0.2c-1.3,1.8-2.8,3.2-4.6,4.1c-1.6,0.8-3.4,1.3-5.5,1.4c-0.5,0-1,0-1.5,0c1.1-2.3,2.3-3.3,2.9-3.8
			c0.7-0.5,2-1.2,3.1-1.8c0.3-0.1,0.5-0.3,0.7-0.3c0.1,0,0.2-0.1,0.3-0.1c0.2,0,0.4-0.1,0.6-0.1c0.2-0.1,0.3-0.1,0.4-0.2
			C134.8,287.6,135,287.5,135.1,287.5z"/>
		<path class="st23" d="M134,369.6c-0.1,2.8-0.1,5.6-0.1,8.4c-0.2,7.6,0.9,15.2,3.2,22.8c0.1,0.4,0.2,0.9,0.4,1.3l1,7.9l0.1,1.6
			c0.7,6.3,1.3,12.9,1.8,19.8c-0.1,1.7-0.6,3.1-1.6,4l-5,0.3c-0.3-6.2-1.1-13.3-2.4-21.4c-0.2-1.3-0.4-2.7-0.7-4.1
			c-1.9-10.8-2.8-16.5-2.9-17c-0.9-6-1.4-11-1.4-14.8c0-5,0.6-10.7,1.9-17.1c0.1-0.6,0.3-1.3,0.4-1.9c1-5.3,1.8-10,2.3-13.9
			c1.5-0.5,3.5-1.2,5.7-2.3c1.7-0.9,3.7-1.8,5.8-3.7c1.2-1.1,2.9-2.8,4.5-5.3c0.8,5,1.2,8,1.3,9.2l0,0c0.1,0.8,0.1,1.6,0.1,2.4
			c0,0.7,0.1,1.4,0.1,2.1c0.1,1.2,0.1,2.5,0.2,3.7c0.2,3.4,0.4,6.7,0.6,10.1c0,1.8,0.3,3.5,0.9,5.1c2.5,8.3,4.4,16.8,5.8,25.3
			c1.2,7.6,1.2,15-0.1,22.2c-0.1,0.8-0.3,1.6-0.5,2.4c-0.2,0.1-0.5,0.2-0.8,0.2c-0.3,0.1-0.6,0.2-0.9,0.2c-0.4,0.1-0.8,0.1-1.2,0.2
			c-0.6,0-1.1,0-1.6,0c0-0.2,0.1-0.4,0.1-0.6c0,0,0-0.1,0.1-0.1c0-0.5,0.1-2.2,0.1-5c0-1,0-2.1,0-3.3c0-7.1-1.3-17-3.8-29.8
			c-1.7-8.2-2.8-15-3.4-20.1c-0.3-2.9-0.5-5.3-0.5-7.3c0-0.1,0-0.2,0.1-0.3c0.1-0.7,0.2-1.3,0.2-2c-1.3,1.2-2.6,2.3-3.8,3.2
			c-1,0.7-1.8,1.5-2.5,2.2c-0.8,0.9-1.4,1.9-1.8,2.8c-0.1,0.3-0.2,0.7-0.4,1c0,0.1-0.1,0.2-0.1,0.3c-0.1,0.3-0.2,0.7-0.2,1
			c0,0.1-0.2,1.2-0.6,3.3c-0.2,1.5-0.3,2.7-0.3,3.6C133.9,366.3,133.9,367.4,134,369.6z"/>
		<path class="st24" d="M140,390c-0.3-1.4-0.6-2.9-1-4.5c-0.3-1-0.5-2-0.8-3c-0.1-0.2-0.1-0.3-0.2-0.5c-1.3-4.5-2.6-9-3.9-13.4
			c0,0.3,0,0.6-0.1,1c-0.1-2.2-0.1-3.3-0.1-3.4c0-0.9,0.1-2.1,0.3-3.6c0.4-2.1,0.6-3.2,0.6-3.3c0.1-0.3,0.2-0.6,0.2-1
			c0-0.1,0-0.2,0.1-0.3c0.1-0.3,0.2-0.6,0.4-1c0.4-1,1-1.9,1.8-2.8c0.7-0.8,1.3-1.3,2.5-2.2c0.9-0.7,2.3-1.8,4-3.2
			c0,0.5,0,0.9-0.1,1.2c0,0.2-0.1,0.3-0.1,0.6c0,0.3,0,0.5-0.1,0.8c0,2,0.1,3.4,0.1,3.4c0.1,1.3,0.2,2.5,0.3,3.6
			c-0.3,0.7-0.6,1.7-0.9,3c-0.2,1.1-0.4,1.9-0.5,3.1c-0.2,1.4-0.3,2.4-0.4,3.5c-0.2,2.5-0.4,3.4-0.5,5c-0.3,2.6-0.3,3.5-0.6,10.9
			c-0.3,5.1-0.5,8-0.7,8C140.3,391.9,140.3,391.7,140,390z"/>
		<path class="st25" d="M121.5,425.5l1.2-0.8c0.3-1.7,0.5-3.4,0.6-5.2c0-0.2,0-0.4,0-0.7c0-0.6-0.1-1.1-0.1-1.6
			c-0.9-8.8-2.3-17.5-4.4-26.2c-1.9-7.6-3.7-15.3-5.5-23c-0.2-1.1-0.5-2.1-0.7-3.2c-1-6.1-1.1-12.5-0.3-19.1
			c0.1-0.8,0.2-1.6,0.3-2.3c0.5,0.5,1.1,0.9,1.6,1.2c2.5,1.6,5.5,2.3,9,2.2c1.1,0,2-0.2,3-0.3c2.1-0.3,3.9-0.8,5.1-1.1
			c-0.5,2.7-1.2,6.6-2.1,11.5c-0.6,3.4-0.9,5.1-1.1,6.3c-0.4,2.7-1.3,8.7-1.3,16.2c0,1.7,0,7.9,1.3,15.9c1,6.4,1.9,7.8,3.1,15.9
			c0.5,3,0.7,5.1,1.2,9.4c0.7,6.3,1.2,11.5,1.5,15.1c-0.3,0-0.7-0.1-1-0.1c-0.3-0.1-0.6-0.2-1-0.2c-0.4-0.1-0.7-0.2-1-0.2
			C124.5,434,121.4,430.8,121.5,425.5z M150.9,417.2c-2.8-0.3-5.1-1.8-7-4.7c-0.6-0.8-1.2-1.6-1.6-2.5c-0.2-0.3-0.4-0.6-0.6-1
			c-0.7-1.2-1.2-2.5-1.5-3.9l0.9-3.5c0-0.4,0-0.8,0-1.2s0-0.9,0-1.4c-0.1-1.3-0.2-2.6-0.3-3.9c0-0.2,0-0.3-0.1-0.5v-0.1
			c0-0.4-0.1-0.6-0.1-1.1c0-0.3-0.1-0.6-0.1-0.8c0-0.2-0.1-0.4-0.1-0.6c0-0.1,0-0.2,0-0.3c0,0,0-0.1,0-0.2c0-3.8,0.4-6.6,0.5-8.2
			c0.4-5,0.7-8.8,0.9-11.1c0.2-2.5,0.4-4.3,0.5-5.5c0.3-2.1,0.6-4,0.9-5.7c0.2-0.8,0.5-1.7,0.8-2.6c0.6,5.2,1.7,11.9,3.4,20.1
			c2.6,12.8,3.8,22.7,3.8,29.8c0,1.2,0,2.3,0,3.3c0,2.8-0.1,4.5-0.1,5C151,416.7,150.9,416.9,150.9,417.2z"/>
		<path class="st26" d="M155.2,416.7c-0.2,1.2-0.8,2-1.9,2.5c-1,0.4-2,0.4-2.9,0.2c-0.5-0.2-1-0.5-1.4-0.9c-3.3-3-6.8-5.3-10.6-6.9
			l-0.1-1.6l5.5,2.6c1.9,2.8,4.3,4.4,7,4.7c1,0.1,2,0,3.1-0.2C154.5,417,154.9,416.9,155.2,416.7z M138.6,435.4
			c-1.2,2-2.8,3.3-4.8,3.8c-1.7,0.3-3.6,0.1-5.7-0.6l-0.6-1.8c-1.3,0-2.6,0.2-3.8,0.7c-3.7,1.5-7.5,0.9-10.5-0.9
			c-0.9-0.5-2.8-2-3.9-5.3c0.2,0.3,0.5,0.7,0.8,1.1c0,0,0.8,0.9,1.9,1.5c2.6,1.4,6.3,1.3,6.3,1.3c3.5-0.1,8.5,0.1,14.9,0.4
			c0.3,0,0.6,0.1,0.9,0.1C135.7,435.6,137.2,435.5,138.6,435.4z"/>
		<path class="st27" d="M103.4,151.6c0,2-0.6,4.1-1.9,6.3c-1.2,2.2-2.8,3.8-4.5,4.8c-1.8,1-3.3,1.2-4.5,0.5s-1.9-2.1-1.9-4.1
			c0-2.1,0.6-4.2,1.9-6.4c1.2-2.1,2.7-3.7,4.5-4.8c1.8-1,3.3-1.1,4.5-0.4C102.7,148.1,103.4,149.5,103.4,151.6z"/>
		<polygon class="st2" points="249.6,62.6 249.7,62.7 249.5,62.7 		"/>
		<path class="st28" d="M245.4,60.2l4.6-2.8l4.1,2.4c-1.5,1-3,1.9-4.6,2.9C248.2,61.9,246.8,61,245.4,60.2z M285.5,41.6l-4.5,2.6
			l-4.3-2.5l4.5-2.6L285.5,41.6z"/>
		<path class="st29" d="M275.6,156.2l-0.1-0.1l0,0L275.6,156.2z M283.5,180.9c0,0-0.1-0.1-0.2-0.1h0.1L283.5,180.9z M291.1,205.6
			l0.1,0.1C291.2,205.7,291.1,205.6,291.1,205.6L291.1,205.6z M298.9,230.5L298.9,230.5l0.1,0.1
			C298.9,230.5,298.9,230.5,298.9,230.5z M306.6,255.2L306.6,255.2l0.1,0.1C306.7,255.3,306.6,255.3,306.6,255.2z"/>
		<path class="st10" d="M221.4,126.8v31.1c0,1.9,0.5,2.9,1.4,3.1l4.1,2.4c0.1,0.2,0.3,0.3,0.5,0.3l4.2,2.5c0.1,0.1,0.3,0.2,0.5,0.2
			c0.7,0.2,1.6,0,2.9-0.7l9.2-5.4v0.1l13.4-7.8l0,0l4.2-2.4c-1.6,4.6-4.8,8.3-9.5,11L225,177c-7.2,4.1-10.8,2.1-10.8-6.1v-28.1
			C214.2,136.1,216.6,130.8,221.4,126.8z"/>
		<path class="st7" d="M231.6,166.2l-4.2-2.5c-0.2,0-0.4-0.1-0.5-0.3l-4.1-2.4c-0.9-0.2-1.4-1.2-1.4-3.1v-31.1v-5.4
			c0-3.2,1.4-5.5,4.1-7.1l31.2-18.1l0.6-0.4c1-0.5,1.8-0.8,2.5-0.8c0.2,0,0.5,0.1,0.6,0.2h0.1l4.7,2.7c-0.1,0-0.2-0.1-0.3-0.1
			c0.1,0,0.2,0.1,0.2,0.1h0.1l1.1,0.6l3.5,2.1c-0.3,0-0.8-0.1-1.5,0.2c-0.6,0.2-0.9,0.6-1.1,0.8c-0.4,0.4-1.2,0.8-2.5,1
			c-3.4,2-6.9,3.9-10.3,5.9v-0.1c-0.2,0.3-0.5,0.7-1,1.1c-0.8,0.5-1.6,0.6-1.9,0.6v0.1l-16.4,9.4c-0.5,0.3-2.1,1.1-3.1,3.1
			c-0.9,1.8-0.7,3.5-0.6,4.1c0,12.1-0.1,24.2-0.1,36.3c0.1,0.6,0.2,1.3,0.3,2C231.6,165.5,231.6,165.8,231.6,166.2z"/>
		<path class="st30" d="M178.6,317.6v-0.2V317.6z"/>
		<path class="st4" d="M183.5,125.7"/>
		<path class="st4" d="M177.4,129.8c2.8,8.5,15.8,26,19.5,26.2c-0.1-12.4-0.2-24.8-0.3-37.2"/>
		<path class="st31" d="M364.1,229.5c-0.1,1-0.6,1.8-1.5,2.5c-1.1,0.8-2.3,1.2-3.8,1.2s-2.7-0.4-3.7-1.2c-1-0.7-1.5-1.5-1.6-2.5
			v-0.4c0.1-1,0.6-1.8,1.6-2.5c1-0.8,2.2-1.1,3.7-1.1c1.4,0,2.7,0.4,3.8,1.1c0.9,0.7,1.4,1.6,1.5,2.6V229.5z"/>
		<path class="st31" d="M261.9,116.7c0.8,0.5,1.2,1.4,1.2,2.6c0,1.4-0.4,2.8-1.2,4.1c-0.1,0.2-0.2,0.4-0.4,0.6
			c-0.8,1.1-1.6,1.9-2.6,2.5c-1.1,0.7-2.1,0.8-2.9,0.3s-1.2-1.4-1.2-2.8c0-1.3,0.4-2.6,1.2-4c0.8-1.4,1.8-2.4,2.9-3.1
			c1-0.6,1.8-0.8,2.6-0.5C261.7,116.6,261.8,116.7,261.9,116.7z"/>
		
			<ellipse transform="matrix(0.4339 -0.901 0.901 0.4339 -148.8841 186.2403)" class="st31" cx="73.8" cy="211.6" rx="3.4" ry="2.5"/>
		
			<ellipse transform="matrix(0.4339 -0.901 0.901 0.4339 -155.7217 182.2866)" class="st18" cx="67.2" cy="215.1" rx="3.4" ry="2.5"/>
		
			<ellipse transform="matrix(0.4339 -0.901 0.901 0.4339 -142.3634 189.862)" class="st27" cx="79.9" cy="208.2" rx="3.4" ry="2.5"/>
		<path class="st31" d="M84.3,162.9c0,2-0.6,4.1-1.8,6.3c-1.2,2.2-2.8,3.8-4.6,4.8c-1.8,1-3.3,1.2-4.5,0.5s-1.9-2.1-1.9-4.1
			c0-2.1,0.6-4.2,1.9-6.4c1.2-2.1,2.7-3.7,4.5-4.8c1.8-1,3.3-1.1,4.6-0.4C83.7,159.4,84.3,160.8,84.3,162.9z"/>
		<path class="st11" d="M117.3,258.5c-0.5-1-1-2-1.5-3l25.2-14.6v3.8L117.3,258.5z"/>
		<path class="st11" d="M84.7,273.6c7.1-4.1,14.3-8.3,21.4-12.4c0.2,0.5,0.4,1.1,0.6,1.6s0.4,1,0.6,1.5c-6.9,4-13.9,8.1-20.8,12.1
			C85.9,275.5,85.3,274.5,84.7,273.6z"/>
		<path class="st11" d="M76.5,282.2l-13.2,7.6V286l11.7-6.8c0,0.1,0.1,0.2,0.1,0.2C75.6,280.5,76.1,281.4,76.5,282.2z"/>
		<path class="st32" d="M342.8,115.2c-1.6,1.2-4.3,2.8-7.8,3.9c-3,0.9-5.6,1.1-7.4,1.1c-0.4-0.4-0.8-0.8-1.3-1.1
			c-0.3-0.2-0.5-0.4-0.8-0.6c-1.5-1.4-3.2-2.6-5.1-3.6c-0.2-0.4-0.4-0.8-0.6-1.2c-0.3-0.6-0.7-1.3-1-1.9c0.2,0.1,0.5,0.2,0.9,0.3
			c0,0,0.4,0.2,0.9,0.3c1.2,0.5,4.9,2.2,6.9,2.8c3,0.9,5.7,0.3,6.4,0.1c1-0.3,4.5-1.3,6.7-4.4c0.3-0.4,0.5-0.8,0.6-1
			c0.2,0.4,0.5,0.8,0.7,1.3c0.3,0.6,0.5,1.3,0.7,1.8C342.7,113.6,342.8,114.5,342.8,115.2z M331.3,124.5c-0.7-0.9-1.4-1.7-2.1-2.4
			c-0.1-0.1-0.2-0.2-0.2-0.3c-0.1-0.1-0.2-0.2-0.4-0.4c0.7-0.1,1.6-0.2,2.6-0.4c2.6-0.4,4-0.6,4.5-0.7c1-0.3,2.1-0.8,3.5-1.6
			c1.9-1,2.9-1.5,3-1.6c0.1,0,0.2-0.1,0.3-0.1c-0.1,0.2-0.1,0.4-0.1,0.6c-0.2,0.5-0.5,1.1-0.7,1.6c0,0,0,0,0,0.1c0,0,0,0.1-0.1,0.1
			l-2.4,3l-3.6,1.7l1-2.6c-0.6-0.3-1.2-0.4-1.8-0.2c-1.4,0.4-2.2,1.3-2.4,2.8L331.3,124.5z M140,280.1c-0.1,0.4-0.2,1-0.4,1.5
			c-0.9,0.5-2.6,1.3-4.9,1.5c-2.4,0.2-4.3-0.5-5.1-0.8c0,0-2.9-1.1-7.5-5.9c-0.8-0.9-1.6-1.8-1.6-1.8l0,0v-0.1c0-0.2,0-0.4-0.1-0.7
			c-0.1-0.8-0.1-1.6-0.2-2.3c0.5,0.7,1,1.5,1.6,2.5c3.3,4,7.1,6,11.3,6c2.7,0,4.9-0.6,6.5-1.7c0,0,0.1-0.1,0.3-0.2s0.4-0.2,0.5-0.3
			c0,0.3-0.1,0.6-0.1,1C140.2,279.4,140,279.9,140,280.1z M138.6,283.9c-0.4,0.8-0.9,1.6-1.4,2.4c-0.4,0.3-0.7,0.6-1.1,0.8
			c-0.4,0.2-0.7,0.3-1,0.4c0,0-0.1,0-0.2,0.1c-0.3,0.1-0.6,0.2-1,0.3c-0.1,0-0.1,0.1-0.2,0.1c-0.8,0.2-1.7,0.3-2.9,0.3
			c-2.9-0.2-4.9-1.8-5.7-2.5c-0.1-0.3-0.1-0.5-0.1-0.8c0-0.2-0.1-0.5-0.1-0.7c-0.1-0.5-0.3-1.1-0.6-1.8c-0.4-0.8-0.8-1.4-1.1-1.8
			c0.1,0.8,0.2,1.6,0.4,2.4c-0.2-0.1-0.4-0.3-0.6-0.4c-0.6-1.5-1.2-3-1.6-4.8c-0.1-0.4-0.2-0.7-0.3-1.1c0.8,1.1,1.6,1.9,2.1,2.4
			c2.1,2.2,3.9,4,6.7,4.8c0.6,0.2,1,0.3,1.6,0.3c3,0.1,5,0,6-0.2C138,284.1,138.4,284,138.6,283.9z"/>
		<path class="st33" d="M351.3,251.3l2,6.3l5.1,16.2l1.3,4.1l-4.5,2.5l-3.1-10.2l-1.1-3.7l-3.2,1.8L323.9,282l4,13.4l-4.5,2.5
			L311,258.3l-1.2-3.7l-3.2-10l-3.1-9.8c-5.1-16.2-10.2-32.3-15.3-48.5c-3.4-11.1-6.8-22.2-10.2-33.3c1.3,0.2,2.7,0.3,4,0.5v0.1
			l4.8,0.5c2-0.1,3.9-0.2,5.9-0.3l-4.5,2.6l-3.2,1.8l3.2,9.9l2.7,8.5l0.5,1.6c1-0.6,2-1.2,3-1.7c0,0.7,0.2,1.6,0.5,2.6
			c0.3,0.9,0.7,1.7,1,2.2c-1,0.5-2,1.1-3,1.6l5.8,18.4l0.5,1.7l5.4-3.2l2.3,4.3l-6.2,3.6l0.3,1l5.5,17.4v0.1
			c0.1,0.5,0.3,1.1,0.4,1.6c1.3-0.7,2.5-1.5,3.8-2.2c0.2,0,0.5,0.1,0.7,0.1c1.1,0.2,1.9,0,2.6-0.7c2.2-1.5,4.4-3.1,6.6-4.8l1.3,0.8
			h0.2c3-1.2,5.1-3,6.3-5.6l3.4-2l0.7,3.3l-0.1,1.8l-24,13.6l5.1,16.2l0.8,2.4l0.5,1.6l13.1-7.5l4.8,1.7c0.1,0.3,0.2,0.6,0.2,0.8
			l-14.5,8.2l-2.1,1.2l5.6,18.3l0.6,2l27-15.6l-6.3-20c-0.3,0.2-0.6,0.3-0.9,0.5c0.6-4.6,1.2-9.2,1.8-13.9c0.7,2.3,1.4,4.6,2.1,6.9
			l1.7,5.5l0.8,2.4l2,6.3L351.3,251.3z M266,81.5l-4.3,2.5l1,3.2h0.1l3.2,10.4l0.3,1l-1.1-0.6H265c-0.1,0-0.1-0.1-0.2-0.1
			c0.1,0,0.2,0.1,0.3,0.1l-4.7-2.7h-0.1c-0.2-0.1-0.4-0.2-0.6-0.2l-1.5-4.8l-1.2-3.9l-0.8-2.5L251.5,69l-1.9-6.4l-0.1-0.1l4.5-2.7
			l5.5,17.8l0.5,1.6l27-15.4l-2.7-8.5h0.1c-1.1-3.7-2.3-7.4-3.4-11.1c1.5-0.9,3-1.7,4.5-2.6c2.2,7.3,4.5,14.5,6.7,21.8
			c7.6,24.1,15.2,48.3,22.7,72.4c-0.8-0.1-1.6-0.1-2.4-0.2c-0.9,0-1.8,0.1-2.7,0.1c-0.9-2.9-1.9-5.9-2.8-8.8l-3-8.9l-3,1.8
			l-12.8,7.4l-11,6.4l1,3.1h0.1l2.5,8.1c-1.8,0.2-3.6,0.3-5.4,0.5l-2.8-8.8l-1.9-5.9v-17.5l4.4,14l0.5,1.6l27-15.5l-5.1-15.9
			l-1.3-4.1l-3,1.7l-5,2.9l-12,6.9l-5.4,3.1v-4.2c0-0.5,0-1-0.1-1.4l24.1-13.9l-6.3-20l-3,1.8l-9.2,5.3L266,81.5z M318.2,168.4
			c-1.9-0.3-2.8-0.4-4.1-0.6c-0.9-0.1-2.3-0.3-4-0.4c2.8-1.6,5.5-3.1,8.3-4.7c-0.8-2.4-1.6-4.9-2.6-7.4c-0.7-1.9-1.4-3.8-2.2-5.6
			c0.6,0.2,1.5,0.4,2.5,0.2c0.9-0.2,1.4-0.6,1.8-0.3c0.1,0.2,0.2,0.3,0.2,0.5c0.2,0.5,0.5,1,0.7,1.6c0,1.3,0.1,2.8,0.4,4.5
			c0.3,1.8,0.7,3.3,1.2,4.6c0,2.6-0.1,5.3-0.1,7.9C319.8,168.6,319.1,168.6,318.2,168.4z M307.1,141c-0.5,0.1-1.1,0.3-1.7,0.4
			c-0.6,0.1-1.3,0.2-1.8,0.3c0.9-0.5,1.7-0.9,2.6-1.4c0.2,0.1,0.5,0.3,0.7,0.4C307,140.8,307,140.9,307.1,141z M319,197
			c-0.9-1.4-1.8-2.9-2.7-4.3c2-1,3.9-2,5.9-3.1l3.2,1.2l2.8,0.4c0.4,2.3,0.8,4.6,1.3,6.9c-0.7-2-1.4-3.9-2.2-5.9
			c-0.9,0.5-1.8,1-2.7,1.5L319,197z"/>
		<path class="st34" d="M326.7,212.4c-0.7,1.4-1.5,2.6-2.5,3.8c-1.5,1.6-3.3,2.9-5.5,3.9c-1.3,0.7-2.5,1.6-3.4,2.8
			c-0.3,0.4-0.7,0.7-1.1,1l-1,0.6c-1,0.4-2.1,0.4-3.2-0.1c-0.5-0.2-0.9-0.4-1.4-0.8l-0.8-1.2c0-2.3,1.2-4,3.8-5c1.1-0.3,1.6-1,1.5-2
			l3.9-0.8l6.9-4.9l0.4-0.2l2.4,1.9L326.7,212.4z"/>
		<path class="st34" d="M331.8,238.6c0.1,0.9,0.4,1.5,0.6,1.8c0.1,0.1,0.4,0.4,0.9,0.8c1,0.9,1.2,1,1.3,1.1c0.5,0.3,0.8,0.4,1.2,0.6
			c0.7,0.3,1.2,0.4,1.6,0.5c0.8,0.2,1.5,0.3,2.1,0.4c0.8,0,1.7,0.1,2.5,0.1c0,1.3,0.1,2.6,0.1,3.9c-0.2,0.2-0.5,0.4-0.9,0.6
			c-0.2,0.1-0.5,0.2-0.9,0.3c-0.7,0.2-1.3,0.2-1.9,0.2c-1.7,0-3.3-0.5-4.8-1.7c-0.5-0.4-1-0.8-1.4-1.3c-0.7-0.7-1.6-1.2-2.6-1.5
			c-0.1,0-0.3,0-0.4-0.1c-0.9-0.1-1.7-0.3-2.4-0.6c-0.4-0.2-0.8-0.4-1.2-0.6l0.3-1.9C327.9,240.3,329.9,239.5,331.8,238.6z"/>
		<path class="st7" d="M316.6,138.3c0-0.1,0-0.2,0-0.3c0-0.2,0-0.3,0.1-0.5c0.1-0.5,0.2-1,0.3-1.4l2.2-2.4c0.5,0.1,1,0.1,1.5,0.2
			c0.6,0.4,1.3,0.9,2.2,1.5c0.5,0.4,1.3,1.1,2.2,2.1c0.7,0.9,1.3,1.5,1.7,2.6c0.1,0.4,0.2,0.6,0.5,2.2c0.2,1.1,0.4,2.1,0.5,2.7
			c0,0.9-0.1,2.3-0.1,3.9c0,0.2,0,0.3,0,0.4c0.1,1,0.2,3.2,0.2,6.4c0,0.2,0,0.4,0,0.8c0,0.2,0,0.3,0,0.5c0,2.9-0.1,5.2-0.2,7
			c0,0.8,0,1.6,0,2.3c-0.1,3-0.2,5.8-0.3,8.4c0,0.7-0.1,1.5-0.2,2.2c-0.2,2.4-0.5,4.6-0.7,6.5l-1.8-0.7l-0.1-0.1
			c-1.1-0.4-1.8-1-2.2-1.4c-0.8-0.7-1.1-1.4-2.4-2.6c-0.3-0.3-0.5-0.5-0.7-0.7l-0.4-1.6c0,0-0.4-2-0.5-2c-0.1-0.6-0.1-1.2-0.1-2
			c0.1-0.8,0.2-1.6,0.5-2.5c0.2-0.4,0.3-0.9,0.3-1.4l0.1-0.9l0.6-6.8l-1.7-9.3c-0.2-0.5-0.3-0.9-0.3-1.4c0-0.2-0.1-0.3-0.1-0.5
			c2.8-1,4.6-2.7,5.7-5.2c0.6-1.6,0.4-3-0.6-4C321.5,139.3,319.5,138.6,316.6,138.3z"/>
		<path class="st35" d="M332,229.1l0.4-10.3v-0.1l0.1-1.8l-0.7-3.3c-0.1-0.5-0.2-1.1-0.3-1.6c-0.1-1.1-0.3-2.1-0.4-3.2
			c-0.7-4.1-1.4-8.3-2.2-12.4l-0.7-5c1.3-0.3,2.6-0.6,3.9-1.1c1.7-0.7,3.2-1.4,4.6-2.4c0.6-0.4,1.1-0.7,1.6-1.1
			c0.7-0.6,1.2-1.2,1.5-1.6c0.2-0.6,0.3-1.1,0.5-1.7c0.2-0.5,0.3-1,0.5-1.5c1.4-0.9,2.8-1.8,4.3-2.7c1.2-1.1,2.5-2.1,3.7-3.2
			c0.1,0.6,0.1,1.3,0.1,2.1c0,1.2-0.2,2.2-0.5,3.1l-1,2.8c-0.1,0.6-0.3,1.1-0.5,1.7v0.1c-5.6,7.8-8.7,12.5-9,14.1
			c-0.3,1.1-0.6,2.9-0.9,5.4c-0.4,3.1-0.8,7.2-1.1,12.3c0,0.1,0,0.3-0.1,0.4c-0.4,2.9-0.8,5.3-1.3,7.1c-0.1,0.5-0.3,1.4-1,2.3
			C333,228.3,332.4,228.8,332,229.1z M317.2,192.5l1.8,4.5c1.9,4.2,3.8,8.4,5.6,12.6c-0.2,0.1-0.3,0.2-0.5,0.3
			c-2.6-2.8-4.6-5.1-5.8-6.7c-0.6-0.7-1.4-1.8-3.2-3.9c-0.9-1.1-1.7-2.1-2.8-3.4c-0.6-0.7-1.1-1.3-1.4-1.7c-4.9-6-8.4-10.4-9.5-11.7
			c-0.2-0.3-0.8-1-1-2.1c-0.1-0.7,0.1-1.3,0.2-1.6c0.1-0.1,0.4-0.5,1-0.7c0.3-0.1,0.6-0.1,0.8,0c2.5,1.4,6.7,4.3,12.6,8.7l1.6,4
			L317.2,192.5z"/>
		<path class="st35" d="M-118.9-41.6"/>
		<path class="st28" d="M245.4,60.2l4.1,2.5h0.2l1.9,6.4l0,0l4.7,14.9l0.8,2.5l1.2,3.9l1.5,4.8c-0.6,0-1.4,0.2-2.5,0.8l-0.6,0.4
			l-1.8-5.7l-0.1-0.1l-1.5-4.6l-5.1-16.6h0.1L245.4,60.2z M281,44.2l3.5,11h-0.1l2.7,8.5c-9.1,5.5-18.3,10.9-27.4,16.4
			c-0.3-0.7-0.5-1.4-0.8-2.2c8.2-4.7,16.5-9.5,24.7-14.2l-2.8-8.6h0.1l-4.2-13.5L281,44.2z M274.4,152.7c1.2-0.1,2.4-0.2,3.6-0.3
			c3.4,11.2,6.8,22.4,10.2,33.6l15.4,48.9l3.1,9.8l3.2,10l1.2,3.7l12.4,39.6l-3.7-0.3L308,260l-1.2-3.7l-4.5-14.2l-2.8-9
			c-0.1,0-0.1,0-0.1-0.1l-11.1-35.5l-12.2-39.1l-0.8-2.4L274.4,152.7z M272.4,146l-1.5-4.8c0-0.3,0-0.7,0-1v-9.7l1.9,5.9l2.8,8.8
			c-0.1,0-0.3,0-0.4,0c-0.3,0.4-0.6,0.8-0.9,1.2C273.5,146.4,272.8,146.2,272.4,146z M268.9,100.6c2.4-1.3,4.8-2.6,7.2-4
			c4.1-2.3,8.3-4.6,12.4-6.9c0.9-0.6,1.7-1.2,2.6-1.8c-0.9-3-1.9-6.1-2.8-9.1c-1.1-3.1-2.2-6.2-3.3-9.3c1.2-0.7,2.5-1.4,3.7-2.2
			c2.1,7,4.1,14,6.2,21.1l-24.1,13.9C270.2,101.7,269.5,101.2,268.9,100.6z M275.2,127.1l1-0.6l12-6.9l10.9-6.3l-5.1-16l0,0
			l-0.8-2.4l0,0l3-1.7l1.3,4.1l0,0l5.1,15.9l-27,15.5L275.2,127.1L275.2,127.1L275.2,127.1z M309.8,135.7c-1.2-0.1-2.4-0.1-3.6-0.2
			c-0.4-1.1-0.7-2.2-1.1-3.3l-4-12.6l3-1.8l3,8.9C308,129.8,308.9,132.8,309.8,135.7z M319,168.5l-1.1-0.2l1.2-0.7L319,168.5z
			 M322.5,181l-0.5-0.2l-1-1.1l1.1,1.1L322.5,181z M310.3,167.5c-1.2-0.1-2.3-0.2-3.5-0.2c2.6-1.5,5.3-3.1,7.9-4.6l-3.7-11.5
			c0.9-0.2,1.8-0.4,2.7-0.6c0.3,0,0.6-0.1,0.8-0.1l0.3,1h0.1c1.3,3.8,2.6,7.6,3.8,11.4C315.9,164.4,313.1,166,310.3,167.5z
			 M299.1,142.6l5.7-3.1l1.4,0.8l-2.6,1.4C302.2,142.1,300.7,142.4,299.1,142.6z M294.4,176.5c-1,0.6-2,1.2-3,1.8
			c-0.1-0.2-0.1-0.5-0.2-0.7c-0.1-0.3-0.2-0.7-0.3-1c0.6-0.3,1.2-0.6,1.8-0.9c0.6-0.3,1.1-0.6,1.6-0.9c-0.1,0.2-0.1,0.6-0.1,1
			C294.2,176,294.3,176.3,294.4,176.5z M298.6,201.3l5.2-3l0.2,0.4l0.6,1.1l-5.4,3.2L298.6,201.3z M316.5,190.9l3.5-2.1
			c1,0.2,1.9,0.3,2.9,0.5c-1.9,1.1-3.9,2.1-5.8,3.2L316.5,190.9z M275.6,156.2l-0.1-0.1l0,0C275.5,156.1,275.6,156.2,275.6,156.2z
			 M291.1,205.6L291.1,205.6c0,0,0,0.1,0.1,0.1L291.1,205.6z M327.7,213.8c0.8-0.5,1.7-1.1,2.5-1.6l-5.8-18.5l3-1.8
			c0.7,1.4,1.3,2.7,2,4.1c0.2,2,0.5,4.1,0.8,6.2c0.3,2.2,0.7,4.2,1.1,6.2c0,1,0.1,2,0.2,3.1c0.1,0.7,0.2,1.4,0.3,2
			c-0.6,0.4-1.3,0.7-1.9,1.1c-0.7,0.4-1.5,0.8-2.2,1.2c0.2-0.2,0.5-0.6,0.7-1.1c0.1-0.2,0.1-0.3,0.2-0.5
			C328.3,214.1,328,214,327.7,213.8z M308.9,224.7c0.3,0,0.7,0,1.2,0.1s1,0.3,1.3,0.4c0,0-2.2,1.3-2.3,1.3l-2.2,1.3
			c-0.2-0.5-0.4-1.1-0.6-1.6v-0.1L308.9,224.7z M332.3,218.6L332.3,218.6v0.1V218.6z M355.2,280.4c-1.3-0.1-2.5-0.1-3.8-0.2
			c-1.2-3.9-2.5-7.9-3.7-11.8c1.1-0.6,2.2-1.2,3.3-1.9c0.5,1.8,1.1,3.6,1.6,5.4C353.5,274.7,354.3,277.6,355.2,280.4z M342.1,243.9
			c0.1-0.7,0.2-1.3,0.2-2c0.3-0.2,0.6-0.3,0.9-0.5c2.1,6.7,4.2,13.3,6.3,20c-9,5.3-18.1,10.6-27.1,15.9l-0.6-2l18.7-10.8l5-2.9
			l-3.2-10.2l-0.2-0.6c0,0,0,0,0.1,0v-3L342.1,243.9z M298.9,230.5l0.1,0.1L298.9,230.5L298.9,230.5z M306.6,255.2l0.1,0.1
			L306.6,255.2L306.6,255.2z M314.2,250.9l1.7-1l10.3-6l0.3,0.7l1.3,0.5l-13.1,7.5L314.2,250.9L314.2,250.9L314.2,250.9z"/>
		<path class="st6" d="M327.4,120c0.6,0.5,0.7,0.7,0.8,0.8c0.2,0.2,0.3,0.5,0.4,0.6c0.2,0.1,0.3,0.2,0.4,0.4
			c0.1,0.1,0.2,0.2,0.2,0.3c-0.3,0.7-0.8,1.2-1.6,1.4c-0.1,0-1.6-0.8-4.4-2.6c-1.2-0.7-2.1-1.3-2.8-1.8v-0.2v-4.1
			c0.6,0.2,1.1,0.5,1.5,0.6c2.9,1.4,3.6,2.3,3.8,2.8c0.1,0.1,0.1,0.3,0.2,0.3c0.1,0.1,0.1,0.2,0.1,0.3c0.1,0.1,0.2,0.2,0.4,0.3
			C326.6,119.2,326.8,119.4,327.4,120z M312.5,134.8l2.3,0.2l1.8,0.2v2.3v0.5c0,0.1,0,0.2,0,0.3c-1.3,0.4-2.6,0.8-3.9,1.2l-0.3-4
			C312.5,135.3,312.5,135.1,312.5,134.8z M308.6,140.7l-0.7,0.2c0,0-0.7,0.2-0.8,0.2c-0.1-0.1-0.1-0.2-0.2-0.3l-0.6-0.4l-1.4-0.8
			l-5.7,3.1c-0.3,0-0.6,0.1-0.8,0.1c-0.3-0.5-0.4-1.1-0.5-1.5c0.3-0.3,0.8-0.7,1.3-1.1c0.1-0.1,0.6-0.5,1.1-0.8c0,0,2.4-1.5,5.2-1.6
			c0.5,0,1,0.1,1,0.1c0.2,0,0.4,0.1,0.5,0.1c0.7,0.2,1.3,0.6,1.5,1.1S308.7,140.1,308.6,140.7z"/>
		<path class="st36" d="M266,152.2c-0.8-0.2-1.6-0.5-2.5-0.9l-1.3-1.3l4.6-2.7c1.4-0.8,2.5-1.9,3.2-3.1c0.4,0.3,0.9,0.7,1.4,1.1
			c0.2,0.2,0.6,0.4,1,0.6c0.5,0.2,1.1,0.4,1.9,0.5c-0.3,0.4-0.5,0.9-0.7,1.3c0,0.1,0,0.2-0.1,0.4c0,0.2-0.1,0.4-0.2,0.6
			c-0.1,0.1-0.1,0.3-0.2,0.5v2c-1,0.3-2,0.6-2.8,1C269.3,152.8,267.9,152.7,266,152.2z M335.6,124.3c-0.1,0-0.3,0.1-0.4,0.3
			c-0.2,0.2-0.2,0.5-0.2,0.6h-0.3c-0.1,0-1.1-0.1-1.1-0.1c-0.1-0.2-0.3-0.4-0.6-0.6c-0.2-0.2-0.4-0.3-0.5-0.4c0-0.4,0.1-1,0.5-1.6
			c0.1-0.2,0.2-0.4,0.4-0.6c0.6-0.6,1.4-0.8,1.6-0.8c0.9-0.1,1.7,0.2,1.9,0.4C336.4,122.4,336,123.4,335.6,124.3z M329.2,122
			c0.7,0.7,1.4,1.5,2.1,2.4c0.4-0.1,0.7-0.2,1.1-0.3c1,0.7,1.1,0.9,1.1,1s-0.1,0-0.5,0.1c-0.3,0-0.4,0.1-0.5,0.1s-0.2,0.1-0.2,0.1
			s-0.1,0.1-0.2,0.1c-1,1-2.2,1.6-3.5,1.8c-0.3,0-0.5,0.1-0.8,0.1c-0.4,0-0.9,0-1.5,0c-0.8,0.1-1.6,0-2.3-0.2
			c-0.3-0.1-0.6-0.2-0.8-0.4c-1-0.5-1.6-1.3-1.9-2.4c-0.2-0.6-0.2-1.1-0.2-1.8l-1.8-0.9c0.4-0.9,0.7-1.7,1.1-2.5
			c0-0.1,0.1-0.2,0.2-0.3c0.7,0.5,1.6,1.1,2.8,1.8c2.8,1.8,4.3,2.6,4.4,2.6C328.4,123.2,328.9,122.7,329.2,122z M312.7,139.5
			c-1.4,0.4-2.7,0.8-4.1,1.1c0.1-0.5,0.1-1-0.1-1.5c-0.3-0.6-0.8-0.9-1.5-1.1c-0.4-0.1-0.9-0.2-1.5-0.2c-2,0-4,1.2-5.6,2.1
			c-0.3,0.2-0.6,0.4-0.9,0.6c-0.4,0.3-0.8,0.6-1.1,0.8c0-0.4,0-1,0.3-1.6c0.4-1,1.2-1.5,1.8-1.8c2.2-1.4,4.7-2.5,5.7-2.9h0.2
			l3.6-0.2h0.5l2.5,0.2c0,0.2,0,0.4,0,0.6L312.7,139.5z"/>
		<path class="st8" d="M269.5,100.5c0.1,0,0.8,0,1.2,0.5c0.1,0.1,0.2,0.3,0.2,0.4c0,0.5,0,1.1,0,1.7c0,0.3,0,0.5,0,0.7v4.2v5.2v17.5
			v9.7c0,0.4,0,0.7,0,1c-0.1,1.1-0.4,2.1-0.9,3c-0.7,1.2-1.8,2.3-3.2,3.1l-4.6,2.7l-0.3,0.2l-4.2,2.4l-13.4,7.8v-0.1l-9.2,5.4
			c-1.2,0.7-2.2,0.9-2.9,0.7c-0.2,0-0.4-0.1-0.5-0.2c-0.5-0.5-0.8-1.4-0.8-2.8v-36.5c0-0.8,0-2.6,1-4.4c1.4-2.5,3.7-3.5,4.3-3.7
			c3.7-2.2,7.4-4.3,11.1-6.5c1.1-0.6,2.1-1.2,3.1-1.8c0,0,2.9-1.6,3.1-1.7c4.1-2.3,6.8-3.8,10.1-5.7c1.1-0.6,2.8-1.6,4.8-2.7
			C268.7,100.6,269.1,100.5,269.5,100.5z M268.6,107.2c-0.2-2.5-1.1-3.4-2.9-2.6l-30,16.9c-1.7,1-2.6,2.8-2.7,5.5v24.1
			c0.4-1.1,0.8-2.2,1.3-3.4c0.3-0.7,0.6-1.4,1.1-2.7c0.6-1.5,0.9-2.3,1-2.4c0.8-1.9,1.4-3.1,2.7-4.2c0.7-0.5,1.5-1.2,2.6-1.2
			c1.4,0.1,2.3,1.2,3.5,2.4c1.1,1.1,2.8,2.5,5.3,3.8c1.6-2.3,2.5-4.4,3.1-5.9c0.9-2.4,1.2-4,2.3-4.4c0.9-0.3,1.9,0.5,3.5,1.6
			c1.3,1,1.2,1.2,3.7,3.5c0.3,0.3,1,0.9,1.8,1.7c0.5,0.5,0.8,0.8,1.2,1.2c0.6,0.7,1,1.1,1.8,1.9c0.1,0.1,0.2,0.3,0.4,0.4l0.5-0.3
			L268.6,107.2z"/>
		<path class="st3" d="M316.6,138v-0.5h0.1C316.6,137.7,316.6,137.9,316.6,138z M317.6,149.7c-0.4,0.2-0.9,0.3-1.3,0.4
			c-0.5,0.2-1.1,0.3-1.7,0.4c-0.3,0-0.5,0.1-0.8,0.1c-0.9,0.2-1.8,0.4-2.7,0.6c-6,1.3-12.1,2.1-18.4,2.6c-1.9,0.1-3.9,0.2-5.9,0.3
			l-4.8-0.5v-0.1l-4-0.5c-1.2-0.1-2.4-0.2-3.6-0.2c-0.3-0.1-0.6-0.2-0.9-0.3l-0.4-0.9c0-0.2,0-0.3,0-0.4c0.2-0.1,0.5-0.1,0.7-0.2
			c0.1,0,0.1,0,0.2,0c0.2,0,0.5,0,0.7,0c0.8,0,1.6-0.1,2.7-0.1c1.5,0,3.2-0.1,5.3-0.1c0.1,0,0.1,0,0.2,0c0.6-0.1,1.4-0.1,2.5-0.2
			c1,0,2.2-0.1,3.5-0.1c0.2,0,0.4,0,0.6,0c2.8-0.1,4.9-0.3,6.4-0.5c2-0.4,3.9-0.7,5.7-1.1c1.4-0.3,2.8-0.7,4.1-1
			c2-0.5,3.8-1.1,5.5-1.6c0.6-0.2,1.2-0.4,1.8-0.7c1.3-0.5,2.5-1,3.7-1.5c1.1-0.5,1.9-0.9,2.9-1.5s2.2-1.2,3.5-2.1
			c0.2,0.3,0.5,0.8,0.6,1.5c0.2,1.2-0.1,2.2-0.3,2.6C322.2,146.9,320.4,148.7,317.6,149.7z M150,287.6c-0.3-0.7-1.2-2.2-3-3.1
			c-0.7-0.3-1.3-0.5-1.8-0.6c0-0.1,0-0.4,0.1-0.8c0.2-0.4,0.4-0.6,0.5-0.6c0,0,0.1,0.1,0.3,0.2c0.3,0.1,0.6,0.3,0.8,0.5
			c0.1,0.1,0.3,0.2,0.4,0.3c0.1,0.1,0.2,0.1,0.4,0.2c0.4,0.4,0.9,0.9,1.3,1.3c0.2,0.2,0.5,0.6,0.7,1.1
			C149.9,286.7,150,287.3,150,287.6z M119.1,299.1c0.3,0.1,0.5,0.2,0.8,0.2c0.4,0.2,1,0.5,1.6,0.9c1.2,0.9,1.8,2.1,2.1,2.7
			c1,2.1,0.9,4.1,0.8,4.8c-0.1,0.9-0.2,1.8-0.8,2.8c-0.6,1-1.4,1.5-2.1,1.8c-2.1,1-4.1,1.3-6.2,1.1c-1.2,0-2.3-0.3-3.4-0.7
			c-0.6-0.2-1.1-0.5-1.7-0.8c-1.6-1-2.9-1.7-3.9-2.1s-1.8-0.8-2.4-1.2c-0.2-0.1-0.4-0.2-0.6-0.3c-1.4-0.8-2.7-1.6-4-2.5
			c-1.2-0.8-2.4-1.6-3.7-2.4c-0.3-0.2-0.6-0.4-0.8-0.5c-0.8-0.5-1.5-0.9-2-1.2c-0.5-0.3-1.1-0.7-1.7-1c-0.2-0.1-0.3-0.2-0.5-0.3
			c-0.9-0.4-1.8-0.9-2.7-1.5c-0.9-0.5-2-1.6-3.3-3.3c-1.3-1.7-2.5-3.6-3.8-5.7c-1.5-2.5-1.9-3.7-3-5.4c-0.2-0.3-0.7-1.1-1.3-2.2
			c-0.3-0.5-0.5-1-0.7-1.3c-0.3-0.7-0.6-1.2-0.8-1.7c-0.2-0.6-0.5-1.1-0.7-1.7c-0.2-0.5-0.5-1-0.7-1.5c-0.3-0.8-0.7-1.5-1-2.2
			c-0.1-0.3-0.3-0.5-0.4-0.8c-0.2-0.4-0.3-0.6-0.4-0.8c-0.3-1.6,0-3.1,0.8-4.6v-0.1c0.1-0.2,0.3-0.3,0.3-0.3c0.6,1,1.2,2.1,1.9,3.1
			c0.2,0.3,0.3,0.5,0.5,0.8c0.1,0.3,0.3,0.5,0.4,0.8c0.2,0.3,0.4,0.6,0.5,0.9s0.4,0.7,0.6,1.2c0.6,1.2,1.1,2,1.6,2.9
			c0.7,1.3,0.7,1.2,1.7,3c0.9,1.7,1.7,3.1,2,3.7c3,5.4,4.6,8.1,6.4,9.9c1.4,1.4,3,2.4,3.1,2.5c1,0.7,1.6,1,3.4,2
			c2.5,1.4,2.5,1.5,4.1,2.3c1.7,0.9,4,2.1,7.1,3.5c0.6,0.3,1.4,0.7,2.5,0.8c1.8,0.3,3.3,0,4.1-0.2c0.7-0.1,2.6-0.5,4.2-2.1
			C118.4,301.1,118.9,299.8,119.1,299.1z M103.4,245.7c0.5,1,0.9,1.9,1.4,2.9s1,2,1.4,3c0.1,0.3,0.3,0.8,0.6,1.5
			c0.3,0.8,0.8,1.8,1.4,3.2c0.4,0.9,0.8,1.9,1.2,3c0.4,0.9,0.8,2,1.3,3.1c0.1,0.2,0.2,0.3,0.2,0.5c0.4,1,0.8,2,1.2,2.8
			c0.5,1.2,1,2.2,1.4,3.2c1.2,2.7,2,4.2,2.4,4.5c0.5,0.6,1.6,1.6,3.4,3.1c0.7,0.5,1.4,1.1,2.1,1.5l1.6,4.5c0,0.4,0.1,0.9,0.3,1.4
			c0.1,0.4,0.3,0.8,0.4,1.2c-0.2-0.1-0.3-0.3-0.5-0.4c-0.2-0.2-0.5-0.4-0.7-0.6c-0.2-0.1-0.4-0.3-0.5-0.4c-0.2-0.1-0.4-0.3-0.5-0.4
			c-0.4-0.3-0.9-0.8-1.5-1.3c-0.5-0.4-1-0.9-2-1.5c-0.8-0.5-1.7-1.1-2.5-1.7c-0.9-0.6-1.9-1.9-3-3.7c-0.8-1.3-1.5-2.7-2.2-4.2
			c-0.3-0.6-0.6-1.2-0.9-1.8c-0.2-0.4-0.4-0.9-0.6-1.3c-0.5-1-0.5-1.2-1.4-3.4c-0.3-0.7-0.4-1-0.6-1.5c-0.3-0.7-0.4-1.2-0.6-1.6
			c-0.4-1-0.5-1.3-1.2-3c-0.5-1.2-0.9-2.3-1.2-3.1c-0.6-1.7-0.9-2.5-1-2.9c-0.3-0.9-0.4-1.4-0.5-1.8
			C102.1,249.6,102,248,103.4,245.7z"/>
		<path class="st37" d="M344.3,226.9l-0.2,1.7l-1.8,13.6l-0.2,1.8c-0.7,0-1.3,0-1.9-0.1c-0.2,0-0.4,0-0.6-0.1
			c-1.8-0.2-3.4-0.6-4.7-1.3c-0.5-0.2-0.9-0.5-1.2-0.8c-0.6-0.4-1-0.8-1.3-1.3c-0.4-0.6-0.6-1.2-0.6-1.8l0.2-9.5
			c0.9-0.6,1.7-2,2.3-4.2c0.5-1.8,1-4.2,1.3-7.1c0-0.1,0-0.3,0.1-0.4c0.4-5.1,0.7-9.3,1.1-12.3c0.3-2.4,0.5-4,0.9-5.4
			c0.8-3.1,2.8-8.3,9.2-13.8c-1.1,3.2-1.7,5.9-2.2,8.1c-0.1,0.4-0.1,0.8-0.2,1c-0.3,1.8-0.8,4.7-0.9,7.9c0,1.4-0.1,2.5,0.1,3.2
			c1.2,5.7,1.6,11.5,1,17.4L344.3,226.9z M321.1,179.7c0.3,0.3,0.7,0.6,1,0.9c0.1,0.2,0.3,0.3,0.4,0.5l2,1.4l0.1,0.1l1.8,0.7
			c1.2,0.3,2.5,0.5,3.8,0.6c3.4,0.2,7-0.5,10.8-2c-0.1,0.4-0.3,0.8-0.4,1.3c-0.2,0.7-0.3,1.3-0.4,1.9c-0.4,0.6-1,1.4-1.8,2.2
			c-2.3,2.2-4.8,3-6.2,3.4c-1,0.3-2.3,0.6-4,0.7c-0.9-0.2-1.9-0.4-2.8-0.6l-3.2-1.2l-2.1-0.8l-5.2-2c-5.9-4.4-10.1-7.3-12.6-8.7
			c-0.4,0.1-0.9,0.3-1.4,0.5c-0.3,0.1-0.5,0.7-0.5,1.8c0,0.6,3.5,5.2,10.5,13.8c0.4,0.4,0.7,0.9,1.1,1.3c1.8,1.8,2.9,3.5,3.1,3.8
			c1,1.3,3.3,4.1,9,10.6c-2.2,1.6-4.4,3.3-6.6,4.9c-1.5,0.3-3,0.6-4.4,0.9c-2.1-3.8-4.1-7.7-6.2-11.5l-2.3-4.3l-0.6-1.1l-0.2-0.4
			l-1.6-4l-0.9-1.5c-0.6-1.2-1.2-2.4-1.7-3.5c-0.8-1.6-1.6-3.1-2.5-4.6c-0.7-1-1.2-2.1-1.7-3.2c-0.7-1.5-1.1-3.2-1.4-4.8
			c-0.1-0.6-0.2-1.2-0.2-1.8c-0.1-0.7-0.1-1.4-0.1-2.1c0-1.8,1.1-3.3,3.2-4.6c2.2-1.3,4.9-2,8-2l3.1,0.5l2.6,0.4
			c2.6,0.4,5.1,0.8,7.7,1.2c0.3,0,0.6,0.1,0.9,0.1c0,0.5-0.1,1-0.3,1.6c-0.2,0.5-0.3,0.6-0.4,1.2c0,0.1-0.2,0.8-0.2,1.7
			c0,0.8,0.2,1.5,0.3,1.9c0.3,1,0.6,1.9,0.9,2.9c0.1,0.2,0.2,0.3,0.3,0.5C320.2,178.9,320.7,179.4,321.1,179.7z"/>
		<path class="st38" d="M342.2,247.8v3h-0.1c-0.1,0.1-0.3,0.2-0.4,0.2c-2.9,1.4-5.6,0.9-8-1.5c-0.4-0.5-0.7-1-0.9-1.6
			c0-0.1-0.1-0.2-0.1-0.3c-0.1-0.3-0.2-0.6-0.2-0.8l-4.8-1.7l-1.3-0.5l-0.3-0.7c-0.1-0.3-0.3-0.5-0.4-0.8c0.1,0,0.3,0,0.6,0.1
			c0.4,0.1,0.6,0.3,0.6,0.3c0.3,0.2,0.9,0.4,2.4,0.6c0.1,0,0.3,0,0.4,0.1c1,0.3,1.9,0.8,2.6,1.5c0.5,0.5,0.9,1,1.4,1.3
			c1.5,1.2,3.1,1.7,4.8,1.7c0.9,0,1.9-0.2,2.8-0.5C341.7,248,342,247.9,342.2,247.8z M310.7,225.6c-0.6-0.1-1.2-0.4-1.7-0.9
			c-0.4-0.8-0.8-1.5-1.2-2.3c0.2,0.4,0.6,1.1,1.3,1.5c0.1,0,0.3,0.2,0.7,0.4c1.2,0.5,2.2,0.5,3.2,0.1l1-0.6c0.4-0.3,0.7-0.6,1.1-1
			c0.9-1.2,2-2.1,3.4-2.8c2.2-1,4-2.3,5.5-3.9c1-1.1,1.8-2.4,2.5-3.8l1.6,1.3v0.1l0.7,0.8c-0.1,0.4-0.3,0.7-0.4,1
			c-1.2,2.6-3.3,4.4-6.3,5.6h-0.2l-1.3-0.8c-2.2,1.6-4.4,3.2-6.6,4.8c-0.7,0.7-1.5,0.9-2.6,0.7C311,225.7,310.8,225.6,310.7,225.6z"
			/>
		<path class="st39" d="M316.6,137.5v-2.3V134l2.8-0.5c-0.1,0.1-0.2,0.1-0.2,0.2l-2.2,2.4C316.9,136.6,316.8,137,316.6,137.5
			C316.7,137.5,316.6,137.5,316.6,137.5z M274.2,146.5c0.1-0.2,0.2-0.4,0.4-0.6c0.2-0.3,0.5-0.6,0.6-0.7c0.1,0,0.3,0,0.4,0
			c0.6,0,1.5-0.1,2.6-0.2c0.5,0,1-0.1,2.7-0.2c2.5-0.2,4.9-0.5,7.3-0.8c2.6-0.3,5.1-0.6,7.7-0.9c0.8-0.1,1.6-0.2,2.4-0.4
			c0.3,0,0.5-0.1,0.8-0.1c1.5-0.2,3.1-0.5,4.6-0.9c1.1-0.2,2.2-0.5,3.4-0.7c0.5-0.1,1-0.2,1.5-0.4c1.4-0.4,2.8-0.7,4.1-1.1
			c1.3-0.4,2.6-0.8,3.9-1.2c0,0,0,0,0.1,0c1.1,0.1,2.3,0.4,3.7,0.8c1.2,0.4,2.2,0.8,3,1.2c-1.5,1-2.8,1.8-3.8,2.3
			c-1.4,0.8-2.5,1.3-2.9,1.5c-0.8,0.4-1.8,0.9-3.2,1.4c-0.9,0.3-1.7,0.6-2.3,0.8c-0.8,0.3-1.9,0.7-3.3,1.1c-1,0.3-1.4,0.3-2.2,0.5
			c-2.2,0.5-3,1.2-4.4,1.5c-1.6,0.4-3.2,0.5-6.5,0.8c-2.1,0.2-3.8,0.3-5.9,0.3c-0.7,0-1.9,0-3.5,0.1c-1.1,0.1-1.9,0.1-2.5,0.2
			c-0.2,0-0.5,0-0.9,0.1c-2.8,0.2-4.1,0.2-4.7,0.2c-0.8,0-1.7,0-2.5-0.1c-0.1,0-0.3,0-0.7,0c-0.1,0-0.3,0-0.4,0.1
			c-0.1,0-0.2,0-0.3,0.1c-0.1,0-0.2,0-0.2,0.1c0-0.7-0.1-1.4-0.1-2.1c0.1-0.2,0.1-0.3,0.2-0.5s0.1-0.4,0.2-0.6
			c0.1-0.1,0.1-0.2,0.1-0.4C273.7,147.3,274,146.9,274.2,146.5z M137.5,286.8c-0.1-0.2-0.2-0.3-0.3-0.5c0.6-0.8,1-1.6,1.4-2.4
			c0.3-0.6,0.6-1.2,0.9-1.9c0.2-1.1,0.5-2.3,0.7-3.4c0.3,0.2,0.8,0.6,1.3,1c0.6,0.5,1.1,0.9,1.3,1c0.9,0.7,1.8,1.4,2.9,1.9
			c-0.1,0.1-0.2,0.3-0.2,0.6c-0.1,0.3-0.1,0.6-0.1,0.9c-0.9,0-1.6,0.2-2.2,0.3c-0.5,0.1-1.3,0.3-2.2,0.7c-0.5,0.2-0.8,0.4-1.3,0.6
			C139.1,285.8,138.4,286.2,137.5,286.8z M105.5,292.4c1.5,0.5,3,1.2,4.4,1.9c0.7,0.3,1.3,0.7,2,1c1.4,0.8,2.7,1.6,4,2.4
			c0.4,0.3,0.8,0.6,1.2,0.8c0.1,0,0.1,0,0.1,0.1c0.5,0.3,1.1,0.5,1.7,0.8c-0.7,2.3-2.3,3.9-4.9,4.9h-0.1c-1.6,0.5-3.2,0.7-4.6,0.5
			c-0.9-0.1-1.8-0.4-2.6-0.8c-1.4-0.4-3.8-1.6-7.4-3.6c-1.2-0.6-2.4-1.4-3.9-2.2c-1.1-0.6-2.3-1.3-3.5-2c-1.8-1.3-3.1-2.2-3.7-2.8
			c-0.6-0.5-2.6-3.8-6-9.9c-0.7-1.3-1.4-2.5-2-3.6s-1.1-2.1-1.6-2.9c-0.7-1.2-1.2-2.1-1.6-2.9c-0.3-0.6-0.6-1.1-0.7-1.3
			c-0.3-0.5-0.6-1-0.9-1.6c-0.1-0.2-0.3-0.4-0.4-0.6c-0.7-1.2-1.4-2.2-2-3.3c1.2-1.3,2.9-1.9,5.1-1.9c0.6,0,1.2,0,1.8,0.1
			c0.5,0.7,1,1.5,1.5,2.2c0.6,0.9,1.2,1.9,1.8,2.8c0.4,0.6,0.8,1.2,1.2,1.8c0.2,0.3,0.4,0.6,0.6,0.9c0.6,0.9,1.2,1.8,1.8,2.8
			c0.6,1,1.3,2,1.9,2.9c0,0.1,0.1,0.1,0.1,0.2c0.6,0.9,1.2,1.8,1.9,2.8c0.4,0.7,0.9,1.3,1.4,2c0.4,0.7,0.8,1.4,1.1,2.2
			c0.2,0.3,0.4,0.6,0.6,0.9l-0.1,0.2c1.5,0.8,3,1.5,4.5,2.3c2,1.2,4.2,2,6.4,2.6C104.9,292.2,105.2,292.3,105.5,292.4z M120.7,264.6
			c0.3,0.7,0.6,1.3,0.8,2c0.1,0.1,0.1,0.2,0.2,0.3c-0.3,0.4-0.6,0.9-0.9,1.4c-0.4,0.7-0.6,1.5-0.6,2.3c0,0.3,0,0.5,0,0.8
			c0,0.7,0.1,1.5,0.2,2.3c0.1,0.3,0.1,0.5,0.1,0.7v0.1c0.1,0.8,0.3,1.7,0.6,2.5c0,0.1,0.1,0.2,0.1,0.3c0.1,0.2,0.1,0.5,0.1,0.7
			c-0.5-0.4-1-0.7-1.4-1.1c0,0-1.8-1.3-3.1-2.5c-0.2-0.1-0.5-0.4-0.8-0.9c-0.3-0.3-0.4-0.6-0.5-0.8c-1.1-2-2-3.9-2-3.9
			c-0.4-0.9-0.9-2-1.4-3.2c-0.4-0.9-0.8-1.8-1.2-2.8c-0.1-0.2-0.1-0.4-0.2-0.5c-0.5-1.1-0.9-2.1-1.3-3.1c-0.5-1.1-0.9-2.1-1.2-3
			c-0.6-1.3-1-2.4-1.4-3.2c-0.3-0.7-0.5-1.2-0.6-1.5c-1-2.1-1.9-4-2.7-5.8c0.1-0.1,0.3-0.2,0.5-0.3c1.4-1,3.3-1.3,5.7-0.9
			c0.3,0.1,0.6,0.1,1,0.2c0.8,1.6,1.6,3.1,2.4,4.7c0.4,0.8,0.9,1.7,1.3,2.5c0.1,0.2,0.2,0.3,0.3,0.5c0.5,0.9,0.9,1.9,1.4,2.8
			c0.5,1,1,2,1.5,3c0.2,0.3,0.3,0.6,0.5,1c0.4,0.8,0.8,1.5,1.2,2.3c0.5,0.9,0.9,1.8,1.4,2.8C120.6,264.4,120.7,264.5,120.7,264.6z
			 M112.4,272.1L112.4,272.1"/>
		<path class="st40" d="M266.3,34.9c3.5-2,7-4,10.4-5.9c0,2.3,0,4.7,0,7c-3.4,1.7-6.8,3.5-10.1,5.2C266.5,39.1,266.4,37,266.3,34.9z
			"/>
		<path class="st41" d="M198.1,117.4c0.1-1.4-4.2-33.8-4.2-33.9L276.7,36h0.1l11.4-6.5h0.1l15-8.6v36.2l-10.9,6.2l-6.8-21.7
			l-4.2-2.5l-4.5,2.6l4.2,13.5H281l2.8,8.6l-23.9,13.9l-5.5-17.8l-4.1-2.4l-4.6,2.8l2.8,8.9h-0.1l5.1,16.6L221.9,104l-0.8,0.5
			l-15.4,8.8l-2.5,1.5L198.1,117.4z M241,61.2l-18.2,10.4V76L241,65.6V61.2z M192,120.7C192,120.8,192,120.8,192,120.7
			C192,120.7,191.8,119.3,192,120.7z M183.5,125.7L44.9,205.3v-10.7v-25.5l126.3-72.4C171.7,97.9,183.1,124.5,183.5,125.7z M241,79
			l-18.2,10.5v4.4L241,83.5V79z M222.8,85.1L241,74.6v-4.4l-18.2,10.5V85.1z M179.8,156.7L58,227.1v-13.8l114.6-66.2l7.1-4.1
			L179.8,156.7L179.8,156.7z M103.4,151.6c0-2.1-0.6-3.5-1.9-4.1c-1.2-0.7-2.8-0.6-4.5,0.4c-1.8,1-3.3,2.6-4.5,4.8s-1.9,4.3-1.9,6.4
			c0,2,0.6,3.4,1.9,4.1c1.2,0.7,2.7,0.6,4.5-0.5c1.8-1,3.3-2.6,4.5-4.8S103.4,153.6,103.4,151.6z M84.3,163c0-2.1-0.6-3.5-1.8-4.1
			c-1.2-0.7-2.8-0.6-4.6,0.4c-1.8,1-3.3,2.6-4.5,4.8s-1.9,4.3-1.9,6.4c0,2,0.6,3.4,1.9,4.1c1.2,0.7,2.7,0.6,4.5-0.5
			c1.8-1,3.3-2.6,4.6-4.8C83.7,167.1,84.3,165,84.3,163z M65.3,170.2c-1.2-0.7-2.8-0.5-4.5,0.5c-1.8,1-3.3,2.6-4.5,4.8
			s-1.9,4.3-1.9,6.3s0.6,3.4,1.9,4.1c1.2,0.7,2.7,0.6,4.5-0.4s3.3-2.6,4.5-4.8s1.9-4.3,1.9-6.3C67.1,172.3,66.5,171,65.3,170.2z
			 M65.2,216.7c0,0.8,0.3,1.2,0.9,1.4c0.4,0.3,0.9,0.3,1.6,0c0.6-0.4,1.2-1,1.6-1.9s0.6-1.7,0.6-2.5c0-0.7-0.2-1.3-0.6-1.7
			c-0.5-0.1-1,0-1.6,0.4c-0.7,0.4-1.3,1-1.6,1.8C65.5,215.1,65.2,215.9,65.2,216.7z M79.9,205.3c-0.6,0.4-1.2,1-1.6,1.9
			c-0.5,0.8-0.8,1.7-0.8,2.5c0,0.7,0.3,1.2,0.8,1.5c0.5,0.2,1,0.2,1.6-0.2s1.1-1,1.5-1.8c0.6-0.8,0.9-1.6,0.9-2.4
			c0-0.7-0.3-1.3-0.9-1.6C81,205,80.5,205,79.9,205.3z M74.1,208.8c-0.6,0.4-1.2,1-1.7,1.8c-0.6,0.9-0.9,1.7-0.9,2.6
			c0,0.7,0.3,1.2,0.9,1.4c0.5,0.2,1.1,0.2,1.7-0.2s1.1-0.9,1.5-1.6c0.6-1,0.9-1.8,0.9-2.6c0-0.7-0.3-1.2-0.9-1.5
			C75.2,208.4,74.7,208.4,74.1,208.8z M193.9,83.5l-22.7,13.2l12.3,29l14.6-8.3L193.9,83.5z"/>
	</g>
</g>
<g id="Laag_2">
	<polyline class="st42" points="58,213.3 58,319.8 179.8,249.5 179.7,144.8 179.7,144.8 58,213.3 	"/>
	<polygon class="st42" points="233,163.6 269.4,144.9 269.4,102.3 231.9,123.5 	"/>
	<polygon class="st42" points="200.4,225.4 264.4,190 264.4,80.5 200.4,116.2 	"/>
</g>
<line class="st42" x1="171.3" y1="410.8" x2="171.3" y2="411"/>
<path d="M171.2,401c0-0.1,0-0.1,0.1-0.2c0.1,0,0.1,0.1,0.1,0.2H171.2z"/>
<path d="M171.2,411v-0.2V411z"/>
</svg>
