<svg xmlns="http://www.w3.org/2000/svg" viewBox="0 0 51.81 48.33"><defs><style>.a{fill:#fff;fill-rule:evenodd;}</style></defs><path class="a" d="M55.17,55.25A18.91,18.91,0,1,1,35.8,24a16,16,0,0,0,12,5.3h0a16.14,16.14,0,0,0,6.66,6.64,16,16,0,0,0,5.32,11.93,18.73,18.73,0,0,1-4.59,7.39m4.57-22.49A11.26,11.26,0,0,1,54,29.69,11.13,11.13,0,0,1,51,24a11.57,11.57,0,0,1-3.2.46,11.28,11.28,0,0,1-8-3.3,11,11,0,0,1-2-2.63,23.69,23.69,0,1,0,27.4,27.31,11.25,11.25,0,0,1-5.48-13.09M57.17,23.4A3.4,3.4,0,0,0,61.25,18h0a3.4,3.4,0,0,0-4.08,5.45h0" transform="translate(-17.99 -17.27)"/><path class="a" d="M37.29,44.31a3.4,3.4,0,0,0,0,4.8h0a3.44,3.44,0,0,0,4.83,0,3.4,3.4,0,0,0,0-4.8h0a3.44,3.44,0,0,0-4.83,0m31.54-19a2.42,2.42,0,0,0-3.38.5,2.39,2.39,0,0,0,.49,3.36h0a2.42,2.42,0,0,0,3.38-.5,2.39,2.39,0,0,0-.49-3.36h0m-1,9.89A2.41,2.41,0,0,0,65,39.07h0a2.42,2.42,0,0,0,2.89-3.87h0m-28.37.47a2.41,2.41,0,0,0,0-3.4h0a2.43,2.43,0,0,0-3.42,0,2.4,2.4,0,0,0,0,3.4h0a2.43,2.43,0,0,0,3.42,0M28,40.3a2.4,2.4,0,0,0,0,3.4h0a2.41,2.41,0,0,0,3.43-3.4h0a2.43,2.43,0,0,0-3.42,0m20.55,7.23a2.4,2.4,0,0,0,0,3.4h0a2.43,2.43,0,0,0,3.42,0,2.39,2.39,0,0,0,0-3.4h0a2.43,2.43,0,0,0-3.42,0" transform="translate(-17.99 -17.27)"/></svg>