<?xml version="1.0" encoding="utf-8"?>
<!-- Generator: Adobe Illustrator 24.1.3, SVG Export Plug-In . SVG Version: 6.00 Build 0)  -->
<svg version="1.1" id="Layer_1" xmlns="http://www.w3.org/2000/svg" xmlns:xlink="http://www.w3.org/1999/xlink" x="0px" y="0px"
	 viewBox="0 0 58.4 58.2" style="enable-background:new 0 0 58.4 58.2;" xml:space="preserve">
<style type="text/css">
	.st0{fill:none;stroke:#FFFFFF;stroke-width:2.5;stroke-miterlimit:10;}
	.st1{fill-rule:evenodd;clip-rule:evenodd;fill:none;stroke:#FFFFFF;stroke-width:2.5;stroke-miterlimit:10;}
	.st2{fill:#FFFFFF;}
	.st3{fill:#FFFFFF;stroke:#FFFFFF;stroke-miterlimit:10;}
</style>
<polyline class="st0" points="15.2,56.7 1.3,56.7 1.3,1.7 41.3,1.7 41.3,17.2 "/>
<polyline class="st0" points="41.8,57.2 56.8,57.2 56.8,17.2 26.8,17.2 26.8,38.2 26.8,39.7 "/>
<path class="st1" d="M50.3,57.7"/>
<g>
	<g>
		<path class="st2" d="M39.3,41.7v14H17.7v-14H39.3 M41.8,39.2H15.2v19h26.6V39.2L41.8,39.2z"/>
	</g>
	<polyline class="st1" points="15.8,40.2 28.3,48.7 40.8,40.2 	"/>
</g>
<circle class="st3" cx="8.8" cy="5.7" r="2"/>
<line class="st0" x1="11.8" y1="5.7" x2="13.8" y2="5.7"/>
<line class="st0" x1="3.8" y1="5.7" x2="5.8" y2="5.7"/>
<circle class="st3" cx="33.8" cy="21.6" r="2"/>
<line class="st0" x1="36.8" y1="21.6" x2="38.8" y2="21.6"/>
<line class="st0" x1="28.9" y1="21.6" x2="30.9" y2="21.6"/>
<circle class="st3" cx="21.7" cy="53" r="1.2"/>
<line class="st0" x1="23.7" y1="53" x2="24.9" y2="53"/>
<line class="st0" x1="18.4" y1="53" x2="19.6" y2="53"/>
</svg>
