<?xml version="1.0" encoding="utf-8"?>
<!-- Generator: Adobe Illustrator 24.1.3, SVG Export Plug-In . SVG Version: 6.00 Build 0)  -->
<svg version="1.1" id="Layer_1" xmlns="http://www.w3.org/2000/svg" xmlns:xlink="http://www.w3.org/1999/xlink" x="0px" y="0px"
	 viewBox="0 0 71.9 81.3" style="enable-background:new 0 0 71.9 81.3;" xml:space="preserve">
<style type="text/css">
	.st0{fill:#FFFFFF;stroke:#FFFFFF;stroke-width:2.5;stroke-miterlimit:10;}
	.st1{fill:none;stroke:#FFFFFF;stroke-width:2.5;stroke-miterlimit:10;}
</style>
<path class="st0" d="M38.8,53.9c-1.8-1.9-3.5-3.8-5.3-5.6L24,38c-5.4,5.8-10.8,11.6-16.2,17.4v2h49.7C52,52,46.5,46.6,41,41.2
	l-7.3,6.9"/>
<polyline class="st1" points="20,65.1 14.2,79 7.1,79 13.5,65.1 "/>
<path class="st1" d="M4.5,65.1c18.7,0,37.4,0,56.1,0c0.6-2.4,1.2-4.7,1.8-7.1c-20.2,0-40.3,0-60.5,0l1.9,5
	C3.7,63.1,4.5,65.1,4.5,65.1z"/>
<path class="st1" d="M28.5,65.1V79c0.3,0.3,0.6,0.7,0.8,1c1.8,0,3.6,0,5.4,0c0.3-0.3,0.6-0.7,1-1c0-4.6,0-9.2,0-13.9"/>
<polyline class="st1" points="42.2,65.1 48.4,79.6 56.3,79.6 50.3,65.1 "/>
<line class="st1" x1="40" y1="23.8" x2="47" y2="23.8"/>
<path class="st1" d="M7.1,58V26.8c0-0.2-0.1-1.4,0.8-2.3C8.4,24,9,23.8,9.2,23.8c5.1,0,10.1,0,15.2,0"/>
<path class="st1" d="M24.2,28.3h15.6v-4.6c-0.3-2.1-1.7-3.4-2.9-3.3c-0.9,0.1-1.5,0.8-1.7,1.1c-0.6-0.8-1.1-1.6-1.7-2.4
	c-0.1-0.1-0.7-0.7-1.6-0.7s-1.4,0.6-1.5,0.7c-0.6,0.8-1.2,1.7-1.8,2.5c-0.1-0.2-0.7-1.1-1.7-1.2c-1.1-0.1-2.4,0.9-2.7,2.6
	C24.2,24.8,24.2,26.6,24.2,28.3z"/>
<path class="st1" d="M14.3,32.2"/>
<path class="st1" d="M21,32.2"/>
<line class="st1" x1="14.3" y1="32.2" x2="21" y2="32.2"/>
<line class="st1" x1="42.9" y1="34.4" x2="49.9" y2="34.4"/>
<circle class="st1" cx="34.3" cy="34.6" r="3"/>
<g>
	<path class="st1" d="M51.7,25.2c0.7,1.8-0.6,4.4-3.4,5.5c-1.3,0.4-3,0.9-3,0.9c-0.5,0.2-0.9-0.2-0.9-0.7c0,0,0.1-1.5,0.2-2.7
		c0.2-3.1,2.3-5.1,4.3-5C50,23.2,51.2,24.1,51.7,25.2z"/>
</g>
<path class="st1" d="M48.9,23.2c0.4-0.9,1-2.1,1.8-3.5c2.5-4.1,5.3-6.6,8.1-9C66.3,4.2,70.1,1,70.5,1.3c0.3,0.3-2.4,4.4-7.8,12.6
	c-2,3.1-4,5.9-7.5,8.8c-1.4,1.2-2.7,2-3.6,2.6"/>
<g>
	<path class="st1" d="M52.3,17.6c0,0,0.5,0.1,1.1,0.2s1.4,0.3,1.7,0.6c0.3,0.2,0.8,0.5,1.1,0.8c0.2,0.2,0.6,0.7,0.7,1
		c0.1,0.4,0.3,0.7,0.3,0.7"/>
</g>
<path class="st1" d="M58.3,58.1c0-10.6,0-21.1,0-31.7c0-0.3-0.1-0.6-0.3-0.9c-0.6-1.1-2.1-1.6-2.5-1.7H54"/>
</svg>
