<?xml version="1.0" encoding="utf-8"?>
<!-- Generator: Adobe Illustrator 24.1.3, SVG Export Plug-In . SVG Version: 6.00 Build 0)  -->
<svg version="1.1" id="Layer_1" xmlns="http://www.w3.org/2000/svg" xmlns:xlink="http://www.w3.org/1999/xlink" x="0px" y="0px"
	 viewBox="0 0 65 71" style="enable-background:new 0 0 65 71;" xml:space="preserve">
<style type="text/css">
	.st0{fill:#FFFFFF;}
	.st1{fill:none;stroke:#FFFFFF;stroke-width:2.5;stroke-miterlimit:10;}
	.st2{fill:#FFFFFF;stroke:#FFFFFF;stroke-miterlimit:10;}
</style>
<g>
	<path class="st0" d="M45.5,9.5v59h-43v-59H45.5 M48,7H0v64h48V7L48,7z"/>
</g>
<g>
	<path class="st0" d="M6.9,52.2l3.9,0.4l8.4,0.8l0.6,7.9l0.3,3.5l-6.8-6.5L6.9,52.2 M0,49c7.7,7.3,15.3,14.7,23,22
		c-0.5-6.7-1-13.3-1.4-20C14.4,50.3,7.2,49.7,0,49L0,49z"/>
</g>
<line class="st1" x1="41" y1="59.5" x2="41" y2="33"/>
<g>
	<path class="st0" d="M19.2,26.5l5.9,4.1l5,3.4l-2.2,6.5l-14.6-14H19.2 M20,24c-4.3,0-8.7,0-13,0l22,21l4-12C28.7,30,24.3,27,20,24
		L20,24z"/>
</g>
<path class="st1" d="M15,29.5c0,5.2,0,10.3,0,15.5c2.6-2.2,5.1-4.4,7.7-6.6"/>
<path class="st1" d="M19.5,25.5c3.8-3.2,7.6-6.3,11.3-9.5L41,25.1c-4.7,0-9.5,0-14.2,0"/>
<path class="st1" d="M33,33"/>
<path class="st1" d="M31,24c0,2.8,0,5.7,0,8.5"/>
<line class="st1" x1="7" y1="0" x2="7" y2="12"/>
<line class="st1" x1="14" y1="12" x2="14" y2="0"/>
<line class="st1" x1="20" y1="0" x2="20" y2="12"/>
<line class="st1" x1="27" y1="0" x2="27" y2="12"/>
<line class="st1" x1="33" y1="0" x2="33" y2="12"/>
<line class="st1" x1="40" y1="0" x2="40" y2="12"/>
<g>
	<path class="st0" d="M58.8,14.9l1,1.8l2.7,4.9v42.9h-8V21.7l3.1-4.9L58.8,14.9 M59,10c-2.3,3.7-4.7,7.3-7,11v46h13V21
		C63,17.3,61,13.7,59,10L59,10z"/>
</g>
<circle class="st2" cx="40.5" cy="64.5" r="1"/>
<circle class="st2" cx="36" cy="64.5" r="1"/>
<circle class="st2" cx="31.5" cy="64.5" r="1"/>
<path class="st1" d="M65,21"/>
<path class="st1" d="M52.6,21.4c1.1,0.6,3,1.5,5.4,1.6c3,0.1,5.3-1,6.4-1.6"/>
<line class="st1" x1="64" y1="59" x2="57.5" y2="59"/>
</svg>
