<?xml version="1.0" encoding="utf-8"?>
<!-- Generator: Adobe Illustrator 24.1.2, SVG Export Plug-In . SVG Version: 6.00 Build 0)  -->
<svg version="1.1" id="Layer_1" xmlns="http://www.w3.org/2000/svg" xmlns:xlink="http://www.w3.org/1999/xlink" x="0px" y="0px"
	 viewBox="0 0 547.8 410.6" style="enable-background:new 0 0 547.8 410.6;" xml:space="preserve">
<style type="text/css">
	.st0{fill:#CD6799;}
	.st1{fill:url(#path19_1_);}
	.st2{fill:#F6F6F6;}
	.st3{fill:#F6F6F6;stroke:#404040;stroke-width:5.1509;stroke-miterlimit:10;}
</style>
<path class="st0" d="M323.4,163.3c-12.7,0.1-23.8,3.1-33.1,7.7c-3.4-6.7-6.8-12.7-7.4-17.1c-0.7-5.1-1.5-8.3-0.7-14.4
	c0.8-6.1,4.4-14.9,4.3-15.5s-0.8-3.8-8.1-3.9c-7.3-0.1-13.7,1.4-14.4,3.3c-0.7,1.9-2.1,6.3-3.1,10.9c-1.3,6.7-14.7,30.5-22.3,42.9
	c-2.5-4.9-4.6-9.1-5.1-12.5c-0.7-5.1-1.5-8.3-0.7-14.4c0.8-6.1,4.4-14.9,4.3-15.5s-0.8-3.8-8.1-3.9s-13.7,1.4-14.4,3.3
	c-0.7,1.9-1.5,6.5-3.1,10.9c-1.5,4.4-19.3,44.1-24,54.4c-2.4,5.3-4.5,9.5-5.9,12.3l0,0c0,0-0.1,0.2-0.3,0.5c-1.3,2.5-2,3.8-2,3.8
	s0,0,0,0.1c-1,1.8-2.1,3.5-2.6,3.5c-0.4,0-1.1-4.8,0.1-11.3c2.7-13.8,9-35.3,8.9-36c0-0.4,1.2-4.1-4.1-6.1c-5.2-1.9-7.1,1.3-7.5,1.3
	c-0.5,0-0.8,1.1-0.8,1.1s5.8-24.1-11.1-24.1c-10.5,0-25.1,11.5-32.3,21.9c-4.5,2.5-14.2,7.7-24.5,13.4c-3.9,2.2-8,4.4-11.8,6.5
	c-0.3-0.3-0.5-0.6-0.8-0.9c-20.4-21.8-58.1-37.2-56.5-66.5c0.6-10.7,4.3-38.7,72.5-72.7c56.1-27.7,100.8-20,108.5-3
	c11.1,24.3-23.9,69.3-81.9,75.9c-22.1,2.5-33.7-6.1-36.7-9.3c-3.1-3.3-3.5-3.5-4.7-2.9c-1.9,1-0.7,4,0,5.7
	c1.7,4.5,8.9,12.5,20.9,16.5c10.7,3.5,36.6,5.4,68-6.7c35.1-13.6,62.6-51.4,54.5-83.1c-8.1-32.1-61.4-42.7-111.9-24.8
	C95.8,25.3,63.2,42.1,39.8,64C12,90,7.6,112.6,9.4,122.1c6.5,33.6,52.8,55.5,71.3,71.7c-0.9,0.5-1.8,1-2.5,1.4
	c-9.3,4.6-44.6,23.1-53.4,42.6c-10,22.1,1.6,38,9.3,40.1c23.8,6.6,48.3-5.3,61.4-24.9s11.5-45.1,5.5-56.7c-0.1-0.1-0.1-0.3-0.3-0.4
	c2.4-1.4,4.9-2.9,7.3-4.3c4.7-2.8,9.4-5.4,13.4-7.5c-2.3,6.2-3.9,13.6-4.7,24.3c-1,12.5,4.1,28.8,10.9,35.2c3,2.8,6.5,2.9,8.8,2.9
	c7.9,0,11.4-6.5,15.3-14.3c4.8-9.5,9.1-20.5,9.1-20.5s-5.4,29.7,9.3,29.7c5.3,0,10.7-6.9,13.1-10.5c0,0.1,0,0.1,0,0.1
	s0.1-0.2,0.4-0.7c0.5-0.9,0.9-1.4,0.9-1.4s0-0.1,0-0.1c2.1-3.7,6.9-12.2,14.1-26.3c9.2-18.1,18.1-40.8,18.1-40.8s0.8,5.5,3.5,14.7
	c1.6,5.4,4.9,11.3,7.6,17.1c-2.1,3-3.5,4.7-3.5,4.7s0,0,0.1,0.1c-1.7,2.3-3.6,4.7-5.7,7.1c-7.3,8.7-15.9,18.6-17.1,21.5
	c-1.4,3.4-1.1,5.9,1.6,7.9c1.9,1.5,5.4,1.7,8.9,1.5c6.5-0.5,11.1-2.1,13.4-3.1c3.5-1.3,7.7-3.2,11.5-6.1
	c7.1-5.3,11.5-12.8,11.1-22.7c-0.2-5.5-2-10.9-4.2-16.1c0.7-0.9,1.3-1.9,1.9-2.8c11.3-16.5,20-34.5,20-34.5s0.8,5.5,3.5,14.7
	c1.3,4.7,4.1,9.7,6.5,14.7c-10.6,8.6-17.1,18.6-19.5,25.1c-4.2,12.1-0.9,17.6,5.3,18.9c2.8,0.6,6.8-0.7,9.7-2
	c3.7-1.2,8.1-3.3,12.3-6.3c7.1-5.3,14-12.6,13.6-22.5c-0.2-4.5-1.4-9-3.1-13.3c9-3.7,20.6-5.8,35.4-4.1c31.7,3.7,38,23.5,36.8,31.9
	c-1.2,8.3-7.9,12.9-10.1,14.3s-2.9,1.9-2.7,2.9c0.3,1.5,1.3,1.4,3.2,1.1c2.6-0.5,16.7-6.7,17.3-22.1
	C375.1,184.5,356.4,163.1,323.4,163.3z M78.6,245.9C68,257.4,53.4,261.7,47,258c-6.8-3.9-4.1-20.9,8.8-33c7.9-7.4,18-14.3,24.7-18.5
	c1.5-0.9,3.8-2.3,6.5-3.9c0.5-0.3,0.7-0.4,0.7-0.4l0,0c0.5-0.3,1.1-0.7,1.6-1C94.2,218.5,89.6,233.8,78.6,245.9z M155.2,193.7
	c-3.7,8.9-11.3,31.8-16,30.5c-4-1.1-6.5-18.4-0.8-35.5c2.9-8.6,8.9-18.9,12.5-22.9c5.7-6.4,12.1-8.5,13.6-5.9
	C166.4,163.3,157.5,188.1,155.2,193.7z M218.5,224c-1.5,0.8-3,1.3-3.7,0.9c-0.5-0.3,0.7-1.3,0.7-1.3s7.9-8.5,11.1-12.4
	c1.8-2.3,3.9-4.9,6.2-7.9c0,0.3,0,0.6,0,0.9C232.8,214.3,222.9,221.2,218.5,224z M267.3,212.9c-1.1-0.8-0.9-3.5,2.9-11.8
	c1.5-3.3,4.9-8.7,10.9-14c0.7,2.1,1.1,4.2,1.1,6.1C282.1,206.1,272.9,210.9,267.3,212.9z"/>
<g id="layer1" transform="translate(130.53125,-317.84375)">
	
		<linearGradient id="path19_1_" gradientUnits="userSpaceOnUse" x1="217.2007" y1="196.4144" x2="217.2007" y2="330.5659" gradientTransform="matrix(1 0 0 1 19.7117 379.8911)">
		<stop  offset="0.1497" style="stop-color:#2A4F84"/>
		<stop  offset="0.3884" style="stop-color:#294E82"/>
		<stop  offset="1" style="stop-color:#172E4E"/>
	</linearGradient>
	<path id="path19" class="st1" d="M387.7,684.6c0,14.2-13,25.9-29,25.9H115.1c-15.9,0-29-11.6-29-25.9v-82.4c0-14.2,13-25.9,29-25.9
		h243.6c15.9,0,29,11.6,29,25.9V684.6z"/>
	<path id="path21" class="st2" d="M336.7,641.6c12.7,4,19.1,10.8,19.1,20.4c0,6.3-2.6,11.4-7.9,15.1c-5.3,3.7-12.8,6-22.5,6
		c-9.8,0-18.8-2.5-27.1-6.7c0.1-2.2,0.7-4.6,1.9-7.2c1.2-2.6,2.6-4.7,4.2-6.2c7.6,3.5,14.3,5.3,20,5.3c2.7,0,4.7-0.4,6.2-1.2
		c1.4-0.8,2.2-1.9,2.2-3.2c0-2.5-2.2-4.4-6.6-5.7l-7.9-2.7c-12-3.9-17.9-10.2-17.9-19c0-6.4,2.5-11.5,7.5-15.3c5-3.8,11.8-7,20.3-7
		c4.2,0,8.9,0.5,13.9,1.6c5.1,1.1,9.2,3.7,12.5,5.1c0.2,2.4-0.3,5-1.6,7.8c-1.2,2.8-2.8,4.8-4.6,6c-8-3.2-14.7-4.8-20.1-4.8
		c-1.9,0-3.4,0.4-4.4,1.1c-1,0.8-1.5,1.7-1.5,2.9c0,2,1.8,3.6,5.5,4.8L336.7,641.6L336.7,641.6z"/>
	<path id="path23" class="st2" d="M273.1,641.6c12.7,4,19.1,10.8,19.1,20.4c0,6.3-2.6,11.4-7.9,15.1c-5.3,3.7-12.8,6-22.5,6
		c-9.8,0-18.8-2.5-27.1-6.7c0.1-2.2,0.7-4.6,1.9-7.2c1.2-2.6,2.6-4.7,4.2-6.2c7.7,3.5,14.3,5.3,20,5.3c2.7,0,4.7-0.4,6.2-1.2
		c1.4-0.8,2.2-1.9,2.2-3.2c0-2.5-2.2-4.4-6.6-5.7l-7.9-2.7c-12-3.9-17.9-10.2-17.9-19c0-6.4,2.5-11.5,7.5-15.3c5-3.8,11.8-7,20.3-7
		c4.2,0,8.9,0.5,13.9,1.6c5.1,1.1,9.2,3.7,12.5,5.1c0.2,2.4-0.3,5-1.6,7.8c-1.2,2.8-2.8,4.8-4.6,6c-8-3.2-14.7-4.8-20.1-4.8
		c-1.9,0-3.4,0.4-4.4,1.1c-1,0.8-1.5,1.7-1.5,2.9c0,2,1.8,3.6,5.5,4.8L273.1,641.6L273.1,641.6z"/>
	<path id="path25" class="st2" d="M226.8,642.5c0-3.9-0.7-7.5-2.1-10.8c-1.4-3.3-3.4-6.1-6-8.5c-2.6-2.4-5.7-4.2-9.4-5.6
		c-3.7-1.4-7.8-3.4-12.4-3.4c-5.5,0-10.2,2.2-14.3,3.9c-4.1,1.7-7.4,4-10,7c-2.6,3-4.6,6.5-5.9,10.5c-1.3,4-1.9,8.4-1.9,13.1
		c0,4.9,0.5,9.4,1.6,13.6c1.1,4.1,2.8,7.7,5.4,10.8c2.5,3,5.8,5.4,9.9,7.1c4.1,1.7,9.1,3,15.1,3c11.1,0,20.5-2.9,28.1-7.7
		c-0.8-4.9-2.7-8.8-5.9-11.7c-3.9,1.3-7.4,2.2-10.4,2.8c-3,0.6-5.7,0.9-7.9,0.9c-4.6,0-7.9-1-9.9-3.1c-2-2.1-3.1-4.6-3.3-8.3h37.3
		C226.1,652.5,226.8,647.7,226.8,642.5z M187.4,643.4c0.3-4.3,1.2-8.9,2.6-10.8c1.5-1.9,3.7-2.9,6.8-2.9c3.1,0,5.5,1,7,3
		c1.6,2,2.4,6.1,2.4,9.3l0,1.4H187.4L187.4,643.4L187.4,643.4z"/>
	<path id="path27" class="st3" d="M395.2,651.8c-4.1,3.2-6.4,7.7-6.4,13.7v22.2c0,7.4-2.5,13-8.3,16.8c-5.7,3.8-12.4,5.8-20,5.9
		l-4.5,0v-11c4-1,5.6-2.2,7.2-3.6c2.9-2.3,5.1-6.1,5.1-11.3v-17.9c0.1-6.1,0.6-10.9,3.1-14.3c2.5-3.4,7.3-6.5,14.5-9.1
		c-8-3.3-13.3-7.5-16-12.7c-1.6-3.1-1.6-7.3-1.6-12.6v-16.4c0-5.4-2-9.2-4.4-11.4c-1.6-1.4-3.4-2.5-7.8-3.4v-10.4
		c5.4,0.1,8.1,0,11.2,0c4.8,0,8.9,2.3,12.4,4.8c3.8,2.7,6.6,6.3,8.2,10.9c0.9,2.6,1,5.2,1,7.6v19c0,6.7,2.2,11.7,6,14.9
		c2.1,1.9,5.2,3.6,10.3,5.2v8.6C400.6,648.4,397.7,649.9,395.2,651.8L395.2,651.8z"/>
	<path id="path29" class="st3" d="M109.7,576.3L109.7,576.3c-1.5,0-2.9,0-4.1,0c-4.8,0-8.9,2.3-12.4,4.8c-3.8,2.7-7.1,6.2-8.2,10.9
		c-0.6,2.8-0.5,5.2-0.5,7.6v19c0,6.7-2.8,11.7-6.6,14.9c-2.1,1.9-6.7,3.6-11.9,5.2v8.6c4.6,1.1,9,2.7,11.5,4.6c4.1,3.2,7,7.7,7,13.7
		v22.2c0,7.4,2,13,7.7,16.8c5.7,3.8,12.4,5.8,20,5.9l5.1,0v-11.1c-4-1-6.2-2.2-7.8-3.6c-2.9-2.3-4.5-6.1-4.5-11.3v-17.9
		c-0.1-6.1-1.2-10.9-3.7-14.3c-2.5-3.4-7.3-6.5-14.5-9.1c8-3.3,13.3-7.5,16-12.7c1.6-3.1,2.2-7.3,2.2-12.6v-16.4
		c0-5.4,1.4-9.2,3.9-11.4c1.3-1.2,3.7-2.1,7-2.9l5.2,0c0-4,0-6.5,0-10.9L109.7,576.3L109.7,576.3L109.7,576.3L109.7,576.3z"/>
	<path id="path31" class="st2" d="M157.4,666.2h-3.9c-4.2,0-5.8-2-5.8-6v-73c0-4.4-1.4-7.5-3.2-9.3c-1.8-1.8-5-1.8-9.5-1.8h-8.8
		l-1,0v0.1l0,10.9v76.7c0,6.1,1.5,10.6,4.3,13.4c2.7,2.8,7.3,4.2,13.9,4.2c4.5,0,9.6-0.4,15.4-1.3c0.3-0.9,0.4-2.7,0.4-5.5
		C159.2,671.9,158.6,669.1,157.4,666.2L157.4,666.2z"/>
</g>
</svg>
