<?xml version="1.0" encoding="utf-8"?>
<!-- Generator: Adobe Illustrator 23.0.4, SVG Export Plug-In . SVG Version: 6.00 Build 0)  -->
<svg version="1.1" id="Layer_1" xmlns="http://www.w3.org/2000/svg" xmlns:xlink="http://www.w3.org/1999/xlink" x="0px" y="0px"
	 viewBox="0 0 512 512" style="enable-background:new 0 0 512 512;" xml:space="preserve">
<style type="text/css">
	.st0{fill:#8D736C;}
	.st1{fill:none;stroke:#8D736C;stroke-width:5;stroke-miterlimit:10;}
	.st2{fill:#8D736C;stroke:#8D736C;stroke-width:5;stroke-miterlimit:10;}
</style>
<g>
	<g>
		<g>
			<g>
				<path class="st0" d="M12.8-0.5C7.4-0.5,3,4,3,9.5v486.1c0,5.5,3.1,6.8,6.9,2.9L46,461.6c3.8-3.9,11.3-7.1,16.7-7.1h102.2
					c5.4,0,9.8-3.5,9.8-7.9s-4.4-7.9-9.8-7.9H56.3c-5.4,0-12.9,3.2-16.7,7.1l-14.4,14.7c-3.8,3.9-6.9,2.6-6.9-2.9V25.1
					c0-5.5,4.4-10,9.8-10h222.8c5.4,0,9.8,4.5,9.8,10v12.1c0,5.5,3.4,10,7.6,10c4.2,0,7.7-4.5,7.7-10V9.5c0-5.5-4.4-10-9.8-10H12.8z
					"/>
				<path class="st1" d="M12.8-0.5C7.4-0.5,3,4,3,9.5v486.1c0,5.5,3.1,6.8,6.9,2.9L46,461.6c3.8-3.9,11.3-7.1,16.7-7.1h102.2
					c5.4,0,9.8-3.5,9.8-7.9s-4.4-7.9-9.8-7.9H56.3c-5.4,0-12.9,3.2-16.7,7.1l-14.4,14.7c-3.8,3.9-6.9,2.6-6.9-2.9V25.1
					c0-5.5,4.4-10,9.8-10h222.8c5.4,0,9.8,4.5,9.8,10v12.1c0,5.5,3.4,10,7.6,10c4.2,0,7.7-4.5,7.7-10V9.5c0-5.5-4.4-10-9.8-10H12.8z
					"/>
			</g>
		</g>
	</g>
</g>
<g>
	<g>
		<g>
			<path class="st0" d="M281.4,321.8c0-5.5,4.5-10,10-10H504c5.5,0,7.1-3.5,3.6-7.7l-36-43.2c-3.5-4.2-6.4-12.2-6.4-17.7V66.4
				c0-5.5-4.5-10-10-10H195.8c-5.5,0-10,4.5-10,10v235.4c0,5.5,4.5,10,10,10h59.9c5.5,0,10,4.5,10,10v4.3c0,5.5-4.5,10-10,10h-59.9
				c-5.5,0-10,4.5-10,10v155.5c0,5.5,4.5,10,10,10h259.4c5.5,0,10-4.5,10-10v-96.9c0-5.5,2.9-13.5,6.4-17.7l36-43.2
				c3.5-4.2,1.9-7.7-3.6-7.7H291.4c-5.5,0-10-4.5-10-10V321.8z M201.5,296.2c0,0,0-4.6,0-10.1v-204c0-5.5,4.5-10,10-10h228
				c5.5,0,10,4.5,10,10v166.8c0,5.5,2.9,13.5,6.4,17.7l18.3,21.9c3.5,4.2,1.9,7.7-3.6,7.7H211.5C206,296.2,201.5,296.2,201.5,296.2z
				 M470.5,351.7c5.5,0,7.1,3.5,3.6,7.7l-18.2,21.9c-3.5,4.2-6.4,12.2-6.4,17.7v86.9c0,5.5-4.5,10-10,10h-228c-5.5,0-10-4.5-10-10
				V361.7c0-5.5,4.5-10,10-10H470.5z"/>
			<path class="st1" d="M281.4,321.8c0-5.5,4.5-10,10-10H504c5.5,0,7.1-3.5,3.6-7.7l-36-43.2c-3.5-4.2-6.4-12.2-6.4-17.7V66.4
				c0-5.5-4.5-10-10-10H195.8c-5.5,0-10,4.5-10,10v235.4c0,5.5,4.5,10,10,10h59.9c5.5,0,10,4.5,10,10v4.3c0,5.5-4.5,10-10,10h-59.9
				c-5.5,0-10,4.5-10,10v155.5c0,5.5,4.5,10,10,10h259.4c5.5,0,10-4.5,10-10v-96.9c0-5.5,2.9-13.5,6.4-17.7l36-43.2
				c3.5-4.2,1.9-7.7-3.6-7.7H291.4c-5.5,0-10-4.5-10-10V321.8z M201.5,296.2c0,0,0-4.6,0-10.1v-204c0-5.5,4.5-10,10-10h228
				c5.5,0,10,4.5,10,10v166.8c0,5.5,2.9,13.5,6.4,17.7l18.3,21.9c3.5,4.2,1.9,7.7-3.6,7.7H211.5C206,296.2,201.5,296.2,201.5,296.2z
				 M470.5,351.7c5.5,0,7.1,3.5,3.6,7.7l-18.2,21.9c-3.5,4.2-6.4,12.2-6.4,17.7v86.9c0,5.5-4.5,10-10,10h-228c-5.5,0-10-4.5-10-10
				V361.7c0-5.5,4.5-10,10-10H470.5z"/>
		</g>
		<path class="st2" d="M567,277"/>
	</g>
</g>
<g>
	<g>
		<rect x="227.8" y="97.5" class="st0" width="119.1" height="15.7"/>
	</g>
</g>
<g>
	<g>
		<rect x="227.8" y="129.9" class="st0" width="24" height="15.7"/>
	</g>
</g>
<g>
	<g>
		<rect x="227.8" y="160.2" class="st0" width="48.1" height="15.7"/>
	</g>
</g>
<g>
	<g>
		<rect x="290.5" y="160.2" class="st0" width="88.8" height="15.7"/>
	</g>
</g>
<g>
	<g>
		<path class="st0" d="M231.7,192.2v79.6h183.5v-79.6L231.7,192.2L231.7,192.2z M399.5,256.2H247.4v-48.3h152.1V256.2z"/>
	</g>
</g>
<g>
	<g>
		<rect x="227.8" y="368.1" class="st0" width="119.1" height="15.7"/>
	</g>
</g>
<g>
	<g>
		<rect x="227.8" y="400.5" class="st0" width="24" height="15.7"/>
	</g>
</g>
<g>
	<g>
		<rect x="268.6" y="400.5" class="st0" width="119.1" height="15.7"/>
	</g>
</g>
<g>
	<g>
		<path class="st0" d="M231.7,431.9v47.6h71.6v-47.6H231.7z M287.7,463.9h-40.3v-16.3h40.3V463.9z"/>
	</g>
</g>
<g>
	<g>
		<path class="st0" d="M311.6,431.9v47.6h103.6v-47.6H311.6z M399.5,463.9h-72.2v-16.3h72.2V463.9L399.5,463.9z"/>
	</g>
</g>
<g>
	<g>
		<polygon class="st0" points="110.2,46.7 63.8,93.1 45.3,74.7 34.3,85.7 63.8,115.3 121.3,57.8 		"/>
	</g>
</g>
<g>
	<g>
		<rect x="124.4" y="73.4" class="st0" width="47" height="15.7"/>
	</g>
</g>
<g>
	<g>
		<rect x="108.7" y="105.8" class="st0" width="15.7" height="15.7"/>
	</g>
</g>
<g>
	<g>
		<rect x="132.8" y="105.8" class="st0" width="14.6" height="15.7"/>
	</g>
</g>
<g>
	<g>
		<rect x="155.7" y="105.8" class="st0" width="15.7" height="15.7"/>
	</g>
</g>
<g>
	<g>
		<polygon class="st0" points="110.2,134.6 63.8,181 45.3,162.6 34.3,173.6 63.8,203.2 121.3,145.7 		"/>
	</g>
</g>
<g>
	<g>
		<rect x="124.4" y="160.2" class="st0" width="47" height="15.7"/>
	</g>
</g>
<g>
	<g>
		<rect x="108.7" y="192.6" class="st0" width="15.7" height="15.7"/>
	</g>
</g>
<g>
	<g>
		<rect x="132.8" y="192.6" class="st0" width="14.6" height="15.7"/>
	</g>
</g>
<g>
	<g>
		<rect x="155.7" y="192.6" class="st0" width="15.7" height="15.7"/>
	</g>
</g>
<g>
	<g>
		<rect x="124.4" y="249" class="st0" width="47" height="15.7"/>
	</g>
</g>
<g>
	<g>
		<rect x="108.7" y="281.4" class="st0" width="15.7" height="15.7"/>
	</g>
</g>
<g>
	<g>
		<rect x="132.8" y="281.4" class="st0" width="14.6" height="15.7"/>
	</g>
</g>
<g>
	<g>
		<rect x="155.7" y="281.4" class="st0" width="15.7" height="15.7"/>
	</g>
</g>
<g>
	<g>
		<rect x="124.4" y="336.8" class="st0" width="47" height="15.7"/>
	</g>
</g>
<g>
	<g>
		<rect x="108.7" y="368.1" class="st0" width="15.7" height="15.7"/>
	</g>
</g>
<g>
	<g>
		<rect x="132.8" y="368.1" class="st0" width="14.6" height="15.7"/>
	</g>
</g>
<g>
	<g>
		<rect x="155.7" y="368.1" class="st0" width="15.7" height="15.7"/>
	</g>
</g>
<g>
	<g>
		<rect x="52.3" y="352.4" class="st0" width="23" height="15.7"/>
	</g>
</g>
<g>
	<g>
		<rect x="52.3" y="265.7" class="st0" width="23" height="15.7"/>
	</g>
</g>
</svg>
