<svg xmlns="http://www.w3.org/2000/svg" viewBox="0 0 511.45 517.1"><defs><style>.a,.b,.c{fill:#fff;}.a,.b{stroke:#fff;stroke-miterlimit:10;}.b{stroke-width:5px;}</style></defs><title>communication-white</title><path class="a" d="M12.8-.5A9.92,9.92,0,0,0,3,9.5V495.6c0,5.5,3.1,6.8,6.9,2.9L46,461.6c3.8-3.9,11.3-7.1,16.7-7.1H164.9c5.4,0,9.8-3.5,9.8-7.9s-4.4-7.9-9.8-7.9H56.3c-5.4,0-12.9,3.2-16.7,7.1L25.2,460.5c-3.8,3.9-6.9,2.6-6.9-2.9V25.1a9.92,9.92,0,0,1,9.8-10H250.9a9.92,9.92,0,0,1,9.8,10V37.2c0,5.5,3.4,10,7.6,10s7.7-4.5,7.7-10V9.5a9.92,9.92,0,0,0-9.8-10Z" transform="translate(-0.5 3)"/><path class="b" d="M12.8-.5A9.92,9.92,0,0,0,3,9.5V495.6c0,5.5,3.1,6.8,6.9,2.9L46,461.6c3.8-3.9,11.3-7.1,16.7-7.1H164.9c5.4,0,9.8-3.5,9.8-7.9s-4.4-7.9-9.8-7.9H56.3c-5.4,0-12.9,3.2-16.7,7.1L25.2,460.5c-3.8,3.9-6.9,2.6-6.9-2.9V25.1a9.92,9.92,0,0,1,9.8-10H250.9a9.92,9.92,0,0,1,9.8,10V37.2c0,5.5,3.4,10,7.6,10s7.7-4.5,7.7-10V9.5a9.92,9.92,0,0,0-9.8-10Z" transform="translate(-0.5 3)"/><path class="a" d="M281.4,321.8a10,10,0,0,1,10-10H504c5.5,0,7.1-3.5,3.6-7.7l-36-43.2c-3.5-4.2-6.4-12.2-6.4-17.7V66.4a10,10,0,0,0-10-10H195.8a10,10,0,0,0-10,10V301.8a10,10,0,0,0,10,10h59.9a10,10,0,0,1,10,10v4.3a10,10,0,0,1-10,10H195.8a10,10,0,0,0-10,10V501.6a10,10,0,0,0,10,10H455.2a10,10,0,0,0,10-10V404.7c0-5.5,2.9-13.5,6.4-17.7l36-43.2c3.5-4.2,1.9-7.7-3.6-7.7H291.4a10,10,0,0,1-10-10Zm-79.9-25.6V82.1a10,10,0,0,1,10-10h228a10,10,0,0,1,10,10V248.9c0,5.5,2.9,13.5,6.4,17.7l18.3,21.9c3.5,4.2,1.9,7.7-3.6,7.7H201.5Zm269,55.5c5.5,0,7.1,3.5,3.6,7.7l-18.2,21.9c-3.5,4.2-6.4,12.2-6.4,17.7v86.9a10,10,0,0,1-10,10h-228a10,10,0,0,1-10-10V361.7a10,10,0,0,1,10-10Z" transform="translate(-0.5 3)"/><path class="b" d="M281.4,321.8a10,10,0,0,1,10-10H504c5.5,0,7.1-3.5,3.6-7.7l-36-43.2c-3.5-4.2-6.4-12.2-6.4-17.7V66.4a10,10,0,0,0-10-10H195.8a10,10,0,0,0-10,10V301.8a10,10,0,0,0,10,10h59.9a10,10,0,0,1,10,10v4.3a10,10,0,0,1-10,10H195.8a10,10,0,0,0-10,10V501.6a10,10,0,0,0,10,10H455.2a10,10,0,0,0,10-10V404.7c0-5.5,2.9-13.5,6.4-17.7l36-43.2c3.5-4.2,1.9-7.7-3.6-7.7H291.4a10,10,0,0,1-10-10Zm-79.9-25.6V82.1a10,10,0,0,1,10-10h228a10,10,0,0,1,10,10V248.9c0,5.5,2.9,13.5,6.4,17.7l18.3,21.9c3.5,4.2,1.9,7.7-3.6,7.7H201.5Zm269,55.5c5.5,0,7.1,3.5,3.6,7.7l-18.2,21.9c-3.5,4.2-6.4,12.2-6.4,17.7v86.9a10,10,0,0,1-10,10h-228a10,10,0,0,1-10-10V361.7a10,10,0,0,1,10-10Z" transform="translate(-0.5 3)"/><path class="b" d="M567,277" transform="translate(-0.5 3)"/><rect class="c" x="227.3" y="100.5" width="119.1" height="15.7"/><rect class="c" x="227.3" y="132.9" width="24" height="15.7"/><rect class="c" x="227.3" y="163.2" width="48.1" height="15.7"/><rect class="c" x="290" y="163.2" width="88.8" height="15.7"/><path class="c" d="M231.7,192.2v79.6H415.2V192.2Zm167.8,64H247.4V207.9H399.5Z" transform="translate(-0.5 3)"/><rect class="c" x="227.3" y="371.1" width="119.1" height="15.7"/><rect class="c" x="227.3" y="403.5" width="24" height="15.7"/><rect class="c" x="268.1" y="403.5" width="119.1" height="15.7"/><path class="c" d="M231.7,431.9v47.6h71.6V431.9Zm56,32H247.4V447.6h40.3Z" transform="translate(-0.5 3)"/><path class="c" d="M311.6,431.9v47.6H415.2V431.9Zm87.9,32H327.3V447.6h72.2v16.3Z" transform="translate(-0.5 3)"/><polygon class="c" points="109.7 49.7 63.3 96.1 44.8 77.7 33.8 88.7 63.3 118.3 120.8 60.8 109.7 49.7"/><rect class="c" x="123.9" y="76.4" width="47" height="15.7"/><rect class="c" x="108.2" y="108.8" width="15.7" height="15.7"/><rect class="c" x="132.3" y="108.8" width="14.6" height="15.7"/><rect class="c" x="155.2" y="108.8" width="15.7" height="15.7"/><polygon class="c" points="109.7 137.6 63.3 184 44.8 165.6 33.8 176.6 63.3 206.2 120.8 148.7 109.7 137.6"/><rect class="c" x="123.9" y="163.2" width="47" height="15.7"/><rect class="c" x="108.2" y="195.6" width="15.7" height="15.7"/><rect class="c" x="132.3" y="195.6" width="14.6" height="15.7"/><rect class="c" x="155.2" y="195.6" width="15.7" height="15.7"/><rect class="c" x="123.9" y="252" width="47" height="15.7"/><rect class="c" x="108.2" y="284.4" width="15.7" height="15.7"/><rect class="c" x="132.3" y="284.4" width="14.6" height="15.7"/><rect class="c" x="155.2" y="284.4" width="15.7" height="15.7"/><rect class="c" x="123.9" y="339.8" width="47" height="15.7"/><rect class="c" x="108.2" y="371.1" width="15.7" height="15.7"/><rect class="c" x="132.3" y="371.1" width="14.6" height="15.7"/><rect class="c" x="155.2" y="371.1" width="15.7" height="15.7"/><rect class="c" x="51.8" y="355.4" width="23" height="15.7"/><rect class="c" x="51.8" y="268.7" width="23" height="15.7"/></svg>