<svg xmlns="http://www.w3.org/2000/svg" viewBox="0 0 47.98 47.97"><defs><style>.a{fill:#fff;fill-rule:evenodd;}</style></defs><title>design-white</title><path class="a" d="M39.9,44.1l4.2-4.2,1.3,5.5-5.5-1.3ZM25.6,30.3,24,28.7,19.3,24l-1.6-1.6L7.9,12.5l4.8-4.8,9.8,9.8,1.6,1.6,4.8,4.8,1.6,1.6L42.8,38,38,42.8ZM9.9,42.9,6.1,44.5,3.5,41.9l1.6-3.8L17.7,25.5l4.8,4.8ZM3,7.7A1.09,1.09,0,0,1,3,6.2L6.2,3A1.21,1.21,0,0,1,7.8,3h0L11,6.2,6.2,11,3,7.7ZM37.4,5.8l4.8,4.8L30.4,22.4l-4.8-4.8L37.4,5.8Zm6-3.5h0l2.4,2.4h0L42.6,7.9,40.2,5.5l3.2-3.2ZM46,38,32,24l9.4-9.4.9.9a1.22,1.22,0,0,1,0,1.6l-4.4,4.4a1.12,1.12,0,0,0,.1,1.6,1.09,1.09,0,0,0,1.5,0l4.4-4.4a3.44,3.44,0,0,0,0-4.8h0l-1-.9.8-.8,1.6-1.6L44.1,9.4l3.2-3.2a2.23,2.23,0,0,0,0-3.2h0L45,.7a2.23,2.23,0,0,0-3.2,0h0L38.6,3.9,37.4,2.7,35.8,4.3h0L24,16,9.4,1.4a3.44,3.44,0,0,0-4.8,0h0L1.5,4.6a3.23,3.23,0,0,0-.1,4.7l3.2,3.2.3.3,1.3,1.3L16,24,3.2,36.9.8,42.5,2.4,44,0,46.4,1.6,48,4,45.6l1.6,1.6,5.6-2.4L24,31.9,36.4,44.3,38,45.9l8.2,1.9a1.31,1.31,0,0,0,1.7-1.7L46,38Z" transform="translate(0 -0.03)"/></svg>