<?xml version="1.0" encoding="utf-8"?>
<!-- Generator: Adobe Illustrator 24.1.3, SVG Export Plug-In . SVG Version: 6.00 Build 0)  -->
<svg version="1.1" id="Layer_1" xmlns="http://www.w3.org/2000/svg" xmlns:xlink="http://www.w3.org/1999/xlink" x="0px" y="0px"
	 viewBox="0 0 60 53" style="enable-background:new 0 0 60 53;" xml:space="preserve">
<style type="text/css">
	.st0{fill:#FFFFFF;}
	.st1{fill:none;stroke:#FFFFFF;stroke-width:2.5;stroke-miterlimit:10;}
	.st2{fill:#FFFFFF;stroke:#FFFFFF;}
	.st3{font-family:'PTMono-Regular';}
	.st4{font-size:30px;}
	.st5{fill:#FFFFFF;stroke:#FFFFFF;stroke-miterlimit:10;}
</style>
<g>
	<g>
		<path class="st0" d="M57,2.5c0.3,0,0.5,0.2,0.5,0.5v37.1c0,0.3-0.2,0.5-0.5,0.5H3c-0.3,0-0.5-0.2-0.5-0.5V9.6v-6V3
			c0-0.3,0.2-0.5,0.5-0.5H57 M57,0H3C1.3,0,0,1.3,0,3v0.6c0,1.7,0,4.4,0,6v30.4c0,1.7,1.3,3,3,3h54c1.7,0,3-1.4,3-3V3
			C60,1.3,58.7,0,57,0L57,0z"/>
	</g>
	<line class="st1" x1="0.4" y1="35.4" x2="60" y2="35.4"/>
	<g>
		<polyline class="st1" points="18.6,51.5 28.4,51.5 41.4,51.5 		"/>
		<line class="st1" x1="22.3" y1="42.2" x2="22.3" y2="51.5"/>
		<line class="st1" x1="37.2" y1="42.2" x2="37.2" y2="51.5"/>
		<line class="st1" x1="22.3" y1="42.6" x2="36.9" y2="42.6"/>
	</g>
	<g>
		<line class="st1" x1="26.8" y1="38.4" x2="32.4" y2="38.4"/>
	</g>
</g>
<text transform="matrix(1 0 0 1 13.8082 29.066)" class="st2 st3 st4">T</text>
<path class="st5" d="M40.5,24.7l-6.1-4.1c-0.2-0.1-0.5,0.1-0.4,0.3l1.4,7c0,0.2,0.2,0.3,0.3,0.2c0.1,0,0.1-0.1,0.2-0.1l1.2-1.5
	l1.7,2.5c0,0,0.1,0.1,0.1,0.1c0,0,0,0,0.1,0c0,0,0,0,0.1,0l1.1-0.8c0.1-0.1,0.1-0.2,0-0.3l-1.6-2.4l1.9-0.4c0.2,0,0.3-0.2,0.2-0.3
	C40.7,24.8,40.6,24.7,40.5,24.7z"/>
</svg>
