<?xml version="1.0" encoding="utf-8"?>
<!-- Generator: Adobe Illustrator 24.1.3, SVG Export Plug-In . SVG Version: 6.00 Build 0)  -->
<svg version="1.1" id="Layer_1" xmlns="http://www.w3.org/2000/svg" xmlns:xlink="http://www.w3.org/1999/xlink" x="0px" y="0px"
	 viewBox="0 0 45.6 45.4" style="enable-background:new 0 0 45.6 45.4;" xml:space="preserve">
<style type="text/css">
	.st0{fill:none;stroke:#FFFFFF;stroke-width:2.5;stroke-miterlimit:10;}
	.st1{fill:#FFFFFF;}
	.st2{fill:none;stroke:#FFFFFF;stroke-width:2;stroke-miterlimit:10;}
</style>
<g>
	<path class="st0" d="M43.8,43.2c0,0.5-0.5,1-1,1H2.3c-0.6,0-1-0.5-1-1V2.7c0-0.6,0.5-1,1-1h40.5c0.5,0,1,0.4,1,1V43.2z"/>
</g>
<g>
	<circle class="st1" cx="4.8" cy="4.5" r="0.7"/>
	<path class="st1" d="M4.8,4.3C4.9,4.3,5,4.4,5,4.5S4.9,4.7,4.8,4.7S4.6,4.6,4.6,4.5S4.7,4.3,4.8,4.3 M4.8,3.3
		c-0.7,0-1.2,0.5-1.2,1.2s0.5,1.2,1.2,1.2S6,5.1,6,4.5S5.4,3.3,4.8,3.3L4.8,3.3z"/>
</g>
<g>
	<path class="st1" d="M7.7,5.2C7.3,5.2,7,4.9,7,4.5c0-0.4,0.3-0.7,0.7-0.7s0.7,0.3,0.7,0.7C8.4,4.9,8.1,5.2,7.7,5.2z"/>
	<path class="st1" d="M7.7,4.3c0.1,0,0.2,0.1,0.2,0.2S7.8,4.7,7.7,4.7c-0.1,0-0.2-0.1-0.2-0.2S7.6,4.3,7.7,4.3 M7.7,3.3
		C7,3.3,6.5,3.8,6.5,4.5S7,5.7,7.7,5.7c0.7,0,1.2-0.5,1.2-1.2S8.4,3.3,7.7,3.3L7.7,3.3z"/>
</g>
<g>
	<path class="st1" d="M10.6,5.2c-0.4,0-0.7-0.3-0.7-0.7c0-0.4,0.3-0.7,0.7-0.7c0.4,0,0.7,0.3,0.7,0.7C11.4,4.9,11,5.2,10.6,5.2z"/>
	<path class="st1" d="M10.6,4.3c0.1,0,0.2,0.1,0.2,0.2s-0.1,0.2-0.2,0.2c-0.1,0-0.2-0.1-0.2-0.2S10.5,4.3,10.6,4.3 M10.6,3.3
		c-0.7,0-1.2,0.5-1.2,1.2s0.5,1.2,1.2,1.2c0.7,0,1.2-0.5,1.2-1.2S11.3,3.3,10.6,3.3L10.6,3.3z"/>
</g>
<line class="st0" x1="1.3" y1="7.6" x2="43.8" y2="7.6"/>
<g>
	<path class="st1" d="M37.3,15.4v6h-13v-6H37.3 M39.3,13.4h-17v10h17V13.4L39.3,13.4z"/>
</g>
<line class="st2" x1="4.3" y1="14.7" x2="21.3" y2="14.7"/>
<line class="st2" x1="4.3" y1="22.2" x2="21.3" y2="22.2"/>
<line class="st2" x1="4.3" y1="18.2" x2="21.3" y2="18.2"/>
<line class="st2" x1="4.3" y1="33.2" x2="39.4" y2="33.2"/>
<line class="st2" x1="4.3" y1="29.1" x2="39.4" y2="29.1"/>
<line class="st2" x1="4.3" y1="37.1" x2="39.4" y2="37.1"/>
</svg>
