<svg xmlns="http://www.w3.org/2000/svg" viewBox="0 0 60 52.75"><defs><style>.a,.c{fill:#fff;}.b{fill:none;stroke-width:2.5px;}.b,.c{stroke:#fff;stroke-miterlimit:10;}.c{fill-rule:evenodd;}</style></defs><path class="a" d="M57,2.5a.51.51,0,0,1,.5.5V40.06a.51.51,0,0,1-.5.5H3a.51.51,0,0,1-.5-.5V3A.51.51,0,0,1,3,2.5H57M57,0H3A3,3,0,0,0,0,3V40.06a3,3,0,0,0,3,3H57a3,3,0,0,0,3-3V3a3,3,0,0,0-3-3Z" transform="translate(0 0)"/><line class="b" x1="0.41" y1="35.38" x2="60" y2="35.38"/><polyline class="b" points="18.65 51.5 28.38 51.5 41.35 51.5"/><line class="b" x1="22.28" y1="42.21" x2="22.28" y2="51.5"/><line class="b" x1="37.16" y1="42.21" x2="37.16" y2="51.5"/><line class="b" x1="22.3" y1="42.64" x2="36.89" y2="42.64"/><line class="b" x1="26.76" y1="38.84" x2="32.43" y2="38.84"/><path class="c" d="M39.35,11.62a1.2,1.2,0,0,0-1.5.1,1.15,1.15,0,0,0,0,1.7l1.5,1.5,3.5,3.6-3.5,3.6-1.5,1.5a1.15,1.15,0,0,0,0,1.7,1.2,1.2,0,0,0,1.5.1c.1,0,.1-.1.2-.1l5.9-5.9a1.15,1.15,0,0,0,0-1.7C45.45,17.62,39.45,11.62,39.35,11.62Z" transform="translate(0 0)"/><path class="c" d="M32.65,7.82a1.38,1.38,0,0,0-1.1.1.66.66,0,0,0-.4.5l-.2.5-4,10.3-3.6,9.3a1.35,1.35,0,0,0,.7,1.6,1.19,1.19,0,0,0,1.5-.7h0l1.4-3.6,4.6-11.9,1.8-4.6a.6.6,0,0,0,.1-.4,1.33,1.33,0,0,0-.8-1.1Z" transform="translate(0 0)"/><path class="c" d="M20.65,13.32a1.2,1.2,0,0,0-1.7-1.7h0l-1.7,1.7-4.2,4.2a1.15,1.15,0,0,0,0,1.7l4.2,4.2,1.7,1.7a1.15,1.15,0,0,0,1.7,0h0a1.15,1.15,0,0,0,0-1.7L17.25,20l-1.7-1.7,1.7-1.7,3.4-3.3Z" transform="translate(0 0)"/></svg>