<?xml version="1.0" encoding="utf-8"?>
<!-- Generator: Adobe Illustrator 23.0.6, SVG Export Plug-In . SVG Version: 6.00 Build 0)  -->
<svg version="1.1" id="Layer_1" xmlns="http://www.w3.org/2000/svg" xmlns:xlink="http://www.w3.org/1999/xlink" x="0px" y="0px"
	 viewBox="0 0 438 300.6" style="enable-background:new 0 0 438 300.6;" xml:space="preserve">
<style type="text/css">
	.st0{fill:#F2F2F2;}
</style>
<title>404</title>
<g>
	<g>
		<g id="Layer_1-2">
			<g id="_404_text">
				<g id="text_404">
					<path id="_Compound_Clipping_Path_" class="st0" d="M82.6,236.8v-28.5H9.3v-27.6L52,63.8h39.8L45.4,176.8h37.2v-48.5h36.2v48.5
						h16.5v31.5h-16.5v28.6L82.6,236.8z"/>
					<path id="_Compound_Clipping_Path_2" class="st0" d="M168.7,82.2c11.3-14.3,28-21.5,50.2-21.5s38.9,7.2,50.2,21.5
						c11.3,14.3,16.9,37.3,16.9,69s-5.6,54.4-16.8,68.2c-11.2,13.7-27.9,20.6-50.3,20.6c-22.4,0-39.1-6.9-50.3-20.6
						c-11.2-13.7-16.8-36.4-16.8-68.1S157.4,96.5,168.7,82.2z M248.7,150.4c0-21.6-2.3-36.7-6.8-45.3c-4.5-8.7-12.2-13-22.9-13
						c-10.7,0-18.4,4.4-23,13.2c-4.6,8.7-6.9,23.8-6.9,45.3c0,21.5,2.4,36.5,7.1,45.1c4.7,8.6,12.4,12.8,23.1,12.8
						c10.7,0,18.3-4.3,22.8-12.8S248.7,172,248.7,150.4L248.7,150.4z"/>
					<path id="_Compound_Clipping_Path_3" class="st0" d="M376.1,236.8v-28.5h-73.4v-27.6l42.7-116.9h39.8l-46.4,112.9h37.2v-48.5
						h36.2v48.5h16.5v31.5h-16.5v28.6L376.1,236.8z"/>
				</g>
			</g>
		</g>
	</g>
</g>
</svg>
