<svg xmlns="http://www.w3.org/2000/svg" xmlns:xlink="http://www.w3.org/1999/xlink" viewBox="0 0 123.29 29.69"><defs><style>.a{fill:#fff;stroke:#1d1d1b;stroke-miterlimit:10;}.b{fill:url(#a);}.c{fill:url(#b);}.d{fill:url(#f);}</style><linearGradient id="a" x1="10.61" y1="13.91" x2="132.5" y2="13.91" gradientTransform="matrix(1, 0, 0, -1, -9.03, 37.85)" gradientUnits="userSpaceOnUse"><stop offset="0" stop-color="#e7ca59"/><stop offset="0.41" stop-color="#e7ca59"/><stop offset="0.51" stop-color="#f1f2dd"/><stop offset="0.62" stop-color="#d2d0b1"/><stop offset="1" stop-color="#7e7743"/></linearGradient><linearGradient id="b" x1="10.61" y1="13.92" x2="132.5" y2="13.92" xlink:href="#a"/><linearGradient id="f" x1="10.61" y1="13.79" x2="132.5" y2="13.79" xlink:href="#a"/></defs><path class="a" d="M8.14,9.72h3.4L18.1,38.16h-4L9.84,15.54,5.56,38.16h-4ZM5.77,28.43h8.41v3.49H5.77Z" transform="translate(-0.93 -9.2)"/><path class="a" d="M20.64,9.7h3.71V38.16H20.64Zm1.74,12.89h5.23a3.62,3.62,0,0,0,1.71-.37,2.46,2.46,0,0,0,1.08-1.06,3.45,3.45,0,0,0,.38-1.7V16.55a4.13,4.13,0,0,0-.38-1.8,2.56,2.56,0,0,0-1.08-1.15,3.63,3.63,0,0,0-1.71-.39H22.38V9.7h4.9a9.27,9.27,0,0,1,3.89.75,5.46,5.46,0,0,1,2.47,2.21,6.9,6.9,0,0,1,.85,3.5v3.3a7.23,7.23,0,0,1-.85,3.59,5.54,5.54,0,0,1-2.47,2.27,8.83,8.83,0,0,1-3.89.78h-4.9Zm4.88,2.64,3.5-.9,4.53,13.83H31.22Z" transform="translate(-0.93 -9.2)"/><path class="a" d="M53.77,9.72H57V38.16h-3.4V16.61L54,17.86,49,33.47H46.65L41.77,18.25l.45-1.64V38.16H38.7V9.72h3.4l5.75,17.83Z" transform="translate(-0.93 -9.2)"/><path class="a" d="M66.09,9.72h3.4l6.56,28.44h-4L67.77,15.54,63.51,38.16h-4ZM63.77,28.43h8.42v3.49H63.77Z" transform="translate(-0.93 -9.2)"/><path class="a" d="M78.59,9.72H82.3V38.16H78.59Zm2,24.88h9.8v3.56h-9.8Z" transform="translate(-0.93 -9.2)"/><path class="a" d="M96.05,37.64a5.06,5.06,0,0,1-2.19-2.27,8.14,8.14,0,0,1-.74-3.64v-22h3.71V31.89a3,3,0,0,0,.7,2.15,3.09,3.09,0,0,0,4.06,0,3,3,0,0,0,.72-2.15V9.72H106v22a8,8,0,0,1-.75,3.64,5.19,5.19,0,0,1-2.2,2.27,8.46,8.46,0,0,1-7,0Z" transform="translate(-0.93 -9.2)"/><path class="a" d="M114.66,21.89l4.4-12.17h4l-6.41,15.44-4.88,13h-4Zm.2,3.8-.63-1L108,9.75h4l4.1,11.5.66,1.13,6.67,15.78h-4Z" transform="translate(-0.93 -9.2)"/><path class="b" d="M8.14,9.72h3.4L18.1,38.16h-4L9.84,15.54,5.56,38.16h-4ZM5.77,28.43h8.41v3.49H5.77Z" transform="translate(-0.93 -9.2)"/><path class="c" d="M20.64,9.7h3.71V38.16H20.64Zm1.74,12.89h5.23a3.62,3.62,0,0,0,1.71-.37,2.46,2.46,0,0,0,1.08-1.06,3.45,3.45,0,0,0,.38-1.7V16.55a4.13,4.13,0,0,0-.38-1.8,2.56,2.56,0,0,0-1.08-1.15,3.63,3.63,0,0,0-1.71-.39H22.38V9.7h4.9a9.27,9.27,0,0,1,3.89.75,5.46,5.46,0,0,1,2.47,2.21,6.9,6.9,0,0,1,.85,3.5v3.3a7.23,7.23,0,0,1-.85,3.59,5.54,5.54,0,0,1-2.47,2.27,8.83,8.83,0,0,1-3.89.78h-4.9Zm4.88,2.64,3.5-.9,4.53,13.83H31.22Z" transform="translate(-0.93 -9.2)"/><path class="b" d="M53.77,9.72H57V38.16h-3.4V16.61L54,17.86,49,33.47H46.65L41.77,18.25l.45-1.64V38.16H38.7V9.72h3.4l5.75,17.83Z" transform="translate(-0.93 -9.2)"/><path class="b" d="M66.09,9.72h3.4l6.56,28.44h-4L67.77,15.54,63.51,38.16h-4ZM63.77,28.43h8.42v3.49H63.77Z" transform="translate(-0.93 -9.2)"/><path class="b" d="M78.59,9.72H82.3V38.16H78.59Zm2,24.88h9.8v3.56h-9.8Z" transform="translate(-0.93 -9.2)"/><path class="d" d="M96.05,37.64a5.06,5.06,0,0,1-2.19-2.27,8.14,8.14,0,0,1-.74-3.64v-22h3.71V31.89a3,3,0,0,0,.7,2.15,3.09,3.09,0,0,0,4.06,0,3,3,0,0,0,.72-2.15V9.72H106v22a8,8,0,0,1-.75,3.64,5.19,5.19,0,0,1-2.2,2.27,8.46,8.46,0,0,1-7,0Z" transform="translate(-0.93 -9.2)"/><path class="b" d="M114.66,21.89l4.4-12.17h4l-6.41,15.44-4.88,13h-4Zm.2,3.8-.63-1L108,9.75h4l4.1,11.5.66,1.13,6.67,15.78h-4Z" transform="translate(-0.93 -9.2)"/></svg>