<svg xmlns="http://www.w3.org/2000/svg" viewBox="0 0 230.68 178.76"><defs><style>.a,.e,.g{fill:none;}.a,.d{stroke:#1d1d1b;}.a,.d,.e,.g{stroke-miterlimit:10;}.b,.d{fill:#fff;}.c{fill:#3088b6;}.e{stroke:#fff;}.f{fill:#1d1d1b;}.g{stroke:#3088b6;stroke-width:6px;}</style></defs><path class="a" d="M154.46,107.11" transform="translate(-12.13 -14.71)"/><path class="b" d="M77,92.46l-3.37,1.82c-3.71,2-6.85,7.7-7,12.65L65.51,153c-.12,5-3.59,6.74-7.7,4l-38.2-25.58c-4.11-2.76-7.48-9.06-7.48-14v-38c0-5,3.48-11.09,7.72-13.63L61.68,40.7a16.53,16.53,0,0,1,15.42,0l37.5,22.6c4.24,2.56,5.61,5.78,3,7.17S107.28,76.1,106,76.79L103.75,78" transform="translate(-12.13 -14.71)"/><path class="c" d="M79.21,166.33c-4.25-2.53-7.73-8.66-7.73-13.61V114.19c0-5,3.48-11.07,7.74-13.6L120.28,76.2c4.25-2.53,11.25-2.58,15.54-.12l38.27,22c4.29,2.46,7.81,8.53,7.81,13.48v41.19c0,4.95-3.39,11.23-7.52,14L137,191.32a15.73,15.73,0,0,1-15.25.35Z" transform="translate(-12.13 -14.71)"/><path class="d" d="M153.83,109.22" transform="translate(-12.13 -14.71)"/><path class="b" d="M154.46,109.63h0L167.27,118V162.4H89V118L127.8,92.33,147.36,105" transform="translate(-12.13 -14.71)"/><polyline class="b" points="134.84 90.28 134.84 79.55 142.33 79.55 142.33 95.23"/><path class="e" d="M95.05,71.62" transform="translate(-12.13 -14.71)"/><path class="f" d="M107.22,77.56l.58.39-.07.07L76.38,92.91H56v32H28.45V80.45L68.58,54.84l19.8,12.43V56.91h8.39V72H97Z" transform="translate(-12.13 -14.71)"/><path class="a" d="M109.76,95.83" transform="translate(-12.13 -14.71)"/><path class="g" d="M96.65,33.49a38.11,38.11,0,0,1,30.53-15.78c12.34,0,23.36,6.17,30.53,15.78" transform="translate(-12.13 -14.71)"/><path class="g" d="M105.67,42a26.47,26.47,0,0,1,21.51-11.43" transform="translate(-12.13 -14.71)"/><path class="g" d="M127.18,30.61A26.45,26.45,0,0,1,148.68,42" transform="translate(-12.13 -14.71)"/><path class="g" d="M114.58,50.84a14.82,14.82,0,0,1,12.6-7.33" transform="translate(-12.13 -14.71)"/><path class="g" d="M127.18,43.51a14.79,14.79,0,0,1,12.46,7.11" transform="translate(-12.13 -14.71)"/><ellipse class="g" cx="115.04" cy="44.91" rx="3.01" ry="3.22"/><rect class="f" x="117.02" y="106.06" width="10" height="10" rx="3"/><rect class="f" x="104.97" y="106.06" width="10" height="10" rx="3"/><rect class="f" x="104.97" y="118.17" width="10" height="10" rx="3"/><rect class="f" x="117.02" y="118.17" width="10" height="10" rx="3"/><path class="b" d="M177.92,92.46l3.38,1.82c3.71,2,6.85,7.7,7,12.65L189.43,153c.13,5,3.59,6.74,7.7,4l38.2-25.58c4.12-2.76,7.48-9.06,7.48-14v-38c0-5-3.47-11.09-7.72-13.63L193.27,40.7a16.55,16.55,0,0,0-15.43,0l-37.5,22.6c-4.23,2.56-5.6,5.78-3,7.17s10.36,5.61,11.61,6.3L151.19,78" transform="translate(-12.13 -14.71)"/><path class="e" d="M159.69,71.62" transform="translate(-12.13 -14.71)"/><path d="M186.2,54.81q-19.38,11.71-38.8,23.42l31,14.68h20.43v32h27.65V80.46L186.24,54.85Z" transform="translate(-12.13 -14.71)"/><polyline points="196.27 54.83 196.27 44.1 203.75 44.1 203.75 59.78"/></svg>