<svg id="Layer_1" data-name="Layer 1" xmlns="http://www.w3.org/2000/svg" viewBox="0 0 659.09 184.69"><defs><style>.cls-1{fill:#c63527;}.cls-2{fill:#4c4e56;}</style></defs><title>Artboard 1</title><polygon class="cls-1" points="108.25 34.64 39.77 59.21 39.77 138.7 70.97 150.06 70.97 70.57 139.59 46.03 108.25 34.64"/><polygon class="cls-1" points="108.63 110.73 81.39 120.29 81.39 135.37 129.23 118.31 129.23 60.78 108.63 68.28 108.63 110.73"/><path class="cls-2" d="M185.11,61h7v7.39h-7Zm.35,16.71h6.26v45.33h-6.26Z"/><path class="cls-2" d="M200.77,77.73H207v7.4c2.53-4.53,6.62-8.27,13.4-8.27,9.22,0,14.79,6.36,14.79,16.54v29.67H229V95.14c0-8.09-3.83-12.62-10.44-12.62S207,87.74,207,95.48v27.58h-6.27Z"/><path class="cls-2" d="M245,112.54V83.31h-5.48V77.74H245V64.51h6.27V77.74h11.83v5.57H251.23V111.5c0,4.78,2.61,6.52,6.53,6.52a13.47,13.47,0,0,0,5.31-1.21v5.39a15.22,15.22,0,0,1-6.78,1.57C249.83,123.77,245,120.63,245,112.54Z"/><path class="cls-2" d="M265.23,100.8v-.44c0-13.83,8.1-23.49,18.71-23.49,11.4,0,18.18,9.75,18.18,23.41,0,.61,0,1.83-.09,2.61H271.58c.7,10,6.87,15.57,14,15.57,5,0,8.61-2.08,11.74-5.22l3.57,4c-4.09,4.17-8.79,6.78-15.57,6.78C274.28,124,265.23,115.15,265.23,100.8ZM295.86,98c-.44-8.62-4.53-15.66-11.92-15.67-6.7,0-11.75,6.18-12.36,15.66Z"/><path class="cls-2" d="M307.86,77.75h6.27v10c2.69-6.35,8.18-11,15.57-10.61v6.79h-.35c-8.44,0-15.22,5.91-15.23,17.57v21.58h-6.26Z"/><path class="cls-2" d="M329.78,117.51l3.31-4.61c4.26,3.57,8.7,5.48,13.22,5.48,5,0,8.44-2.78,8.44-7v-.09c0-4-3.74-6.09-9.83-8.61-7.22-3.14-13-6-13-13.06v-.17c0-7.4,6-12.36,14.1-12.35a24.69,24.69,0,0,1,14.26,4.87l-3,4.78c-3.48-2.52-7.4-4.26-11.4-4.26-4.78,0-7.83,2.78-7.83,6.35V89c0,3.83,3.92,5.75,10.09,8.36,7.48,3.31,12.7,6.44,12.7,13.31v.18c0,8.09-6.52,13.05-14.7,13A25.32,25.32,0,0,1,329.78,117.51Z"/><path class="cls-2" d="M364.32,100.81v-.61c0-13.22,8.53-23.31,20.19-23.31s20.1,10,20.1,23.23v.52c0,13.23-8.53,23.41-20.19,23.4S364.32,114,364.32,100.81Zm33.94-.08v-.44c0-10.18-6.09-17.75-13.84-17.75-8,0-13.66,7.57-13.66,17.66v.44c0,10.18,6,17.75,13.75,17.75C392.51,118.39,398.25,110.73,398.26,100.73Z"/><path class="cls-2" d="M412.87,83.33H407.3V77.85h5.57V73.67c0-4.7,1.31-8.26,3.48-10.53a12,12,0,0,1,8.79-3.21,19.61,19.61,0,0,1,6,.87v5.57a18.18,18.18,0,0,0-5.13-.88c-4.52,0-6.87,2.79-6.87,8.53v3.83H431v5.48H419.22v39.76h-6.36Z"/><path class="cls-2" d="M436.09,112.57V83.33h-5.48V77.76h5.48V64.54h6.27V77.76H454.2v5.56H442.36v28.19c0,4.79,2.61,6.53,6.52,6.53a13.49,13.49,0,0,0,5.31-1.22v5.4a15.4,15.4,0,0,1-6.79,1.56C441,123.79,436.09,120.66,436.09,112.57Z"/><path class="cls-2" d="M456.46,77.77h6.61l10,36.11,10.36-36.2h5.31l10.34,36.2,10.1-36.11h6.35L502,123.45H496.3L486,88.12l-10.36,35.33H470Z"/><path class="cls-2" d="M516.31,110v-.35C516.31,100.31,523,95,533,95a37.31,37.31,0,0,1,11.65,1.83V94.14c0-7.31-4.26-11.23-11.57-11.23a24.76,24.76,0,0,0-11.57,3l-2-5.13a31.21,31.21,0,0,1,14.27-3.65c5.48,0,9.75,1.57,12.7,4.52,2.79,2.79,4.35,7,4.35,12.27v29.15h-6.18V116.5a15.64,15.64,0,0,1-13.83,7.56C523.27,124.06,516.31,118.93,516.31,110Zm28.45-2.61v-5.65a31.82,31.82,0,0,0-11-1.83c-7.22,0-11.23,3.74-11.23,9.48v.26c0,5.65,4.26,9.22,9.66,9.22C539.19,118.93,544.76,114,544.76,107.36Z"/><path class="cls-2" d="M558.68,77.78H565v10c2.7-6.35,8.18-11,15.58-10.62V84h-.35c-8.44,0-15.23,5.91-15.23,17.57v21.58h-6.27Z"/><path class="cls-2" d="M580.6,100.84v-.44c0-13.83,8.1-23.49,18.71-23.48,11.4,0,18.18,9.74,18.18,23.4,0,.61,0,1.83-.09,2.61H587c.7,10,6.87,15.57,14,15.57,5,0,8.61-2.08,11.75-5.21l3.56,4c-4.09,4.17-8.79,6.78-15.57,6.78C589.65,124.07,580.6,115.2,580.6,100.84Zm30.63-2.78c-.44-8.61-4.52-15.66-11.92-15.66-6.7,0-11.75,6.17-12.36,15.66Z"/></svg>