<?xml version="1.0" encoding="utf-8"?>
<!-- Generator: Adobe Illustrator 23.1.1, SVG Export Plug-In . SVG Version: 6.00 Build 0)  -->
<svg version="1.1" id="Layer_1" xmlns="http://www.w3.org/2000/svg" xmlns:xlink="http://www.w3.org/1999/xlink" x="0px" y="0px"
	 viewBox="0 0 659.1 184.7" style="enable-background:new 0 0 659.1 184.7;" xml:space="preserve">
<style type="text/css">
	.st0{fill:#C63527;}
	.st1{fill:#FFFFFF;}
</style>
<title>Artboard 1</title>
<polygon class="st0" points="108.2,34.6 39.8,59.2 39.8,138.7 71,150.1 71,70.6 139.6,46 "/>
<polygon class="st0" points="108.6,110.7 81.4,120.3 81.4,135.4 129.2,118.3 129.2,60.8 108.6,68.3 "/>
<path class="st1" d="M185.1,61h7v7.4h-7V61z M185.5,77.7h6.3V123h-6.3V77.7z"/>
<path class="st1" d="M200.8,77.7h6.2v7.4c2.5-4.5,6.6-8.3,13.4-8.3c9.2,0,14.8,6.4,14.8,16.5v29.7H229V95.1
	c0-8.1-3.8-12.6-10.4-12.6s-11.6,5.2-11.6,13v27.6h-6.3L200.8,77.7z"/>
<path class="st1" d="M245,112.5V83.3h-5.5v-5.6h5.5V64.5h6.3v13.2h11.8v5.6h-11.9v28.2c0,4.8,2.6,6.5,6.5,6.5c1.8,0,3.6-0.4,5.3-1.2
	v5.4c-2.1,1-4.4,1.6-6.8,1.6C249.8,123.8,245,120.6,245,112.5z"/>
<path class="st1" d="M265.2,100.8v-0.4c0-13.8,8.1-23.5,18.7-23.5c11.4,0,18.2,9.8,18.2,23.4c0,0.6,0,1.8-0.1,2.6h-30.5
	c0.7,10,6.9,15.6,14,15.6c5,0,8.6-2.1,11.7-5.2l3.6,4c-4.1,4.2-8.8,6.8-15.6,6.8C274.3,124,265.2,115.2,265.2,100.8z M295.9,98
	c-0.4-8.6-4.5-15.7-11.9-15.7c-6.7,0-11.8,6.2-12.4,15.7L295.9,98z"/>
<path class="st1" d="M307.9,77.8h6.3v10c2.7-6.3,8.2-11,15.6-10.6v6.8h-0.4c-8.4,0-15.2,5.9-15.2,17.6v21.6h-6.3L307.9,77.8z"/>
<path class="st1" d="M329.8,117.5l3.3-4.6c4.3,3.6,8.7,5.5,13.2,5.5c5,0,8.4-2.8,8.4-7v-0.1c0-4-3.7-6.1-9.8-8.6
	c-7.2-3.1-13-6-13-13.1v-0.2c0-7.4,6-12.4,14.1-12.3c5.1,0.1,10.1,1.8,14.3,4.9l-3,4.8c-3.5-2.5-7.4-4.3-11.4-4.3
	c-4.8,0-7.8,2.8-7.8,6.3V89c0,3.8,3.9,5.8,10.1,8.4c7.5,3.3,12.7,6.4,12.7,13.3v0.2c0,8.1-6.5,13.1-14.7,13
	C340.1,123.8,334.3,121.5,329.8,117.5z"/>
<path class="st1" d="M364.3,100.8v-0.6c0-13.2,8.5-23.3,20.2-23.3s20.1,10,20.1,23.2v0.5c0,13.2-8.5,23.4-20.2,23.4
	S364.3,114,364.3,100.8z M398.3,100.7v-0.4c0-10.2-6.1-17.8-13.8-17.8c-8,0-13.7,7.6-13.7,17.7v0.4c0,10.2,6,17.8,13.8,17.8
	C392.5,118.4,398.2,110.7,398.3,100.7z"/>
<path class="st1" d="M412.9,83.3h-5.6v-5.5h5.6v-4.2c0-4.7,1.3-8.3,3.5-10.5c2.4-2.2,5.5-3.4,8.8-3.2c2,0,4.1,0.3,6,0.9v5.6
	c-1.7-0.5-3.4-0.8-5.1-0.9c-4.5,0-6.9,2.8-6.9,8.5v3.8H431v5.5h-11.8v39.8h-6.4L412.9,83.3z"/>
<path class="st1" d="M436.1,112.6V83.3h-5.5v-5.6h5.5V64.5h6.3v13.2h11.8v5.6h-11.8v28.2c0,4.8,2.6,6.5,6.5,6.5
	c1.8,0,3.6-0.5,5.3-1.2v5.4c-2.1,1-4.4,1.6-6.8,1.6C441,123.8,436.1,120.7,436.1,112.6z"/>
<path class="st1" d="M456.5,77.8h6.6l10,36.1l10.4-36.2h5.3l10.3,36.2l10.1-36.1h6.4L502,123.4h-5.7L486,88.1l-10.4,35.3H470
	L456.5,77.8z"/>
<path class="st1" d="M516.3,110v-0.3c0-9.3,6.7-14.7,16.7-14.7c4,0,7.9,0.6,11.7,1.8v-2.7c0-7.3-4.3-11.2-11.6-11.2
	c-4,0-8,1.1-11.6,3l-2-5.1c4.4-2.3,9.3-3.6,14.3-3.7c5.5,0,9.8,1.6,12.7,4.5c2.8,2.8,4.3,7,4.3,12.3v29.2h-6.2v-6.6
	c-2.9,4.8-8.2,7.7-13.8,7.6C523.3,124.1,516.3,118.9,516.3,110z M544.8,107.4v-5.7c-3.5-1.3-7.3-1.9-11-1.8
	c-7.2,0-11.2,3.7-11.2,9.5v0.3c0,5.7,4.3,9.2,9.7,9.2C539.2,118.9,544.8,114,544.8,107.4L544.8,107.4z"/>
<path class="st1" d="M558.7,77.8h6.3v10c2.7-6.3,8.2-11,15.6-10.6V84h-0.3c-8.4,0-15.2,5.9-15.2,17.6v21.6h-6.3L558.7,77.8z"/>
<path class="st1" d="M580.6,100.8v-0.4c0-13.8,8.1-23.5,18.7-23.5c11.4,0,18.2,9.7,18.2,23.4c0,0.6,0,1.8-0.1,2.6H587
	c0.7,10,6.9,15.6,14,15.6c5,0,8.6-2.1,11.8-5.2l3.6,4c-4.1,4.2-8.8,6.8-15.6,6.8C589.7,124.1,580.6,115.2,580.6,100.8z M611.2,98.1
	c-0.4-8.6-4.5-15.7-11.9-15.7c-6.7,0-11.8,6.2-12.4,15.7H611.2z"/>
</svg>
