<?xml version="1.0" encoding="utf-8"?>
<!-- Generator: Adobe Illustrator 24.0.2, SVG Export Plug-In . SVG Version: 6.00 Build 0)  -->
<svg version="1.1" id="Layer_1" xmlns="http://www.w3.org/2000/svg" xmlns:xlink="http://www.w3.org/1999/xlink" x="0px" y="0px"
	 viewBox="0 0 566.9 110.3" style="enable-background:new 0 0 566.9 110.3;" xml:space="preserve">
<style type="text/css">
	.Arched_x0020_Green{fill:url(#SVGID_1_);stroke:#FFFFFF;stroke-width:0.25;stroke-miterlimit:1;}
	.st0{fill:#007985;}
	.st1{fill:#00ABAD;}
	.st2{fill:none;}
</style>
<linearGradient id="SVGID_1_" gradientUnits="userSpaceOnUse" x1="0" y1="110.3398" x2="0.7071" y2="109.6327">
	<stop  offset="0" style="stop-color:#1CA238"/>
	<stop  offset="0.9831" style="stop-color:#273A20"/>
</linearGradient>
<g>
	<g>
		<g>
			<path class="st0" d="M161.2,27.9c-0.3,0.5-0.5,0.8-0.8,1c-0.3,0.2-0.7,0.3-1.1,0.3c-0.5,0-1-0.2-1.5-0.5c-0.5-0.3-1.2-0.7-2-1.2
				c-0.8-0.4-1.6-0.8-2.7-1.2c-1-0.3-2.2-0.5-3.6-0.5c-1.3,0-2.4,0.2-3.3,0.5c-0.9,0.3-1.7,0.7-2.4,1.3c-0.6,0.5-1.1,1.2-1.4,1.9
				c-0.3,0.7-0.5,1.6-0.5,2.5c0,1.1,0.3,2.1,1,2.8c0.6,0.8,1.5,1.4,2.5,1.9c1,0.5,2.2,1,3.6,1.4c1.3,0.4,2.7,0.9,4.1,1.4
				c1.4,0.5,2.8,1,4.1,1.7c1.3,0.6,2.5,1.4,3.6,2.4c1,1,1.9,2.2,2.5,3.6c0.6,1.4,1,3.1,1,5.1c0,2.2-0.4,4.2-1.1,6.2
				c-0.7,1.9-1.8,3.6-3.3,5c-1.4,1.4-3.2,2.5-5.3,3.4c-2.1,0.8-4.5,1.2-7.1,1.2c-1.5,0-3.1-0.1-4.6-0.4c-1.5-0.3-2.9-0.7-4.3-1.3
				c-1.4-0.6-2.7-1.2-3.9-2c-1.2-0.8-2.3-1.7-3.2-2.6l2.6-4.3c0.2-0.3,0.5-0.6,0.9-0.8c0.3-0.2,0.7-0.3,1.1-0.3
				c0.6,0,1.2,0.2,1.8,0.7c0.6,0.5,1.4,1,2.3,1.5c0.9,0.6,1.9,1.1,3.1,1.5c1.2,0.5,2.6,0.7,4.3,0.7c2.6,0,4.5-0.6,6-1.8
				c1.4-1.2,2.1-3,2.1-5.2c0-1.3-0.3-2.3-1-3.1c-0.6-0.8-1.5-1.5-2.5-2c-1-0.6-2.2-1-3.6-1.4c-1.3-0.4-2.7-0.8-4.1-1.2
				c-1.4-0.4-2.7-1-4.1-1.6c-1.3-0.6-2.5-1.4-3.6-2.4c-1-1-1.9-2.3-2.5-3.8c-0.6-1.5-1-3.4-1-5.6c0-1.8,0.3-3.5,1.1-5.2
				c0.7-1.7,1.7-3.2,3.1-4.5c1.3-1.3,3-2.3,5-3.1c2-0.8,4.2-1.2,6.8-1.2c2.9,0,5.5,0.4,7.9,1.3c2.4,0.9,4.5,2.1,6.2,3.8L161.2,27.9z
				"/>
			<path class="st0" d="M225.1,43.3c0,3.6-0.6,6.8-1.8,9.9c-1.2,3-2.8,5.6-5,7.9c-2.1,2.2-4.7,3.9-7.7,5.2c-3,1.2-6.4,1.9-10.1,1.9
				c-3.7,0-7-0.6-10-1.9c-3-1.2-5.6-3-7.8-5.2c-2.2-2.2-3.8-4.8-5-7.9c-1.2-3-1.8-6.3-1.8-9.9c0-3.6,0.6-6.8,1.8-9.9
				c1.2-3,2.9-5.7,5-7.9c2.2-2.2,4.7-3.9,7.8-5.2c3-1.2,6.4-1.9,10-1.9c2.5,0,4.8,0.3,6.9,0.8c2.2,0.6,4.2,1.4,6,2.4
				c1.8,1,3.4,2.3,4.9,3.8c1.4,1.5,2.7,3.1,3.7,5c1,1.8,1.8,3.8,2.3,6C224.9,38.7,225.1,41,225.1,43.3z M215.9,43.3
				c0-2.7-0.4-5-1.1-7.2c-0.7-2.1-1.7-3.9-3-5.4c-1.3-1.5-2.9-2.6-4.8-3.4c-1.9-0.8-4-1.2-6.4-1.2c-2.4,0-4.5,0.4-6.4,1.2
				c-1.9,0.8-3.5,1.9-4.8,3.4c-1.3,1.5-2.4,3.3-3.1,5.4c-0.7,2.1-1.1,4.5-1.1,7.2c0,2.7,0.4,5,1.1,7.2c0.7,2.1,1.7,3.9,3.1,5.4
				c1.3,1.5,2.9,2.6,4.8,3.4c1.9,0.8,4,1.2,6.4,1.2c2.4,0,4.5-0.4,6.4-1.2c1.9-0.8,3.5-1.9,4.8-3.4c1.3-1.5,2.3-3.3,3-5.4
				C215.6,48.4,215.9,46,215.9,43.3z"/>
			<path class="st0" d="M248.8,26.3v14.4H267v7.2h-18.2v19.7h-9.1V19.1h30.6v7.2H248.8z"/>
			<path class="st0" d="M318.3,26.5h-14.6v41.1h-9V26.5H280v-7.4h38.2V26.5z"/>
			<path class="st0" d="M422.3,67.6h-7c-0.8,0-1.4-0.2-1.9-0.6c-0.5-0.4-0.9-0.9-1.1-1.5l-3.6-9.9h-20.1l-3.6,9.9
				c-0.2,0.5-0.5,1-1,1.4c-0.5,0.4-1.1,0.6-1.9,0.6h-7l19.1-48.5h9.2L422.3,67.6z M406.4,49.3l-5.9-16.1c-0.3-0.7-0.6-1.6-0.9-2.5
				c-0.3-1-0.6-2-0.9-3.2c-0.3,1.1-0.6,2.2-0.9,3.2c-0.3,1-0.6,1.9-0.9,2.6L391,49.3H406.4z"/>
			<path class="st0" d="M462.4,60.1v7.4H434V19.1h9v41H462.4z"/>
			<path class="st0" d="M493.7,60.3c1.7,0,3.3-0.3,4.7-0.9c1.4-0.6,2.5-1.4,3.5-2.4c0.9-1,1.7-2.3,2.2-3.8c0.5-1.5,0.7-3.2,0.7-5
				v-29h9v29c0,2.9-0.5,5.5-1.4,8c-0.9,2.4-2.3,4.6-4,6.3c-1.7,1.8-3.8,3.2-6.3,4.2c-2.5,1-5.3,1.5-8.4,1.5c-3.1,0-5.9-0.5-8.4-1.5
				c-2.5-1-4.6-2.4-6.3-4.2c-1.7-1.8-3.1-3.9-4-6.3c-0.9-2.5-1.4-5.1-1.4-8v-29h9v29c0,1.9,0.3,3.5,0.8,5c0.5,1.5,1.2,2.8,2.2,3.8
				c0.9,1.1,2.1,1.9,3.5,2.5C490.4,60,492,60.3,493.7,60.3z"/>
			<path class="st0" d="M539.8,26.3v13.4h17v6.9h-17v13.7h21.5v7.2h-30.6V19.1h30.6v7.2H539.8z"/>
		</g>
		<g>
			<path class="st1" d="M139.5,92.8v5.4h-2.9v-5.4l-5.1-8.6h2.5c0.2,0,0.5,0.1,0.6,0.2c0.2,0.1,0.3,0.3,0.4,0.5l2.3,4.4
				c0.2,0.3,0.3,0.6,0.4,0.8c0.1,0.3,0.2,0.5,0.3,0.8c0.1-0.3,0.2-0.5,0.3-0.8c0.1-0.3,0.3-0.5,0.4-0.8l2.3-4.4
				c0.1-0.2,0.2-0.3,0.3-0.4c0.2-0.1,0.4-0.2,0.6-0.2h2.6L139.5,92.8z"/>
			<path class="st1" d="M166.3,91.1c0,1-0.2,2-0.5,2.8c-0.3,0.9-0.8,1.6-1.5,2.3c-0.6,0.6-1.4,1.1-2.3,1.5c-0.9,0.4-1.9,0.5-2.9,0.5
				c-1.1,0-2.1-0.2-2.9-0.5c-0.9-0.4-1.6-0.9-2.3-1.5c-0.6-0.6-1.1-1.4-1.5-2.3c-0.3-0.9-0.5-1.8-0.5-2.8c0-1,0.2-2,0.5-2.8
				c0.3-0.9,0.8-1.6,1.5-2.3c0.6-0.6,1.4-1.1,2.3-1.5c0.9-0.4,1.9-0.5,2.9-0.5c1.1,0,2.1,0.2,2.9,0.5c0.9,0.4,1.6,0.9,2.3,1.5
				c0.6,0.6,1.1,1.4,1.5,2.3C166.2,89.2,166.3,90.1,166.3,91.1z M163.4,91.1c0-0.7-0.1-1.4-0.3-2c-0.2-0.6-0.5-1.1-0.8-1.5
				c-0.4-0.4-0.8-0.7-1.3-0.9c-0.5-0.2-1.1-0.3-1.8-0.3c-0.7,0-1.2,0.1-1.8,0.3c-0.5,0.2-1,0.5-1.3,0.9c-0.4,0.4-0.6,0.9-0.8,1.5
				c-0.2,0.6-0.3,1.2-0.3,2c0,0.7,0.1,1.4,0.3,2c0.2,0.6,0.5,1.1,0.8,1.5c0.4,0.4,0.8,0.7,1.3,0.9c0.5,0.2,1.1,0.3,1.8,0.3
				c0.7,0,1.2-0.1,1.8-0.3c0.5-0.2,1-0.5,1.3-0.9c0.4-0.4,0.6-0.9,0.8-1.5C163.3,92.5,163.4,91.9,163.4,91.1z"/>
			<path class="st1" d="M181.9,95.8c0.5,0,0.9-0.1,1.3-0.2c0.4-0.2,0.7-0.4,0.9-0.7c0.3-0.3,0.5-0.7,0.6-1.1
				c0.1-0.4,0.2-0.9,0.2-1.4v-8.3h2.9v8.3c0,0.9-0.1,1.6-0.4,2.3c-0.3,0.7-0.7,1.3-1.2,1.8c-0.5,0.5-1.1,0.9-1.9,1.2
				c-0.7,0.3-1.5,0.4-2.5,0.4c-0.9,0-1.7-0.1-2.5-0.4c-0.7-0.3-1.3-0.7-1.9-1.2c-0.5-0.5-0.9-1.1-1.2-1.8c-0.3-0.7-0.4-1.5-0.4-2.3
				v-8.3h2.9v8.3c0,0.5,0.1,1,0.2,1.4c0.1,0.4,0.3,0.8,0.6,1.1c0.3,0.3,0.6,0.5,0.9,0.7C181,95.7,181.4,95.8,181.9,95.8z"/>
			<path class="st1" d="M209.4,98.1h-2.6c-0.5,0-0.8-0.2-1.1-0.6l-2.7-4.3c-0.1-0.2-0.2-0.3-0.4-0.4c-0.1-0.1-0.3-0.1-0.6-0.1h-1
				v5.3h-2.9v-14h4.4c1,0,1.8,0.1,2.5,0.3c0.7,0.2,1.3,0.5,1.7,0.8c0.4,0.4,0.8,0.8,1,1.3c0.2,0.5,0.3,1.1,0.3,1.6
				c0,0.5-0.1,0.9-0.2,1.3c-0.1,0.4-0.3,0.8-0.6,1.1c-0.3,0.3-0.6,0.6-0.9,0.9c-0.4,0.3-0.8,0.5-1.3,0.6c0.2,0.1,0.4,0.2,0.5,0.4
				c0.2,0.2,0.3,0.3,0.4,0.5L209.4,98.1z M202.7,90.8c0.5,0,0.9-0.1,1.2-0.2c0.3-0.1,0.6-0.3,0.8-0.5c0.2-0.2,0.4-0.5,0.5-0.7
				c0.1-0.3,0.2-0.6,0.2-0.9c0-0.7-0.2-1.2-0.6-1.5c-0.5-0.4-1.1-0.6-2-0.6h-1.5v4.4H202.7z"/>
			<path class="st1" d="M240.2,86.5h-4.1v11.7h-2.9V86.5h-4.1v-2.3h11.1V86.5z"/>
			<path class="st1" d="M260.8,98.1h-2.6c-0.5,0-0.8-0.2-1.1-0.6l-2.7-4.3c-0.1-0.2-0.2-0.3-0.4-0.4c-0.1-0.1-0.3-0.1-0.6-0.1h-1
				v5.3h-2.9v-14h4.4c1,0,1.8,0.1,2.5,0.3c0.7,0.2,1.3,0.5,1.7,0.8c0.4,0.4,0.8,0.8,1,1.3c0.2,0.5,0.3,1.1,0.3,1.6
				c0,0.5-0.1,0.9-0.2,1.3c-0.1,0.4-0.3,0.8-0.6,1.1c-0.3,0.3-0.6,0.6-0.9,0.9c-0.4,0.3-0.8,0.5-1.3,0.6c0.2,0.1,0.4,0.2,0.5,0.4
				c0.2,0.2,0.3,0.3,0.4,0.5L260.8,98.1z M254,90.8c0.5,0,0.9-0.1,1.2-0.2c0.3-0.1,0.6-0.3,0.8-0.5c0.2-0.2,0.4-0.5,0.5-0.7
				c0.1-0.3,0.2-0.6,0.2-0.9c0-0.7-0.2-1.2-0.7-1.5c-0.4-0.4-1.1-0.6-2-0.6h-1.5v4.4H254z"/>
			<path class="st1" d="M275.5,95.8c0.5,0,0.9-0.1,1.3-0.2c0.4-0.2,0.7-0.4,0.9-0.7c0.3-0.3,0.5-0.7,0.6-1.1
				c0.1-0.4,0.2-0.9,0.2-1.4v-8.3h2.9v8.3c0,0.9-0.1,1.6-0.4,2.3c-0.3,0.7-0.7,1.3-1.2,1.8c-0.5,0.5-1.1,0.9-1.9,1.2
				c-0.7,0.3-1.5,0.4-2.5,0.4c-0.9,0-1.7-0.1-2.5-0.4c-0.7-0.3-1.3-0.7-1.8-1.2c-0.5-0.5-0.9-1.1-1.2-1.8c-0.3-0.7-0.4-1.5-0.4-2.3
				v-8.3h2.9v8.3c0,0.5,0.1,1,0.2,1.4c0.1,0.4,0.3,0.8,0.6,1.1c0.3,0.3,0.6,0.5,0.9,0.7C274.6,95.7,275,95.8,275.5,95.8z"/>
			<path class="st1" d="M299.4,86.8c-0.1,0.1-0.2,0.3-0.3,0.3c-0.1,0.1-0.2,0.1-0.4,0.1c-0.1,0-0.3,0-0.5-0.2
				c-0.2-0.1-0.4-0.2-0.6-0.3c-0.2-0.1-0.5-0.2-0.7-0.3c-0.3-0.1-0.6-0.2-1-0.2c-0.7,0-1.2,0.2-1.5,0.5c-0.3,0.3-0.5,0.7-0.5,1.2
				c0,0.3,0.1,0.6,0.3,0.8c0.2,0.2,0.4,0.4,0.7,0.5c0.3,0.1,0.6,0.3,1,0.4c0.4,0.1,0.8,0.2,1.2,0.4c0.4,0.1,0.8,0.3,1.2,0.5
				c0.4,0.2,0.7,0.4,1,0.7c0.3,0.3,0.5,0.6,0.7,1c0.2,0.4,0.3,0.9,0.3,1.5c0,0.6-0.1,1.2-0.3,1.8c-0.2,0.6-0.5,1-1,1.5
				c-0.4,0.4-0.9,0.7-1.6,1c-0.6,0.2-1.3,0.4-2.1,0.4c-0.4,0-0.9,0-1.3-0.1c-0.4-0.1-0.9-0.2-1.3-0.4c-0.4-0.2-0.8-0.3-1.2-0.6
				c-0.4-0.2-0.7-0.5-0.9-0.7l0.8-1.4c0.1-0.1,0.2-0.2,0.3-0.3c0.1-0.1,0.2-0.1,0.4-0.1c0.2,0,0.4,0.1,0.6,0.2
				c0.2,0.1,0.4,0.3,0.7,0.4c0.3,0.2,0.5,0.3,0.9,0.4c0.3,0.1,0.7,0.2,1.2,0.2c0.7,0,1.2-0.2,1.6-0.5c0.4-0.3,0.6-0.8,0.6-1.4
				c0-0.4-0.1-0.6-0.3-0.9c-0.2-0.2-0.4-0.4-0.7-0.5c-0.3-0.2-0.6-0.3-1-0.4c-0.4-0.1-0.8-0.2-1.2-0.4c-0.4-0.1-0.8-0.3-1.2-0.5
				c-0.4-0.2-0.7-0.4-1-0.7c-0.3-0.3-0.5-0.7-0.7-1.1c-0.2-0.4-0.3-1-0.3-1.6c0-0.5,0.1-1,0.3-1.5c0.2-0.5,0.5-0.9,0.9-1.3
				c0.4-0.4,0.9-0.7,1.5-0.9c0.6-0.2,1.2-0.3,2-0.3c0.8,0,1.6,0.1,2.4,0.4c0.7,0.3,1.3,0.6,1.8,1.1L299.4,86.8z"/>
			<path class="st1" d="M320.1,86.5H316v11.7h-2.9V86.5H309v-2.3h11.1V86.5z"/>
			<path class="st1" d="M332.5,86.4V90h4.7v2.2h-4.7v3.7h6v2.3h-8.9v-14h8.9v2.3H332.5z"/>
			<path class="st1" d="M360.9,91.1c0,1-0.2,2-0.5,2.8c-0.3,0.9-0.8,1.6-1.5,2.2c-0.6,0.6-1.4,1.1-2.3,1.4c-0.9,0.3-1.9,0.5-2.9,0.5
				h-5.4v-14h5.4c1.1,0,2,0.2,2.9,0.5c0.9,0.3,1.6,0.8,2.3,1.4c0.6,0.6,1.1,1.4,1.5,2.2C360.8,89.2,360.9,90.1,360.9,91.1z
				 M358,91.1c0-0.7-0.1-1.4-0.3-2c-0.2-0.6-0.5-1.1-0.8-1.5c-0.4-0.4-0.8-0.7-1.3-0.9c-0.5-0.2-1.1-0.3-1.8-0.3h-2.5v9.5h2.5
				c0.7,0,1.2-0.1,1.8-0.3c0.5-0.2,0.9-0.5,1.3-0.9c0.4-0.4,0.6-0.9,0.8-1.5C357.9,92.5,358,91.9,358,91.1z"/>
			<path class="st1" d="M386,98.1h-2.9v-14h2.9V98.1z"/>
			<path class="st1" d="M406.6,86.5h-4.1v11.7h-2.9V86.5h-4.1v-2.3h11.1V86.5z"/>
			<path class="st1" d="M432.5,84.1c1,0,1.8,0.1,2.5,0.3c0.7,0.2,1.3,0.5,1.7,0.9c0.5,0.4,0.8,0.9,1,1.4c0.2,0.6,0.3,1.2,0.3,1.8
				c0,0.7-0.1,1.3-0.3,1.9c-0.2,0.6-0.6,1.1-1,1.5c-0.5,0.4-1,0.7-1.7,1c-0.7,0.2-1.5,0.3-2.4,0.3h-1.8v4.8h-2.9v-14H432.5z
				 M432.5,91.1c0.9,0,1.6-0.2,2-0.7c0.4-0.4,0.6-1,0.6-1.8c0-0.4-0.1-0.7-0.2-0.9c-0.1-0.3-0.3-0.5-0.5-0.7
				c-0.2-0.2-0.5-0.4-0.8-0.5c-0.3-0.1-0.7-0.2-1.2-0.2h-1.8v4.8H432.5z"/>
			<path class="st1" d="M458.9,98.1h-2.3c-0.2,0-0.4-0.1-0.6-0.2c-0.2-0.1-0.3-0.3-0.4-0.5l-0.9-2.7h-5.6l-0.9,2.7
				c-0.1,0.2-0.2,0.3-0.3,0.4c-0.2,0.1-0.4,0.2-0.6,0.2H445l5.5-14h2.9L458.9,98.1z M454,92.8l-1.5-4.3c-0.1-0.2-0.2-0.5-0.3-0.8
				c-0.1-0.3-0.2-0.6-0.3-1c-0.1,0.4-0.2,0.7-0.3,1c-0.1,0.3-0.2,0.6-0.3,0.8l-1.5,4.3H454z"/>
			<path class="st1" d="M479,98.1h-2.6c-0.5,0-0.9-0.2-1.1-0.6l-2.7-4.3c-0.1-0.2-0.2-0.3-0.4-0.4c-0.1-0.1-0.3-0.1-0.6-0.1h-1v5.3
				h-2.9v-14h4.4c1,0,1.8,0.1,2.5,0.3c0.7,0.2,1.3,0.5,1.7,0.8c0.4,0.4,0.8,0.8,1,1.3c0.2,0.5,0.3,1.1,0.3,1.6
				c0,0.5-0.1,0.9-0.2,1.3c-0.1,0.4-0.3,0.8-0.6,1.1c-0.3,0.3-0.6,0.6-0.9,0.9c-0.4,0.3-0.8,0.5-1.3,0.6c0.2,0.1,0.4,0.2,0.5,0.4
				c0.2,0.2,0.3,0.3,0.4,0.5L479,98.1z M472.3,90.8c0.5,0,0.9-0.1,1.2-0.2c0.3-0.1,0.6-0.3,0.8-0.5c0.2-0.2,0.4-0.5,0.5-0.7
				c0.1-0.3,0.2-0.6,0.2-0.9c0-0.7-0.2-1.2-0.7-1.5c-0.4-0.4-1.1-0.6-2-0.6h-1.5v4.4H472.3z"/>
			<path class="st1" d="M497.7,86.5h-4.1v11.7h-2.9V86.5h-4.1v-2.3h11.1V86.5z"/>
			<path class="st1" d="M519.2,84.1v14h-1.5c-0.2,0-0.4,0-0.6-0.1c-0.2-0.1-0.3-0.2-0.5-0.4l-7-8.9c0,0.2,0,0.5,0,0.7
				c0,0.2,0,0.4,0,0.6v8.1h-2.6v-14h1.5c0.1,0,0.2,0,0.3,0c0.1,0,0.2,0,0.2,0.1c0.1,0,0.1,0.1,0.2,0.1c0.1,0.1,0.1,0.1,0.2,0.2
				l7,8.9c0-0.2,0-0.5,0-0.7c0-0.2,0-0.4,0-0.7v-8H519.2z"/>
			<path class="st1" d="M532.7,86.4V90h4.7v2.2h-4.7v3.7h6v2.3h-8.9v-14h8.9v2.3H532.7z"/>
			<path class="st1" d="M559.8,98.1h-2.6c-0.5,0-0.8-0.2-1.1-0.6l-2.7-4.3c-0.1-0.2-0.2-0.3-0.4-0.4c-0.1-0.1-0.3-0.1-0.6-0.1h-1
				v5.3h-2.9v-14h4.4c1,0,1.8,0.1,2.5,0.3c0.7,0.2,1.3,0.5,1.7,0.8c0.4,0.4,0.8,0.8,1,1.3c0.2,0.5,0.3,1.1,0.3,1.6
				c0,0.5-0.1,0.9-0.2,1.3c-0.1,0.4-0.3,0.8-0.6,1.1c-0.3,0.3-0.6,0.6-0.9,0.9c-0.4,0.3-0.8,0.5-1.2,0.6c0.2,0.1,0.4,0.2,0.5,0.4
				c0.2,0.2,0.3,0.3,0.4,0.5L559.8,98.1z M553,90.8c0.5,0,0.9-0.1,1.2-0.2c0.3-0.1,0.6-0.3,0.8-0.5c0.2-0.2,0.4-0.5,0.5-0.7
				c0.1-0.3,0.1-0.6,0.1-0.9c0-0.7-0.2-1.2-0.7-1.5c-0.4-0.4-1.1-0.6-2-0.6h-1.5v4.4H553z"/>
		</g>
	</g>
	<g>
		<path class="st1" d="M6.9,66.4h7.7c-0.9-3.6-1.4-7.4-1.4-11.2c0-12.2,4.8-23.2,12.7-31.4c0.4-0.4,0.8-0.8,1.2-1.2
			c0.8-0.8,1.7-1.6,2.6-2.4c0,0,0,0,0,0c0,0,0.1-0.1,0.1-0.1h0c4.3-3.6,9.4-6.3,14.8-8.1c0.6-0.2,1.2-0.3,1.7-0.5
			c0.5-0.1,1.1-0.3,1.6-0.4c0.8-0.2,1.6-0.4,2.4-0.5c0,0,0.1,0,0.1,0c0.9-0.2,1.8-0.3,2.6-0.4c0,0,0,0,0,0c0.9-0.1,1.7-0.2,2.6-0.2
			c0.4,0,0.7,0,1.1-0.1c0.5,0,1,0,1.5,0c0.8,0,1.6,0,2.4,0.1c0.3,0,0.5,0,0.8,0c14.5,1,27.1,8.8,34.6,20.3H35.3
			c-2.4,0-4.6,0.5-6.6,1.3c-0.1,0-0.2,0.1-0.3,0.1c0,0,0,0-0.1,0c-1.2,0.6-2.6,1.4-4,2.5c-3.8,3.2-6.3,7.9-6.3,13.3v1.6
			c0,9.3,7.4,17,16.7,17.3h46.7v-7.5H35.3c-5.4,0-9.8-4.4-9.8-9.8v-1.6c0-5.4,4.4-9.8,9.8-9.8h72.9C102.4,20.9,88.2,8,70.6,3.8
			c-0.1,0-0.2,0-0.2-0.1c-1-0.2-2-0.4-3-0.6c-0.2,0-0.3-0.1-0.5-0.1c-1-0.2-2.1-0.3-3.2-0.4c-0.4,0-0.7-0.1-1.1-0.1
			c-0.7-0.1-1.3-0.1-2-0.1c-0.3,0-0.5,0-0.8,0v0c-0.1,0-0.3,0-0.4,0c-0.4,0-0.7,0-1.1,0c-0.1,0-0.2,0-0.3,0c-0.9,0-1.9,0-2.8,0.1
			c0,0-0.1,0-0.1,0c-0.9,0.1-1.8,0.1-2.7,0.2c-0.2,0-0.5,0.1-0.7,0.1C51,2.9,50.3,3,49.5,3.1c-0.2,0-0.4,0.1-0.5,0.1
			c-0.9,0.2-1.8,0.3-2.7,0.6c-0.2,0-0.4,0.1-0.6,0.2c-0.7,0.2-1.4,0.4-2.1,0.6c-0.2,0.1-0.5,0.1-0.7,0.2c-0.3,0.1-0.5,0.2-0.8,0.2
			c-0.3,0.1-0.6,0.2-1,0.3c-0.4,0.1-0.8,0.3-1.1,0.4c-0.7,0.2-1.3,0.5-2,0.8c-0.2,0.1-0.4,0.2-0.6,0.3c-0.8,0.3-1.6,0.7-2.4,1.1
			c0,0,0,0,0,0c-0.5,0.2-1,0.5-1.4,0.8c-0.2,0.1-0.3,0.2-0.5,0.3C24.7,13.4,18,20,13.3,27.8c0,0,0,0.1-0.1,0.1
			c-0.4,0.7-0.8,1.3-1.2,2c0,0,0,0,0.1-0.1C8,37.4,5.6,46,5.6,55.2C5.6,59,6.1,62.8,6.9,66.4z"/>
		<path class="st0" d="M102.4,44.7c0.8,3.4,1.3,6.9,1.3,10.5c0,11.9-4.8,22.7-12.3,30.7c-0.1,0,0.1,0,0,0c-1.4,1.6-3,3-4.6,4.4
			c-0.4,0.4-0.9,0.7-1.3,1c0,0-0.1,0.1-0.1,0.1c-0.5,0.3-0.9,0.7-1.4,1c0,0-0.1,0.1-0.2,0.1c-0.5,0.3-0.9,0.6-1.4,0.9
			c-0.1,0.1-0.2,0.1-0.3,0.2c-0.4,0.3-0.8,0.5-1.3,0.7c-0.2,0.1-0.4,0.2-0.6,0.3c-0.3,0.2-0.7,0.4-1,0.6c-0.3,0.2-0.6,0.3-0.9,0.5
			c-0.2,0.1-0.5,0.2-0.7,0.3c-0.5,0.2-1,0.4-1.4,0.7c-0.1,0-0.2,0.1-0.2,0.1c-1.2,0.5-2.4,1-3.7,1.4c-3.9,1.3-7.8,1.9-11.7,2.1
			c0,0,0,0,0,0c-0.8,0-1.5,0.1-2.3,0.1c-1,0-1.9,0-2.9-0.1l0,0c-2.8-0.2-5.5-0.6-8.1-1.3c-0.2,0-0.4-0.1-0.5-0.1
			c-2.6-0.7-5.1-1.6-7.4-2.7c0,0-0.1,0-0.1-0.1c-1.6-0.7-3.1-1.5-4.5-2.4c-0.1,0-0.1-0.1-0.2-0.1c-2.2-1.4-4.3-3-6.3-4.7
			c-0.1-0.1-0.1-0.1-0.2-0.2c-1.2-1.1-2.4-2.3-3.5-3.6c0,0-0.1-0.1-0.1-0.1c-0.6-0.6-1.1-1.3-1.6-2c-0.1-0.1-0.2-0.2-0.3-0.4
			c-0.5-0.6-0.9-1.2-1.4-1.9h60.3c4.1,0,7.9-1.5,10.9-3.9c0.1-0.1,0.2-0.2,0.3-0.2c0.1-0.1,0.2-0.2,0.3-0.2c2.7-2.5,4.1-5.5,4.6-6.5
			c0.8-2,1.2-4.1,1.2-6.4v-1.6c0-9.5-7.7-17.3-17.2-17.3h-7.3v0H35.3v7.5h46.1c5.4,0,9.8,4.4,9.8,9.8v1.6c0,5.4-4.4,9.8-9.8,9.8H8.8
			c0.8,2.3,1.8,4.6,2.9,6.7l0,0c4,7.5,9.8,13.9,16.8,18.7c0.2,0.1,0.4,0.3,0.6,0.4c0.6,0.4,1.2,0.8,1.8,1.1c0.2,0.1,0.4,0.2,0.6,0.3
			c1.1,0.6,2.1,1.2,3.2,1.8c0.3,0.1,0.6,0.3,0.9,0.5c0.5,0.2,1.1,0.5,1.6,0.7c0.4,0.2,0.8,0.3,1.2,0.5c0.5,0.2,1,0.4,1.6,0.6
			c0.5,0.2,1.1,0.4,1.6,0.6c0.7,0.2,1.4,0.5,2.2,0.7c0.6,0.2,1.2,0.3,1.8,0.5c0.4,0.1,0.9,0.2,1.3,0.3c0.6,0.1,1.2,0.3,1.9,0.4
			c0.4,0.1,0.8,0.2,1.2,0.2c1,0.2,2,0.3,3,0.4c0.2,0,0.4,0,0.5,0c0.9,0.1,1.9,0.1,2.8,0.2c0.1,0,0.3,0,0.4,0c0,0,0,0,0.1,0
			c0.5,0,1,0,1.5,0c0,0,0,0,0,0c0,0,0,0,0,0c29.2,0,52.8-23.6,52.8-52.8c0-3.6-0.4-7.1-1.1-10.5H102.4z"/>
	</g>
	<g>
		<path class="st0" d="M336.1,21.9L336.1,21.9l-0.3-0.8c-0.2-0.6-0.6-1.1-1.1-1.5c-0.5-0.4-1.1-0.6-1.9-0.6h-7.2l19.6,48.5h8.1
			l0.1-0.4L336.1,21.9z"/>
		<path class="st1" d="M356.1,60.7l16.8-41.6h-7.3c-0.8,0-1.4,0.2-1.9,0.6c-0.5,0.4-0.9,0.9-1.1,1.4l-10.9,28.4L356.1,60.7z"/>
		<path class="st0" d="M372.9,19.1h-7.3c-0.8,0-1.4,0.2-1.9,0.6c-0.5,0.4-0.9,0.9-1.1,1.4l-10.9,28.4L372.9,19.1z"/>
	</g>
</g>
<rect class="st2" width="566.9" height="110.3"/>
</svg>
