<svg xmlns="http://www.w3.org/2000/svg" xmlns:xlink="http://www.w3.org/1999/xlink" viewBox="0 0 548.26 506.78"><defs><style>.a{fill:url(#a);}.b{fill:url(#b);}.c{fill:url(#c);}.d{fill:#006838;}.e{fill:#fff;}.f{fill:#231f20;}</style><radialGradient id="a" cx="363.1" cy="383.48" r="0.03" gradientUnits="userSpaceOnUse"><stop offset="0" stop-color="#f9ed32"/><stop offset="0.13" stop-color="#eee92d"/><stop offset="0.4" stop-color="#dde226"/><stop offset="0.61" stop-color="#d7df23"/><stop offset="0.73" stop-color="#eae812" stop-opacity="0.98"/><stop offset="0.87" stop-color="#faef05" stop-opacity="0.96"/><stop offset="1" stop-color="#fff200" stop-opacity="0.95"/></radialGradient><radialGradient id="b" cx="418.28" cy="219.41" r="175.56" xlink:href="#a"/><radialGradient id="c" cx="579.47" cy="259.2" r="1.55" xlink:href="#a"/></defs><title>Logo_DEF</title><path class="a" d="M363.07,383.49h.06v0Z" transform="translate(-146.48 -34)"/><path class="b" d="M565.64,317.25a20.23,20.23,0,0,0,4.11-8.68,34.66,34.66,0,0,0,.1-10.1c-.35-3.61-.84-7.43-.86-11.37a49.69,49.69,0,0,1,1.35-11.78,34.71,34.71,0,0,1,4.58-10.9,28.57,28.57,0,0,1,2.92-3.75c-5.94,3.43-11.52,6.66-15.63,12.45a23.47,23.47,0,0,1,5.2-9.83,58.48,58.48,0,0,1,8.2-7.47,98,98,0,0,0,7.86-6.67,24.83,24.83,0,0,0,5.28-7.62l.78-2.15c.24-.73.31-1.53.5-2.28a30.81,30.81,0,0,0,.54-4.76c.1-3.41,0-7-.11-10.4a69.76,69.76,0,0,0-1.23-10.31,26.22,26.22,0,0,0-3-8.25,16.66,16.66,0,0,1-4.1.53,42.34,42.34,0,0,1-7.39-.8c-2.32-.42-4.61-.87-6.85-1.2a17,17,0,0,0-6.48-.18c-2.07.33-3.6,2.16-4.48,4.36a8.48,8.48,0,0,1,1-3.5,6.28,6.28,0,0,1,2.83-2.63c2.4-1.21,5-1.27,7.36-1.4s4.77.05,7.1.09a49.07,49.07,0,0,0,6.58-.06c4-.5,6.89-2.62,7.95-6.06a15.77,15.77,0,0,0,.64-5.65,26,26,0,0,0-1-6.12,25.32,25.32,0,0,0-2.17-5.75,26.31,26.31,0,0,0-3.62-5c-2.79-3.17-6.57-5.74-10.19-9.06a27.55,27.55,0,0,1-5-5.74,21.5,21.5,0,0,1-2.77-7c-.38.49-.71,1-1.13,1.46a18.3,18.3,0,0,1-7,5,14.37,14.37,0,0,1-8.83.44,20.18,20.18,0,0,1-4-1.54c-.61-.36-1.21-.71-1.82-1.09a10.71,10.71,0,0,1-1.8-1.62,5.83,5.83,0,0,1-1.35-2.55,6,6,0,0,1,.08-2.79c.39-1.53,1-2.56,1.2-3.53,1.3-3.52-2.36-7.76-6.06-10.19A14.68,14.68,0,0,0,523.46,130a19.15,19.15,0,0,1,1.39,7.28,23.8,23.8,0,0,1-1.7,8.79,45.18,45.18,0,0,0-1.61-8.33,16.91,16.91,0,0,0-3.43-6.65,14,14,0,0,0-1.2-1.13l-.67-.45c-.2-.14-.42-.3-.77-.52-1.26-.77-2.48-1.6-3.69-2.48a41.4,41.4,0,0,1-6.89-6.13A19.27,19.27,0,0,1,502,116a9.82,9.82,0,0,1-.79-3.18,6.64,6.64,0,0,1,.82-3.82,6.16,6.16,0,0,1,1-1.4,10.46,10.46,0,0,1,1-1.06,11.78,11.78,0,0,1,2.26-1.6,13.85,13.85,0,0,1,5-1.68,14.24,14.24,0,0,1,9.66,2.13,17.12,17.12,0,0,1,5.89,6.9,24.41,24.41,0,0,0-7.33-3.87,11.72,11.72,0,0,0-7.07.08,10.05,10.05,0,0,0-2.92,1.54,7.39,7.39,0,0,0-1.12,1,3.69,3.69,0,0,0-.42.52c-.09.16-.26.38-.19.39a.1.1,0,0,0,0,.12s0,.12,0,.2a3.64,3.64,0,0,0,.35.94,13.7,13.7,0,0,0,1.89,2.71,55.64,55.64,0,0,0,5.71,5.51c1,.91,2.11,1.77,3.18,2.67.24.19.57.48.92.8l1,.93a18.6,18.6,0,0,1,1.59,2.12,15.38,15.38,0,0,1,.83,1.68,15.39,15.39,0,0,1,12.72.17,19.66,19.66,0,0,1,6.28,4.76c.46.5.84,1.12,1.26,1.68a13.25,13.25,0,0,1,1,2,9.51,9.51,0,0,1,.25,4.55c-.26,1.44-.75,2.66-.86,3.54s0,.93.52,1.45c.16.24.71.48,1,.74l1.4.71a15.11,15.11,0,0,0,3,.93,9,9,0,0,0,5.63-.65,13.94,13.94,0,0,0,4.67-3.76,23.79,23.79,0,0,0,3.4-5.56,28.85,28.85,0,0,0,1.2-3.11l.39-1.45.23-1.52a24.6,24.6,0,0,0-2.36-12.55,27.33,27.33,0,0,0-3.41-5.57,18.75,18.75,0,0,0-2.1-2.31,10.62,10.62,0,0,0-2.16-1.6,5.45,5.45,0,0,0-4.5,0,14.63,14.63,0,0,0-4.82,3.24l-.17.18a3.28,3.28,0,0,1-4.73-4.53c1.09-1.18,1.68-4,1.41-6.69a23.87,23.87,0,0,0-2.25-8.16,22.91,22.91,0,0,0-4.73-7A18.2,18.2,0,0,0,528,85.37c-5.71-1.61-12.08-1.44-18.21-.45a40.07,40.07,0,0,0-9,2.57,16.38,16.38,0,0,0-3.57,2.19,8.64,8.64,0,0,1,.33,1.19,17.55,17.55,0,0,1-.84,9.5c-.46,1.44-1.09,2.68-1.65,4s-1.28,2.49-2,3.66a77.36,77.36,0,0,1-4.52,6.77,80.6,80.6,0,0,1-10.85,12A128.2,128.2,0,0,1,484,112c2.22-4.73,4.76-9.41,6.29-13.85a13.53,13.53,0,0,0,.95-6.12,11.49,11.49,0,0,0-.28-1.47c-.2-.52-.3-1-.53-1.6s-.43-1.1-.7-1.69a15.65,15.65,0,0,0-.74-1.6c-.91-1.86-2-3.08-4.14-3.09s-4.71,1-7.1,2.24a12.31,12.31,0,0,1,6.53-5.53,7.91,7.91,0,0,1,5.18.18,8.49,8.49,0,0,1,2.27,1.43c.33.28.67.57,1,.88l.77,1a22,22,0,0,1,1.29,1.82c.39.56.74,1.22,1.11,1.85s.68,1.37,1,2.07l.09.25a16.58,16.58,0,0,1,3.15-2.59,35.86,35.86,0,0,1,9.07-3.91c.94-.28,1.91-.47,2.87-.7l-.25-.06a20.06,20.06,0,0,0-3.09-14.73,20.68,20.68,0,0,0-5.26-5.17,35.34,35.34,0,0,0-3.17-1.94,32.33,32.33,0,0,0-3.41-1.42,24.81,24.81,0,0,0-7.07-1.37,22.6,22.6,0,0,0-7,1,20.19,20.19,0,0,0-6.22,3l-1.3,1c-.36.38-.77.75-1.09,1.14A6.05,6.05,0,0,0,473,65.11a3.2,3.2,0,0,1-6.27-1.25l0-.2c.57-3.69.51-8.11-.91-11.42a15.11,15.11,0,0,0-1.22-2.37A12.19,12.19,0,0,0,462.9,48a13.73,13.73,0,0,0-4.6-2.65c-.6-.18-1.21-.31-1.83-.44-.4-.09-.79-.19-1.2-.27A27.31,27.31,0,0,0,435.32,49a18.12,18.12,0,0,0-7.11,9,9.11,9.11,0,0,0,.07,5.25A7.68,7.68,0,0,0,431,67.59a3.47,3.47,0,0,0,2.11.39,8.47,8.47,0,0,0,2.62-.89,16.78,16.78,0,0,0,2.58-1.72c.85-.65,1.42-1.43,2.7-2.32a4.17,4.17,0,0,1,4.24-.18,6.5,6.5,0,0,1,2.59,2.78,9.92,9.92,0,0,1,.78,6.86,9.62,9.62,0,0,0-1.85-6.19,5,5,0,0,0-2.26-1.81,2.14,2.14,0,0,0-2.19.44c-.53.46-1.3,1.56-2.13,2.42a18.2,18.2,0,0,1-2.78,2.44,10.35,10.35,0,0,1-3.62,1.7,7.28,7.28,0,0,1-4.51-.37c-2.9-1.41-4.33-4-5.31-6.25a14,14,0,0,1-.73-8.09,22.28,22.28,0,0,1,8.53-12.59,33.5,33.5,0,0,1,4.12-2.64c-5.84-.58-11.76-.89-17.75-.89-5.35,0-10.63.27-15.86.73A18.24,18.24,0,0,1,407,44.83a16.65,16.65,0,0,0-7.25-3c-.27,0-.53,0-.8,0-1.69.18-3.37.39-5.05.62a14.59,14.59,0,0,0-1.55.6,15.36,15.36,0,0,0-3.16,2,11.27,11.27,0,0,0-1.33,1.24,5.13,5.13,0,0,0-.38.46,9.15,9.15,0,0,0,.66.9c.38.47.8.95,1.24,1.42s1.13,1.16,1.71,1.73c.29.27.59.56.89.89l.14.15h0l.13.14,0,0a2,2,0,0,1-2.95,2.58l-.12-.15h0a12.07,12.07,0,0,0-2.68-1.76,19.74,19.74,0,0,0-3.34-1.29A32.93,32.93,0,0,0,376,50a63.05,63.05,0,0,0-15,1.2,21.06,21.06,0,0,0-11.67,7,21.73,21.73,0,0,0-3.52,5.91,25.55,25.55,0,0,0-1.09,3.34,21.47,21.47,0,0,0-.57,3.27v0a3.39,3.39,0,0,1-5.59,2.33c-2.2-1.89-5.76-2.41-9.47-1.88A35.94,35.94,0,0,0,318,74.93,51.11,51.11,0,0,0,308,81.56a36.2,36.2,0,0,0-4.27,4.22c-.65.78-1.37,1.51-2,2.3l-1.84,2.41c-4.68,6.54-7.41,14.46-6.37,22.6a37.61,37.61,0,0,0,1.19,6c.3,1,.6,2,1,3a10.44,10.44,0,0,0,8.6,7.3,27.39,27.39,0,0,1,7.56-3.16,75.45,75.45,0,0,1,18.48-1.8,74.44,74.44,0,0,1,17.85,2.63,13.85,13.85,0,0,1-1.49-6.48,14.84,14.84,0,0,1,2.83-8.44,17.58,17.58,0,0,1,6.86-5.51l2-.83c.66-.23,1.33-.39,2-.58a24.64,24.64,0,0,1,4-.72,20.79,20.79,0,0,1,8.3.69,15.38,15.38,0,0,1,7.07,4.5,12.51,12.51,0,0,1,3,7.24,15.14,15.14,0,0,0-11.2-6.5,26.75,26.75,0,0,0-12.31,2.38,12.11,12.11,0,0,0-7.25,8.3,13.17,13.17,0,0,0,.54,7.57,30.65,30.65,0,0,1,4.94,2.58,18.35,18.35,0,0,1,6.83,7.73,20.15,20.15,0,0,1,1.37,9.84,42.35,42.35,0,0,0-.23,8.49c.49,5.38,5,9.69,9.9,13-1.35-.61-2.77-1.14-4.11-1.84A23.73,23.73,0,0,1,367.4,166a15.52,15.52,0,0,1-5.26-7.94c-.87-3.17-.8-6.37-1-9.22s-.49-5.41-1.69-7.46a14.37,14.37,0,0,0-5.21-5,33.13,33.13,0,0,0-7.46-2.94,71.92,71.92,0,0,0-16.72-2.15,74,74,0,0,0-16.84,1.26,19.13,19.13,0,0,0-7.05,2.73,11.4,11.4,0,0,0-4.16,5.59,26.57,26.57,0,0,0-1.19,8c0,1.41,0,2.85.06,4.29a25.61,25.61,0,0,1-.13,4.77,16.79,16.79,0,0,1-3.84,8.68,17.44,17.44,0,0,1-7.47,5.15c5-3.3,8.2-8.66,8-14.08a24.9,24.9,0,0,0-.42-4.09c-.26-1.49-.48-3-.63-4.56a28.58,28.58,0,0,1,.55-9.64,16.08,16.08,0,0,1,5.66-8.84c.3-.24.63-.43.94-.64a15.82,15.82,0,0,1-2.44-.37,11.49,11.49,0,0,1-5.74-3.57,12.61,12.61,0,0,1-1.86-2.93c-.48-1-.92-2-1.35-3a41.37,41.37,0,0,1-2-6.36,35.11,35.11,0,0,1-.64-8.76,5.62,5.62,0,0,1-2.17,2.56h0c-6,4.64-12.15,9-16.4,14.44a20.41,20.41,0,0,0-4.11,8.68,34.59,34.59,0,0,0-.1,10.09c.36,3.61.84,7.43.86,11.38a49,49,0,0,1-1.34,11.77,35.18,35.18,0,0,1-4.58,10.9,29.52,29.52,0,0,1-2.93,3.75c5.94-3.43,11.52-6.66,15.63-12.44a23.48,23.48,0,0,1-5.2,9.83,58.33,58.33,0,0,1-8.19,7.46,100,100,0,0,0-7.87,6.68,24.39,24.39,0,0,0-5.27,7.62l-.78,2.15c-.25.73-.31,1.52-.5,2.28a28.3,28.3,0,0,0-.54,4.76c-.1,3.41-.06,6.95.11,10.4a68.16,68.16,0,0,0,1.23,10.3,26.34,26.34,0,0,0,2.94,8.26,15.81,15.81,0,0,1,4.1-.53,41.3,41.3,0,0,1,7.39.8c2.32.42,4.61.86,6.85,1.2a17.15,17.15,0,0,0,6.48.18c2.07-.34,3.61-2.16,4.48-4.37a8.39,8.39,0,0,1-1,3.5,6.32,6.32,0,0,1-2.84,2.64c-2.4,1.2-5,1.26-7.36,1.4s-4.77-.06-7.09-.1a48.94,48.94,0,0,0-6.58.07c-4,.5-6.9,2.61-7.95,6.06a15.52,15.52,0,0,0-.65,5.65,26.32,26.32,0,0,0,1,6.11,25.89,25.89,0,0,0,2.17,5.76,27,27,0,0,0,3.62,4.95c2.79,3.18,6.58,5.74,10.19,9.07a27.25,27.25,0,0,1,5,5.73,22,22,0,0,1,2.77,7c.38-.48.71-1,1.13-1.46a18.3,18.3,0,0,1,7-5,14.45,14.45,0,0,1,8.83-.44,20.21,20.21,0,0,1,4,1.55c.61.36,1.22.7,1.82,1.09a10.3,10.3,0,0,1,1.81,1.62,5.88,5.88,0,0,1,1.35,2.55,6.22,6.22,0,0,1-.08,2.78c-.4,1.53-1,2.56-1.2,3.53-1.3,3.53,2.36,7.77,6.05,10.2a14.71,14.71,0,0,0,11.49,1.77,18.74,18.74,0,0,1-1.39-7.28,23.83,23.83,0,0,1,1.69-8.79,46,46,0,0,0,1.61,8.34,16.88,16.88,0,0,0,3.44,6.64,12.8,12.8,0,0,0,1.2,1.14l.66.44a8.28,8.28,0,0,0,.77.52c1.26.77,2.49,1.61,3.7,2.48a41,41,0,0,1,6.88,6.14,19.06,19.06,0,0,1,2.87,4.39,9.69,9.69,0,0,1,.8,3.17,6.77,6.77,0,0,1-.82,3.82,6.86,6.86,0,0,1-1,1.41,9.32,9.32,0,0,1-1,1,11.42,11.42,0,0,1-2.27,1.6,13.93,13.93,0,0,1-5,1.69,14.31,14.31,0,0,1-9.65-2.13,17.11,17.11,0,0,1-5.89-6.9,24.32,24.32,0,0,0,7.32,3.86,11.68,11.68,0,0,0,7.08-.08A10,10,0,0,0,327,329.1a8.06,8.06,0,0,0,1.13-1,3.79,3.79,0,0,0,.41-.53c.09-.16.26-.37.2-.38a.13.13,0,0,0,0-.12s0-.13,0-.21a3.49,3.49,0,0,0-.34-.93,13.11,13.11,0,0,0-1.9-2.71,53.64,53.64,0,0,0-5.71-5.51c-1-.91-2.11-1.78-3.17-2.67-.25-.19-.58-.49-.93-.81l-1-.92a18.6,18.6,0,0,1-1.58-2.13,14.62,14.62,0,0,1-.84-1.68,15.43,15.43,0,0,1-12.72-.16,19.65,19.65,0,0,1-6.28-4.77,17.86,17.86,0,0,1-1.25-1.68,11.87,11.87,0,0,1-.95-2,9.53,9.53,0,0,1-.26-4.55c.26-1.44.75-2.67.86-3.55s0-.92-.52-1.45c-.15-.24-.71-.48-1-.73l-1.39-.71a15.15,15.15,0,0,0-3-.94,9.11,9.11,0,0,0-5.64.65,14.29,14.29,0,0,0-4.67,3.76,24.41,24.41,0,0,0-3.4,5.57,30.2,30.2,0,0,0-1.2,3.11l-.39,1.45-.22,1.51a24.63,24.63,0,0,0,2.35,12.56,28.07,28.07,0,0,0,3.41,5.57,18.7,18.7,0,0,0,2.11,2.3,9.68,9.68,0,0,0,2.16,1.6,5.42,5.42,0,0,0,4.49,0,14.4,14.4,0,0,0,4.82-3.25l.17-.17a3.28,3.28,0,0,1,4.73,4.53c-1.08,1.17-1.68,4-1.41,6.69a23.73,23.73,0,0,0,2.26,8.16,22.69,22.69,0,0,0,4.73,6.95,18.24,18.24,0,0,0,7.44,3.83c5.71,1.6,12.09,1.44,18.22.45a39.86,39.86,0,0,0,9-2.58,16.26,16.26,0,0,0,3.57-2.18,8,8,0,0,1-.32-1.19,17.54,17.54,0,0,1,.84-9.5,42.55,42.55,0,0,1,1.65-4c.66-1.22,1.27-2.49,2-3.65a81.38,81.38,0,0,1,4.51-6.78,82.22,82.22,0,0,1,10.85-12,127.46,127.46,0,0,1-6.25,14.81c-2.21,4.73-4.75,9.41-6.29,13.86a11.38,11.38,0,0,0-.67,7.59c.2.52.3,1,.53,1.59s.43,1.1.71,1.7.51,1.21.73,1.6c.92,1.85,2,3.08,4.14,3.09s4.71-1,7.1-2.25a12.35,12.35,0,0,1-6.52,5.54,7.88,7.88,0,0,1-5.19-.19,8.62,8.62,0,0,1-2.27-1.42c-.32-.29-.67-.58-1-.88l-.77-1c-.55-.69-.9-1.25-1.29-1.83s-.73-1.22-1.1-1.85a22.11,22.11,0,0,1-1-2.07,2.25,2.25,0,0,1-.08-.24,16.71,16.71,0,0,1-3.16,2.59,36.43,36.43,0,0,1-9.07,3.91c-1,.3-2.12.53-3.19.77l.57,0a20.06,20.06,0,0,0,3.1,14.73,20.52,20.52,0,0,0,5.25,5.18,35.51,35.51,0,0,0,3.18,1.94,32.18,32.18,0,0,0,3.4,1.42,24.79,24.79,0,0,0,7.07,1.36,22.26,22.26,0,0,0,7-.95,20.24,20.24,0,0,0,6.23-3l1.29-1.05c.37-.39.77-.76,1.09-1.14a6.05,6.05,0,0,0,1.19-2.08,3.2,3.2,0,0,1,6.28,1.24l0,.2c-.58,3.69-.52,8.12.91,11.43a14.71,14.71,0,0,0,1.22,2.37,11.68,11.68,0,0,0,1.74,1.91,13.69,13.69,0,0,0,4.6,2.64,27.14,27.14,0,0,0,23-3.71,18.16,18.16,0,0,0,7.1-9,9,9,0,0,0-.07-5.25,7.62,7.62,0,0,0-2.68-4.34,3.58,3.58,0,0,0-2.11-.39,8.74,8.74,0,0,0-2.62.89,16.08,16.08,0,0,0-2.57,1.73c-.86.65-1.43,1.42-2.71,2.32a4.15,4.15,0,0,1-4.23.18,6.49,6.49,0,0,1-2.6-2.79,9.89,9.89,0,0,1-.78-6.85,9.64,9.64,0,0,0,1.85,6.18,4.92,4.92,0,0,0,2.27,1.81,2.14,2.14,0,0,0,2.18-.43c.53-.46,1.3-1.57,2.13-2.43a19.27,19.27,0,0,1,2.78-2.44,10.81,10.81,0,0,1,3.62-1.7,7.35,7.35,0,0,1,4.51.37c2.91,1.42,4.33,4,5.31,6.25a14,14,0,0,1,.74,8.09,22.33,22.33,0,0,1-8.53,12.59,34.42,34.42,0,0,1-3.63,2.39c5.56.53,11.19.82,16.89.82,5.29,0,10.51-.25,15.68-.7a19.18,19.18,0,0,1-4.25-3.12,16.6,16.6,0,0,0,7.26,3,13.06,13.06,0,0,0,7.39-1.17,14.76,14.76,0,0,0,3.17-2,12,12,0,0,0,1.33-1.23c.14-.16.26-.31.37-.46a9.38,9.38,0,0,0-.65-.9c-.39-.47-.8-1-1.24-1.43s-1.14-1.15-1.72-1.73a12.39,12.39,0,0,1-.88-.89l-.15-.15h0l-.13-.14,0,0a2,2,0,0,1,2.94-2.57,1.79,1.79,0,0,0,.13.14h0a12.56,12.56,0,0,0,2.68,1.77,20.71,20.71,0,0,0,3.35,1.28,33,33,0,0,0,7.25,1.26,62.5,62.5,0,0,0,15-1.2,21,21,0,0,0,11.68-7,21.68,21.68,0,0,0,3.52-5.91,25.87,25.87,0,0,0,1.08-3.33,20.3,20.3,0,0,0,.57-3.27v-.05a3.38,3.38,0,0,1,5.59-2.32c2.2,1.88,5.75,2.41,9.46,1.88a36.38,36.38,0,0,0,11.06-3.75,51.27,51.27,0,0,0,10.05-6.63,35.53,35.53,0,0,0,4.27-4.23c.65-.78,1.37-1.51,2-2.3l1.85-2.41c4.68-6.53,7.4-14.45,6.37-22.59a37.65,37.65,0,0,0-1.2-6.05c-.29-1-.6-2-.95-3a11.88,11.88,0,0,0-1.25-2.67,11.42,11.42,0,0,0-7.36-4.63,27.3,27.3,0,0,1-7.55,3.15,75.55,75.55,0,0,1-18.48,1.81A73.89,73.89,0,0,1,488.46,312a14,14,0,0,1,1.48,6.49,14.72,14.72,0,0,1-2.83,8.44,17.48,17.48,0,0,1-6.85,5.51l-2,.82c-.67.23-1.34.4-2,.58a24.86,24.86,0,0,1-4,.73,21,21,0,0,1-8.3-.69,15.43,15.43,0,0,1-7.08-4.51,12.49,12.49,0,0,1-3-7.24A15.12,15.12,0,0,0,465,328.67a26.93,26.93,0,0,0,12.31-2.38,12.17,12.17,0,0,0,7.25-8.3,13.25,13.25,0,0,0-.54-7.57,32,32,0,0,1-4.95-2.58,18.45,18.45,0,0,1-6.82-7.73,20.08,20.08,0,0,1-1.38-9.85,42.35,42.35,0,0,0,.24-8.49c-.49-5.38-5-9.69-9.91-13,1.35.61,2.77,1.13,4.11,1.83a24.5,24.5,0,0,1,3.82,2.56,15.62,15.62,0,0,1,5.26,7.94c.87,3.18.79,6.37,1,9.22s.49,5.42,1.68,7.46a14.48,14.48,0,0,0,5.21,5,32.83,32.83,0,0,0,7.46,2.93,71.41,71.41,0,0,0,16.73,2.15,74,74,0,0,0,16.84-1.26,19.44,19.44,0,0,0,7.05-2.72,11.56,11.56,0,0,0,4.16-5.59,26.57,26.57,0,0,0,1.18-8c0-1.41,0-2.85-.06-4.3a25.66,25.66,0,0,1,.14-4.77,16.6,16.6,0,0,1,3.84-8.67,17.34,17.34,0,0,1,7.46-5.16c-5,3.3-8.2,8.67-8,14.08a24.69,24.69,0,0,0,.42,4.09q.4,2.25.63,4.56a28.64,28.64,0,0,1-.55,9.65,16.07,16.07,0,0,1-5.65,8.84c-.31.24-.64.42-1,.63a15.76,15.76,0,0,1,2.45.37,11.55,11.55,0,0,1,5.73,3.58,12.43,12.43,0,0,1,1.86,2.92c.48,1,.92,2,1.36,3a41.34,41.34,0,0,1,2,6.36,34.45,34.45,0,0,1,.63,9.14,4.43,4.43,0,0,1,2.18-2.94C555.24,327,561.39,322.64,565.64,317.25ZM323.29,267a19.13,19.13,0,0,1-3.31-7.12,23.17,23.17,0,0,1-.3-7.92,31,31,0,0,1,2.23-7.58c1-2.39,2.27-4.61,3.24-6.76a12.31,12.31,0,0,0,1.45-6.08,10.3,10.3,0,0,0-2.43-5.4c-2.81-3.44-6.66-6.42-10.47-6.94a9.15,9.15,0,0,0-9.42,4.81,8.57,8.57,0,0,0-.95,2.56,4.27,4.27,0,0,0-.12,1.26,11.17,11.17,0,0,0,.05,1.65c.15,2.55.19,5.07.21,7.59,0,1.46,0,2.91,0,4.37a59,59,0,0,1-.1,10.63v0h0c0,.1,0,.2,0,.31a3.36,3.36,0,0,1-6.71-.45v-.08c.1-2.87.12-5.75.17-8.64a40.33,40.33,0,0,0-1.11-7.61,15.94,15.94,0,0,0-3.09-6.37,29,29,0,0,0-2.84-2.61l-3.34-2.86a37.88,37.88,0,0,1-6.47-6.89,18.34,18.34,0,0,1-3.36-9.73,23.72,23.72,0,0,1,1.89-9.72,22.2,22.2,0,0,1,5.32-8.26,16.9,16.9,0,0,1,9.15-4.31,66.48,66.48,0,0,1,9-.51,24.93,24.93,0,0,0,7.94-1,19.4,19.4,0,0,0,6.85-3.86c4-3.43,6.89-8.67,6.55-14.13-.1-2.78-.75-5.62-1.14-8.53a15.79,15.79,0,0,1,0-4.45,6.93,6.93,0,0,1,1.93-3.9c-1.9,2.37-1.49,5.45-.81,8.15s1.64,5.54,2.07,8.54a17.49,17.49,0,0,1-1.08,9.12,22.08,22.08,0,0,1-5.06,7.78,23.29,23.29,0,0,1-7.86,5.16,28.72,28.72,0,0,1-9.12,1.85c-5.89.34-11.39.61-14.49,4.09A18,18,0,0,0,284,199.6a17.56,17.56,0,0,0-1.24,7.22,12,12,0,0,0,2.45,6.38,37.05,37.05,0,0,0,5.54,5.62l3.29,2.76a35.05,35.05,0,0,1,3.33,3,15.4,15.4,0,0,1,1.56-3.73,16.05,16.05,0,0,1,6.7-6.18,14.56,14.56,0,0,1,9.08-1.21,18,18,0,0,1,7.86,3.71,29.75,29.75,0,0,1,5.7,5.9,15.21,15.21,0,0,1,3.07,8.22,16.48,16.48,0,0,1-2.38,8.17c-1.24,2.3-2.57,4.35-3.67,6.47a30.65,30.65,0,0,0-2.49,6.55,20.14,20.14,0,0,0-.34,6.92,18.24,18.24,0,0,0,2.32,6.59,26,26,0,0,0,10.9,9.52A25.45,25.45,0,0,1,323.29,267ZM379.7,78.38a9.82,9.82,0,0,0-4.86,2.39c-2.62,2.34-4.77,7.36-8.86,11.16a27.24,27.24,0,0,1-6.73,4.61,22.79,22.79,0,0,1-8,2.16c-5.45.37-10.36-.56-15.05-1.52a20.16,20.16,0,0,0-6.28-.7,7.66,7.66,0,0,0-5,2.59A8.73,8.73,0,0,0,325,111a8.45,8.45,0,0,1-4.26-6,11.1,11.1,0,0,1,1.48-7.83,11.55,11.55,0,0,1,6.78-5,13.25,13.25,0,0,1,4.23-.46l1.06,0,.9.07,1.8.16c4.77.36,9.43,1,13.56.38a19.6,19.6,0,0,0,10.79-5.35A29.13,29.13,0,0,0,365.49,82a29.24,29.24,0,0,1,5.13-6.11,16,16,0,0,1,8.09-3.39,28.43,28.43,0,0,1,7.9.17,24.55,24.55,0,0,1,14,6.5A21.55,21.55,0,0,1,407,92.45a23.93,23.93,0,0,0-8.54-10.72A19.52,19.52,0,0,0,392.57,79c-1-.36-2.13-.45-3.17-.72-1.09-.1-2.16-.23-3.26-.28A31.09,31.09,0,0,0,379.7,78.38ZM358.57,207.75c.84-.71,1.63-1.52,2.54-2.15s1.84-1.3,2.74-1.83c1.79-1.08,3.65-2.06,5.54-3a55.11,55.11,0,0,1,12.06-4.16,36.05,36.05,0,0,1,13.13-.55,23.71,23.71,0,0,1,6.55,1.95.67.67,0,0,1,.12.06,3.33,3.33,0,0,0,2.18-2.08,23.21,23.21,0,0,0,1-4.51c.18-1.62.4-3.23.46-4.87a58.75,58.75,0,0,0-.28-9.6,21.66,21.66,0,0,0-2.53-8.27l-.24-.44-.37-.6-.73-1.19c-.45-.79-.91-1.59-1.32-2.38-.8-1.61-1.56-3.2-2.24-4.78-1.38-3.17-2.63-6.29-4-9.17s-3-5.51-5.48-6.68a10.06,10.06,0,0,0-1-.42l-1.18-.33c-.79-.19-1.59-.34-2.38-.45a6.79,6.79,0,0,0-2.34,0,2,2,0,0,0-1.71,1.42,2.39,2.39,0,0,1,1.29-2.36,8,8,0,0,1,2.66-1,16,16,0,0,1,2.74-.28h1.36a14.33,14.33,0,0,1,1.52.19,12.15,12.15,0,0,1,5.37,2.83,25,25,0,0,1,3.68,4.3,76.56,76.56,0,0,1,5.3,9.11c.79,1.51,1.55,3,2.35,4.4l1.2,2.09.63,1,.31.49.4.67A24.78,24.78,0,0,1,411,176.46a40.92,40.92,0,0,1-.89,10.87,31,31,0,0,1-3.8,10.37,5.57,5.57,0,0,1-2.36,1.91,2,2,0,0,0,.25.14c.5.39,1,.76,1.47,1.17l1.3,1.39a12.78,12.78,0,0,1,2.76,6.78,18,18,0,0,1-.68,6.71,23.21,23.21,0,0,1-6.71,10.53,29.12,29.12,0,0,0,3.42-11.16c.34-3.72-.57-7.29-2.75-9.29l-.87-.71-1-.57a14.26,14.26,0,0,0-2.31-1,20.4,20.4,0,0,0-5.09-1.08,35.06,35.06,0,0,0-10.88.8,63.61,63.61,0,0,0-10.85,3.4c-1.79.72-3.55,1.52-5.3,2.34a36.31,36.31,0,0,0-4.73,2.76c-5.9,4.26-10,11.26-11.62,19.22A26.92,26.92,0,0,1,358.57,207.75Zm9.22,108a23.1,23.1,0,0,1-12.41-8.35A17.75,17.75,0,0,1,351.59,292a19.43,19.43,0,0,1,9.9-12.76,17.51,17.51,0,0,1,3.94-1.5l3.3-.72a8.53,8.53,0,0,0,4.15-2.37,4.33,4.33,0,0,0,.92-3.8,7.25,7.25,0,0,0-1-2.19,6.79,6.79,0,0,0-1.61-1.84c-1.11-1-2.84-1.15-5.21-1.28a16.73,16.73,0,0,1-3.92-.56,8,8,0,0,1-3.73-2.36,10.24,10.24,0,0,1-2.35-7.41,12.1,12.1,0,0,1,2.78-6.6,13.18,13.18,0,0,0-.9,6.57,9.4,9.4,0,0,0,1,2.88,8.33,8.33,0,0,0,1.86,2.19c1.39,1.08,2.92,1.1,5.22.84a19.12,19.12,0,0,1,3.84-.1,9.88,9.88,0,0,1,4.32,1.36,12.45,12.45,0,0,1,5.45,6.92,11.25,11.25,0,0,1,.35,4.78,11.1,11.1,0,0,1-1.9,4.53,14.15,14.15,0,0,1-7.41,4.84c-.67.21-1.33.33-2,.49l-.79.19-.65.17a10.13,10.13,0,0,0-2.49,1,13.73,13.73,0,0,0-6.8,8.3,12.58,12.58,0,0,0,1.83,10.71,23.34,23.34,0,0,0,4,4.82,17.92,17.92,0,0,0,5.17,3.47,14.38,14.38,0,0,0,12.67-.25C378.23,315.75,372.7,317,367.79,315.74Zm45.31,12.35a55.31,55.31,0,0,1-2.5,14.5,26.33,26.33,0,0,1-3.64,7,17.63,17.63,0,0,1-6.41,5.11c-.62.28-1.27.47-1.9.7a9.75,9.75,0,0,1-1.92.51l-1.93.35-1.9.09a35,35,0,0,1-7.32-.57,21.05,21.05,0,0,1-6.92-2.49c-2.08-1.27-4-3.13-4.57-5.46a9.67,9.67,0,0,0,5.37,3.75,20.41,20.41,0,0,0,6.47.89,33.74,33.74,0,0,0,6.53-.56,17,17,0,0,0,5.67-1.94,14.59,14.59,0,0,0,4-3.88,20.16,20.16,0,0,0,2.35-5.48,53.25,53.25,0,0,0,1.81-12.83c.26-4.45.14-9,.07-13.54-.08-2.26-.06-4.61-.29-6.75-.1-1.09-.15-2.2-.29-3.28l-.51-3.19a24.93,24.93,0,0,0-1.95-5.92,4.82,4.82,0,0,0-.73-1.32l-.82-1.25a11.53,11.53,0,0,0-2.18-1.95c-3.2-2.41-8.13-2.3-12.53-.93a16.48,16.48,0,0,1,6.56-2.84,12.47,12.47,0,0,1,7.57.82,6.18,6.18,0,0,1,1.29.7c.09,0,.2,0,.29,0a5,5,0,0,0,2.37-.75,2.39,2.39,0,0,0,.63-.73,5.65,5.65,0,0,0,.52-1.13c1.26-3.31,1.08-7.3.64-11.09a76.1,76.1,0,0,0-2.64-11.45l-.44-1.44-.43-1.65a29.09,29.09,0,0,1-.69-3.34,39,39,0,0,1-.35-6.72c.07-2.22.34-4.37.6-6.43a34.48,34.48,0,0,0,.52-5.43,2.92,2.92,0,0,0-.22-1.09c0-.1-.16-.12-.26-.28-.28-.07-.38-.23-.78-.33a17.09,17.09,0,0,0-5.18-.68,19.83,19.83,0,0,0-10.48,2.93,11.42,11.42,0,0,0-3.65,4.08,14.44,14.44,0,0,0-1.42,5.78,12.54,12.54,0,0,1-.36-6.4,13.18,13.18,0,0,1,3.25-6,21.31,21.31,0,0,1,12.24-5.7,19.46,19.46,0,0,1,7.08.15,13.52,13.52,0,0,1,2.13.7A7.44,7.44,0,0,1,408,233a8.1,8.1,0,0,1,1.94,4.58,32.9,32.9,0,0,1-.26,6.86c-.2,2-.44,4-.46,5.87a32.41,32.41,0,0,0,.21,5.59,22.85,22.85,0,0,0,.45,2.73l.29,1.35.38,1.53a54.77,54.77,0,0,1,1.71,12.82c0,4.34-.49,8.93-3,13a9.48,9.48,0,0,1-1.17,1.44,5.1,5.1,0,0,1-1.76,1.18,5.8,5.8,0,0,1-1.32.29,14.58,14.58,0,0,1,2.15,2.52,26.75,26.75,0,0,1,3.27,6.88l1,3.58c.27,1.2.39,2.4.59,3.6.43,2.45.56,4.73.81,7.08A112,112,0,0,1,413.1,328.09Zm55.68-204.7a23.2,23.2,0,0,1,12.41,8.35A17.8,17.8,0,0,1,485,147.17a19.42,19.42,0,0,1-9.9,12.76,17.22,17.22,0,0,1-3.94,1.5l-3.31.73a8.41,8.41,0,0,0-4.14,2.36,4.28,4.28,0,0,0-.92,3.81,7.27,7.27,0,0,0,1,2.18,7,7,0,0,0,1.61,1.84c1.12,1,2.85,1.15,5.21,1.28a16.42,16.42,0,0,1,3.93.57,8,8,0,0,1,3.72,2.35,10.25,10.25,0,0,1,2.36,7.41,12.08,12.08,0,0,1-2.79,6.6,13.15,13.15,0,0,0,.91-6.56,9.38,9.38,0,0,0-1-2.89,8.15,8.15,0,0,0-1.86-2.19c-1.39-1.08-2.91-1.09-5.22-.83a19.15,19.15,0,0,1-3.84.09,9.88,9.88,0,0,1-4.32-1.36,12.39,12.39,0,0,1-5.45-6.91,11.26,11.26,0,0,1-.34-4.78,10.85,10.85,0,0,1,1.9-4.53,14.13,14.13,0,0,1,7.41-4.85c.66-.21,1.32-.32,2-.48.38-.08.59-.14.8-.2l.64-.16a10.79,10.79,0,0,0,2.49-1,13.8,13.8,0,0,0,6.81-8.3,12.61,12.61,0,0,0-1.83-10.71,23.18,23.18,0,0,0-4-4.83,18.12,18.12,0,0,0-5.17-3.47,14.39,14.39,0,0,0-12.66.25C458.34,123.39,463.86,122.17,468.78,123.39Zm-39.35,23a26.73,26.73,0,0,1-3.28-6.87l-1-3.58c-.27-1.2-.39-2.4-.59-3.61-.42-2.44-.56-4.73-.8-7.08a113.82,113.82,0,0,1-.3-14.21,55.8,55.8,0,0,1,2.5-14.5,26.16,26.16,0,0,1,3.65-7A17.44,17.44,0,0,1,436,84.46c.62-.28,1.27-.47,1.9-.7a8.26,8.26,0,0,1,1.92-.51l1.92-.36,1.91-.08a35.6,35.6,0,0,1,7.31.56,20.85,20.85,0,0,1,6.92,2.5c2.08,1.27,4,3.12,4.58,5.46a9.64,9.64,0,0,0-5.37-3.75,20.16,20.16,0,0,0-6.47-.89,33.84,33.84,0,0,0-6.54.55,17.15,17.15,0,0,0-5.66,1.94,14.52,14.52,0,0,0-4,3.89,20.41,20.41,0,0,0-2.35,5.47,53.91,53.91,0,0,0-1.81,12.84c-.26,4.44-.13,9-.06,13.53.08,2.27.06,4.62.29,6.76.1,1.09.15,2.2.28,3.27l.51,3.19a26.11,26.11,0,0,0,1.95,5.93,4.91,4.91,0,0,0,.73,1.31l.83,1.26a11.86,11.86,0,0,0,2.17,2c3.21,2.41,8.14,2.3,12.53.92a16.52,16.52,0,0,1-6.55,2.85,12.53,12.53,0,0,1-7.57-.82,6.48,6.48,0,0,1-1.3-.7,2.62,2.62,0,0,0-.28,0,4.75,4.75,0,0,0-2.37.75,2.39,2.39,0,0,0-.64.72,8,8,0,0,0-.52,1.13c-1.26,3.31-1.07,7.3-.63,11.1A73.62,73.62,0,0,0,432.29,176l.43,1.44.44,1.65a31.88,31.88,0,0,1,.68,3.34,37.13,37.13,0,0,1,.35,6.72c-.07,2.23-.34,4.37-.6,6.43a34.6,34.6,0,0,0-.52,5.44,2.84,2.84,0,0,0,.22,1.08c0,.1.17.13.26.28.28.08.39.23.78.34a17.14,17.14,0,0,0,5.18.67A19.65,19.65,0,0,0,450,200.42a11.41,11.41,0,0,0,3.66-4.07,14.49,14.49,0,0,0,1.42-5.79,12.8,12.8,0,0,1,.36,6.41,13.25,13.25,0,0,1-3.26,6,21.37,21.37,0,0,1-12.24,5.7,19.69,19.69,0,0,1-7.08-.15,14.16,14.16,0,0,1-2.12-.7,7.81,7.81,0,0,1-2.15-1.61,8.27,8.27,0,0,1-1.94-4.58,32.9,32.9,0,0,1,.26-6.86c.21-2,.44-4,.47-5.87a32.41,32.41,0,0,0-.22-5.59,24.65,24.65,0,0,0-.44-2.73l-.3-1.35-.37-1.54a54.16,54.16,0,0,1-1.71-12.81c0-4.35.48-8.94,3-13a9.45,9.45,0,0,1,1.16-1.45,5.19,5.19,0,0,1,1.76-1.18,5.88,5.88,0,0,1,1.32-.28A15,15,0,0,1,429.43,146.39Zm27.44,214.36a9.78,9.78,0,0,0,4.86-2.39c2.61-2.33,4.77-7.36,8.85-11.15a27.38,27.38,0,0,1,6.73-4.62,23.06,23.06,0,0,1,8-2.16c5.46-.37,10.36.57,15.05,1.53a20.22,20.22,0,0,0,6.29.7,7.74,7.74,0,0,0,5-2.6,8.74,8.74,0,0,0-.07-11.91,8.53,8.53,0,0,1,4.27,6,11.17,11.17,0,0,1-1.48,7.84,11.63,11.63,0,0,1-6.78,5,13.57,13.57,0,0,1-4.23.46l-1.06,0-.9-.08-1.8-.16c-4.77-.36-9.44-1-13.56-.37a19.52,19.52,0,0,0-10.79,5.34,28.67,28.67,0,0,0-4.16,4.93,29.29,29.29,0,0,1-5.14,6.12,16.21,16.21,0,0,1-8.09,3.39,28.35,28.35,0,0,1-7.89-.17,24.67,24.67,0,0,1-14-6.5,21.66,21.66,0,0,1-6.41-13.28,24,24,0,0,0,8.54,10.71,19.17,19.17,0,0,0,5.92,2.77c1,.37,2.13.46,3.17.73,1.09.1,2.17.23,3.27.28A31.78,31.78,0,0,0,456.87,360.75ZM478,231.39c-.84.71-1.63,1.52-2.54,2.15s-1.85,1.3-2.75,1.82c-1.79,1.09-3.65,2.06-5.54,3a55.57,55.57,0,0,1-12.05,4.17,36.07,36.07,0,0,1-13.13.54,23.85,23.85,0,0,1-6.56-1.94.6.6,0,0,0-.11-.06,3.31,3.31,0,0,0-2.19,2.07,23.34,23.34,0,0,0-.95,4.52c-.18,1.62-.41,3.23-.46,4.86a56.69,56.69,0,0,0,.28,9.61,21.66,21.66,0,0,0,2.52,8.27l.24.44.37.59.74,1.19c.45.8.9,1.59,1.31,2.39.8,1.6,1.56,3.2,2.25,4.78,1.37,3.16,2.62,6.29,4,9.16s3,5.51,5.48,6.68c.32.13.6.3,1,.43l1.19.33c.79.19,1.58.34,2.38.45a7,7,0,0,0,2.33,0,2,2,0,0,0,1.71-1.42,2.41,2.41,0,0,1-1.28,2.37,8.32,8.32,0,0,1-2.66,1,16,16,0,0,1-2.75.29h-1.36a14.86,14.86,0,0,1-1.52-.18,12.14,12.14,0,0,1-5.36-2.84,25,25,0,0,1-3.69-4.29,78.05,78.05,0,0,1-5.3-9.12c-.78-1.51-1.54-3-2.34-4.4l-1.2-2.08-.63-1-.32-.5-.39-.67a24.64,24.64,0,0,1-3.14-11.27,41.27,41.27,0,0,1,.89-10.86,31.22,31.22,0,0,1,3.8-10.38,5.74,5.74,0,0,1,2.37-1.91,2,2,0,0,1-.25-.14c-.5-.38-1-.75-1.48-1.16l-1.3-1.39a12.93,12.93,0,0,1-2.76-6.78,18.43,18.43,0,0,1,.68-6.72,23.25,23.25,0,0,1,6.72-10.52A29.21,29.21,0,0,0,430.8,224c-.33,3.72.58,7.28,2.75,9.29l.88.7,1,.58a14.62,14.62,0,0,0,2.31,1,20.59,20.59,0,0,0,5.1,1.09,35.62,35.62,0,0,0,10.87-.8,64.62,64.62,0,0,0,10.86-3.4c1.78-.72,3.54-1.52,5.3-2.35a36.13,36.13,0,0,0,4.72-2.75c5.9-4.26,10-11.27,11.63-19.23A27,27,0,0,1,478,231.39Zm80.11,10.29a22,22,0,0,1-5.32,8.26,16.83,16.83,0,0,1-9.15,4.31,64.73,64.73,0,0,1-9,.51,25,25,0,0,0-7.94,1,19.47,19.47,0,0,0-6.85,3.85c-4,3.44-6.88,8.67-6.54,14.14.09,2.78.75,5.61,1.14,8.53a16.1,16.1,0,0,1,0,4.44,6.91,6.91,0,0,1-1.92,3.91c1.89-2.37,1.49-5.46.8-8.16s-1.63-5.53-2.06-8.54a17.4,17.4,0,0,1,1.08-9.12,21.94,21.94,0,0,1,5.06-7.78,23.25,23.25,0,0,1,7.85-5.16,28.72,28.72,0,0,1,9.12-1.85c5.89-.34,11.39-.61,14.49-4.09a20.87,20.87,0,0,0,5-13.65,12,12,0,0,0-2.46-6.37,37.44,37.44,0,0,0-5.53-5.62l-3.29-2.76a34.09,34.09,0,0,1-3.33-3,15.09,15.09,0,0,1-1.57,3.73,16,16,0,0,1-6.69,6.19,14.5,14.5,0,0,1-9.08,1.2A18,18,0,0,1,514,222a30.42,30.42,0,0,1-5.71-5.91,15.07,15.07,0,0,1-3.06-8.22,16.46,16.46,0,0,1,2.37-8.16c1.24-2.3,2.58-4.36,3.67-6.48a30.93,30.93,0,0,0,2.5-6.54,20.41,20.41,0,0,0,.34-6.92,18.55,18.55,0,0,0-2.32-6.6,26.11,26.11,0,0,0-10.91-9.51,25.48,25.48,0,0,1,12.36,8.53,19.19,19.19,0,0,1,3.3,7.12,23,23,0,0,1,.3,7.93,30.23,30.23,0,0,1-2.23,7.58c-1,2.38-2.26,4.6-3.24,6.76a12.17,12.17,0,0,0-1.44,6.07,10.25,10.25,0,0,0,2.42,5.4c2.82,3.45,6.66,6.42,10.47,6.94a9.13,9.13,0,0,0,9.42-4.81,8.21,8.21,0,0,0,1-2.56,3.92,3.92,0,0,0,.13-1.26,14.7,14.7,0,0,0-.05-1.64c-.16-2.56-.2-5.08-.22-7.59,0-1.47,0-2.92,0-4.38a59,59,0,0,1,.1-10.63v0h0l0-.31a3.36,3.36,0,0,1,6.7.45v.07c-.1,2.87-.12,5.76-.17,8.65a40.57,40.57,0,0,0,1.12,7.61,15.75,15.75,0,0,0,3.09,6.37,26.89,26.89,0,0,0,2.84,2.6l3.34,2.86a38.19,38.19,0,0,1,6.46,6.89A18.28,18.28,0,0,1,560,232,23.52,23.52,0,0,1,558.11,241.68Z" transform="translate(-146.48 -34)"/><path class="c" d="M577.84,260.67l.79-.45,1.79-1.06.68-1.44A21.62,21.62,0,0,0,577.84,260.67Z" transform="translate(-146.48 -34)"/><path class="d" d="M511.78,77.89a19.78,19.78,0,0,0-.85-16,25.9,25.9,0,0,0-12.42-11.3,26.34,26.34,0,0,0-8.37-2.34,27.76,27.76,0,0,0-8.8.54,24.42,24.42,0,0,0-8.23,3.52c-.64.43-1.25.91-1.87,1.37s-1.18,1.06-1.74,1.66a11.84,11.84,0,0,0-2.76,4.76L473,61.5a28.32,28.32,0,0,0,.64-7.66,23.75,23.75,0,0,0-1.57-7.67c-1.74-5.18-6.63-9.38-11.68-10.89-1.27-.36-2.54-.61-3.81-.9L452.82,34c-1.26,0-2.52,0-3.77,0s-2.5.28-3.74.46a32,32,0,0,0-13.61,6.11,22.34,22.34,0,0,0-8.54,12.59,14.06,14.06,0,0,0,.74,8.09c1,2.26,2.41,4.84,5.31,6.25a7.35,7.35,0,0,0,4.51.37,10.62,10.62,0,0,0,3.62-1.7,19.27,19.27,0,0,0,2.78-2.44c.83-.86,1.6-2,2.13-2.43a2.16,2.16,0,0,1,2.19-.43,5,5,0,0,1,2.26,1.81,9.59,9.59,0,0,1,1.85,6.19,9.92,9.92,0,0,0-.78-6.86,6.42,6.42,0,0,0-2.6-2.78,4.13,4.13,0,0,0-4.23.17c-1.28.9-1.85,1.67-2.71,2.33a16.23,16.23,0,0,1-2.57,1.72,8.47,8.47,0,0,1-2.62.89,3.51,3.51,0,0,1-2.11-.39,7.72,7.72,0,0,1-2.68-4.34,9,9,0,0,1-.07-5.25,18.12,18.12,0,0,1,7.11-9,27.1,27.1,0,0,1,23-3.72,13.73,13.73,0,0,1,4.6,2.65,11.6,11.6,0,0,1,1.73,1.9,14.44,14.44,0,0,1,1.23,2.38c1.42,3.31,1.48,7.73.9,11.42l0,.2A3.2,3.2,0,0,0,473,61.5a6,6,0,0,1,1.19-2.07c.32-.39.73-.76,1.09-1.15l1.3-1.05a20.19,20.19,0,0,1,6.22-3,22.3,22.3,0,0,1,7-1,25.14,25.14,0,0,1,7.07,1.36,33.33,33.33,0,0,1,3.41,1.43A36.71,36.71,0,0,1,503.43,58a20.68,20.68,0,0,1,5.25,5.18A20.07,20.07,0,0,1,511.78,77.89Z" transform="translate(-146.48 -34)"/><path class="d" d="M462.45,91.31c-.56-2.34-2.5-4.2-4.58-5.47A21.05,21.05,0,0,0,451,83.35a35.64,35.64,0,0,0-7.32-.57l-1.9.09-1.92.35a9.39,9.39,0,0,0-1.92.51c-.63.23-1.29.42-1.9.7a17.68,17.68,0,0,0-6.42,5.11,26.63,26.63,0,0,0-3.64,7,55.8,55.8,0,0,0-2.5,14.5,113.82,113.82,0,0,0,.3,14.21c.24,2.35.37,4.63.8,7.08.2,1.2.32,2.4.59,3.6l1,3.58a26.46,26.46,0,0,0,3.28,6.88,21.3,21.3,0,0,0,2.57,3,14.33,14.33,0,0,0,3.38,2.15,12.4,12.4,0,0,0,7.57.82,16.48,16.48,0,0,0,6.56-2.84c-4.39,1.37-9.32,1.49-12.53-.93a11.53,11.53,0,0,1-2.18-2l-.82-1.25a4.91,4.91,0,0,1-.73-1.31,25.16,25.16,0,0,1-2-5.93l-.51-3.19c-.13-1.08-.18-2.19-.28-3.28-.23-2.13-.22-4.48-.29-6.75-.08-4.55-.2-9.09.06-13.54a53.25,53.25,0,0,1,1.81-12.83A20.61,20.61,0,0,1,434.41,93a14.59,14.59,0,0,1,4-3.88,17.06,17.06,0,0,1,5.67-1.94,33.78,33.78,0,0,1,6.54-.55,20.44,20.44,0,0,1,6.47.88A9.7,9.7,0,0,1,462.45,91.31Z" transform="translate(-146.48 -34)"/><path class="d" d="M477.73,84.82c2.39-1.26,4.92-2.34,7.1-2.25s3.23,1.24,4.14,3.1a15.38,15.38,0,0,1,.74,1.59c.27.6.47,1.14.7,1.7s.33,1.07.53,1.59a13.7,13.7,0,0,1,.28,1.48,13.49,13.49,0,0,1-1,6.11c-1.53,4.45-4.07,9.13-6.29,13.86a127.46,127.46,0,0,0-6.25,14.81,81.66,81.66,0,0,0,10.85-12A79.85,79.85,0,0,0,493.1,108c.71-1.16,1.32-2.43,2-3.65a42.58,42.58,0,0,0,1.66-4,17.54,17.54,0,0,0,.83-9.5,18.43,18.43,0,0,0-.72-2.36c-.32-.7-.64-1.44-1-2.07s-.72-1.29-1.1-1.85a22,22,0,0,0-1.29-1.83l-.77-1c-.3-.3-.64-.59-1-.88a8.62,8.62,0,0,0-2.27-1.42,7.82,7.82,0,0,0-5.19-.18A12.29,12.29,0,0,0,477.73,84.82Z" transform="translate(-146.48 -34)"/><path class="d" d="M477.73,190.54a12.19,12.19,0,0,0,2.79-6.6,10.29,10.29,0,0,0-2.36-7.41,8,8,0,0,0-3.72-2.36,16.88,16.88,0,0,0-3.93-.56c-2.37-.13-4.09-.29-5.21-1.28a6.79,6.79,0,0,1-1.61-1.84,7,7,0,0,1-.95-2.19,4.3,4.3,0,0,1,.91-3.8,8.53,8.53,0,0,1,4.15-2.37l3.31-.72a17,17,0,0,0,3.93-1.5,19.43,19.43,0,0,0,9.9-12.76,17.74,17.74,0,0,0-3.78-15.43,23.23,23.23,0,0,0-12.41-8.35c-4.92-1.22-10.45,0-13.71,3.44a14.36,14.36,0,0,1,12.66-.25,17.92,17.92,0,0,1,5.17,3.47,23.18,23.18,0,0,1,4,4.83,12.59,12.59,0,0,1,1.82,10.7,13.77,13.77,0,0,1-6.8,8.31,11,11,0,0,1-2.49,1l-.65.16c-.2,0-.41.11-.79.19-.67.16-1.33.28-2,.49a14.13,14.13,0,0,0-7.41,4.84,11,11,0,0,0-1.9,4.53,11.09,11.09,0,0,0,.34,4.78,12.36,12.36,0,0,0,5.45,6.92,9.88,9.88,0,0,0,4.32,1.36,18.41,18.41,0,0,0,3.84-.1c2.31-.26,3.83-.24,5.22.84a8.15,8.15,0,0,1,1.86,2.19,9.14,9.14,0,0,1,1,2.88A13.05,13.05,0,0,1,477.73,190.54Z" transform="translate(-146.48 -34)"/><path class="d" d="M455,190.54a14.61,14.61,0,0,1-1.42,5.78A11.45,11.45,0,0,1,450,200.4a19.74,19.74,0,0,1-10.48,2.93,16.83,16.83,0,0,1-5.18-.68c-.4-.1-.5-.26-.78-.33-.1-.15-.24-.18-.26-.28A2.92,2.92,0,0,1,433,201a34.59,34.59,0,0,1,.52-5.43c.26-2.06.53-4.21.6-6.43a38,38,0,0,0-.35-6.72,31.36,31.36,0,0,0-.68-3.34l-.44-1.65-.43-1.44a73.48,73.48,0,0,1-2.64-11.45c-.45-3.79-.63-7.78.63-11.09a6.27,6.27,0,0,1,.52-1.13,2.53,2.53,0,0,1,.63-.73,5,5,0,0,1,2.38-.75,19.44,19.44,0,0,1,6,.64,15.64,15.64,0,0,0-5.88-2.53,6.55,6.55,0,0,0-3.65.28,5.1,5.1,0,0,0-1.76,1.18,9.27,9.27,0,0,0-1.16,1.44c-2.52,4.1-3,8.69-3,13A54.18,54.18,0,0,0,426,177.65l.37,1.53.3,1.36a24.85,24.85,0,0,1,.44,2.72,31.55,31.55,0,0,1,.21,5.6c0,1.89-.26,3.84-.46,5.86a33,33,0,0,0-.26,6.87,8.07,8.07,0,0,0,1.94,4.57,7.43,7.43,0,0,0,2.15,1.61,14.26,14.26,0,0,0,2.12.71,19.68,19.68,0,0,0,7.08.14,21.25,21.25,0,0,0,12.24-5.7,13.09,13.09,0,0,0,3.25-6A12.65,12.65,0,0,0,455,190.54Z" transform="translate(-146.48 -34)"/><path class="d" d="M486.17,208.08c-1.66,8-5.72,15-11.62,19.22a36.19,36.19,0,0,1-4.72,2.76c-1.76.82-3.52,1.63-5.3,2.35a64.86,64.86,0,0,1-10.86,3.39,35.32,35.32,0,0,1-10.87.81,21.05,21.05,0,0,1-5.1-1.09,14.26,14.26,0,0,1-2.31-1l-1-.57-.88-.71c-2.18-2-3.08-5.56-2.75-9.28a29.29,29.29,0,0,1,3.42-11.17,23.26,23.26,0,0,0-6.71,10.53,18,18,0,0,0-.68,6.71,12.78,12.78,0,0,0,2.76,6.78l1.3,1.39c.47.41,1,.78,1.48,1.17a18.67,18.67,0,0,0,3.06,1.73A24.1,24.1,0,0,0,442,243a36.07,36.07,0,0,0,13.13-.55,55.2,55.2,0,0,0,12.05-4.16c1.89-.92,3.75-1.9,5.54-3,.9-.53,1.85-1.21,2.74-1.83s1.71-1.43,2.55-2.14A26.94,26.94,0,0,0,486.17,208.08Z" transform="translate(-146.48 -34)"/><path class="d" d="M441,240.07a13.74,13.74,0,0,0-5.23-1.22,7.71,7.71,0,0,0-2.93.49,5.69,5.69,0,0,0-2.65,2.07,31.25,31.25,0,0,0-3.8,10.37,41.34,41.34,0,0,0-.89,10.87,24.78,24.78,0,0,0,3.13,11.27l.4.67.31.49.64,1,1.19,2.09c.81,1.42,1.56,2.89,2.35,4.4a77.13,77.13,0,0,0,5.3,9.11,25,25,0,0,0,3.68,4.3,12.33,12.33,0,0,0,5.37,2.84c.51.06,1.05.17,1.52.18h1.36a17,17,0,0,0,2.74-.29,8,8,0,0,0,2.66-1,2.38,2.38,0,0,0,1.29-2.36,2,2,0,0,1-1.71,1.42,7,7,0,0,1-2.33,0c-.8-.12-1.59-.27-2.38-.46l-1.19-.33c-.38-.12-.65-.29-1-.42-2.44-1.17-4-3.86-5.48-6.68s-2.64-6-4-9.17c-.68-1.58-1.44-3.17-2.24-4.77-.41-.8-.87-1.6-1.31-2.39l-.74-1.19-.37-.59-.24-.44a21.76,21.76,0,0,1-2.52-8.28,56.6,56.6,0,0,1-.28-9.6c.05-1.63.27-3.25.45-4.87a24,24,0,0,1,1-4.51c.25-1.12,1.42-1.89,2.95-2.38A18.17,18.17,0,0,1,441,240.07Z" transform="translate(-146.48 -34)"/><path class="d" d="M498.2,90.29a6,6,0,0,1,2.28-4,15.71,15.71,0,0,1,3.92-2.44,39.62,39.62,0,0,1,9-2.57c6.13-1,12.51-1.16,18.22.45A18,18,0,0,1,539,85.59a22.71,22.71,0,0,1,4.74,7,23.93,23.93,0,0,1,2.25,8.17c.27,2.68-.32,5.51-1.41,6.68a3.28,3.28,0,0,0,4.73,4.53l.17-.17a14.48,14.48,0,0,1,4.82-3.24,5.39,5.39,0,0,1,4.49,0,10,10,0,0,1,2.16,1.6,18.64,18.64,0,0,1,2.11,2.3,28.14,28.14,0,0,1,3.41,5.58,24.57,24.57,0,0,1,2.35,12.55l-.22,1.51-.39,1.46a29.68,29.68,0,0,1-1.2,3.11,24,24,0,0,1-3.4,5.56,13.94,13.94,0,0,1-4.67,3.76,9.1,9.1,0,0,1-5.64.65,15.59,15.59,0,0,1-3-.94L549,145c-.31-.26-.87-.5-1-.74-.52-.53-.6-.54-.52-1.45s.6-2.11.86-3.55a9.48,9.48,0,0,0-.26-4.54,11.61,11.61,0,0,0-.95-2,17.86,17.86,0,0,0-1.25-1.68,19.69,19.69,0,0,0-6.28-4.77,15.42,15.42,0,0,0-14.7.87,15,15,0,0,1,13.64,1.1c3.7,2.43,7.36,6.67,6,10.2-.24,1-.8,2-1.2,3.53a6.22,6.22,0,0,0-.08,2.78,5.83,5.83,0,0,0,1.36,2.56,10.22,10.22,0,0,0,1.8,1.61c.6.39,1.21.73,1.82,1.09a19.61,19.61,0,0,0,4,1.55,14.45,14.45,0,0,0,8.83-.44,18.41,18.41,0,0,0,7-5,30.16,30.16,0,0,0,4.55-6.8,35.88,35.88,0,0,0,1.6-3.7l.65-2.09.4-2.12a30.57,30.57,0,0,0-2.67-16.15,34.68,34.68,0,0,0-4.18-7,22.08,22.08,0,0,0-2.88-3.11,16.49,16.49,0,0,0-3.82-2.66,12.22,12.22,0,0,0-9.82-.12,18.68,18.68,0,0,0-3.92,2.15,21.91,21.91,0,0,0-3.33,2.88l4.9,4.36a12.17,12.17,0,0,0,2.57-5.93,20.77,20.77,0,0,0,.07-5.67,31,31,0,0,0-6-14.57,19.92,19.92,0,0,0-3.79-4,22.85,22.85,0,0,0-9.77-4.29,43.48,43.48,0,0,0-19.89,1.39,36,36,0,0,0-9.07,3.9,15,15,0,0,0-3.78,3.23A6.42,6.42,0,0,0,498.2,90.29Z" transform="translate(-146.48 -34)"/><path class="d" d="M523.12,146.06a23.83,23.83,0,0,0,1.69-8.79,17.89,17.89,0,0,0-2.39-9.32,18.7,18.7,0,0,0-1.59-2.13l-1-.92c-.35-.32-.68-.62-.92-.81-1.07-.89-2.15-1.76-3.18-2.66a54.7,54.7,0,0,1-5.71-5.52,13.5,13.5,0,0,1-1.9-2.71,3.89,3.89,0,0,1-.34-.93c0-.08-.06-.19,0-.21a.11.11,0,0,1,0-.12c-.06,0,.11-.22.2-.38a3.73,3.73,0,0,1,.42-.53,7.44,7.44,0,0,1,1.12-1,10,10,0,0,1,2.91-1.53,11.68,11.68,0,0,1,7.08-.08,24,24,0,0,1,7.32,3.87,17,17,0,0,0-5.88-6.9,14.3,14.3,0,0,0-9.66-2.14,14.06,14.06,0,0,0-5,1.69,11.78,11.78,0,0,0-2.26,1.6,8.72,8.72,0,0,0-1,1.06,6.5,6.5,0,0,0-1,1.4,6.77,6.77,0,0,0-.82,3.82A9.69,9.69,0,0,0,502,116a19.13,19.13,0,0,0,2.87,4.4,41.34,41.34,0,0,0,6.88,6.13c1.22.88,2.44,1.71,3.7,2.48a8.28,8.28,0,0,1,.77.52l.66.44a12.89,12.89,0,0,1,1.21,1.14,16.87,16.87,0,0,1,3.43,6.64A46.14,46.14,0,0,1,523.12,146.06Z" transform="translate(-146.48 -34)"/><path class="d" d="M500.89,163.59a26,26,0,0,1,10.9,9.52,18.52,18.52,0,0,1,2.33,6.59,20.14,20.14,0,0,1-.35,6.92,30.65,30.65,0,0,1-2.49,6.55c-1.09,2.12-2.43,4.17-3.67,6.47a16.47,16.47,0,0,0-2.37,8.17A15.13,15.13,0,0,0,508.3,216a30,30,0,0,0,5.7,5.9,18,18,0,0,0,7.86,3.71,14.52,14.52,0,0,0,9.09-1.21,16,16,0,0,0,6.69-6.18,14.68,14.68,0,0,0,1.76-4.36,9.69,9.69,0,0,0,.32-2.43,20.31,20.31,0,0,0,0-2.08c-.05-2.42-.08-4.88-.08-7.34,0-4.92.12-9.89.29-14.81v-.08a3.36,3.36,0,0,0-6.71-.44,51,51,0,0,0,1.13,18.55,22.32,22.32,0,0,0,4.62,9,32.7,32.7,0,0,0,3.56,3.25l3.3,2.76a37,37,0,0,1,5.53,5.63,12,12,0,0,1,2.45,6.37,17.71,17.71,0,0,1-1.23,7.22,18,18,0,0,1-3.72,6.43c-3.1,3.48-8.6,3.75-14.49,4.09a28.72,28.72,0,0,0-9.12,1.85A23.15,23.15,0,0,0,517.4,257a21.94,21.94,0,0,0-5.06,7.78,17.49,17.49,0,0,0-1.09,9.12c.43,3,1.4,5.76,2.07,8.54s1.09,5.78-.81,8.15a6.87,6.87,0,0,0,1.93-3.9,16.17,16.17,0,0,0,0-4.45,85.35,85.35,0,0,1-1.14-8.52c-.35-5.47,2.53-10.71,6.54-14.14a19.49,19.49,0,0,1,6.85-3.86,24.93,24.93,0,0,1,7.94-1,66.3,66.3,0,0,0,9-.51,16.9,16.9,0,0,0,9.15-4.31,22.2,22.2,0,0,0,5.32-8.26,23.72,23.72,0,0,0,1.89-9.72,18.25,18.25,0,0,0-3.36-9.73,37.88,37.88,0,0,0-6.47-6.89l-3.34-2.86a27.79,27.79,0,0,1-2.84-2.61,15.88,15.88,0,0,1-3.09-6.37,49.1,49.1,0,0,1-1-15.95l-6.7-.52c-.12,5-.18,10-.14,15.05,0,2.52.06,5,.22,7.59a14.92,14.92,0,0,1,.05,1.65,4.26,4.26,0,0,1-.13,1.26,8.31,8.31,0,0,1-1,2.56,9.15,9.15,0,0,1-9.42,4.81c-3.81-.52-7.65-3.5-10.47-6.94a10.38,10.38,0,0,1-2.43-5.4,12.31,12.31,0,0,1,1.45-6.08c1-2.15,2.2-4.37,3.24-6.76a30.58,30.58,0,0,0,2.23-7.57,23.22,23.22,0,0,0-.3-7.93,19.27,19.27,0,0,0-3.3-7.12A25.5,25.5,0,0,0,500.89,163.59Z" transform="translate(-146.48 -34)"/><path class="d" d="M572.24,134.08c-3,3.69-4,9-3.07,14a21.63,21.63,0,0,0,2.81,7.14,27.21,27.21,0,0,0,5,5.73c3.61,3.33,7.4,5.89,10.19,9.07a26.76,26.76,0,0,1,3.62,5A31.11,31.11,0,0,1,594,186.85a15.74,15.74,0,0,1-.64,5.65c-1.06,3.45-4,5.57-8,6.06a49,49,0,0,1-6.58.07c-2.33,0-4.68-.14-7.1-.1s-5,.2-7.36,1.4a6.38,6.38,0,0,0-2.84,2.64,8.58,8.58,0,0,0-1,3.5c.87-2.21,2.41-4,4.48-4.37a17.36,17.36,0,0,1,6.48.18c2.24.34,4.53.78,6.85,1.2a41.4,41.4,0,0,0,7.39.8,14.75,14.75,0,0,0,8.1-2.29,14.57,14.57,0,0,0,5.54-6.8c2-5.44,1.47-11,.18-15.82a31.59,31.59,0,0,0-2.95-7.24,28.64,28.64,0,0,0-4.8-6.19c-3.72-3.57-7.83-6.13-11.45-8.68s-6.4-5.5-8-9.68A18,18,0,0,1,572.24,134.08Z" transform="translate(-146.48 -34)"/><path class="d" d="M592.5,202c2.25,2.84,3.12,6.3,3.85,9.66a68.16,68.16,0,0,1,1.23,10.3c.17,3.45.21,7,.11,10.4a28.3,28.3,0,0,1-.54,4.76c-.18.76-.25,1.55-.49,2.28l-.79,2.16a24.47,24.47,0,0,1-5.27,7.61,101.65,101.65,0,0,1-7.86,6.68,58.46,58.46,0,0,0-8.2,7.46,23.48,23.48,0,0,0-5.2,9.83c4.29-6,10.18-9.29,16.41-12.9a56.47,56.47,0,0,0,9.27-6.33,27.51,27.51,0,0,0,7.16-9.73,29.27,29.27,0,0,0,2-11.84,66.14,66.14,0,0,0-1.31-11.06,46.19,46.19,0,0,0-3.34-10.69,30,30,0,0,0-2.87-4.86A12.4,12.4,0,0,0,592.5,202Z" transform="translate(-146.48 -34)"/><path class="d" d="M586.75,259.94a23,23,0,0,0-8.29,8,35.18,35.18,0,0,0-4.58,10.9,49,49,0,0,0-1.34,11.77c0,4,.5,7.77.86,11.38a34.59,34.59,0,0,1-.1,10.09,20.3,20.3,0,0,1-4.11,8.68c-4.25,5.4-10.4,9.8-16.4,14.45a56.88,56.88,0,0,0,10.74-4,38.31,38.31,0,0,0,9.73-6.75,22.92,22.92,0,0,0,6.44-10.86,34.09,34.09,0,0,0,.47-12.26c-.41-3.84-1-7.44-1.34-11a42.55,42.55,0,0,1-.22-5.29,47.06,47.06,0,0,1,.23-5.31,42,42,0,0,1,2.38-10.38A29.22,29.22,0,0,1,586.75,259.94Z" transform="translate(-146.48 -34)"/><path class="d" d="M547.05,267.39a17.35,17.35,0,0,0-7.46,5.15,16.76,16.76,0,0,0-3.85,8.68,25.63,25.63,0,0,0-.13,4.77c.07,1.45.1,2.88.06,4.3a26.24,26.24,0,0,1-1.19,7.95,11.45,11.45,0,0,1-4.15,5.59,19.27,19.27,0,0,1-7.05,2.73,74,74,0,0,1-16.84,1.26,71.41,71.41,0,0,1-16.73-2.15,33.11,33.11,0,0,1-7.46-2.93,14.48,14.48,0,0,1-5.21-5c-1.2-2-1.54-4.59-1.68-7.46s-.1-6-1-9.22a15.46,15.46,0,0,0-5.26-7.94,23.73,23.73,0,0,0-3.81-2.56c-1.34-.7-2.76-1.23-4.11-1.83,4.86,3.33,9.42,7.64,9.9,13a42.33,42.33,0,0,1-.23,8.49,20.2,20.2,0,0,0,1.37,9.85,18.45,18.45,0,0,0,6.83,7.72,38.54,38.54,0,0,0,8.82,4.07,73.42,73.42,0,0,0,18.37,2.76,75.45,75.45,0,0,0,18.48-1.8,25.38,25.38,0,0,0,9.17-4.23,16.18,16.18,0,0,0,5.65-8.85,28.58,28.58,0,0,0,.55-9.64c-.15-1.55-.37-3.06-.63-4.56a24.8,24.8,0,0,1-.42-4.09C538.85,276.05,542.1,270.69,547.05,267.39Z" transform="translate(-146.48 -34)"/><path class="d" d="M453.8,322.14a12.51,12.51,0,0,0,3,7.24,15.38,15.38,0,0,0,7.07,4.5,21,21,0,0,0,8.31.7,26,26,0,0,0,4-.73c.67-.19,1.34-.35,2-.58l2-.83a17.55,17.55,0,0,0,6.85-5.5,14.82,14.82,0,0,0,2.83-8.44c.13-5.94-3.69-11.43-8.68-12.87A14.18,14.18,0,0,1,484.57,318a12.15,12.15,0,0,1-7.26,8.3,26.6,26.6,0,0,1-12.3,2.38A15.14,15.14,0,0,1,453.8,322.14Z" transform="translate(-146.48 -34)"/><path class="d" d="M532.5,312.89c4.24,0,8.61,1.68,10.74,5a11.07,11.07,0,0,1,1.25,2.67c.36,1,.67,2,1,3a37.83,37.83,0,0,1,1.19,6.05c1,8.14-1.68,16.07-6.36,22.6l-1.85,2.41c-.63.79-1.35,1.52-2,2.3a36.2,36.2,0,0,1-4.27,4.22,51.11,51.11,0,0,1-10,6.63,35.94,35.94,0,0,1-11.06,3.75c-3.71.53-7.27,0-9.47-1.88A3.39,3.39,0,0,0,496,372v0a21.47,21.47,0,0,1-.57,3.27,25.55,25.55,0,0,1-1.09,3.34,21.73,21.73,0,0,1-3.52,5.91,21,21,0,0,1-11.67,7,63.05,63.05,0,0,1-15,1.2,33,33,0,0,1-7.26-1.26,20.08,20.08,0,0,1-3.34-1.29,12.31,12.31,0,0,1-2.68-1.76L448,391c.93.88,1.88,1.82,2.75,2.77.43.47.85.95,1.23,1.42a11.55,11.55,0,0,1,.79,1.1,1.14,1.14,0,0,1,.11-.55,1.37,1.37,0,0,1-.1.18,5.57,5.57,0,0,1-.52.63,11.27,11.27,0,0,1-1.33,1.24,14.94,14.94,0,0,1-3.16,2,13.07,13.07,0,0,1-7.39,1.17,16.84,16.84,0,0,1-7.26-3,16.58,16.58,0,0,0,7,4.25,14.52,14.52,0,0,0,8.48-.26,17.45,17.45,0,0,0,3.92-1.88,15.08,15.08,0,0,0,1.79-1.33,8.57,8.57,0,0,0,.86-.85,3.93,3.93,0,0,0,.47-.65,2.34,2.34,0,0,0,.24-1.53,7.67,7.67,0,0,0-1.14-2.43c-.41-.62-.83-1.19-1.26-1.75-.87-1.12-1.75-2.16-2.69-3.22a2,2,0,0,0-2.94,2.58l0,0a14.61,14.61,0,0,0,3.63,3,25.89,25.89,0,0,0,3.92,1.93,36.64,36.64,0,0,0,8.28,2,60,60,0,0,0,16.7-.45,26.68,26.68,0,0,0,15.44-8.54,28.47,28.47,0,0,0,4.7-7.63,29.93,29.93,0,0,0,2.26-8.76l-5.6,2.37a15.1,15.1,0,0,0,7.39,3.4,23.74,23.74,0,0,0,7.48,0,42.72,42.72,0,0,0,13.11-4.59,55.66,55.66,0,0,0,11.05-7.91,42.15,42.15,0,0,0,4.66-5,53.58,53.58,0,0,0,3.94-5.48A40.32,40.32,0,0,0,550,342.61a32.78,32.78,0,0,0,0-13.56,41.14,41.14,0,0,0-2-6.37c-.43-1-.87-2-1.35-3a12.61,12.61,0,0,0-1.86-2.93,11.49,11.49,0,0,0-5.74-3.57A15.67,15.67,0,0,0,532.5,312.89Z" transform="translate(-146.48 -34)"/><path class="d" d="M429.5,346.66a21.61,21.61,0,0,0,6.41,13.28,24.55,24.55,0,0,0,14,6.5,28.81,28.81,0,0,0,7.9.18,16.13,16.13,0,0,0,8.09-3.4,29.31,29.31,0,0,0,5.14-6.11,29.09,29.09,0,0,1,4.15-4.93,19.6,19.6,0,0,1,10.8-5.35c4.12-.64,8.79,0,13.56.38l1.79.16.91.08,1.05,0a13,13,0,0,0,4.23-.46,11.52,11.52,0,0,0,6.78-5,11.1,11.1,0,0,0,1.49-7.83,8.51,8.51,0,0,0-4.27-6,8.74,8.74,0,0,1,.07,11.91,7.7,7.7,0,0,1-5,2.59,20.16,20.16,0,0,1-6.28-.7c-4.69-1-9.6-1.89-15.05-1.52a23.06,23.06,0,0,0-8,2.16,27.43,27.43,0,0,0-6.73,4.61c-4.09,3.8-6.24,8.82-8.85,11.16a9.78,9.78,0,0,1-4.86,2.39,31.09,31.09,0,0,1-6.44.42c-1.11,0-2.18-.17-3.27-.28-1-.27-2.16-.36-3.17-.72a19.63,19.63,0,0,1-5.92-2.77A24,24,0,0,1,429.5,346.66Z" transform="translate(-146.48 -34)"/><path class="d" d="M324.72,361.2a19.78,19.78,0,0,0,.85,16.05A26,26,0,0,0,338,388.55a26.87,26.87,0,0,0,8.37,2.34,27.76,27.76,0,0,0,8.8-.54,24.62,24.62,0,0,0,8.23-3.52c.64-.43,1.25-.91,1.87-1.38s1.18-1.05,1.74-1.66a11.77,11.77,0,0,0,2.76-4.76l-6.24-1.44a28.25,28.25,0,0,0-.64,7.65,23.75,23.75,0,0,0,1.57,7.68c1.74,5.18,6.63,9.38,11.68,10.89,1.27.35,2.54.61,3.81.9l3.75.37c1.25,0,2.51,0,3.76,0s2.5-.28,3.74-.46a32.19,32.19,0,0,0,13.61-6.11,22.34,22.34,0,0,0,8.54-12.59,14.06,14.06,0,0,0-.74-8.09c-1-2.26-2.41-4.84-5.31-6.25a7.27,7.27,0,0,0-4.51-.37,10.62,10.62,0,0,0-3.62,1.7,19.27,19.27,0,0,0-2.78,2.44c-.83.86-1.6,2-2.13,2.43a2.16,2.16,0,0,1-2.19.43,5,5,0,0,1-2.26-1.81,9.59,9.59,0,0,1-1.85-6.19,9.92,9.92,0,0,0,.78,6.86,6.47,6.47,0,0,0,2.6,2.78,4.15,4.15,0,0,0,4.23-.18c1.28-.89,1.85-1.67,2.71-2.32a16.23,16.23,0,0,1,2.57-1.72,8.47,8.47,0,0,1,2.62-.89,3.44,3.44,0,0,1,2.11.39,7.68,7.68,0,0,1,2.68,4.34,9,9,0,0,1,.07,5.25,18.12,18.12,0,0,1-7.11,9,27.1,27.1,0,0,1-23,3.72,13.73,13.73,0,0,1-4.6-2.65,12,12,0,0,1-1.73-1.9,14.85,14.85,0,0,1-1.23-2.38c-1.42-3.31-1.48-7.73-.9-11.42l0-.2a3.2,3.2,0,0,0-6.28-1.25,6.05,6.05,0,0,1-1.19,2.08c-.32.39-.73.76-1.09,1.14l-1.3,1.05a20.44,20.44,0,0,1-6.22,3,22.59,22.59,0,0,1-7,.95,25.14,25.14,0,0,1-7.07-1.36,35.74,35.74,0,0,1-3.41-1.43,36.81,36.81,0,0,1-3.17-1.94,20.48,20.48,0,0,1-5.25-5.17A20.07,20.07,0,0,1,324.72,361.2Z" transform="translate(-146.48 -34)"/><path class="d" d="M374.05,347.78c.56,2.34,2.5,4.19,4.58,5.46a20.85,20.85,0,0,0,6.92,2.5,35.64,35.64,0,0,0,7.32.56l1.9-.08,1.92-.36a8.26,8.26,0,0,0,1.92-.51c.63-.23,1.29-.42,1.9-.69a17.6,17.6,0,0,0,6.42-5.12,26.42,26.42,0,0,0,3.64-7,55.8,55.8,0,0,0,2.5-14.5,113.82,113.82,0,0,0-.3-14.21c-.24-2.35-.37-4.63-.8-7.08-.2-1.2-.32-2.41-.59-3.61l-1-3.58a26.4,26.4,0,0,0-3.28-6.87,21.3,21.3,0,0,0-2.57-3,14.37,14.37,0,0,0-3.38-2.16,12.47,12.47,0,0,0-7.57-.81,16.34,16.34,0,0,0-6.56,2.84c4.4-1.38,9.32-1.49,12.53.92a12.26,12.26,0,0,1,2.18,2l.82,1.26a4.91,4.91,0,0,1,.73,1.31,25.16,25.16,0,0,1,2,5.93l.51,3.19c.13,1.07.18,2.19.28,3.27.24,2.14.22,4.49.29,6.76.08,4.54.2,9.09-.06,13.53a53.33,53.33,0,0,1-1.81,12.84,20.41,20.41,0,0,1-2.35,5.47,14.63,14.63,0,0,1-4,3.89,17.06,17.06,0,0,1-5.67,1.94,33.78,33.78,0,0,1-6.54.55,20.44,20.44,0,0,1-6.47-.88A9.7,9.7,0,0,1,374.05,347.78Z" transform="translate(-146.48 -34)"/><path class="d" d="M358.77,354.27c-2.39,1.26-4.92,2.34-7.1,2.25s-3.23-1.24-4.14-3.1a15.65,15.65,0,0,1-.74-1.6c-.27-.59-.47-1.13-.7-1.69s-.33-1.07-.53-1.59a14.17,14.17,0,0,1-.28-1.48,13.55,13.55,0,0,1,1-6.12c1.53-4.44,4.07-9.12,6.29-13.85a127.46,127.46,0,0,0,6.25-14.81,83.92,83.92,0,0,0-15.37,18.8c-.71,1.17-1.32,2.44-2,3.66s-1.2,2.57-1.66,4a17.55,17.55,0,0,0-.83,9.5,18.1,18.1,0,0,0,.72,2.37c.32.7.64,1.44,1,2.07s.72,1.29,1.1,1.85.74,1.13,1.29,1.82l.77,1c.3.31.64.6,1,.88a8.65,8.65,0,0,0,2.27,1.43,7.88,7.88,0,0,0,5.19.18A12.29,12.29,0,0,0,358.77,354.27Z" transform="translate(-146.48 -34)"/><path class="d" d="M358.77,248.55a12.19,12.19,0,0,0-2.79,6.6,10.29,10.29,0,0,0,2.36,7.41,8,8,0,0,0,3.72,2.35,16.42,16.42,0,0,0,3.93.57c2.37.13,4.09.28,5.21,1.28a6.79,6.79,0,0,1,1.61,1.84,7,7,0,0,1,.95,2.18,4.31,4.31,0,0,1-.91,3.81A8.44,8.44,0,0,1,368.7,277l-3.31.73a17,17,0,0,0-3.93,1.5,19.39,19.39,0,0,0-9.9,12.76,17.75,17.75,0,0,0,3.78,15.43,23.23,23.23,0,0,0,12.41,8.35c4.92,1.22,10.45,0,13.71-3.44a14.39,14.39,0,0,1-12.66.25,18.12,18.12,0,0,1-5.17-3.47,23.18,23.18,0,0,1-4-4.83,12.59,12.59,0,0,1-1.82-10.7,13.75,13.75,0,0,1,6.8-8.31,11,11,0,0,1,2.49-1l.65-.16a6.62,6.62,0,0,1,.79-.19c.67-.17,1.33-.28,2-.49a14.13,14.13,0,0,0,7.41-4.84,10.83,10.83,0,0,0,1.9-4.53,11.14,11.14,0,0,0-.34-4.79,12.39,12.39,0,0,0-5.45-6.91,9.88,9.88,0,0,0-4.32-1.36,19.17,19.17,0,0,0-3.84.09c-2.31.26-3.83.25-5.22-.83a8.15,8.15,0,0,1-1.86-2.19,9.11,9.11,0,0,1-1-2.89A13,13,0,0,1,358.77,248.55Z" transform="translate(-146.48 -34)"/><path class="d" d="M381.46,248.55a14.7,14.7,0,0,1,1.42-5.79,11.5,11.5,0,0,1,3.66-4.07A19.65,19.65,0,0,1,397,235.76a17.14,17.14,0,0,1,5.18.67c.4.11.5.26.78.34.1.15.24.18.26.28a2.84,2.84,0,0,1,.22,1.08,34.6,34.6,0,0,1-.52,5.44c-.26,2.06-.53,4.2-.6,6.43a38.06,38.06,0,0,0,.35,6.72,31.88,31.88,0,0,0,.68,3.34l.44,1.65.43,1.44a73.48,73.48,0,0,1,2.64,11.45c.45,3.79.63,7.78-.63,11.09a7,7,0,0,1-.52,1.13,2.37,2.37,0,0,1-.63.72,4.82,4.82,0,0,1-2.38.75,19.14,19.14,0,0,1-6-.64,15.65,15.65,0,0,0,5.88,2.54,6.64,6.64,0,0,0,3.65-.28,5.1,5.1,0,0,0,1.76-1.18,8.88,8.88,0,0,0,1.16-1.45c2.52-4.09,3-8.68,3-13a54.16,54.16,0,0,0-1.71-12.81l-.37-1.54-.3-1.35a24.85,24.85,0,0,1-.44-2.72,31.59,31.59,0,0,1-.21-5.6c0-1.89.26-3.84.46-5.87a32.9,32.9,0,0,0,.26-6.86,8.13,8.13,0,0,0-1.94-4.58,7.81,7.81,0,0,0-2.15-1.61,14.16,14.16,0,0,0-2.12-.7,19.92,19.92,0,0,0-7.08-.15,21.37,21.37,0,0,0-12.24,5.7,13.14,13.14,0,0,0-3.25,6A12.69,12.69,0,0,0,381.46,248.55Z" transform="translate(-146.48 -34)"/><path class="d" d="M350.33,231c1.66-8,5.72-15,11.62-19.22a36.19,36.19,0,0,1,4.72-2.76c1.76-.83,3.52-1.63,5.3-2.35a64,64,0,0,1,10.86-3.39,35.32,35.32,0,0,1,10.87-.81,20.59,20.59,0,0,1,5.1,1.09,13.43,13.43,0,0,1,2.31,1l1,.57.88.7c2.18,2,3.08,5.57,2.75,9.29a29,29,0,0,1-3.42,11.16A23.18,23.18,0,0,0,409,215.78a18,18,0,0,0,.68-6.72,12.78,12.78,0,0,0-2.76-6.77l-1.3-1.4c-.47-.41-1-.78-1.48-1.16A18.67,18.67,0,0,0,401.1,198a23.75,23.75,0,0,0-6.56-1.94,36.08,36.08,0,0,0-13.13.54,55.76,55.76,0,0,0-12.05,4.17c-1.89.92-3.75,1.89-5.54,3-.9.52-1.85,1.21-2.74,1.82s-1.7,1.44-2.55,2.15A26.93,26.93,0,0,0,350.33,231Z" transform="translate(-146.48 -34)"/><path class="d" d="M395.47,199a13.56,13.56,0,0,0,5.23,1.22,7.7,7.7,0,0,0,2.93-.48,5.69,5.69,0,0,0,2.65-2.07,31.25,31.25,0,0,0,3.8-10.37,41.38,41.38,0,0,0,.89-10.87,24.74,24.74,0,0,0-3.13-11.27l-.4-.67-.31-.49-.64-1-1.19-2.08c-.81-1.42-1.56-2.89-2.35-4.4a77.13,77.13,0,0,0-5.3-9.11,24.62,24.62,0,0,0-3.68-4.3,12.33,12.33,0,0,0-5.37-2.84,14.23,14.23,0,0,0-1.52-.18h-1.36a15.93,15.93,0,0,0-2.74.29,8.15,8.15,0,0,0-2.66,1,2.4,2.4,0,0,0-1.29,2.37,2,2,0,0,1,1.71-1.42,7,7,0,0,1,2.33,0c.8.12,1.59.26,2.38.46l1.19.33c.38.12.65.29,1,.42,2.44,1.17,4,3.85,5.48,6.68s2.64,6,4,9.16c.68,1.58,1.44,3.18,2.24,4.78.41.8.87,1.59,1.31,2.39l.74,1.19.37.59.24.44a21.71,21.71,0,0,1,2.52,8.27,56.69,56.69,0,0,1,.28,9.61c-.05,1.63-.27,3.25-.45,4.87a24.14,24.14,0,0,1-1,4.51c-.25,1.12-1.42,1.88-2.95,2.38A18.17,18.17,0,0,1,395.47,199Z" transform="translate(-146.48 -34)"/><path class="d" d="M338.3,348.79a6.06,6.06,0,0,1-2.28,4,16,16,0,0,1-3.92,2.44,40,40,0,0,1-9,2.57c-6.13,1-12.51,1.16-18.22-.45a18.1,18.1,0,0,1-7.44-3.82,22.64,22.64,0,0,1-4.74-7,23.87,23.87,0,0,1-2.25-8.16c-.27-2.68.32-5.51,1.41-6.69a3.28,3.28,0,0,0-4.73-4.53l-.17.18a14.63,14.63,0,0,1-4.82,3.24,5.43,5.43,0,0,1-4.49,0,10.36,10.36,0,0,1-2.16-1.6,18,18,0,0,1-2.11-2.31A27.78,27.78,0,0,1,270,321.1a24.57,24.57,0,0,1-2.35-12.55l.22-1.52.39-1.45a28.85,28.85,0,0,1,1.2-3.11,24.13,24.13,0,0,1,3.4-5.56,13.94,13.94,0,0,1,4.67-3.76,9,9,0,0,1,5.64-.65,16.29,16.29,0,0,1,3,.93l1.39.71c.31.26.87.5,1,.74.52.52.6.54.52,1.45s-.6,2.1-.86,3.55a9.48,9.48,0,0,0,.26,4.54,12.35,12.35,0,0,0,.95,2,19.26,19.26,0,0,0,1.25,1.68,19.83,19.83,0,0,0,6.28,4.77,15.42,15.42,0,0,0,14.7-.87A15,15,0,0,1,298,310.9c-3.7-2.42-7.36-6.66-6.05-10.19.24-1,.8-2,1.2-3.53a6.22,6.22,0,0,0,.08-2.78,5.83,5.83,0,0,0-1.36-2.56,10.71,10.71,0,0,0-1.8-1.62c-.6-.38-1.21-.73-1.82-1.09a20.18,20.18,0,0,0-4-1.54,14.37,14.37,0,0,0-8.83.44,18.3,18.3,0,0,0-7,5,29.94,29.94,0,0,0-4.55,6.8,35.88,35.88,0,0,0-1.6,3.7l-.65,2.09-.4,2.12a30.59,30.59,0,0,0,2.67,16.15,34.34,34.34,0,0,0,4.18,7A21.62,21.62,0,0,0,271,334a16.49,16.49,0,0,0,3.82,2.66,12.21,12.21,0,0,0,9.82.11,18.21,18.21,0,0,0,3.92-2.14,23.06,23.06,0,0,0,3.34-2.88l-4.91-4.36a12.17,12.17,0,0,0-2.57,5.93,20.7,20.7,0,0,0-.07,5.66,31,31,0,0,0,6,14.58,19.92,19.92,0,0,0,3.79,4,22.85,22.85,0,0,0,9.77,4.29,43.48,43.48,0,0,0,19.89-1.39,36,36,0,0,0,9.07-3.9,15.39,15.39,0,0,0,3.78-3.23A6.44,6.44,0,0,0,338.3,348.79Z" transform="translate(-146.48 -34)"/><path class="d" d="M313.38,293a23.79,23.79,0,0,0-1.69,8.79,15.83,15.83,0,0,0,4,11.44l1,.93c.35.32.68.61.92.81,1.07.89,2.15,1.76,3.18,2.66a54.64,54.64,0,0,1,5.71,5.51,13.79,13.79,0,0,1,1.9,2.71,3.92,3.92,0,0,1,.34.94c0,.08.06.19,0,.2a.11.11,0,0,1,0,.12c.06,0-.11.23-.2.39a3.69,3.69,0,0,1-.42.52,7.48,7.48,0,0,1-1.12,1,10,10,0,0,1-2.91,1.53,11.76,11.76,0,0,1-7.08.08,24,24,0,0,1-7.32-3.87,17.09,17.09,0,0,0,5.88,6.9,14.24,14.24,0,0,0,9.66,2.13,13.85,13.85,0,0,0,5-1.68,11.78,11.78,0,0,0,2.26-1.6,9.5,9.5,0,0,0,1-1.06,6.5,6.5,0,0,0,1-1.4,6.81,6.81,0,0,0,.82-3.82,9.69,9.69,0,0,0-.8-3.17,19.13,19.13,0,0,0-2.87-4.4,41.34,41.34,0,0,0-6.88-6.13c-1.22-.88-2.44-1.71-3.7-2.48a8.28,8.28,0,0,1-.77-.52l-.66-.45a12.77,12.77,0,0,1-1.21-1.13,16.91,16.91,0,0,1-3.43-6.65A46,46,0,0,1,313.38,293Z" transform="translate(-146.48 -34)"/><path class="d" d="M335.61,275.49a26,26,0,0,1-10.9-9.51,18.58,18.58,0,0,1-2.33-6.59,20.21,20.21,0,0,1,.35-6.93,30.37,30.37,0,0,1,2.49-6.54c1.09-2.12,2.43-4.18,3.67-6.48a16.43,16.43,0,0,0,2.37-8.16,15.07,15.07,0,0,0-3.06-8.22,30.36,30.36,0,0,0-5.7-5.91,18.07,18.07,0,0,0-7.86-3.7,14.52,14.52,0,0,0-9.09,1.21,16,16,0,0,0-6.69,6.18,14.72,14.72,0,0,0-1.76,4.35,9.77,9.77,0,0,0-.32,2.44,20.31,20.31,0,0,0,0,2.08c.05,2.42.08,4.88.08,7.34,0,4.92-.12,9.89-.29,14.81v.08a3.36,3.36,0,0,0,6.71.44,51,51,0,0,0-1.13-18.55,22.42,22.42,0,0,0-4.62-9,33.76,33.76,0,0,0-3.56-3.25l-3.3-2.75a38,38,0,0,1-5.53-5.63,12,12,0,0,1-2.45-6.37,17.53,17.53,0,0,1,1.24-7.22,17.86,17.86,0,0,1,3.71-6.43c3.1-3.48,8.6-3.75,14.49-4.09a28.72,28.72,0,0,0,9.12-1.85,23.15,23.15,0,0,0,7.85-5.16,21.94,21.94,0,0,0,5.06-7.78,17.49,17.49,0,0,0,1.09-9.12c-.43-3-1.4-5.77-2.07-8.54s-1.09-5.79.81-8.15a6.81,6.81,0,0,0-1.93,3.9,16.17,16.17,0,0,0,0,4.45,85,85,0,0,1,1.14,8.52c.35,5.47-2.53,10.7-6.54,14.14a19.47,19.47,0,0,1-6.85,3.85,24.93,24.93,0,0,1-7.94,1,64.73,64.73,0,0,0-9,.51,16.83,16.83,0,0,0-9.15,4.31,22.2,22.2,0,0,0-5.32,8.26,23.72,23.72,0,0,0-1.89,9.72,18.28,18.28,0,0,0,3.36,9.73,37.88,37.88,0,0,0,6.47,6.89l3.34,2.86a29.05,29.05,0,0,1,2.84,2.6,16,16,0,0,1,3.09,6.37,49.12,49.12,0,0,1,1,16l6.7.53c.12-5,.18-10,.14-15.05,0-2.52-.06-5-.22-7.6a14.7,14.7,0,0,1-.05-1.64,4.22,4.22,0,0,1,.13-1.26,8.31,8.31,0,0,1,.95-2.56,9.15,9.15,0,0,1,9.42-4.81c3.81.52,7.65,3.49,10.47,6.94a10.34,10.34,0,0,1,2.43,5.4,12.36,12.36,0,0,1-1.45,6.08c-1,2.15-2.2,4.37-3.24,6.76a30.58,30.58,0,0,0-2.23,7.57,23.23,23.23,0,0,0,.3,7.93,19.35,19.35,0,0,0,3.3,7.12A25.48,25.48,0,0,0,335.61,275.49Z" transform="translate(-146.48 -34)"/><path class="d" d="M264.26,308.59c3.05-3.69,4-9,3.07-14a21.63,21.63,0,0,0-2.81-7.14,27.26,27.26,0,0,0-5-5.74c-3.61-3.32-7.4-5.89-10.19-9.06a26.76,26.76,0,0,1-3.62-5,31.09,31.09,0,0,1-3.17-11.87,15.72,15.72,0,0,1,.64-5.64c1.06-3.45,3.95-5.57,8-6.07a48.9,48.9,0,0,1,6.57-.06c2.33,0,4.68.14,7.1.09s5-.19,7.36-1.4A6.3,6.3,0,0,0,275,240.1a8.62,8.62,0,0,0,1-3.5c-.87,2.2-2.41,4-4.48,4.37a17.36,17.36,0,0,1-6.48-.18c-2.24-.34-4.53-.79-6.85-1.21a43.33,43.33,0,0,0-7.39-.8,14.85,14.85,0,0,0-8.1,2.3,14.52,14.52,0,0,0-5.54,6.8c-2,5.44-1.47,10.95-.18,15.82a31.59,31.59,0,0,0,3,7.24,28.64,28.64,0,0,0,4.8,6.19c3.72,3.56,7.83,6.12,11.45,8.68s6.4,5.5,8,9.67A18,18,0,0,1,264.26,308.59Z" transform="translate(-146.48 -34)"/><path class="d" d="M244,237.14c-2.25-2.84-3.12-6.3-3.85-9.66a68.44,68.44,0,0,1-1.23-10.31c-.17-3.44-.21-7-.11-10.39a28.3,28.3,0,0,1,.54-4.76c.18-.76.25-1.56.49-2.28l.79-2.16A24.62,24.62,0,0,1,245.9,190a101.59,101.59,0,0,1,7.86-6.67,57.93,57.93,0,0,0,8.2-7.47,23.36,23.36,0,0,0,5.2-9.83c-4.29,6-10.18,9.3-16.41,12.9a57.75,57.75,0,0,0-9.27,6.33,27.69,27.69,0,0,0-7.16,9.73,29.34,29.34,0,0,0-2,11.85,67.2,67.2,0,0,0,1.31,11.06A46.34,46.34,0,0,0,237,228.55a30.42,30.42,0,0,0,2.87,4.86A12.4,12.4,0,0,0,244,237.14Z" transform="translate(-146.48 -34)"/><path class="d" d="M249.75,182.72a22.85,22.85,0,0,0,8.29-8,35.18,35.18,0,0,0,4.58-10.9A49.17,49.17,0,0,0,264,152c0-3.94-.5-7.76-.86-11.37a34.58,34.58,0,0,1,.1-10.09,20.39,20.39,0,0,1,4.11-8.69c4.25-5.39,10.4-9.79,16.4-14.44a56.88,56.88,0,0,0-10.74,4,38.31,38.31,0,0,0-9.73,6.75,22.92,22.92,0,0,0-6.44,10.86,34.09,34.09,0,0,0-.47,12.26c.41,3.84,1,7.44,1.34,11a42.55,42.55,0,0,1,.22,5.29,47.06,47.06,0,0,1-.23,5.31,41.84,41.84,0,0,1-2.38,10.37A29.12,29.12,0,0,1,249.75,182.72Z" transform="translate(-146.48 -34)"/><path class="d" d="M289.45,171.7a17.29,17.29,0,0,0,7.46-5.16,16.69,16.69,0,0,0,3.85-8.67,25.63,25.63,0,0,0,.13-4.77c-.07-1.45-.1-2.88-.06-4.3a26.25,26.25,0,0,1,1.19-8,11.54,11.54,0,0,1,4.15-5.59,19.44,19.44,0,0,1,7.05-2.72,74,74,0,0,1,16.84-1.26,71.41,71.41,0,0,1,16.73,2.15,33.11,33.11,0,0,1,7.46,2.93,14.48,14.48,0,0,1,5.21,5c1.2,2,1.54,4.59,1.68,7.46s.1,6.05,1,9.22a15.5,15.5,0,0,0,5.26,7.94,24.41,24.41,0,0,0,3.81,2.56c1.34.7,2.76,1.22,4.11,1.83-4.86-3.33-9.42-7.64-9.9-13a42.31,42.31,0,0,1,.23-8.49,20.18,20.18,0,0,0-1.37-9.85,18.47,18.47,0,0,0-6.83-7.73,38.93,38.93,0,0,0-8.82-4.06,73.9,73.9,0,0,0-18.37-2.77,76,76,0,0,0-18.48,1.81,25.17,25.17,0,0,0-9.16,4.23,16.08,16.08,0,0,0-5.66,8.84,28.64,28.64,0,0,0-.55,9.65c.15,1.54.37,3.06.63,4.56a24.8,24.8,0,0,1,.42,4.09C297.65,163,294.4,168.4,289.45,171.7Z" transform="translate(-146.48 -34)"/><path class="d" d="M382.7,117a12.49,12.49,0,0,0-3-7.24,15.3,15.3,0,0,0-7.07-4.5,20.84,20.84,0,0,0-8.31-.7,24.86,24.86,0,0,0-4,.73c-.67.18-1.34.35-2,.58l-2,.83a17.37,17.37,0,0,0-6.85,5.5,14.79,14.79,0,0,0-2.83,8.44c-.13,5.93,3.69,11.42,8.68,12.87a14.2,14.2,0,0,1-3.34-12.34,12.19,12.19,0,0,1,7.26-8.3,26.86,26.86,0,0,1,12.3-2.38A15.12,15.12,0,0,1,382.7,117Z" transform="translate(-146.48 -34)"/><path class="d" d="M304,126.2c-4.24,0-8.61-1.68-10.74-5a11.18,11.18,0,0,1-1.25-2.66c-.36-1-.66-2-1-3a37.61,37.61,0,0,1-1.19-6c-1-8.14,1.68-16.06,6.36-22.59l1.85-2.41c.63-.79,1.35-1.52,2-2.3A35.44,35.44,0,0,1,304.34,78a51.16,51.16,0,0,1,10.05-6.64,36.48,36.48,0,0,1,11.06-3.75c3.71-.52,7.27,0,9.47,1.89a3.39,3.39,0,0,0,5.59-2.33v0a21.37,21.37,0,0,1,.57-3.28,25.91,25.91,0,0,1,1.09-3.33,21.58,21.58,0,0,1,3.52-5.91,20.91,20.91,0,0,1,11.67-7,62.54,62.54,0,0,1,15-1.2,33,33,0,0,1,7.26,1.26A21,21,0,0,1,382.94,49a12.68,12.68,0,0,1,2.68,1.77l2.92-2.6c-.93-.88-1.88-1.83-2.75-2.77-.43-.47-.85-1-1.23-1.43a10.35,10.35,0,0,1-.79-1.1,1,1,0,0,1-.11.56,1.18,1.18,0,0,1,.1-.19,8.16,8.16,0,0,1,.52-.63,11.2,11.2,0,0,1,1.33-1.23,14.94,14.94,0,0,1,3.16-2,13.07,13.07,0,0,1,7.39-1.17,16.72,16.72,0,0,1,7.26,3,16.58,16.58,0,0,0-7-4.25,14.44,14.44,0,0,0-8.48.26A17,17,0,0,0,384,39.11a14.06,14.06,0,0,0-1.79,1.33,8.57,8.57,0,0,0-.86.85,3.8,3.8,0,0,0-.47.64,2.38,2.38,0,0,0-.24,1.54,7.78,7.78,0,0,0,1.14,2.43c.41.62.83,1.19,1.26,1.75.87,1.12,1.75,2.16,2.69,3.21a2,2,0,0,0,2.94-2.57l0,0a14.89,14.89,0,0,0-3.63-3,24.92,24.92,0,0,0-3.92-1.92,36.64,36.64,0,0,0-8.28-2,59.58,59.58,0,0,0-16.7.45A26.68,26.68,0,0,0,340.7,50.3a28.17,28.17,0,0,0-4.7,7.63,29.85,29.85,0,0,0-2.26,8.76l5.6-2.37A15.12,15.12,0,0,0,332,60.91a23.73,23.73,0,0,0-7.48,0,42.72,42.72,0,0,0-13.11,4.59,56.31,56.31,0,0,0-11.05,7.9,42.24,42.24,0,0,0-4.66,5,53.58,53.58,0,0,0-3.94,5.48,40.6,40.6,0,0,0-5.23,12.58,32.83,32.83,0,0,0,0,13.57,41,41,0,0,0,2,6.36c.43,1,.87,2,1.35,3a13,13,0,0,0,1.86,2.93,11.56,11.56,0,0,0,5.74,3.57A15.84,15.84,0,0,0,304,126.2Z" transform="translate(-146.48 -34)"/><path class="d" d="M407,92.42a21.61,21.61,0,0,0-6.41-13.28,24.6,24.6,0,0,0-14-6.49,28.42,28.42,0,0,0-7.9-.18,16.21,16.21,0,0,0-8.09,3.39A29.61,29.61,0,0,0,365.45,82a29.09,29.09,0,0,1-4.15,4.93,19.52,19.52,0,0,1-10.8,5.34c-4.12.65-8.79,0-13.56-.37l-1.79-.16-.91-.08-1.05,0a13.26,13.26,0,0,0-4.23.47,11.51,11.51,0,0,0-6.78,5,11.14,11.14,0,0,0-1.49,7.84,8.53,8.53,0,0,0,4.27,6,8.74,8.74,0,0,1-.07-11.91,7.76,7.76,0,0,1,5-2.6,20.47,20.47,0,0,1,6.28.7c4.69,1,9.6,1.9,15.05,1.53a23.06,23.06,0,0,0,8-2.16A27.19,27.19,0,0,0,366,91.9c4.09-3.79,6.24-8.81,8.85-11.15a9.78,9.78,0,0,1,4.86-2.39,31.78,31.78,0,0,1,6.44-.43c1.11,0,2.18.18,3.27.29,1,.26,2.16.36,3.17.72a19.4,19.4,0,0,1,5.92,2.77A24,24,0,0,1,407,92.42Z" transform="translate(-146.48 -34)"/><path class="e" d="M456,300.41c2.12-2.57,4.52-4.76,5.93-7.47a6.61,6.61,0,0,0-.42-5.68c-.8-1.23-3.54-2.28-4.89-1.83a82.16,82.16,0,0,0-11.24,5.21c-4,2.06-7.9,4.24-11.79,6.47-2.92,1.68-5.68,3.24-9.38,2.75-1.51-.2-3.27,1.34-4.88,2.15-1.82.92-3.54,2.05-5.4,2.85-3.11,1.33-6.36,2.2-7.8,5.9-1.88,4.83-10.74,6-13.77,1.78-3.79-5.3-6.95-11.07-10.9-16.24-8.47-11-13-23.62-15.84-37.05q-2.67-12.65-6.23-25.08c-1.13-3.93-3.28-7.58-5.4-12.34l.11,0a19.43,19.43,0,0,1,8.32,2c19.74,9.18,31.09,7.47,46.08.27,18.34-8.8,28.73-22.63,54.41-15.56,6.1,1.67,13.73,7.68,19.57,6.18,0,0,.09,0,.07,0-20.23-14.1-23.06-31.64-48.07-44.5-16.35-8.42-35.87-15.49-52.91-14.5s-54.63,4.12-71.1,16c-14.73,10.6-31.51,14.44-40.76,29.79-2.54,4.23-3.43,8-.65,12.36a14.18,14.18,0,0,1,2,4.67c2,9.85,6.47,18.7,11.36,27.34,9.38,16.55,21.84,30.39,36.31,42.76,14,12,27.15,24.94,40.79,37.33,7.34,6.66,14.6,13.49,22.52,19.41,6.6,4.92,14.23,8.26,22.9,7.83,6.88-.34,13.77-.58,20.64-1,4.41-.27,9-.15,13.17-1.38,6.33-1.86,13.82-2.45,17.1-9.59a129.13,129.13,0,0,0,6.33-16.79c1-3.3.94-7,1.09-10.46C463.5,308,459.29,304.27,456,300.41Z" transform="translate(-146.48 -34)"/><path class="f" d="M423,309.18c2.5-1,8.25-2.94,10.5-.38,1.58,1.79,1.89,5.16,1.85,7.8-.08,4.54-.36,3.75-.77,8.29s.5,5.6-.12,8.47c0,0,1.21-1.09,1.7-7.31.38-8.32,2.11-15,.09-17.95,3.83,2.29,6-1.29,9.83,2.42-1.26-1.3-.28-1.89-3-3.07,4.05,1.16,5.41,3.27,4.68,7.93a73,73,0,0,1-2.12,8.32c-.45,1.63-1.31,3.19-1.5,4.84s1.52,1.29.43,5.16c0,0,1.36-.17,1.9-4.62.24-2.06.4-4.13.76-6.17.45-2.56,1.11-5.08,1.58-7.64.36-2-.26-4.66,2.9-4.56,2.94.09,6.16-.27,7,3.2a16.68,16.68,0,0,1-1.06,7.53c-2.35,6.76-3.2,10.84-6.23,17.28-2.76,5.87-6.2,6.73-12.8,5.15-.25-.06-.62-.18-.75-.07-4.78,4.31-10.57.08-15.88,2-6.84,2.5-15,2.69-21.36-2,3,.36,4.47,2.41,7.48,1.61-3.31-1.44-6.15-2.16-8.34-3.78-1.77-1.3-4.25-4.11-3.74-5.49.39-1.05,1.33-2.25,3.4-3.63a14.84,14.84,0,0,1,5-1.86c-1.92.69-1.25,1.16-2.32,1.63,5-1.47,11.11-2.23,12.82-7.51,1.47-4.56-.64-9.69-3.05-14.57a7.51,7.51,0,0,1,8.34-.59,8.55,8.55,0,0,1,3.77,5.62c.42,4.22-.21,8.55-.41,12.84-.32,6.7,1.57,6.06,1.64,2.95C425.23,323.65,428.63,316.31,423,309.18Z" transform="translate(-146.48 -34)"/><path class="f" d="M347.83,263.36c1.56,5.54,2.28,7.35,3.87,10.39,2,3.84,9.34,9.25,12.15,14.82-4.45-6-9-7.71-12.53-12.66a28,28,0,0,1-4.31-8.37c-2.64-6.94-4.07-11.87-4.51-19.55-.19-3.35,1.06-5.85,2.12-6.4,2.37-1.22,4.19.81,4.93,2.11a127.47,127.47,0,0,1,7.7,15.7c3,7.47,5.09,15.36,8.42,22.68s6.06,14.14,11.11,20.22c-5.21-5.52-8.57-11.11-14.34-20.14C358.34,275.74,352.13,271.56,347.83,263.36Z" transform="translate(-146.48 -34)"/><path class="f" d="M302.53,266.7c-8.74-12-17.09-22.53-22.41-34.78a69.37,69.37,0,0,1-4.8-15.92c.8,4,3.94,7.8,5.62,12.38C286.9,244.52,294.49,255,302.53,266.7Z" transform="translate(-146.48 -34)"/><path class="f" d="M456.75,295.61c-2.57,2.57-3.89-.76-6.11-.67,1.08-1.08,2.53-4,4.13-4.9s3.53,0,4.05-1.78c1.62.46.9,3.32.64,3.92A9.65,9.65,0,0,1,456.75,295.61Z" transform="translate(-146.48 -34)"/><path class="f" d="M380.53,136.09c-2.12,2.57-4.51,4.76-5.93,7.47a6.68,6.68,0,0,0,.42,5.68c.8,1.23,3.54,2.28,4.89,1.83a81.07,81.07,0,0,0,11.24-5.21c4-2.06,7.91-4.24,11.79-6.47,2.92-1.68,5.69-3.24,9.38-2.75,1.51.2,3.27-1.34,4.88-2.15,1.82-.92,3.54-2.05,5.41-2.85,3.1-1.33,6.36-2.2,7.8-5.9,1.88-4.83,10.73-6,13.76-1.78,3.8,5.3,6.95,11.07,10.91,16.24,8.47,11,13,23.62,15.84,37.05q2.65,12.65,6.22,25.08c1.13,3.93,3.28,7.58,5.41,12.34l-.11,0a19.43,19.43,0,0,1-8.33-2c-19.74-9.18-31.09-7.47-46.07-.27-18.34,8.8-28.74,22.63-54.42,15.56-6.09-1.67-13.73-7.68-19.56-6.18-.05,0-.09,0-.08,0,20.24,14.1,23.06,31.64,48.07,44.5,16.36,8.42,35.87,15.49,52.92,14.5s54.62-4.12,71.1-16c14.73-10.6,31.51-14.44,40.75-29.79,2.55-4.23,3.43-8,.65-12.36a14.62,14.62,0,0,1-2-4.67c-2-9.85-6.46-18.7-11.36-27.34-9.37-16.55-21.84-30.4-36.3-42.76-14-12-27.15-24.94-40.8-37.33-7.34-6.66-14.59-13.49-22.52-19.41-6.59-4.92-14.22-8.26-22.9-7.83-6.88.34-13.76.58-20.63,1-4.42.27-9,.15-13.18,1.38-6.33,1.86-13.82,2.45-17.09,9.59a127.69,127.69,0,0,0-6.33,16.79c-1,3.3-1,7-1.09,10.46C373.07,128.52,377.27,132.23,380.53,136.09Z" transform="translate(-146.48 -34)"/><path class="e" d="M413.6,127.32c-2.51,1-8.25,2.94-10.51.38-1.57-1.79-1.89-5.16-1.84-7.8.08-4.54.36-3.75.77-8.29s-.51-5.6.12-8.47c0,0-1.21,1.09-1.7,7.31-.39,8.32-2.11,15-.1,18-3.82-2.29-6,1.29-9.82-2.42,1.25,1.3.28,1.89,3,3.06-4-1.15-5.41-3.26-4.68-7.92a73,73,0,0,1,2.12-8.32c.46-1.63,1.32-3.19,1.51-4.84s-1.53-1.29-.43-5.16c0,0-1.36.17-1.9,4.62-.25,2.06-.41,4.13-.77,6.17-.44,2.56-1.11,5.08-1.57,7.64-.36,2,.26,4.66-2.9,4.56-2.94-.09-6.17.27-7-3.2a16.68,16.68,0,0,1,1.06-7.53c2.35-6.76,3.2-10.84,6.23-17.28,2.76-5.87,6.19-6.73,12.79-5.15.25.06.63.18.76.07,4.77-4.31,10.56-.08,15.88-2,6.84-2.5,15-2.69,21.36,2-3-.36-4.47-2.41-7.49-1.61,3.31,1.44,6.16,2.16,8.35,3.78,1.77,1.3,4.25,4.11,3.74,5.49-.39,1-1.34,2.25-3.41,3.63a14.7,14.7,0,0,1-5,1.86c1.92-.69,1.24-1.16,2.32-1.63-5,1.47-11.11,2.23-12.83,7.51-1.47,4.56.64,9.69,3.06,14.57a7.51,7.51,0,0,1-8.34.59,8.53,8.53,0,0,1-3.78-5.62c-.41-4.22.21-8.55.42-12.84.31-6.7-1.57-6.06-1.65-3C411.33,112.85,407.93,120.19,413.6,127.32Z" transform="translate(-146.48 -34)"/><path class="e" d="M488.74,173.14c-1.57-5.55-2.29-7.35-3.87-10.39-2-3.84-9.34-9.25-12.16-14.82,4.45,6,9,7.71,12.54,12.66a28,28,0,0,1,4.3,8.37c2.64,6.94,4.08,11.87,4.51,19.55.19,3.35-1.05,5.85-2.12,6.4-2.37,1.22-4.18-.81-4.93-2.11a128.91,128.91,0,0,1-7.7-15.7c-3-7.47-5.09-15.36-8.41-22.68-3.26-7.17-6.06-14.14-11.12-20.22,5.21,5.52,8.57,11.11,14.34,20.14C478.23,160.76,484.43,164.94,488.74,173.14Z" transform="translate(-146.48 -34)"/><path class="e" d="M534,169.8c8.75,12,17.09,22.53,22.42,34.78a69.37,69.37,0,0,1,4.8,15.92c-.8-4-3.94-7.8-5.63-12.38C549.67,192,542.07,181.53,534,169.8Z" transform="translate(-146.48 -34)"/><path class="e" d="M379.82,140.89c2.56-2.57,3.88.76,6.11.67-1.09,1.08-2.53,4-4.13,4.9s-3.54,0-4.06,1.78c-1.61-.46-.89-3.32-.63-3.92A9.54,9.54,0,0,1,379.82,140.89Z" transform="translate(-146.48 -34)"/><path class="f" d="M146.48,454.81c0-4.3,1.16-7.63,3.47-10s5.54-3.57,9.7-3.57h18.21q6.3,0,9.84,3.57c2.35,2.39,3.53,5.72,3.53,10v2.45l-16.52,8.61V457H162.8V478.9h28.43v48.18q0,6.51-3.5,10.09c-2.33,2.38-5.63,3.57-9.87,3.57H159.65q-6.24,0-9.7-3.57t-3.47-10.09v-9.31l16.32-8.48V525h11.91V493.61H146.48Z" transform="translate(-146.48 -34)"/><path class="f" d="M214.2,540.74V457.12H198.1v-15.9h48.53v15.9H230.52v83.62Z" transform="translate(-146.48 -34)"/><path class="f" d="M298.38,490.52l-12,6.17L305,540.74H287.88L272.4,503.9,270,505.16v35.58H253.63V441.22h31.45q6.23,0,9.76,3.57c2.36,2.39,3.54,5.72,3.54,10Zm-16.32-9.17V457H270v24.37Z" transform="translate(-146.48 -34)"/><path class="f" d="M310,454.81c0-4.3,1.15-7.63,3.46-10s5.55-3.57,9.7-3.57h18.21q6.3,0,9.84,3.57c2.36,2.39,3.54,5.72,3.54,10v72.27q0,6.51-3.51,10.09t-9.87,3.57H323.17q-6.23,0-9.7-3.57T310,527.08ZM338.23,457H326.32v68h11.91Z" transform="translate(-146.48 -34)"/><path class="f" d="M383,540.74H366.8V441.22H383l.07,7.85a9.17,9.17,0,0,1,3-5.89,9.86,9.86,0,0,1,6.44-2h5.61q6.22,0,9.77,3.57c2.35,2.39,3.53,5.72,3.53,10v85.93H395.09V457.12H383Z" transform="translate(-146.48 -34)"/><path class="f" d="M423.32,454.81c0-4.3,1.15-7.63,3.46-10s5.55-3.57,9.7-3.57h18.21q6.3,0,9.84,3.57c2.36,2.39,3.54,5.72,3.54,10V469l-16.53,8.33V457H439.63v68h11.91V505.86L445,506V488.07l23.11.07v52.6H436.48q-6.23,0-9.7-3.57t-3.46-10.09Z" transform="translate(-146.48 -34)"/><path class="f" d="M519.54,540.74H480.11V441.22h39.43v15.9H496.43l.07,17.51,17.65.14v17.79H496.5l-.07,32.28h23.11Z" transform="translate(-146.48 -34)"/><path class="f" d="M574.37,490.52l-12,6.17L581,540.74H563.87L548.39,503.9l-2.45,1.26v35.58H529.62V441.22h31.45q6.23,0,9.77,3.57c2.35,2.39,3.53,5.72,3.53,10Zm-16.31-9.17V457H545.94v24.37Z" transform="translate(-146.48 -34)"/><path class="f" d="M617,462.51V480.4a6.23,6.23,0,0,1-1.65,4.75,7.11,7.11,0,0,1-5,1.55H596.59V441.22H611a6,6,0,0,1,4.48,1.64,6.26,6.26,0,0,1,1.6,4.57V457a7.21,7.21,0,0,1-.77,3.62,4.36,4.36,0,0,1-2.43,1.89Zm-7.2-2.15V448.23h-6.05v12.13Zm0,19.27V468h-6.05v11.62Z" transform="translate(-146.48 -34)"/><path class="f" d="M622.41,447.43a6.26,6.26,0,0,1,1.59-4.57,5.87,5.87,0,0,1,4.43-1.64h8.32a6.05,6.05,0,0,1,4.5,1.64,6.19,6.19,0,0,1,1.62,4.57v33a6.33,6.33,0,0,1-1.6,4.61,6,6,0,0,1-4.52,1.63h-8.32a5.87,5.87,0,0,1-4.43-1.63,6.33,6.33,0,0,1-1.59-4.61Zm12.9,1h-5.44V479.5h5.44Z" transform="translate(-146.48 -34)"/><path class="f" d="M662.68,441.22a6,6,0,0,1,4.46,1.64,6.19,6.19,0,0,1,1.62,4.57v33a6.33,6.33,0,0,1-1.6,4.61,6,6,0,0,1-4.48,1.63H648.31V441.22Zm-1.38,7.2h-5.54V479.5h5.54Z" transform="translate(-146.48 -34)"/><path class="f" d="M674.14,441.22h7.45V458H687V441.22h7.56v38.92a6.9,6.9,0,0,1-1.56,4.95,6.32,6.32,0,0,1-4.75,1.61h-8.13a5.88,5.88,0,0,1-4.43-1.63,6.32,6.32,0,0,1-1.58-4.61v-1.63l7.45-3.87v4.54H687V466.12H674.14Z" transform="translate(-146.48 -34)"/><path class="f" d="M616.94,540.78h-7.33V502.56h-5.54v38.22h-7.46V501.51a6.3,6.3,0,0,1,1.59-4.58,5.87,5.87,0,0,1,4.43-1.63h6.31a4.26,4.26,0,0,1,3.18,1.15,4.41,4.41,0,0,1,1.14,3.23,4.4,4.4,0,0,1,1.12-3.24,4.18,4.18,0,0,1,3.13-1.14h6.31a6,6,0,0,1,4.46,1.63,6.23,6.23,0,0,1,1.62,4.58v39.27h-7.52V502.56h-5.44Z" transform="translate(-146.48 -34)"/><path class="f" d="M642.8,540.78h-7.46V495.3h7.46Z" transform="translate(-146.48 -34)"/><path class="f" d="M655.79,540.78H648.4V495.3h7.39l0,3.58a4.23,4.23,0,0,1,1.38-2.68,4.5,4.5,0,0,1,2.95-.9h2.56a6,6,0,0,1,4.46,1.63,6.23,6.23,0,0,1,1.62,4.58v39.27h-7.46V502.56h-5.54Z" transform="translate(-146.48 -34)"/><path class="f" d="M688.66,495.3a6,6,0,0,1,4.47,1.63,6.27,6.27,0,0,1,1.61,4.58v33a6.31,6.31,0,0,1-1.6,4.61,6,6,0,0,1-4.48,1.63H674.29V495.3Zm-1.37,7.2h-5.54v31.08h5.54Z" transform="translate(-146.48 -34)"/></svg>