<?xml version="1.0" encoding="utf-8"?>
<!-- Generator: Adobe Illustrator 25.2.1, SVG Export Plug-In . SVG Version: 6.00 Build 0)  -->
<svg version="1.1" id="Layer_1" xmlns="http://www.w3.org/2000/svg" xmlns:xlink="http://www.w3.org/1999/xlink" x="0px" y="0px"
	 viewBox="0 0 228.5 46" style="enable-background:new 0 0 228.5 46;" xml:space="preserve">
<style type="text/css">
	.st0{fill:none;stroke:#FFFFFF;stroke-width:1.24;stroke-miterlimit:10;}
	.st1{fill:#FFFFFF;}
</style>
<polygon class="st0" points="0.6,0.6 227.9,0.6 227.9,45.4 0.6,45.4 0.6,0.6 "/>
<path class="st1" d="M15,33h12c3.7,0,5.2-0.2,6.4-1.1c1.9-1.4,2.9-3.6,2.9-5.9c0.1-2-0.6-3.9-1.9-5.4c-1.4-1.3-3.2-1.8-6.6-1.8h-3.8
	c-1.9,0-2.6-0.1-3.3-0.5c-0.7-0.5-1.1-1.3-1.1-2.2c-0.1-0.9,0.4-1.8,1.2-2.3c0.6-0.3,1.4-0.4,3.6-0.4H35V9.1H23.2
	c-2.9,0-4.2,0.1-5.3,0.6c-2.5,1.1-4.1,3.7-3.9,6.5c0,2.1,0.8,4,2.4,5.4c1.2,1,3.1,1.5,5.8,1.5h4.4c0.9-0.1,1.8,0.1,2.6,0.5
	c0.9,0.5,1.5,1.5,1.5,2.5c0,0.9-0.4,1.8-1.2,2.2c-0.6,0.4-1.6,0.5-3.5,0.5H15V33L15,33z M51.2,29.2h-4.5c-1.2,0.1-2.2-0.9-2.3-2.1
	c0-0.1,0-0.3,0-0.4V15.5h-4.8v10.7c0,4.7,2.3,6.9,7,6.7H56V15.5h-4.8L51.2,29.2L51.2,29.2z M60.7,15.5v24h4.8V33h4.2
	c2.9,0,4.7-0.7,6.3-2.2c1.6-1.7,2.4-3.9,2.3-6.2c0-3.3-1.1-5.9-3.1-7.5c-1.5-1.2-2.8-1.5-6.1-1.5L60.7,15.5z M65.5,19.3h3.3
	c2.9,0,4.6,1.8,4.6,4.9c0,3.4-1.6,5.1-4.9,5.1h-2.9V19.3L65.5,19.3z M96,22.4H86c0.2-2.4,1.1-3.1,3.7-3.1h6.4v-3.7h-6.7
	c-1.8-0.1-3.7,0.3-5.3,1.2c-2.2,1.7-3.5,4.4-3.4,7.2c0,3.2,1.1,5.7,3.1,7.3c1.6,1.2,3.1,1.6,5.9,1.6h6.4v-3.7h-5.9
	c-2.8,0.1-4.1-0.9-4.2-3.1h10.1L96,22.4L96,22.4z M100,15.5V33h4.8V19.3h1.4c2.4,0,3,0.7,3.1,3.2v0.9h4.6v-1.7
	c0.1-4.6-1.6-6.2-6.8-6.1H100z M133.7,15.5h-8.9c-2.6,0-4.1,0.4-5.6,1.5c-2.1,1.5-3.2,3.9-3.2,7.2c-0.1,2.5,0.8,5,2.6,6.8
	c1.5,1.4,3.1,1.9,6,1.9h4.4c0,2-0.5,2.5-2.5,2.5h-8.9v3.7h9.5c4.7,0.1,6.5-1.6,6.7-6.3L133.7,15.5L133.7,15.5z M128.9,19.3v10h-3.7
	c-2.9,0-4.4-1.7-4.4-5s1.4-5,4.1-5H128.9z M138.3,15.5V33h4.8V19.3h1.4c2.4,0,3,0.7,3.1,3.2v0.9h4.6v-1.7c0.1-4.6-1.6-6.2-6.8-6.1
	H138.3z M163.3,15.3c-5.6,0-9.2,3.5-9.2,8.8c0,5.8,3.4,9.1,9.1,9.1s9.3-3.4,9.3-8.8c0.1-2.3-0.7-4.6-2.1-6.4
	C168.9,16.2,166.5,15.3,163.3,15.3L163.3,15.3z M163.3,19c2.8,0,4.3,1.8,4.3,5.2s-1.4,5.3-4.2,5.3s-4.3-1.8-4.3-5.2
	S160.4,19,163.3,19L163.3,19z M187.4,29.2H183c-1.2,0.1-2.2-0.9-2.3-2.1c0-0.1,0-0.3,0-0.4V15.5h-4.8v10.7c0,4.7,2.2,6.9,7,6.7h9.4
	V15.5h-4.8v13.7L187.4,29.2z M196.9,15.5v24h4.8V33h4.3c2.9,0,4.7-0.7,6.3-2.2c1.6-1.7,2.4-3.9,2.3-6.2c0-3.3-1.1-5.9-3.1-7.5
	c-1.5-1.2-2.8-1.5-6.1-1.5L196.9,15.5z M201.7,19.3h3.3c2.9,0,4.6,1.8,4.6,4.9c0,3.4-1.6,5.1-4.9,5.1h-2.9L201.7,19.3L201.7,19.3z"
	/>
</svg>
