<?xml version="1.0" encoding="utf-8"?>
<!-- Generator: Adobe Illustrator 24.1.0, SVG Export Plug-In . SVG Version: 6.00 Build 0)  -->
<svg version="1.1" id="Layer_1" xmlns="http://www.w3.org/2000/svg" xmlns:xlink="http://www.w3.org/1999/xlink" x="0px" y="0px"
	 viewBox="0 0 817.12 162.28" style="enable-background:new 0 0 817.12 162.28;" xml:space="preserve">
<style type="text/css">
	.st0{fill:#C9C9ED;}
	.st1{fill:#504ADE;}
	.st2{fill:none;stroke:#F26041;stroke-width:10;stroke-miterlimit:10;}
	.st3{fill:#C84029;}
	.st4{fill:#FFFFFF;}
	.st5{clip-path:url(#SVGID_2_);}
	.st6{clip-path:url(#SVGID_3_);}
	.st7{fill:#B3B3B3;}
	.st8{fill:#999999;}
	.st9{fill:none;stroke:#FFFFFF;stroke-width:3;stroke-linecap:round;stroke-linejoin:round;stroke-miterlimit:10;}
	.st10{fill:#E6E6E6;}
	.st11{fill:#009245;}
	.st12{fill:none;stroke:#F26041;stroke-width:8;stroke-linecap:round;stroke-linejoin:round;stroke-miterlimit:10;}
	.st13{fill:#E0583A;}
	.st14{fill:#FBB03B;}
	.st15{fill:none;stroke:#F26041;stroke-width:7;stroke-miterlimit:10;}
	.st16{fill:#F26041;}
	.st17{fill:#F7E2C8;}
	.st18{fill:none;stroke:#F7931E;stroke-width:16;stroke-miterlimit:10;}
	.st19{fill:#F7931E;}
	.st20{fill:none;stroke:#F15A24;stroke-width:5;stroke-linecap:round;stroke-linejoin:round;stroke-miterlimit:10;}
	.st21{fill:#F2F2F2;}
	.st22{fill:none;stroke:#FBB03B;stroke-miterlimit:10;}
	.st23{fill:#604932;}
	.st24{fill:none;stroke:#FFFFFF;stroke-miterlimit:10;}
	.st25{clip-path:url(#SVGID_4_);}
	.st26{clip-path:url(#SVGID_5_);}
	.st27{clip-path:url(#SVGID_6_);}
	.st28{clip-path:url(#SVGID_8_);}
	.st29{clip-path:url(#SVGID_9_);}
	.st30{clip-path:url(#SVGID_10_);}
	.st31{clip-path:url(#SVGID_11_);}
	.st32{clip-path:url(#SVGID_12_);}
	.st33{clip-path:url(#SVGID_14_);}
	.st34{clip-path:url(#SVGID_15_);}
	.st35{fill:#1A1A1A;}
	.st36{clip-path:url(#SVGID_16_);}
	.st37{clip-path:url(#SVGID_17_);}
	.st38{fill:#3D3396;}
	.st39{opacity:0.4;fill:#FBB03B;}
	.st40{fill:none;stroke:#FBB03B;stroke-width:2;stroke-miterlimit:10;}
	.st41{fill:none;stroke:#009245;stroke-width:3;stroke-linecap:round;stroke-linejoin:round;stroke-miterlimit:10;}
	.st42{fill:none;stroke:#C1272D;stroke-width:3;stroke-linecap:round;stroke-linejoin:round;stroke-miterlimit:10;}
	.st43{opacity:0.4;fill:#FFFFFF;}
	.st44{fill:none;stroke:#FF8469;stroke-width:2;stroke-miterlimit:10;}
	.st45{fill:none;stroke:#C1272D;stroke-width:3;stroke-miterlimit:10;}
	.st46{fill:#C1272D;}
	.st47{fill:none;stroke:#F7931E;stroke-width:7;stroke-miterlimit:10;}
	.st48{fill:none;stroke:#C84029;stroke-width:5;stroke-linecap:round;stroke-linejoin:round;stroke-miterlimit:10;}
	.st49{clip-path:url(#SVGID_18_);}
	.st50{clip-path:url(#SVGID_20_);}
	.st51{fill:#CCCCCC;}
	.st52{fill:#666666;}
	.st53{fill:#333333;}
	.st54{clip-path:url(#SVGID_21_);}
	.st55{clip-path:url(#SVGID_22_);}
	.st56{fill:none;stroke:#F7EFE3;stroke-width:6;stroke-linecap:round;stroke-linejoin:round;stroke-miterlimit:10;}
	.st57{opacity:0.6;fill:none;stroke:#FFFFFF;stroke-width:6;stroke-linecap:round;stroke-linejoin:round;stroke-miterlimit:10;}
	.st58{clip-path:url(#SVGID_23_);}
	.st59{clip-path:url(#SVGID_24_);}
	.st60{opacity:0.8;fill:#FFFFFF;}
	.st61{fill:#293440;}
	.st62{fill:#000066;}
	.st63{fill:#FF6200;}
	.st64{fill:#DEAAA0;}
	.st65{fill:#B03724;}
	.st66{fill:none;stroke:#504ADE;stroke-width:8;stroke-linecap:round;stroke-linejoin:round;stroke-miterlimit:10;}
	.st67{fill:#302875;}
	.st68{fill:#7F7ADE;}
	.st69{fill:#4D4D4D;}
	.st70{fill:#B4B0FF;}
	.st71{fill:#808080;}
	.st72{fill:#F2C2B8;}
	.st73{clip-path:url(#SVGID_26_);}
	.st74{clip-path:url(#SVGID_27_);}
	.st75{clip-path:url(#SVGID_28_);}
	.st76{clip-path:url(#SVGID_29_);}
	.st77{fill:none;stroke:#504ADE;stroke-width:7;stroke-miterlimit:10;}
	.st78{fill:#221A45;}
	.st79{clip-path:url(#SVGID_30_);}
	.st80{clip-path:url(#SVGID_32_);}
	.st81{fill:none;stroke:#7F7ADE;stroke-width:2;stroke-miterlimit:10;}
	.st82{fill:none;stroke:#504ADE;stroke-width:3;stroke-linecap:round;stroke-linejoin:round;stroke-miterlimit:10;}
	.st83{fill:none;stroke:#7F7ADE;stroke-width:3;stroke-linecap:round;stroke-linejoin:round;stroke-miterlimit:10;}
	.st84{fill:none;stroke:#3D3396;stroke-width:5;stroke-linecap:round;stroke-linejoin:round;stroke-miterlimit:10;}
	.st85{clip-path:url(#SVGID_33_);}
	.st86{clip-path:url(#SVGID_34_);}
	.st87{clip-path:url(#SVGID_35_);}
	.st88{clip-path:url(#SVGID_36_);}
	.st89{fill:#D1CFE7;}
</style>
<g>
	<g>
		<path class="st38" d="M198.08,9.27L198.08,9.27c-12.35-12.35-32.38-12.35-44.74,0L76.69,85.91l22.33,22.33
			c0.01,0.01,0.02,0.03,0.04,0.04c0.01,0.01,0.03,0.02,0.04,0.04c12.36,12.31,32.35,12.3,44.69-0.04l0,0c0,0,0,0,0,0L198.08,54
			C210.43,41.65,210.43,21.62,198.08,9.27z"/>
		<path class="st1" d="M143.8,108.28c-12.34,12.34-32.34,12.35-44.69,0.04c-0.01-0.01-0.03-0.02-0.04-0.04
			c-0.01-0.01-0.02-0.03-0.04-0.04L76.69,85.91l-15.1-15.1L54,63.22c-12.35-12.35-32.38-12.35-44.73,0
			c-12.35,12.35-12.35,32.38,0,44.74l45.06,45.06c12.35,12.35,32.38,12.35,44.74,0l16.88-16.88l4.32-4.32l1.18-1.18L143.8,108.28
			C143.8,108.28,143.8,108.28,143.8,108.28L143.8,108.28z"/>
	</g>
	<g>
		<path class="st78" d="M310.65,148.91l-39.47-122h27.51l27.17,85.78h0.34l27.51-85.78h27.68l-40.5,122H310.65z"/>
		<path class="st78" d="M378.83,87.74c0.34-5.69,1.76-10.42,4.27-14.18c2.5-3.76,5.7-6.78,9.57-9.06c3.87-2.28,8.23-3.9,13.07-4.87
			c4.84-0.97,9.71-1.45,14.61-1.45c4.44,0,8.94,0.31,13.5,0.94c4.55,0.63,8.71,1.85,12.47,3.67c3.76,1.82,6.83,4.36,9.23,7.6
			s3.59,7.55,3.59,12.9v45.97c0,3.99,0.23,7.8,0.68,11.45c0.45,3.65,1.25,6.38,2.39,8.2h-24.61c-0.46-1.37-0.83-2.76-1.11-4.19
			c-0.29-1.42-0.49-2.88-0.6-4.36c-3.87,3.99-8.43,6.78-13.67,8.37c-5.24,1.59-10.59,2.39-16.06,2.39c-4.22,0-8.15-0.51-11.79-1.54
			c-3.65-1.03-6.83-2.62-9.57-4.78c-2.73-2.16-4.87-4.9-6.41-8.2c-1.54-3.3-2.31-7.23-2.31-11.79c0-5.01,0.88-9.14,2.65-12.39
			c1.77-3.25,4.04-5.84,6.83-7.77c2.79-1.94,5.98-3.39,9.57-4.36c3.59-0.97,7.2-1.74,10.85-2.31c3.64-0.57,7.23-1.03,10.76-1.37
			c3.53-0.34,6.66-0.85,9.4-1.54c2.73-0.68,4.9-1.68,6.49-2.99c1.59-1.31,2.33-3.22,2.22-5.72c0-2.62-0.43-4.7-1.28-6.24
			c-0.85-1.54-2-2.73-3.42-3.59c-1.43-0.85-3.08-1.42-4.96-1.71c-1.88-0.28-3.9-0.43-6.07-0.43c-4.78,0-8.54,1.03-11.28,3.08
			c-2.73,2.05-4.33,5.47-4.79,10.25H378.83z M434.88,105.68c-1.03,0.91-2.31,1.62-3.84,2.14s-3.19,0.94-4.96,1.28
			c-1.77,0.34-3.62,0.63-5.55,0.85c-1.94,0.23-3.87,0.51-5.81,0.85c-1.82,0.34-3.62,0.8-5.38,1.37c-1.77,0.57-3.31,1.34-4.61,2.31
			c-1.31,0.97-2.37,2.19-3.16,3.67c-0.8,1.48-1.2,3.36-1.2,5.64c0,2.17,0.4,3.99,1.2,5.47c0.79,1.48,1.88,2.65,3.25,3.5
			c1.37,0.85,2.96,1.45,4.78,1.79c1.82,0.34,3.7,0.51,5.64,0.51c4.78,0,8.48-0.8,11.11-2.39c2.62-1.59,4.55-3.5,5.81-5.72
			c1.25-2.22,2.02-4.47,2.31-6.75c0.28-2.28,0.43-4.1,0.43-5.47V105.68z"/>
		<path class="st78" d="M502.88,26.91v122h-24.26v-122H502.88z"/>
		<path class="st78" d="M522.7,46.9V26.91h24.26V46.9H522.7z M546.97,60.57v88.34H522.7V60.57H546.97z"/>
		<path class="st78" d="M628.82,137.63c-2.85,4.78-6.58,8.23-11.19,10.34c-4.61,2.11-9.83,3.16-15.63,3.16
			c-6.61,0-12.42-1.28-17.43-3.84c-5.01-2.56-9.14-6.04-12.39-10.42c-3.25-4.38-5.7-9.42-7.35-15.12
			c-1.65-5.69-2.48-11.62-2.48-17.77c0-5.92,0.83-11.65,2.48-17.17c1.65-5.52,4.1-10.39,7.35-14.61c3.25-4.21,7.32-7.6,12.22-10.17
			c4.9-2.56,10.59-3.84,17.09-3.84c5.24,0,10.22,1.11,14.95,3.33c4.73,2.22,8.46,5.5,11.19,9.83h0.34V26.91h24.26v122h-23.07v-11.28
			H628.82z M627.79,93.98c-0.68-3.36-1.85-6.32-3.5-8.89c-1.65-2.56-3.79-4.64-6.41-6.24c-2.62-1.59-5.92-2.39-9.91-2.39
			c-3.99,0-7.35,0.8-10.08,2.39c-2.73,1.6-4.93,3.7-6.58,6.32c-1.65,2.62-2.85,5.61-3.59,8.97c-0.74,3.36-1.11,6.86-1.11,10.51
			c0,3.42,0.4,6.83,1.2,10.25c0.79,3.42,2.08,6.47,3.84,9.14c1.76,2.68,3.99,4.84,6.66,6.49c2.67,1.65,5.89,2.48,9.65,2.48
			c3.99,0,7.32-0.8,10-2.39c2.67-1.59,4.81-3.73,6.41-6.41c1.59-2.68,2.73-5.72,3.42-9.14s1.03-6.95,1.03-10.59
			C628.82,100.84,628.47,97.34,627.79,93.98z"/>
		<path class="st78" d="M669.48,87.74c0.34-5.69,1.76-10.42,4.27-14.18c2.5-3.76,5.7-6.78,9.57-9.06c3.87-2.28,8.23-3.9,13.07-4.87
			c4.84-0.97,9.71-1.45,14.61-1.45c4.44,0,8.94,0.31,13.5,0.94c4.55,0.63,8.71,1.85,12.47,3.67c3.76,1.82,6.83,4.36,9.23,7.6
			s3.59,7.55,3.59,12.9v45.97c0,3.99,0.23,7.8,0.68,11.45c0.45,3.65,1.25,6.38,2.39,8.2h-24.61c-0.46-1.37-0.83-2.76-1.11-4.19
			c-0.29-1.42-0.49-2.88-0.6-4.36c-3.87,3.99-8.43,6.78-13.67,8.37c-5.24,1.59-10.59,2.39-16.06,2.39c-4.22,0-8.15-0.51-11.79-1.54
			c-3.65-1.03-6.83-2.62-9.57-4.78c-2.73-2.16-4.87-4.9-6.41-8.2c-1.54-3.3-2.31-7.23-2.31-11.79c0-5.01,0.88-9.14,2.65-12.39
			c1.77-3.25,4.04-5.84,6.83-7.77c2.79-1.94,5.98-3.39,9.57-4.36c3.59-0.97,7.2-1.74,10.85-2.31c3.64-0.57,7.23-1.03,10.76-1.37
			c3.53-0.34,6.66-0.85,9.4-1.54c2.73-0.68,4.9-1.68,6.49-2.99c1.59-1.31,2.33-3.22,2.22-5.72c0-2.62-0.43-4.7-1.28-6.24
			c-0.85-1.54-2-2.73-3.42-3.59c-1.43-0.85-3.08-1.42-4.96-1.71c-1.88-0.28-3.9-0.43-6.07-0.43c-4.78,0-8.54,1.03-11.28,3.08
			c-2.73,2.05-4.33,5.47-4.79,10.25H669.48z M725.53,105.68c-1.03,0.91-2.31,1.62-3.84,2.14s-3.19,0.94-4.96,1.28
			c-1.77,0.34-3.62,0.63-5.55,0.85c-1.94,0.23-3.87,0.51-5.81,0.85c-1.82,0.34-3.62,0.8-5.38,1.37c-1.77,0.57-3.31,1.34-4.61,2.31
			c-1.31,0.97-2.37,2.19-3.16,3.67c-0.8,1.48-1.2,3.36-1.2,5.64c0,2.17,0.4,3.99,1.2,5.47c0.79,1.48,1.88,2.65,3.25,3.5
			c1.37,0.85,2.96,1.45,4.78,1.79c1.82,0.34,3.7,0.51,5.64,0.51c4.78,0,8.48-0.8,11.11-2.39c2.62-1.59,4.55-3.5,5.81-5.72
			c1.25-2.22,2.02-4.47,2.31-6.75c0.28-2.28,0.43-4.1,0.43-5.47V105.68z"/>
		<path class="st78" d="M817.12,60.57V76.8h-17.77v43.74c0,4.1,0.68,6.83,2.05,8.2c1.37,1.37,4.1,2.05,8.2,2.05
			c1.37,0,2.67-0.06,3.93-0.17c1.25-0.11,2.45-0.28,3.59-0.51v18.8c-2.05,0.34-4.33,0.57-6.83,0.68c-2.51,0.11-4.96,0.17-7.35,0.17
			c-3.76,0-7.32-0.26-10.68-0.77c-3.36-0.51-6.32-1.51-8.89-2.99c-2.56-1.48-4.59-3.59-6.07-6.32c-1.48-2.73-2.22-6.32-2.22-10.77
			V76.8h-14.7V60.57h14.7V34.08h24.26v26.49H817.12z"/>
	</g>
</g>
</svg>
