<svg xmlns="http://www.w3.org/2000/svg" viewBox="0 0 412.35 52.63"><defs><style>.a{fill:#010101;}</style></defs><path class="a" d="M42.86,34.59A18.71,18.71,0,0,1,40,44a17.4,17.4,0,0,1-7.4,6.35,25.16,25.16,0,0,1-10.88,2.25q-10.1,0-15.89-6.57T0,27.49V25A31,31,0,0,1,2.62,11.79a19.79,19.79,0,0,1,7.54-8.71A21,21,0,0,1,21.55,0q9.32,0,15,4.9T43,18.42H30.66c-.1-3.12-.88-5.35-2.36-6.71s-3.73-2-6.75-2a7.38,7.38,0,0,0-6.75,3.44q-2.15,3.45-2.25,11v3.62q0,8.19,2.06,11.71T21.69,43Q26,43,28.2,41t2.39-6.37Z"/><path class="a" d="M61,42.43H82.51v9.5H48.69V.74H61Z"/><path class="a" d="M119.46,30.2H100.05V42.43H123v9.5H87.71V.74h35.34v9.53h-23V21.06h19.41Z"/><path class="a" d="M140.34,42.43h21.48v9.5H128V.74h12.34Z"/><path class="a" d="M180.18,51.93H167.87V.74h12.31Z"/><path class="a" d="M218.46,42.36H201.55l-3,9.57H185.41L204.19.74h11.6L234.7,51.93H221.45Zm-14-9.52h11L210,15.08Z"/><path class="a" d="M258.82.74h12.31V35.86a16.82,16.82,0,0,1-2.27,8.72,15.51,15.51,0,0,1-6.33,5.94,19.29,19.29,0,0,1-9,2.11q-8.37,0-13-4.22t-4.64-11.95H248.2q0,3.51,1.22,5.1a4.81,4.81,0,0,0,4.06,1.58,4.57,4.57,0,0,0,4-1.92,9,9,0,0,0,1.39-5.36Z"/><path class="a" d="M322.24,27.39a30.18,30.18,0,0,1-2.77,13.25,20.66,20.66,0,0,1-7.9,8.88,23.61,23.61,0,0,1-23.25.1,20.5,20.5,0,0,1-7.9-8.59,29.53,29.53,0,0,1-3-12.83V25.31A30.32,30.32,0,0,1,280.21,12a20.54,20.54,0,0,1,7.91-8.88A22.22,22.22,0,0,1,299.85,0a22,22,0,0,1,11.6,3.09,20.85,20.85,0,0,1,7.93,8.81A29.45,29.45,0,0,1,322.24,25Zm-12.55-2.15c0-5.08-.85-8.95-2.55-11.58a8.17,8.17,0,0,0-7.29-4q-9.28,0-9.81,13.92l0,3.77q0,7.52,2.5,11.56a8.17,8.17,0,0,0,7.42,4,8.07,8.07,0,0,0,7.21-4q2.52-4,2.56-11.42Z"/><path class="a" d="M345.83,23,355.25.74h13.33l-16.49,32.8V51.93H339.58V33.54L323.12.74h13.26Z"/><path class="a" d="M396.11,42.36H379.2l-3,9.57H363.06L381.83.74h11.6l18.92,51.19H399.09Zm-14-9.52h11l-5.52-17.76Z"/></svg>