<svg xmlns="http://www.w3.org/2000/svg" viewBox="0 0 377.06 159.89"><defs><style>.a{fill:#26aa8f;}.b,.d{isolation:isolate;}.c,.d{fill:#fff;}.d{font-size:21px;font-family:HandelGotD-Bol, Handel Gothic D;}.e{fill:none;stroke:#1d1d1b;stroke-miterlimit:10;stroke-width:0.83px;}.f{fill:#1d1d1b;}</style></defs><path class="a" d="M108.13,12.63c1.6.43,3.17,1,4.74,1.52.79.26,1.56.59,2.33.89s1.55.6,2.31.93L119.19,12c-.8-.34-1.62-.65-2.43-1s-1.62-.65-2.45-.92c-1.66-.56-3.31-1.15-5-1.61l-1.18,4.1Z" transform="translate(0 -0.08)"/><path class="a" d="M146.56,36.93l1.63,1.88c.54.63,1,1.29,1.55,1.94s1,1.29,1.51,2l1.45,2,3.51-2.43-1.52-2.13c-.5-.71-1.06-1.38-1.59-2.07s-1.07-1.38-1.64-2l-1.71-2L146.56,37Z" transform="translate(0 -0.08)"/><path class="a" d="M159.25,56.07l1,2.27c.17.38.34.75.5,1.14l.46,1.15.91,2.32c.28.79.55,1.57.81,2.36L167,64c-.28-.83-.56-1.66-.85-2.48l-1-2.44-.49-1.22c-.16-.4-.35-.8-.52-1.2L163,54.23l-3.85,1.84Z" transform="translate(0 -0.08)"/><path class="a" d="M166.1,78c.15.82.24,1.64.35,2.46s.21,1.65.3,2.47l.19,2.48c.06.82.13,1.65.14,2.47l4.27-.17c0-.86-.08-1.73-.15-2.6l-.21-2.6c-.09-.87-.2-1.74-.31-2.6s-.21-1.73-.37-2.59L166.1,78Z" transform="translate(0 -0.08)"/><path class="a" d="M164.79,110.73l4.14,1c.4-1.7.81-3.4,1.09-5.13.15-.86.31-1.72.44-2.58l.34-2.59-4.24-.51-.32,2.47c-.12.82-.27,1.63-.42,2.45-.27,1.64-.65,3.25-1,4.87Z" transform="translate(0 -0.08)"/><path class="a" d="M106.53,18.16c1.49.4,2.94.93,4.41,1.42.73.23,1.44.54,2.16.82s1.44.55,2.15.86l1.68-3.92c-.75-.32-1.51-.61-2.27-.91s-1.51-.62-2.29-.87c-1.54-.52-3.08-1.07-4.66-1.49Z" transform="translate(0 -0.08)"/><path class="a" d="M116.58,21.86a79.87,79.87,0,0,1,8.2,4.29L127,22.51A80.9,80.9,0,0,0,118.34,18l-1.76,3.89Z" transform="translate(0 -0.08)"/><path class="a" d="M142.26,40.75l1.51,1.75c.5.58,1,1.2,1.44,1.8s1,1.2,1.41,1.84L148,48l3.51-2.43-1.42-2c-.46-.67-1-1.29-1.48-1.94s-1-1.29-1.53-1.9l-1.59-1.85-3.19,2.83Z" transform="translate(0 -0.08)"/><path class="a" d="M154.05,58.55l1,2.11c.15.35.32.7.46,1.06l.43,1.07.85,2.16c.26.73.5,1.46.75,2.19l4.05-1.35c-.27-.77-.52-1.54-.8-2.31l-.89-2.28-.45-1.14c-.16-.37-.33-.74-.5-1.11l-1-2.23Z" transform="translate(0 -0.08)"/><path class="a" d="M160.41,79c.15.76.22,1.53.33,2.29s.2,1.53.28,2.29l.18,2.31c.06.76.12,1.53.13,2.3l4.26-.17c0-.81-.07-1.62-.13-2.43l-.19-2.43c-.09-.81-.2-1.62-.3-2.42s-.19-1.62-.35-2.42l-4.21.68Z" transform="translate(0 -0.08)"/><path class="a" d="M159.2,109.36l4.14,1c.37-1.59.75-3.18,1-4.79.14-.8.3-1.6.42-2.4l.31-2.43-4.24-.5-.28,2.31c-.12.76-.26,1.52-.39,2.28-.25,1.52-.61,3-1,4.53Z" transform="translate(0 -0.08)"/><path class="a" d="M104.93,23.7c1.38.36,2.72.85,4.07,1.3.68.22,1.34.51,2,.76s1.33.51,2,.8l1.67-3.92c-.69-.31-1.4-.57-2.1-.85s-1.4-.57-2.12-.81c-1.44-.48-2.86-1-4.33-1.38l-1.18,4.1Z" transform="translate(0 -0.08)"/><path class="a" d="M114.22,27.11a71.93,71.93,0,0,1,7.57,4L124,27.46a77.13,77.13,0,0,0-8-4.21l-1.75,3.89Z" transform="translate(0 -0.08)"/><path class="a" d="M138,44.55l1.4,1.61c.46.54.89,1.11,1.33,1.67s.9,1.1,1.3,1.69l1.24,1.74,3.51-2.42L145.42,47c-.43-.62-.92-1.2-1.38-1.8s-.92-1.19-1.42-1.76l-1.48-1.72Z" transform="translate(0 -0.08)"/><path class="a" d="M148.85,61l.88,1.95c.15.32.3.64.44,1l.39,1,.78,2,.7,2,4-1.35c-.24-.71-.48-1.43-.73-2.14l-.83-2.12-.42-1c-.15-.35-.31-.69-.46-1l-.94-2.07-3.85,1.84Z" transform="translate(0 -0.08)"/><path class="a" d="M152.47,70.23a71.78,71.78,0,0,1,2,8.31l4.2-.76A76.09,76.09,0,0,0,156.52,69l-4.07,1.27Z" transform="translate(0 -0.08)"/><path class="a" d="M154.73,79.87c.14.7.2,1.41.3,2.12s.18,1.41.26,2.12l.16,2.13c.06.71.12,1.41.12,2.12l4.27-.16c0-.76-.07-1.51-.13-2.26l-.18-2.26c-.08-.75-.18-1.5-.27-2.25s-.18-1.5-.32-2.24l-4.21.68Z" transform="translate(0 -0.08)"/><path class="a" d="M153.6,108l4.14,1c.35-1.47.71-2.94.95-4.44.13-.74.27-1.48.38-2.23l.29-2.25-4.23-.51-.27,2.12c-.11.71-.25,1.41-.37,2.11-.22,1.41-.57,2.79-.89,4.18Z" transform="translate(0 -0.08)"/><path class="a" d="M150.56,117.4l4,1.6.83-2.11c.25-.72.49-1.44.73-2.15.51-1.43.9-2.89,1.31-4.35l-4.12-1.1c-.39,1.37-.75,2.76-1.23,4.1l-.7,2-.78,2Z" transform="translate(0 -0.08)"/><path class="a" d="M85.4,22.42v4.26l2,.05a17.14,17.14,0,0,1,2,.08c1.31.11,2.62.17,3.91.36l.51-4.23c-1.38-.21-2.77-.27-4.16-.39-.69-.06-1.39-.06-2.09-.08l-2.08,0Z" transform="translate(0 -0.08)"/><path class="a" d="M103.35,29.23c1.27.33,2.5.78,3.74,1.2.62.19,1.22.46,1.83.69s1.22.47,1.82.73l1.68-3.92c-.64-.28-1.29-.52-1.94-.78s-1.29-.53-2-.74c-1.32-.44-2.64-.92-4-1.28l-1.18,4.1Z" transform="translate(0 -0.08)"/><path class="a" d="M111.85,32.36a66.51,66.51,0,0,1,7,3.64L121,32.35a73.32,73.32,0,0,0-7.4-3.88l-1.76,3.89Z" transform="translate(0 -0.08)"/><path class="a" d="M119.85,36.67l1.65,1.06,1.6,1.13.8.57.77.61,1.54,1.21,2.7-3.3-1.64-1.3c-.28-.21-.54-.43-.83-.64l-.85-.6-1.7-1.21-1.76-1.14-2.28,3.61Z" transform="translate(0 -0.08)"/><path class="a" d="M133.64,48.4l1.29,1.48c.42.49.81,1,1.22,1.53s.82,1,1.19,1.56l1.14,1.6L142,52.14l-1.21-1.7c-.4-.58-.85-1.11-1.27-1.66s-.85-1.11-1.31-1.63l-1.37-1.6-3.19,2.83Z" transform="translate(0 -0.08)"/><path class="a" d="M139.18,55.55c.7,1.1,1.43,2.19,2.06,3.34.32.57.66,1.13,1,1.71l.89,1.74,3.82-1.9-1-1.87c-.33-.61-.69-1.21-1-1.82-.67-1.22-1.45-2.38-2.2-3.56Z" transform="translate(0 -0.08)"/><path class="a" d="M143.65,63.49l.81,1.79c.13.3.27.59.4.9l.36.91.72,1.83.63,1.85,4-1.34-.68-2-.76-1.94-.39-1c-.13-.32-.28-.64-.42-1l-.87-1.91-3.85,1.83Z" transform="translate(0 -0.08)"/><path class="a" d="M147,72a68.8,68.8,0,0,1,1.86,7.62l4.19-.76a70.9,70.9,0,0,0-2-8.13L147,72Z" transform="translate(0 -0.08)"/><path class="a" d="M149,80.79c.13.64.19,1.29.28,1.94l.24,2,.15,2c0,.65.1,1.3.11,2l4.26-.17c0-.69-.06-1.39-.12-2.08l-.16-2.09c-.07-.69-.17-1.38-.25-2.07s-.16-1.39-.3-2.07l-4.21.68Z" transform="translate(0 -0.08)"/><path class="a" d="M148,106.61l4.14,1c.32-1.36.65-2.72.87-4.1.12-.68.25-1.37.36-2.06l.26-2.07-4.23-.51-.25,2c-.1.64-.22,1.29-.33,1.93-.21,1.29-.53,2.56-.82,3.84Z" transform="translate(0 -0.08)"/><path class="a" d="M145.22,115.25l4,1.6.76-1.95.68-2c.47-1.32.82-2.67,1.21-4l-4.12-1.1c-.37,1.26-.69,2.53-1.14,3.76l-.63,1.86-.72,1.82Z" transform="translate(0 -0.08)"/><path class="a" d="M85.4,28.18v4.26l1.79.05a15.14,15.14,0,0,1,1.78.07c1.19.1,2.38.15,3.56.33L93,28.66c-1.26-.19-2.54-.25-3.81-.36-.64-.06-1.28-.05-1.92-.07l-1.91-.05Z" transform="translate(0 -0.08)"/><path class="a" d="M101.73,34.76c1.15.3,2.27.72,3.4,1.09.57.18,1.11.42,1.67.63s1.11.43,1.66.67l1.68-3.92c-.59-.26-1.19-.48-1.78-.72s-1.19-.49-1.8-.68c-1.21-.4-2.41-.84-3.64-1.17l-1.19,4.1Z" transform="translate(0 -0.08)"/><path class="a" d="M109.49,37.61a60.34,60.34,0,0,1,6.32,3.32L118,37.28a64.4,64.4,0,0,0-6.79-3.55l-1.75,3.88Z" transform="translate(0 -0.08)"/><path class="a" d="M116.77,41.55l1.5,1,1.45,1,.73.52.71.55,1.4,1.1,2.71-3.3-1.51-1.18c-.25-.2-.5-.4-.76-.59l-.78-.55L120.66,39l-1.61-1-2.28,3.6Z" transform="translate(0 -0.08)"/><path class="a" d="M129.35,52.22l1.17,1.35c.4.45.75.93,1.12,1.4s.75.92,1.09,1.41l1,1.46,3.51-2.43-1.11-1.56c-.36-.52-.78-1-1.17-1.52s-.77-1-1.19-1.49l-1.26-1.45Z" transform="translate(0 -0.08)"/><path class="a" d="M134.35,58.77c.64,1,1.3,2,1.87,3,.3.52.61,1,.88,1.56l.82,1.59L141.73,63l-.87-1.71c-.3-.56-.63-1.11-.94-1.66-.62-1.12-1.33-2.19-2-3.26Z" transform="translate(0 -0.08)"/><path class="a" d="M138.45,66l.74,1.63c.12.27.25.54.36.81l.33.83.65,1.66.58,1.69,4-1.34-.62-1.82-.71-1.78-.35-.89c-.12-.3-.26-.59-.39-.88l-.79-1.75L138.45,66Z" transform="translate(0 -0.08)"/><path class="a" d="M141.47,73.66a61.55,61.55,0,0,1,1.69,6.94l4.2-.76a63.22,63.22,0,0,0-1.82-7.45l-4.07,1.27Z" transform="translate(0 -0.08)"/><path class="a" d="M143.35,81.71c.12.59.17,1.18.25,1.77l.22,1.77L144,87c.05.59.1,1.18.11,1.78l4.26-.17c0-.64-.06-1.27-.11-1.91l-.15-1.91-.23-1.9c-.09-.64-.15-1.27-.27-1.9l-4.21.68Z" transform="translate(0 -0.08)"/><path class="a" d="M142.42,105.23l4.14,1c.29-1.24.6-2.48.8-3.75.1-.63.23-1.25.32-1.88l.25-1.91-4.24-.5-.22,1.77c-.1.59-.21,1.17-.31,1.76-.19,1.18-.48,2.33-.74,3.49Z" transform="translate(0 -0.08)"/><path class="a" d="M139.88,113.1l4,1.59.71-1.78.62-1.81c.43-1.21.75-2.45,1.1-3.67l-4.12-1.1c-.33,1.14-.62,2.3-1,3.42l-.58,1.69L140,113.1Z" transform="translate(0 -0.08)"/><path class="a" d="M85.4,33.94V38.2l1.61,0a14.35,14.35,0,0,1,1.61.06c1.08.09,2.15.13,3.22.3l.51-4.24c-1.15-.17-2.31-.22-3.47-.32-.58-.06-1.16,0-1.74-.07H85.4Z" transform="translate(0 -0.08)"/><path class="a" d="M100.13,40.3c1,.26,2.05.64,3.07,1,.51.15,1,.38,1.5.57s1,.38,1.5.59l1.67-3.92c-.53-.23-1.07-.43-1.61-.64s-1.07-.45-1.63-.62c-1.1-.37-2.19-.77-3.31-1.06l-1.19,4.1Z" transform="translate(0 -0.08)"/><path class="a" d="M107.12,42.87a55.39,55.39,0,0,1,5.71,3L115,42.22A57.35,57.35,0,0,0,108.87,39l-1.75,3.89Z" transform="translate(0 -0.08)"/><path class="a" d="M113.68,46.4l1.36.87,1.31.93.66.47c.22.16.43.33.64.5l1.27,1,2.7-3.3-1.37-1.08c-.23-.17-.45-.36-.69-.53l-.71-.51-1.42-1-1.46-1-2.29,3.61Z" transform="translate(0 -0.08)"/><path class="a" d="M125,56l1.06,1.22c.36.4.67.84,1,1.26s.68.83,1,1.28l.93,1.31,3.51-2.42-1-1.42c-.32-.48-.7-.92-1.06-1.38s-.7-.93-1.08-1.36l-1.14-1.32L125,56Z" transform="translate(0 -0.08)"/><path class="a" d="M129.58,62c.57.9,1.17,1.79,1.69,2.74.26.46.54.92.79,1.4l.74,1.43,3.81-1.91-.79-1.55c-.27-.51-.58-1-.86-1.51-.56-1-1.21-2-1.83-3l-3.55,2.36Z" transform="translate(0 -0.08)"/><path class="a" d="M133.25,68.44l.66,1.47c.11.25.23.49.33.73l.3.75.59,1.5.51,1.53,4-1.35-.56-1.65-.64-1.62-.32-.81c-.11-.27-.23-.53-.35-.79l-.72-1.59-3.85,1.83Z" transform="translate(0 -0.08)"/><path class="a" d="M136,75.38a53.69,53.69,0,0,1,1.52,6.25l4.2-.76a60.5,60.5,0,0,0-1.64-6.76L136,75.38Z" transform="translate(0 -0.08)"/><path class="a" d="M137.67,82.63c.11.53.15,1.07.23,1.6l.2,1.6.12,1.61c0,.53.09,1.07.09,1.61l4.26-.17c0-.58,0-1.16-.1-1.74l-.13-1.74-.21-1.73c-.08-.57-.13-1.15-.25-1.72l-4.21.68Z" transform="translate(0 -0.08)"/><path class="a" d="M138.1,96.55l4.24.42c.16-1.88.28-3.77.28-5.67V90l-4.26.09v1.2c0,1.75-.12,3.5-.26,5.25Z" transform="translate(0 -0.08)"/><path class="a" d="M136.83,103.86l4.14,1c.26-1.13.54-2.26.72-3.41.1-.57.21-1.14.3-1.71l.22-1.73-4.24-.5-.2,1.59c-.08.54-.19,1.06-.28,1.59-.16,1.06-.43,2.1-.66,3.15Z" transform="translate(0 -0.08)"/><path class="a" d="M134.54,111l4,1.59.64-1.62.56-1.64c.4-1.1.68-2.22,1-3.34l-4.12-1.09c-.31,1-.56,2.07-.94,3.08l-.51,1.52-.59,1.5Z" transform="translate(0 -0.08)"/><path class="a" d="M131.27,117.64l3.69,2.14c.28-.51.59-1,.86-1.51l.79-1.55.4-.78.36-.79.71-1.59-3.92-1.67-.67,1.47-.33.73-.36.72-.74,1.43c-.25.48-.53.94-.79,1.4Z" transform="translate(0 -0.08)"/><path class="a" d="M85.4,39.7V44h1.44a11.25,11.25,0,0,1,1.44.06c1,.09,1.92.11,2.86.26l.52-4.23c-1-.16-2.08-.2-3.13-.29-.51-.06-1,0-1.56-.06Z" transform="translate(0 -0.08)"/><path class="a" d="M92,44.44a8.56,8.56,0,0,1,1.42.22l1.41.25,1.4.32c.46.12.94.2,1.39.35l1.11-4.12c-.5-.16-1-.26-1.52-.38l-1.52-.35-1.55-.27c-.51-.1-1-.19-1.54-.25L92,44.44Z" transform="translate(0 -0.08)"/><path class="a" d="M98.53,45.83c.93.23,1.82.57,2.73.87.46.14.89.34,1.34.51s.89.34,1.33.53l1.68-3.92c-.48-.21-1-.39-1.45-.58s-1-.41-1.46-.56c-1-.32-2-.69-3-1l-1.19,4.1Z" transform="translate(0 -0.08)"/><path class="a" d="M110.6,51.26l1.21.78,1.17.83.59.42.57.44,1.13.89,2.7-3.3-1.23-1c-.21-.16-.41-.33-.62-.48l-.64-.46-1.28-.91-1.31-.84-2.29,3.6Z" transform="translate(0 -0.08)"/><path class="a" d="M120.72,59.86l.94,1.09c.32.36.59.75.9,1.13a13.09,13.09,0,0,1,.87,1.13l.84,1.18L127.78,62l-.91-1.28a13.93,13.93,0,0,0-1-1.24c-.36-.42-.63-.83-1-1.22l-1-1.19-3.19,2.83Z" transform="translate(0 -0.08)"/><path class="a" d="M124.77,65.14c.52.81,1.06,1.6,1.51,2.44.24.42.49.83.71,1.25l.66,1.28,3.81-1.91-.71-1.39c-.25-.47-.52-.91-.77-1.37-.5-.91-1.09-1.78-1.65-2.66l-3.56,2.36Z" transform="translate(0 -0.08)"/><path class="a" d="M130.47,77.09a48.62,48.62,0,0,1,1.36,5.57L136,81.9a53.27,53.27,0,0,0-1.47-6.08Z" transform="translate(0 -0.08)"/><path class="a" d="M132,83.55c.1.47.13,1,.2,1.42l.18,1.43.1,1.43c0,.47.09.93.09,1.4h0l4.26-.17h0c0-.52,0-1-.09-1.55l-.12-1.57-.19-1.55c-.08-.52-.12-1-.22-1.55l-4.21.68Z" transform="translate(0 -0.08)"/><path class="a" d="M132.35,95.94l4.24.43c.14-1.7.25-3.39.25-5.1V90.1l-4.26.08v1.09c0,1.56-.11,3.12-.23,4.67Z" transform="translate(0 -0.08)"/><path class="a" d="M131.23,102.49l4.15,1c.23-1,.49-2,.64-3.06.09-.51.19-1,.27-1.54l.2-1.55-4.24-.51-.17,1.43c-.08.47-.17.94-.25,1.41-.15,1-.39,1.87-.6,2.81Z" transform="translate(0 -0.08)"/><path class="a" d="M129.19,108.8l4,1.59.58-1.46.5-1.48c.36-1,.61-2,.9-3l-4.12-1.1c-.27.92-.5,1.85-.83,2.75l-.46,1.35-.53,1.34Z" transform="translate(0 -0.08)"/><path class="a" d="M126.28,114.76l3.7,2.14c.25-.46.52-.9.77-1.36l.71-1.4.36-.69.32-.72.64-1.42-3.92-1.67-.59,1.3-.3.66-.32.63-.66,1.28C126.77,113.94,126.52,114.34,126.28,114.76Z" transform="translate(0 -0.08)"/><path class="a" d="M85.4,45.45v4.27h1.27a10.79,10.79,0,0,1,1.27.05c.83.08,1.68.09,2.51.23L91,45.77c-.92-.15-1.85-.18-2.78-.26-.46,0-.93,0-1.39-.06Z" transform="translate(0 -0.08)"/><path class="a" d="M91.24,50.14a6.78,6.78,0,0,1,1.25.2l1.24.22,1.22.28c.41.1.82.17,1.22.3L97.27,47c-.43-.14-.89-.23-1.34-.33l-1.35-.32-1.37-.24c-.46-.08-.91-.17-1.37-.21l-.6,4.22Z" transform="translate(0 -0.08)"/><path class="a" d="M96.93,51.36c.82.2,1.6.51,2.4.76.4.12.78.31,1.17.45s.78.3,1.17.47l1.67-3.93c-.42-.18-.86-.34-1.28-.51s-.86-.36-1.3-.49c-.88-.29-1.74-.62-2.64-.85l-1.19,4.1Z" transform="translate(0 -0.08)"/><polygon class="a" points="107.53 56.05 108.59 56.72 109.62 57.46 110.13 57.82 110.63 58.21 111.63 58.99 114.33 55.69 113.23 54.83 112.68 54.4 112.11 54 110.98 53.19 109.81 52.44 107.53 56.05 107.53 56.05"/><path class="a" d="M112.23,59.55l1,.83c.31.28.6.58.91.87.63.56,1.18,1.2,1.78,1.8l3.13-2.89c-.65-.66-1.26-1.36-2-2-.34-.31-.67-.64-1-1L115,56.25Z" transform="translate(0 -0.08)"/><path class="a" d="M116.41,63.69l.83,1c.28.31.52.66.79,1s.54.65.77,1l.73,1L123,65.22l-.81-1.14c-.26-.39-.57-.73-.85-1.1s-.56-.74-.87-1.09l-.91-1.06-3.19,2.84Z" transform="translate(0 -0.08)"/><path class="a" d="M120,68.32c.45.71.93,1.4,1.33,2.15.2.36.43.72.62,1.09l.57,1.12,3.82-1.91-.63-1.23c-.22-.41-.46-.81-.69-1.21-.44-.82-1-1.58-1.46-2.37L120,68.32Z" transform="translate(0 -0.08)"/><path class="a" d="M125,78.81a42.81,42.81,0,0,1,1.18,4.88l4.2-.76a49.61,49.61,0,0,0-1.31-5.38L125,78.82Z" transform="translate(0 -0.08)"/><path class="a" d="M126.35,84.47c.09.41.12.84.18,1.25l.16,1.25.09,1.26c0,.4.07.8.07,1.2v.12l4.26-.17h0A7.65,7.65,0,0,0,131,88l-.1-1.39-.17-1.38c-.07-.46-.1-.93-.2-1.38l-4.21.68Z" transform="translate(0 -0.08)"/><path class="a" d="M125.64,101.11l4.14,1c.2-.9.44-1.8.58-2.72.07-.45.17-.91.24-1.36l.17-1.39-4.23-.5-.16,1.25c-.06.42-.15.83-.22,1.24-.12.83-.34,1.64-.52,2.46Z" transform="translate(0 -0.08)"/><path class="a" d="M121.35,111.88,125,114c.23-.4.47-.8.69-1.2l.62-1.26.32-.62.28-.63.58-1.27-3.93-1.67-.52,1.15-.26.57-.29.56-.57,1.12c-.19.37-.42.73-.62,1.1Z" transform="translate(0 -0.08)"/><path class="a" d="M90.44,55.84a6.44,6.44,0,0,1,1.07.17l1.07.19,1,.25c.35.08.71.14,1.05.25l1.1-4.12c-.38-.12-.78-.19-1.17-.29L93.43,52l-1.2-.21c-.4-.08-.8-.15-1.2-.19l-.59,4.22Z" transform="translate(0 -0.08)"/><polygon class="a" points="104.44 60.91 105.36 61.5 106.25 62.13 106.69 62.44 107.12 62.78 107.98 63.45 110.68 60.15 109.72 59.4 109.24 59.02 108.74 58.67 107.75 57.96 106.73 57.31 104.44 60.91 104.44 60.91"/><path class="a" d="M115.18,71.55c.38.62.8,1.21,1.13,1.85.18.32.37.62.54.94l.49,1,3.82-1.91-.55-1.08c-.19-.36-.41-.7-.6-1.06-.39-.71-.85-1.38-1.28-2.07Z" transform="translate(0 -0.08)"/><path class="a" d="M119.48,80.55a37.71,37.71,0,0,1,1,4.2l4.2-.76a42.49,42.49,0,0,0-1.14-4.71Z" transform="translate(0 -0.08)"/><path class="a" d="M120.05,99.74l4.14,1c.17-.78.39-1.56.5-2.37.07-.4.15-.79.21-1.19l.15-1.21-4.23-.5-.13,1.07c-.06.36-.14.71-.2,1.07-.1.72-.29,1.41-.44,2.12Z" transform="translate(0 -0.08)"/><path class="a" d="M116.35,109l3.7,2.14c.19-.36.41-.7.6-1.06l.55-1.08.28-.54.24-.55.51-1.1-3.93-1.67-.45,1-.22.5-.25.48-.49,1c-.17.32-.36.63-.54.94Z" transform="translate(0 -0.08)"/><path class="a" d="M25.8,153.19c.64.6,1.26,1.21,1.91,1.79l2,1.72,1,.85,1,.81L33.77,160l2.58-3.42-2-1.53-1-.77-1-.81-1.87-1.63c-.62-.56-1.21-1.13-1.81-1.7l-3,3.07Z" transform="translate(0 -0.08)"/><path class="a" d="M37.05,149.82l-.88-.76-1.74-1.51c-.57-.52-1.12-1.05-1.68-1.58l-3,3.07c.59.56,1.17,1.13,1.77,1.67l1.84,1.6.93.8,1,.76,1.92,1.5L39.73,152" transform="translate(0 -0.08)"/><path class="a" d="M33.78,144.89c.55.52,1.09,1,1.65,1.55l1.71,1.49.86.74.89.7,1.78,1.4,2.56-3.41L41.55,146l-.83-.66-.81-.7-1.62-1.4c-.52-.48-1-1-1.55-1.47l-3,3.08Z" transform="translate(0 -0.08)"/><path class="a" d="M26.76,137.12a78.78,78.78,0,0,0,6,6.78l3-3a73.13,73.13,0,0,1-5.66-6.4l-3.35,2.64Z" transform="translate(0 -0.08)"/><path class="a" d="M136.92,130l3.43,2.6c.43-.55.82-1.13,1.23-1.69s.82-1.13,1.18-1.72c.75-1.18,1.53-2.34,2.2-3.56l-3.69-2.14c-.63,1.15-1.36,2.24-2.06,3.34-.35.56-.74,1.08-1.12,1.61s-.75,1.08-1.14,1.59Z" transform="translate(0 -0.08)"/><path class="a" d="M116.47,147.68l2.06,3.74c1.21-.71,2.44-1.37,3.6-2.14l1.76-1.14,1.7-1.21-2.49-3.45-1.6,1.13-1.65,1.06c-1.09.73-2.25,1.35-3.38,2Z" transform="translate(0 -0.08)"/><path class="a" d="M37.78,140.74c.5.48,1,1,1.52,1.43l1.57,1.37.8.68.82.65,1.64,1.29,2.56-3.41-1.54-1.2-.77-.61-.74-.64L42.16,139c-.49-.44-.95-.9-1.43-1.35l-2.95,3.08Z" transform="translate(0 -0.08)"/><path class="a" d="M31.29,133.55a67.06,67.06,0,0,0,5.53,6.26l3-3a64.34,64.34,0,0,1-5.2-5.87Z" transform="translate(0 -0.08)"/><path class="a" d="M132.35,126.49l3.4,2.57c.39-.51.75-1,1.12-1.56s.76-1,1.09-1.57c.69-1.08,1.4-2.14,2-3.27l-3.71-2.11c-.57,1-1.23,2-1.87,3-.31.51-.68,1-1,1.47s-.68,1-1,1.45Z" transform="translate(0 -0.08)"/><path class="a" d="M120.64,138.15l2.56,3.41,1.51-1.19.75-.59.73-.63,1.45-1.25c.47-.43.92-.88,1.39-1.32l-3-3.07c-.43.41-.85.83-1.3,1.23l-1.35,1.17-.67.58-.7.55-1.41,1.11Z" transform="translate(0 -0.08)"/><path class="a" d="M113.7,142.64l2,3.73c1.11-.64,2.24-1.24,3.3-2l1.61-1,1.56-1.11-2.5-3.46-1.45,1-1.5,1c-1,.66-2,1.22-3.07,1.83Z" transform="translate(0 -0.08)"/><path class="a" d="M106.19,146.1l1.51,4c1.19-.47,2.39-.92,3.54-1.47.58-.27,1.17-.52,1.74-.81l1.71-.87-2-3.78-1.59.82c-.53.27-1.08.5-1.62.75-1.08.51-2.19.93-3.3,1.37Z" transform="translate(0 -0.08)"/><path class="a" d="M90.1,149.69l.33,4.26A66.79,66.79,0,0,0,98,153l-.85-4.18a60.14,60.14,0,0,1-7.07,1Z" transform="translate(0 -0.08)"/><path class="a" d="M81.57,154c.63.06,1.27.05,1.91.08h3.83a15.41,15.41,0,0,0,1.92-.08L89,149.78c-.59.06-1.19,0-1.78.07l-1.79.05-1.79-.05a15.05,15.05,0,0,1-1.78-.07L81.57,154Z" transform="translate(0 -0.08)"/><path class="a" d="M72.77,152.9a66.79,66.79,0,0,0,7.59,1l.34-4.26a60.31,60.31,0,0,1-7.08-1l-.85,4.18Z" transform="translate(0 -0.08)"/><path class="a" d="M64.23,150.55c1.21.4,2.41.84,3.65,1.17l1.85.52,1.86.43.93-4.16-1.74-.41-1.72-.48c-1.15-.3-2.27-.72-3.4-1.09l-1.43,4Z" transform="translate(0 -0.08)"/><path class="a" d="M56.11,146.94l1.71.87c.57.29,1.16.54,1.74.81,1.15.55,2.35,1,3.53,1.47l1.52-4c-1.11-.44-2.23-.86-3.3-1.37-.54-.25-1.09-.48-1.62-.75l-1.59-.82-2,3.78Z" transform="translate(0 -0.08)"/><path class="a" d="M41.77,136.55c.46.44.92.89,1.39,1.32l1.45,1.25.72.63.75.59,1.51,1.19,2.56-3.41L48.75,137l-.7-.55-.68-.58L46,134.71c-.44-.4-.87-.82-1.3-1.23l-3,3.07Z" transform="translate(0 -0.08)"/><path class="a" d="M35.82,130a64.2,64.2,0,0,0,5.07,5.74l3-3a61.4,61.4,0,0,1-4.72-5.35L35.81,130Z" transform="translate(0 -0.08)"/><path class="a" d="M127.72,123l3.4,2.57c.36-.46.68-.94,1-1.41s.69-.94,1-1.44c.62-1,1.27-1.94,1.83-3l-3.69-2.14c-.52,1-1.12,1.84-1.69,2.75-.28.46-.62.88-.92,1.32s-.61.88-.94,1.31Z" transform="translate(0 -0.08)"/><path class="a" d="M117.18,133.55l2.56,3.41,1.37-1.07.69-.54.66-.57,1.31-1.14c.43-.39.85-.8,1.27-1.2l-3-3.07-1.17,1.11-1.18,1.07-.61.53-.63.5-1.27,1Z" transform="translate(0 -0.08)"/><path class="a" d="M110.92,137.55l2,3.74c1-.59,2-1.13,3-1.78l1.46-.94,1.42-1-2.5-3.46L115,135l-1.36.87c-.88.61-1.84,1.1-2.76,1.65Z" transform="translate(0 -0.08)"/><path class="a" d="M104.15,140.71l1.51,4c1.08-.42,2.17-.83,3.21-1.33.53-.25,1.07-.47,1.58-.73l1.55-.8-2-3.77-1.44.73c-.47.25-1,.45-1.46.68-1,.46-2,.84-3,1.23Z" transform="translate(0 -0.08)"/><path class="a" d="M89.64,144l.34,4.26a59.56,59.56,0,0,0,6.89-1L96,143a55,55,0,0,1-6.38.88Z" transform="translate(0 -0.08)"/><path class="a" d="M81.91,148.29c.58.06,1.16.05,1.74.07l1.75,0,1.74,0a14.47,14.47,0,0,0,1.74-.07L88.62,144c-.53.06-1.07,0-1.61.07H83.78a12.39,12.39,0,0,1-1.61-.07l-.26,4.26Z" transform="translate(0 -0.08)"/><path class="a" d="M73.92,147.25a59.42,59.42,0,0,0,6.9,1l.33-4.26a55,55,0,0,1-6.38-.88l-.85,4.18Z" transform="translate(0 -0.08)"/><path class="a" d="M66.17,145.08c1.1.37,2.19.77,3.31,1.06l1.67.48,1.7.39.93-4.16-1.57-.36-1.55-.44c-1-.27-2-.65-3.06-1l-1.43,4Z" transform="translate(0 -0.08)"/><path class="a" d="M58.79,141.84l1.55.8c.52.26,1.06.48,1.58.73,1,.5,2.14.91,3.22,1.33l1.51-4c-1-.39-2-.77-3-1.23-.48-.23-1-.43-1.46-.68l-1.43-.73-2,3.77Z" transform="translate(0 -0.08)"/><path class="a" d="M51.94,137.6l1.42,1,1.47.94c1,.65,2,1.19,3,1.78l2.06-3.74c-.92-.55-1.88-1-2.77-1.65l-1.36-.87-1.31-.93L52,137.59Z" transform="translate(0 -0.08)"/><path class="a" d="M45.76,132.43c.42.4.83.81,1.26,1.2l1.32,1.14.66.57.68.54L51.05,137l2.56-3.41-1.26-1-.64-.5-.61-.53-1.22-1.05-1.17-1.11-3,3.07Z" transform="translate(0 -0.08)"/><path class="a" d="M40.35,126.45A58.51,58.51,0,0,0,45,131.67l3-3a54.28,54.28,0,0,1-4.26-4.83Z" transform="translate(0 -0.08)"/><path class="a" d="M35.84,119.78c.55,1,1.2,2,1.82,3a17.41,17.41,0,0,0,1,1.44c.34.44.67,1,1,1.41l3.41-2.57c-.33-.43-.63-.87-.94-1.31s-.64-.86-.92-1.32c-.58-.91-1.18-1.8-1.69-2.75l-3.69,2.14Z" transform="translate(0 -0.08)"/><path class="a" d="M123.12,119.55l3.41,2.57c.31-.41.6-.85.91-1.27s.62-.84.89-1.29c.56-.88,1.15-1.75,1.65-2.66l-3.7-2.14c-.45.84-1,1.63-1.51,2.44-.24.42-.54.79-.81,1.19s-.55.78-.84,1.16Z" transform="translate(0 -0.08)"/><path class="a" d="M118.75,124.55l3,3a55.87,55.87,0,0,0,4.14-4.7l-3.35-2.63A48.73,48.73,0,0,1,118.75,124.55Z" transform="translate(0 -0.08)"/><path class="a" d="M113.72,128.94l2.56,3.41,1.23-1,.62-.48.6-.52,1.18-1c.39-.35.76-.72,1.14-1.08l-3-3.08c-.35.33-.69.67-1,1l-1.09.94-.54.48-.57.44-1.13.89Z" transform="translate(0 -0.08)"/><path class="a" d="M102.11,135.33l1.51,4c1-.39,1.95-.75,2.89-1.21.47-.22,1-.41,1.42-.65l1.39-.71-2-3.78-1.28.66c-.43.22-.87.39-1.3.6-.87.41-1.76.74-2.65,1.1Z" transform="translate(0 -0.08)"/><path class="a" d="M89.19,138.21l.33,4.25a51.78,51.78,0,0,0,6.21-.85l-.86-4.18a49.39,49.39,0,0,1-5.68.78Z" transform="translate(0 -0.08)"/><path class="a" d="M82.26,142.55c.52.06,1,0,1.57.06l1.57,0,1.57,0a13.91,13.91,0,0,0,1.56-.06l-.25-4.26a11.25,11.25,0,0,0-1.44.06H84a11.25,11.25,0,0,1-1.44-.06l-.25,4.26Z" transform="translate(0 -0.08)"/><path class="a" d="M68.1,139.66c1,.32,2,.69,3,1l1.5.43,1.53.35.93-4.17-1.4-.31-1.38-.4c-.92-.23-1.82-.57-2.73-.87l-1.43,4Z" transform="translate(0 -0.08)"/><path class="a" d="M61.47,136.75l1.39.71c.47.24,1,.43,1.43.65.94.46,1.92.82,2.88,1.21l1.52-4c-.89-.36-1.79-.69-2.65-1.1-.43-.21-.88-.38-1.3-.6L63.46,133l-2,3.78Z" transform="translate(0 -0.08)"/><path class="a" d="M55.35,132.93l1.28.91,1.32.84c.86.59,1.79,1.07,2.69,1.6l2.06-3.73c-.82-.49-1.68-.93-2.47-1.47L59,130.3l-1.17-.83Z" transform="translate(0 -0.08)"/><path class="a" d="M49.75,128.28c.38.36.75.73,1.13,1.08l1.19,1,.59.52.62.48,1.23,1L57.07,129,56,128.06l-.57-.44-.54-.48-1.09-.94c-.36-.32-.7-.66-1-1l-3,3.08Z" transform="translate(0 -0.08)"/><path class="a" d="M44.88,122.9A56,56,0,0,0,49,127.6l3-3a48.59,48.59,0,0,1-3.8-4.31l-3.36,2.63Z" transform="translate(0 -0.08)"/><path class="a" d="M40.82,116.9c.5.91,1.09,1.78,1.64,2.66.27.45.6.86.89,1.29s.6.86.92,1.27l3.41-2.57c-.3-.38-.56-.78-.84-1.16A12.52,12.52,0,0,1,46,117.2c-.51-.81-1-1.6-1.51-2.44Z" transform="translate(0 -0.08)"/><path class="a" d="M118.52,116.09l3.41,2.57c.28-.37.54-.76.81-1.14s.55-.74.79-1.14c.49-.79,1-1.55,1.46-2.37l-3.64-2.13c-.4.74-.88,1.43-1.33,2.14a8.48,8.48,0,0,1-.71,1c-.24.31-.48.69-.74,1Z" transform="translate(0 -0.08)"/><path class="a" d="M114.68,120.55l3,3a48.81,48.81,0,0,0,3.67-4.2L118,116.71a43,43,0,0,1-3.35,3.79Z" transform="translate(0 -0.08)"/><path class="a" d="M110.26,124.34l2.57,3.41,1.09-.87.55-.42L115,126l1.06-.91c.34-.32.67-.65,1-1l-3-3.08c-.31.29-.6.59-.91.87l-1,.83-.48.42-.5.38-1,.79Z" transform="translate(0 -0.08)"/><path class="a" d="M100.07,129.94l1.51,4c.86-.34,1.73-.66,2.56-1.07.42-.19.85-.36,1.26-.57l1.24-.64-2-3.78-1.12.58c-.37.19-.76.35-1.14.52-.75.37-1.54.66-2.32,1Z" transform="translate(0 -0.08)"/><path class="a" d="M94.5,131.61l.93,4.16,1.35-.31,1.34-.38c.9-.23,1.76-.56,2.64-.84l-1.43-4c-.8.25-1.58.56-2.4.76l-1.2.35-1.23.28Z" transform="translate(0 -0.08)"/><path class="a" d="M88.73,132.47l.34,4.25a46.46,46.46,0,0,0,5.51-.75l-.85-4.18a44.17,44.17,0,0,1-5,.68Z" transform="translate(0 -0.08)"/><path class="a" d="M82.6,136.79c.47.05.93,0,1.4.06h2.8a10.78,10.78,0,0,0,1.39-.06l-.25-4.26H82.86l-.26,4.26Z" transform="translate(0 -0.08)"/><path class="a" d="M70,134.24c.89.28,1.75.61,2.65.84l1.33.38,1.35.31.94-4.16-1.23-.28L73.86,131c-.81-.2-1.59-.51-2.39-.76l-1.44,4Z" transform="translate(0 -0.08)"/><path class="a" d="M64.15,131.65l1.24.64c.41.21.84.38,1.26.57.83.41,1.7.73,2.56,1.07l1.52-4a23.67,23.67,0,0,1-2.33-1c-.38-.17-.77-.33-1.14-.52l-1.12-.58-2,3.78Z" transform="translate(0 -0.08)"/><path class="a" d="M53.74,124.13c.34.31.66.64,1,1l1,.91.53.46.55.42,1.09.87,2.56-3.41-1-.79-.5-.38-.47-.42-1-.83c-.31-.28-.61-.58-.92-.87l-3,3.08Z" transform="translate(0 -0.08)"/><path class="a" d="M45.81,114c.43.82,1,1.58,1.45,2.37.24.4.53.76.8,1.14s.52.77.81,1.14l3.4-2.57c-.25-.34-.48-.69-.73-1a11.47,11.47,0,0,1-.72-1c-.45-.71-.93-1.4-1.32-2.14l-3.69,2.13Z" transform="translate(0 -0.08)"/><path class="a" d="M110.61,116.43l3,3a43,43,0,0,0,3.22-3.66l-3.36-2.63a40.56,40.56,0,0,1-2.88,3.27Z" transform="translate(0 -0.08)"/><path class="a" d="M98,124.55l1.51,4c.75-.31,1.51-.58,2.24-.94.36-.17.74-.31,1.1-.5l1.08-.56-2-3.77-1,.5c-.32.16-.66.29-1,.44-.65.32-1.33.57-2,.84Z" transform="translate(0 -0.08)"/><path class="a" d="M83,131c.4.05.81,0,1.22.05h2.45a10.12,10.12,0,0,0,1.23-.05l-.26-4.26H83.2L83,131Z" transform="translate(0 -0.08)"/><path class="a" d="M72,128.81c.77.25,1.52.54,2.31.74l1.16.33,1.18.27.93-4.16-1-.24-1-.3c-.7-.17-1.37-.44-2.06-.66l-1.43,4Z" transform="translate(0 -0.08)"/><path class="a" d="M57.73,120l.88.85.92.79.46.4.48.38,1,.75L64,119.73l-.85-.67-.43-.34-.41-.36-.83-.71c-.27-.24-.52-.5-.79-.75l-3,3.07Z" transform="translate(0 -0.08)"/><path class="a" d="M50.79,111.13c.38.71.85,1.38,1.27,2.07.21.35.47.66.7,1s.46.67.71,1l3.4-2.57c-.22-.29-.41-.59-.63-.89a9.4,9.4,0,0,1-.62-.89c-.38-.61-.8-1.21-1.14-1.85l-3.69,2.14Z" transform="translate(0 -0.08)"/><path class="a" d="M0,101.45.33,104c.13.86.29,1.72.45,2.58.28,1.73.69,3.43,1.08,5.13l4.15-1c-.38-1.62-.77-3.23-1-4.87-.14-.82-.29-1.63-.42-2.45L4.27,101,0,101.47Z" transform="translate(0 -0.08)"/><path class="a" d="M3.78,64l4,1.35c.27-.79.53-1.57.81-2.36l.91-2.32L10,59.48c.16-.39.34-.76.5-1.14l1-2.27L7.61,54.23,6.53,56.62c-.18.4-.36.8-.53,1.2L5.51,59l-1,2.44C4.26,62.3,4,63.13,3.7,64Z" transform="translate(0 -0.08)"/><path class="a" d="M14.59,42.32l3.51,2.43,1.44-2c.47-.68,1-1.31,1.51-2s1-1.31,1.56-1.94l1.62-1.88L21,34.1l-1.71,2c-.57.66-1.09,1.36-1.63,2s-1.1,1.36-1.59,2.07L14.59,42.3Z" transform="translate(0 -0.08)"/><path class="a" d="M30.94,24.55l2.7,3.3,2-1.54c.33-.25.65-.51,1-.76l1-.72,2-1.44L41.73,22l-2.28-3.6-2.2,1.42-2.13,1.51-1.06.76-1,.8-2,1.62Z" transform="translate(0 -0.08)"/><path class="a" d="M51.6,12,53.28,16c.76-.33,1.54-.63,2.31-.93s1.54-.63,2.33-.89c1.58-.53,3.14-1.09,4.75-1.52l-1.19-4.1c-1.68.46-3.33,1-5,1.61-.83.27-1.64.61-2.45.92s-1.64.64-2.44,1Z" transform="translate(0 -0.08)"/><path class="a" d="M5.71,100.76,6,103.19c.12.8.27,1.6.41,2.4.26,1.61.65,3.2,1,4.79l4.14-1c-.35-1.5-.71-3-1-4.53-.13-.76-.28-1.52-.39-2.28l-.3-2.29-4.24.5Z" transform="translate(0 -0.08)"/><path class="a" d="M5.14,91.29c0,2.65.16,5.3.39,7.94l4.25-.42c-.23-2.51-.38-5-.38-7.52v-1.7l-4.27-.08v1.78Z" transform="translate(0 -0.08)"/><path class="a" d="M9.25,65.78l4,1.35c.25-.73.49-1.46.75-2.19l.84-2.16.43-1.07c.15-.36.31-.71.47-1.06l1-2.11-3.85-1.83-1,2.23c-.16.37-.34.74-.49,1.11l-.45,1.14L10,63.47c-.27.77-.53,1.54-.79,2.31Z" transform="translate(0 -0.08)"/><path class="a" d="M19.35,45.55,22.86,48,24.2,46.1c.44-.64.93-1.23,1.4-1.84s.94-1.22,1.45-1.8l1.51-1.75-3.21-2.79-1.6,1.85c-.53.61-1,1.26-1.52,1.9s-1,1.27-1.49,1.94Z" transform="translate(0 -0.08)"/><path class="a" d="M34.59,29l2.7,3.3L39.1,30.9l.92-.7.94-.67,1.88-1.34,1.95-1.25L42.5,23.33l-2,1.33-2,1.41-1,.71c-.33.24-.64.5-1,.74L34.54,29Z" transform="translate(0 -0.08)"/><path class="a" d="M53.87,17.34l1.67,3.92c.71-.31,1.44-.58,2.15-.86s1.43-.59,2.17-.82c1.46-.49,2.91-1,4.41-1.42l-1.19-4.09c-1.57.42-3.11,1-4.66,1.49-.77.25-1.52.57-2.28.87s-1.52.59-2.27.91Z" transform="translate(0 -0.08)"/><path class="a" d="M11.43,100.08l.29,2.25c.12.75.26,1.49.39,2.23.24,1.5.6,3,.94,4.44l4.14-1c-.32-1.39-.66-2.77-.89-4.18-.12-.7-.25-1.4-.36-2.11l-.27-2.12-4.24.51Z" transform="translate(0 -0.08)"/><path class="a" d="M10.9,91.28c0,2.46.15,4.92.36,7.38l4.25-.42c-.2-2.32-.35-4.65-.35-7V89.68l-4.27-.09v1.69Z" transform="translate(0 -0.08)"/><path class="a" d="M14.71,67.6l4,1.35.69-2,.78-2,.4-1c.13-.33.29-.65.43-1l.88-2L18,59.16l-.93,2.07-.46,1-.42,1.05L15.4,65.4c-.26.71-.49,1.43-.74,2.14Z" transform="translate(0 -0.08)"/><path class="a" d="M24.07,48.87l3.51,2.42,1.23-1.74c.41-.59.87-1.13,1.3-1.69s.87-1.13,1.34-1.67l1.4-1.61-3.2-2.84-1.48,1.72c-.49.57-.94,1.18-1.41,1.76s-1,1.18-1.38,1.8l-1.31,1.85Z" transform="translate(0 -0.08)"/><path class="a" d="M39.91,37.66l-2.77-3.25L35.43,35.9c-.56.51-1.1,1-1.65,1.55-1.11,1-2.13,2.14-3.17,3.23h0l3.14,2.87c1-1,1.94-2.08,3-3" transform="translate(0 -0.08)"/><path class="a" d="M38.23,33.49l2.71,3.3,1.67-1.32c.29-.22.56-.44.85-.65l.87-.62L46.07,33l1.8-1.16-2.29-3.6-1.9,1.23-1.85,1.31-.92.66-.9.69-1.78,1.4Z" transform="translate(0 -0.08)"/><path class="a" d="M56.13,22.64l1.68,3.92c.65-.29,1.32-.53,2-.8s1.32-.54,2-.76c1.36-.45,2.7-.94,4.08-1.3L64.7,19.6c-1.46.39-2.89.9-4.32,1.38-.72.24-1.42.54-2.12.81s-1.41.54-2.11.85Z" transform="translate(0 -0.08)"/><path class="a" d="M66.06,19.21l1.11,4.12c.68-.21,1.38-.35,2.07-.52l2.09-.47,2.1-.38c.7-.13,1.4-.26,2.11-.33L75,17.4c-.75.09-1.5.22-2.24.35l-2.23.41-2.22.5c-.73.17-1.47.33-2.2.55Z" transform="translate(0 -0.08)"/><path class="a" d="M22.11,118.07,23,120l.44,1,.47.94.95,1.86c.33.61.69,1.21,1,1.82l3.7-2.14c-.32-.57-.66-1.13-1-1.7L27.64,120l-.45-.88-.4-.89L26,116.4l-3.93,1.67Z" transform="translate(0 -0.08)"/><path class="a" d="M17.15,99.4l.27,2.07c.1.69.23,1.38.35,2.06.22,1.38.56,2.74.87,4.1l4.14-1c-.29-1.28-.61-2.55-.81-3.84-.11-.64-.24-1.29-.34-1.93l-.24-2-4.24.51Z" transform="translate(0 -0.08)"/><path class="a" d="M16.66,91.29c0,2.26.14,4.53.33,6.8l4.25-.43c-.18-2.12-.32-4.25-.32-6.39V89.83l-4.26-.09v1.55Z" transform="translate(0 -0.08)"/><path class="a" d="M16.71,88.42l4.26.17c0-.65.07-1.3.12-2l.15-2,.24-2c.09-.65.14-1.3.27-1.94L17.54,80c-.13.68-.2,1.38-.29,2.07s-.18,1.38-.26,2.07l-.16,2.09c0,.69-.11,1.39-.12,2.08Z" transform="translate(0 -0.08)"/><path class="a" d="M20.18,69.43l4,1.34.64-1.85.72-1.83.36-.91c.12-.31.26-.6.4-.9l.8-1.79-3.85-1.83-.86,1.91c-.14.31-.29.63-.43,1l-.38,1-.77,1.94-.67,2Z" transform="translate(0 -0.08)"/><path class="a" d="M23.88,60.48l3.82,1.9.89-1.74c.31-.58.65-1.14,1-1.71.63-1.15,1.35-2.24,2.06-3.34l-3.56-2.36c-.75,1.18-1.52,2.34-2.2,3.56-.34.61-.7,1.21-1,1.82l-.95,1.87Z" transform="translate(0 -0.08)"/><path class="a" d="M28.8,52.14l3.55,2.41L33.49,53c.37-.54.8-1,1.19-1.56s.8-1,1.23-1.53l1.28-1.48L34,45.55,32.6,47.13c-.46.52-.87,1.09-1.31,1.63s-.88,1.08-1.27,1.66l-1.22,1.7Z" transform="translate(0 -0.08)"/><path class="a" d="M34.84,44.55,38,47.44c.91-.95,1.79-1.92,2.75-2.8.48-.45.94-.91,1.43-1.35L43.64,42l-2.77-3.25-1.52,1.41c-.52.47-1,1-1.52,1.43-1,.95-2,2-2.94,3Z" transform="translate(0 -0.08)"/><path class="a" d="M41.88,38l2.7,3.3L46.12,40l.78-.61.8-.57,1.6-1.13L51,36.67l-2.28-3.61L46.91,34.2,45.2,35.41l-.85.6-.82.64L41.88,38Z" transform="translate(0 -0.08)"/><path class="a" d="M58.35,27.93,60,31.85c.6-.26,1.22-.48,1.82-.73a19.31,19.31,0,0,1,1.84-.69c1.24-.42,2.47-.87,3.74-1.2l-1.19-4.1c-1.35.36-2.66.84-4,1.28-.66.21-1.3.49-2,.74s-1.31.5-2,.78Z" transform="translate(0 -0.08)"/><path class="a" d="M67.55,24.77l1.11,4.12c.62-.19,1.27-.32,1.9-.47L72.48,28l1.93-.34c.64-.12,1.29-.24,1.93-.31l-.59-4.23c-.69.08-1.38.21-2.06.33l-2.06.37-2,.47c-.67.16-1.36.3-2,.5Z" transform="translate(0 -0.08)"/><path class="a" d="M27.41,115.82l.79,1.74.4.88.43.85L29.9,121c.3.56.64,1.11,1,1.66l3.69-2.13c-.29-.52-.6-1-.88-1.56l-.81-1.59-.41-.79-.37-.82-.72-1.62-3.93,1.67Z" transform="translate(0 -0.08)"/><path class="a" d="M22.87,98.71l.24,1.91c.1.63.22,1.25.33,1.88.2,1.27.51,2.51.79,3.75l4.15-1c-.27-1.16-.56-2.31-.74-3.49-.1-.59-.22-1.17-.31-1.76l-.22-1.77-4.24.5Z" transform="translate(0 -0.08)"/><path class="a" d="M22.42,91.29c0,2.08.13,4.15.3,6.22L27,97.09c-.17-1.93-.29-3.87-.29-5.81V90l-4.26-.09v1.43Z" transform="translate(0 -0.08)"/><path class="a" d="M22.47,88.65l4.26.17c0-.6.06-1.19.1-1.78L27,85.25l.22-1.77c.08-.59.13-1.18.25-1.77L23.23,81c-.13.63-.18,1.26-.27,1.9l-.24,1.9-.14,1.91c0,.64-.11,1.27-.11,1.91Z" transform="translate(0 -0.08)"/><path class="a" d="M25.64,71.25l4.05,1.34.57-1.69.66-1.66.33-.83c.11-.27.24-.54.36-.81L32.34,66l-3.85-1.84-.79,1.75c-.13.29-.27.58-.39.88l-.35.89-.7,1.78-.62,1.82Z" transform="translate(0 -0.08)"/><path class="a" d="M29,63.05,32.85,65l.81-1.59c.28-.53.59-1,.88-1.56.57-1,1.24-2,1.88-3l-3.56-2.35c-.68,1.07-1.39,2.14-2,3.26-.31.55-.65,1.1-.95,1.66L29,63.09Z" transform="translate(0 -0.08)"/><path class="a" d="M33.54,55.41l3.51,2.43,1-1.46c.33-.49.73-.94,1.09-1.41s.72-.95,1.11-1.4l1.17-1.35-3.19-2.83L37,50.84c-.42.48-.8,1-1.2,1.49s-.81,1-1.17,1.52L33.5,55.41Z" transform="translate(0 -0.08)"/><path class="a" d="M39.08,48.49l3.14,2.89c.82-.86,1.62-1.74,2.5-2.55L46,47.6l1.35-1.17-2.76-3.24-1.45,1.25c-.47.43-.93.88-1.39,1.32-1,.86-1.8,1.81-2.69,2.73Z" transform="translate(0 -0.08)"/><path class="a" d="M45.53,42.4l2.7,3.3,1.41-1.1.7-.55.73-.52,1.46-1,1.5-1-2.28-3.6-1.61,1L48.57,40l-.78.55c-.26.19-.5.39-.76.59l-1.5,1.18Z" transform="translate(0 -0.08)"/><path class="a" d="M60.66,33.23l1.69,3.92c.54-.24,1.1-.44,1.65-.67s1.1-.45,1.67-.63c1.13-.37,2.25-.79,3.4-1.09l-1.18-4.1c-1.24.33-2.44.77-3.65,1.17-.61.19-1.2.46-1.79.68s-1.2.46-1.78.72Z" transform="translate(0 -0.08)"/><path class="a" d="M69.05,30.33l1.1,4.12c.57-.17,1.15-.29,1.73-.43l1.74-.39,1.76-.32c.59-.1,1.17-.22,1.77-.28l-.6-4.22c-.63.07-1.26.18-1.89.3l-1.89.33-1.87.43c-.62.15-1.24.28-1.85.46Z" transform="translate(0 -0.08)"/><path class="a" d="M32.71,113.55l.72,1.59.36.79.39.78.8,1.55c.27.51.57,1,.86,1.51l3.69-2.14c-.27-.46-.55-.92-.8-1.4L38,114.8l-.37-.72-.33-.73-.66-1.47Z" transform="translate(0 -0.08)"/><path class="a" d="M28.59,98l.22,1.73c.08.57.2,1.14.3,1.71.17,1.15.46,2.28.72,3.41l4.14-1c-.24-1-.5-2.09-.67-3.15-.09-.53-.19-1-.27-1.59l-.21-1.59-4.23.5Z" transform="translate(0 -0.08)"/><path class="a" d="M28.17,91.28c0,1.89.13,3.78.28,5.66l4.25-.42c-.15-1.75-.26-3.5-.26-5.25v-1.2L28.18,90v1.3Z" transform="translate(0 -0.08)"/><path class="a" d="M28.22,88.88l4.26.17c0-.54.06-1.08.1-1.61l.12-1.61.2-1.6c.07-.53.11-1.07.22-1.6L28.91,82c-.11.57-.16,1.15-.24,1.72l-.22,1.73-.13,1.74c0,.58-.1,1.16-.1,1.74Z" transform="translate(0 -0.08)"/><path class="a" d="M31.1,73.07l4,1.35.52-1.53.59-1.5.29-.75c.1-.24.22-.48.33-.73l.67-1.47-3.86-1.83L33,68.2c-.12.26-.25.52-.36.79l-.32.81-.64,1.62-.56,1.65Z" transform="translate(0 -0.08)"/><path class="a" d="M34.18,65.62,38,67.53l.73-1.43c.25-.48.53-.94.8-1.4.51-1,1.11-1.84,1.69-2.74L37.66,59.6c-.62,1-1.27,1.94-1.82,3-.29.51-.59,1-.86,1.51l-.8,1.55Z" transform="translate(0 -0.08)"/><path class="a" d="M38.28,58.69l3.51,2.42.94-1.31c.3-.45.65-.85,1-1.28s.65-.86,1-1.26L45.79,56,42.6,53.21l-1.16,1.34c-.38.43-.72.91-1.09,1.36s-.73.9-1.06,1.38l-1,1.42Z" transform="translate(0 -0.08)"/><path class="a" d="M43.35,52.39l3.14,2.89c.75-.77,1.47-1.57,2.26-2.29l1.17-1.11,1.22-1.06-2.79-3.27L47,48.69c-.43.39-.84.8-1.26,1.2-.86.78-1.64,1.65-2.45,2.48Z" transform="translate(0 -0.08)"/><path class="a" d="M49.18,46.86l2.7,3.3,1.27-1,.63-.5.66-.47,1.31-.93,1.36-.87-2.28-3.61-1.47.95-1.42,1-.71.51-.68.53-1.37,1.08Z" transform="translate(0 -0.08)"/><path class="a" d="M55.75,42.2,58,45.85a55.24,55.24,0,0,1,5.7-3L61.92,39a57.35,57.35,0,0,0-6.17,3.22Z" transform="translate(0 -0.08)"/><path class="a" d="M62.92,38.55l1.68,3.92c.49-.21,1-.39,1.49-.59a16.14,16.14,0,0,1,1.51-.57c1-.34,2-.72,3.06-1l-1.18-4.1c-1.12.29-2.21.69-3.31,1.06-.56.17-1.09.41-1.63.62s-1.09.41-1.62.64Z" transform="translate(0 -0.08)"/><path class="a" d="M70.54,35.9,71.64,40c.51-.16,1-.27,1.56-.39l1.57-.36L76.36,39c.53-.1,1-.2,1.59-.26l-.6-4.18c-.58.06-1.15.17-1.72.27l-1.72.31-1.69.39c-.57.13-1.14.24-1.69.42Z" transform="translate(0 -0.08)"/><path class="a" d="M85.4,33.94H83.65a14.47,14.47,0,0,0-1.74.07c-1.15.1-2.32.15-3.46.32h0L79,38.57c1.06-.17,2.14-.21,3.21-.3.53-.06,1.08-.05,1.61-.06l1.62-.05" transform="translate(0 -0.08)"/><path class="a" d="M38,111.31l.65,1.42.32.72.35.69.72,1.4c.24.46.51.9.77,1.36l3.69-2.14c-.23-.42-.49-.82-.71-1.25l-.65-1.28-.33-.63-.29-.66-.59-1.3L38,111.31Z" transform="translate(0 -0.08)"/><path class="a" d="M35.66,104.46c.3,1,.54,2,.91,3l.5,1.48.57,1.46,4-1.59-.53-1.34-.46-1.35c-.33-.9-.55-1.83-.83-2.75l-4.12,1.1Z" transform="translate(0 -0.08)"/><path class="a" d="M34.35,97.35l.19,1.55c.08.52.18,1,.27,1.54.16,1,.42,2,.65,3.06l4.14-1c-.21-.94-.45-1.86-.59-2.81-.08-.47-.18-.94-.25-1.41l-.18-1.43-4.23.51Z" transform="translate(0 -0.08)"/><path class="a" d="M34,89.09h0l4.26.17h0a8.34,8.34,0,0,1,.08-1.41l.11-1.43L38.61,85c.06-.47.1-.95.2-1.42l-4.21-.68c-.11.51-.15,1-.22,1.55L34.18,86l-.11,1.57c0,.51-.09,1-.09,1.55Z" transform="translate(0 -0.08)"/><path class="a" d="M36.57,74.89l4,1.35L41,74.88l.53-1.33.26-.67c.09-.22.2-.44.3-.66l.58-1.3-3.85-1.84-.6,1.47c-.11.24-.22.47-.32.71l-.29.73-.57,1.46-.5,1.48Z" transform="translate(0 -0.08)"/><path class="a" d="M39.35,68.2l3.82,1.91.65-1.28c.22-.42.48-.83.71-1.25.46-.84,1-1.63,1.51-2.44l-3.56-2.36c-.55.88-1.14,1.75-1.64,2.66-.26.46-.53.9-.77,1.37l-.72,1.39Z" transform="translate(0 -0.08)"/><path class="a" d="M47.55,56.3l3.13,2.89c.68-.69,1.31-1.41,2-2,.35-.33.69-.67,1-1l1.09-.94L52.05,52l-1.19,1L49.73,54c-.78.7-1.47,1.49-2.2,2.24Z" transform="translate(0 -0.08)"/><path class="a" d="M52.82,51.32l2.71,3.3,1.13-.89.56-.44.59-.42L59,52l1.21-.78-2.28-3.6-1.32.84-1.28.91-.64.46-.61.48-1.24,1Z" transform="translate(0 -0.08)"/><path class="a" d="M58.74,47.12,61,50.77A49,49,0,0,1,66,48.12l-1.75-3.89A52.14,52.14,0,0,0,58.74,47.12Z" transform="translate(0 -0.08)"/><path class="a" d="M65.19,43.82l1.67,3.92c.44-.19.89-.35,1.33-.53s.89-.37,1.34-.51c.91-.3,1.81-.64,2.73-.87l-1.18-4.1c-1,.26-2,.63-3,1-.5.15-1,.37-1.46.56s-1,.37-1.45.58Z" transform="translate(0 -0.08)"/><path class="a" d="M72,41.46l1.1,4.12c.46-.15.93-.23,1.39-.35l1.4-.32,1.41-.25c.47-.08.94-.18,1.42-.22l-.59-4.23c-.52.06-1,.15-1.55.25l-1.54.27-1.52.35c-.51.12-1,.22-1.52.38Z" transform="translate(0 -0.08)"/><path class="a" d="M79.14,40.09l.51,4.23c.95-.15,1.91-.17,2.86-.26.48-.05,1,0,1.44-.06H85.4V39.74H83.83a14.09,14.09,0,0,0-1.57.06c-1,.09-2.09.13-3.12.29Z" transform="translate(0 -0.08)"/><path class="a" d="M43.35,109.05l.57,1.27.29.63.31.62.64,1.24c.21.4.46.8.69,1.2l3.69-2.13c-.21-.37-.43-.73-.63-1.1l-.57-1.12-.29-.56-.25-.57-.53-1.15Z" transform="translate(0 -0.08)"/><path class="a" d="M41.23,103c.26.88.48,1.79.8,2.65l.44,1.32.52,1.29,4-1.6-.46-1.16-.4-1.2c-.3-.78-.49-1.6-.73-2.4L41.28,103Z" transform="translate(0 -0.08)"/><path class="a" d="M40,96.66l.18,1.39c.07.45.16.91.24,1.36.13.92.37,1.82.57,2.72l4.14-1c-.18-.82-.39-1.63-.51-2.46-.07-.41-.16-.82-.23-1.24l-.15-1.25-4.24.5Z" transform="translate(0 -0.08)"/><path class="a" d="M39.73,89.27v.06L44,89.5v-.07c0-.4,0-.8.08-1.2L44.16,87l.16-1.25c.06-.41.08-.84.17-1.25l-4.21-.68c-.1.45-.13.92-.19,1.38l-.18,1.38-.1,1.39c0,.44-.08.89-.08,1.33Z" transform="translate(0 -0.08)"/><path class="a" d="M40.44,82.93l4.2.76a42.81,42.81,0,0,1,1.18-4.88l-4.08-1.26a47.51,47.51,0,0,0-1.3,5.39Z" transform="translate(0 -0.08)"/><path class="a" d="M42,76.71l4,1.35.4-1.19.46-1.17.23-.59c.08-.19.17-.38.26-.57l.51-1.15-3.8-1.84-.57,1.26c-.09.22-.19.42-.28.64l-.25.64-.52,1.29L42,76.7Z" transform="translate(0 -0.08)"/><path class="a" d="M44.48,70.77l3.82,1.91.57-1.12c.2-.37.42-.73.63-1.09.39-.75.87-1.44,1.32-2.15L47.26,66c-.49.79-1,1.55-1.45,2.37-.23.4-.48.8-.69,1.21l-.64,1.23Z" transform="translate(0 -0.08)"/><path class="a" d="M51.78,60.2l3.14,2.89c.59-.6,1.14-1.24,1.77-1.8.31-.29.61-.59.92-.87l1-.83-2.77-3.25-1,.91c-.35.32-.67.65-1,1-.69.63-1.31,1.33-2,2Z" transform="translate(0 -0.08)"/><polygon class="a" points="56.48 55.69 59.18 58.99 60.17 58.21 60.67 57.82 61.19 57.46 62.21 56.72 63.28 56.05 60.99 52.44 59.82 53.19 58.69 54 58.12 54.4 57.57 54.83 56.48 55.69 56.48 55.69"/><path class="a" d="M67.45,49.11,69.13,53c.38-.17.78-.31,1.17-.47s.77-.33,1.17-.45c.8-.25,1.58-.56,2.39-.76l-1.18-4.1c-.9.23-1.76.56-2.65.85-.44.13-.86.33-1.29.49s-.87.33-1.29.51Z" transform="translate(0 -0.08)"/><path class="a" d="M79.83,45.81,80.34,50c.83-.14,1.68-.15,2.52-.23.42-.05.84,0,1.27-.05H85.4V45.45H84a10.93,10.93,0,0,0-1.4.06c-.92.08-1.85.11-2.77.26Z" transform="translate(0 -0.08)"/><path class="a" d="M46.79,101.55c.24.77.42,1.56.7,2.31l.39,1.15.45,1.12,4-1.59-.41-1-.34-1c-.26-.67-.41-1.37-.62-2.06l-4.13,1.1Z" transform="translate(0 -0.08)"/><path class="a" d="M45.48,89.49v.06l4.27.17v-.09a5.54,5.54,0,0,1,.06-1l.08-1.08L50,86.47a5,5,0,0,1,.15-1.08L46,84.71c-.09.4-.11.8-.17,1.2l-.16,1.21-.08,1.22c0,.38-.08.76-.08,1.15Z" transform="translate(0 -0.08)"/><path class="a" d="M49.64,73.35l3.81,1.91.49-1c.17-.32.37-.62.54-.94.34-.64.76-1.23,1.14-1.85l-3.56-2.36c-.42.69-.89,1.36-1.27,2.07-.2.36-.42.7-.6,1.06l-.55,1.08Z" transform="translate(0 -0.08)"/><path class="a" d="M56,64.1,59.15,67c.52-.51,1-1.07,1.53-1.55.27-.25.52-.51.79-.75L62.3,64l-2.77-3.25-.92.8c-.3.27-.58.56-.88.84-.61.54-1.14,1.15-1.71,1.73Z" transform="translate(0 -0.08)"/><path class="a" d="M69.71,54.41l1.68,3.92c.33-.15.67-.26,1-.4a10.21,10.21,0,0,1,1-.38c.69-.22,1.36-.49,2.06-.66l-1.18-4.1c-.79.2-1.54.49-2.31.74-.39.11-.75.29-1.13.43s-.76.28-1.13.45Z" transform="translate(0 -0.08)"/><path class="a" d="M80.52,51.55,81,55.79c.71-.12,1.44-.13,2.16-.2.37-.05.73,0,1.1-.05h1.1V51.27H84.17a9.88,9.88,0,0,0-1.22,0c-.81.08-1.63.09-2.43.22Z" transform="translate(0 -0.08)"/><path d="M163.48,9.08c0-.54,0-1.07-.45-1.27a1.29,1.29,0,0,0-1.58.64,16.13,16.13,0,0,0-.73,2.55c-.06.39-.25,2-.36,2.32s-.24,1.37-.43,2.06-.32,1.06-.47,1.16-.35-.37-.91-1a15.21,15.21,0,0,1-1.17-1.48s-.9-2-1.22-2.4-1-1.52-1.55-2.29a9.29,9.29,0,0,0-1.47-2c-.48-.32-.77-.69-1.18-.67s-.81.56-.61.85a5.84,5.84,0,0,0,.79,1.83,5.78,5.78,0,0,1,1.06,1.91,5.54,5.54,0,0,0,.63,1.35c.4.67.93,1.59,1,1.78a13,13,0,0,1,.18,1.29,22.33,22.33,0,0,0-1.52-2.22c-.52-.57-1.41-1.71-1.84-2.1a5.57,5.57,0,0,0-2-1.43c-.9-.28-1.08-.45-1.14-.15s-.29.78,0,1.07a9.94,9.94,0,0,1,1.13,1.21c.28.4.65.63,1.07,1.22s.66,1.51,1.12,2.19a10.39,10.39,0,0,1,.76,1.39s-1.26-1.17-1.72-1.74a8.89,8.89,0,0,0-1.39-1.61c-.49-.35-.9-.71-1.24-.35a.77.77,0,0,0-.1,1c.11.24.65,1.3,1.07,2s1.23.87,1.38,1.61a4.26,4.26,0,0,0,1.18,2,4.13,4.13,0,0,1,1,1.48,6.34,6.34,0,0,1,.14,1.15l-1.29-.95c-.26-.2-.61-.68-1.15-.7s-.93.32-.94.52a2.15,2.15,0,0,0,.42,1.08,11.8,11.8,0,0,0,1,1c.71.62,1.29.77,1.6,1.27a1.66,1.66,0,0,1,.3,1.31,7.66,7.66,0,0,1-.8,2.12c-.38.4-1.45,2-1.89,2.51s-3.31,4-3.65,4.63A7.6,7.6,0,0,1,145,36.73l-.3.32-.71-.14s-4.4,4.84-5.51,5.82-2.15,2.23-3,2.94-3.69,3.17-4.78,5.14-3.6,6.73-4.63,8.23-1.69,3-3.55,6.1-1.37,3.25-2.31,3.86-1.29.44-1.74,1.63a6.27,6.27,0,0,0-.42,2c0,.13-.64,0-1.09.47s-.66.15-.71,1.17,0,1.57-.33,1.92-1.22,1.07-2.48,2.44-2.44,2.69-2.53,2.89-.62.88-1.28,2.1-.47.86-1.24,2.24A6.21,6.21,0,0,1,106.22,88l.92-1.1.28-1.39.76.06s1.92-6,2.2-7.84a22,22,0,0,0,.37-5.06,29.62,29.62,0,0,0-.38-3.38l-.32-.1A31.57,31.57,0,0,0,108.17,64c-.7-1-3.69-4.72-4.41-5.11a9.06,9.06,0,0,0-.82-.42l-.31.42L101,57.55l.33-.42a8.58,8.58,0,0,0-3.45-1.73c-1.74-.27-10-.88-12.3-.3s-3.44.67-5.43,2L77.7,58.71l.12.56a3.61,3.61,0,0,1-.93.67,1,1,0,0,1-.55-.17A19.79,19.79,0,0,0,74,62.43a14,14,0,0,0-2,4.89c-.56,2.49-.73,3.16-.73,3.16l.74.31s.12,1.31.14,1.6-.35.76-.35.76a1.92,1.92,0,0,0-.53,1.26,26.91,26.91,0,0,0,.38,5.74c.5,2.41,1.25,4.69,2.26,5.81s1,1.27,1.38,1.63a2.45,2.45,0,0,0,1.25.44l.48.41a2,2,0,0,1,.94-.23c.51,0,.7.16,1,.11a.74.74,0,0,0,.47-.2,6.59,6.59,0,0,0,.44.72,11.79,11.79,0,0,1,1.1,2c.39.9.49.64.52,1.69a1.44,1.44,0,0,1-.56,1.36s-.66-.58-1.11-.46-.79-.41-1.3-.74a2.28,2.28,0,0,0-1.68-.17c-.38.11-.35-.26-1.66-1.18A8.33,8.33,0,0,1,73,89.4a1.86,1.86,0,0,0-1.27-.85A3.69,3.69,0,0,1,70,88.12c-.12-.18.29-.57-.49-1A5,5,0,0,0,68,86.47c-.08,0-.17-.48-.43-.76s-.15-.25-.26-.28-.41-.07-.7-.16a1.15,1.15,0,0,1-.67-.84,1.43,1.43,0,0,0-.94-1,3.64,3.64,0,0,1-.89-.48s-1.92-2.41-2.31-2.82A2.7,2.7,0,0,1,60.69,78c0-1.18.19-2.49-.87-3.47a16.52,16.52,0,0,0-2.91-2s-6.48-7.77-7.1-8.48-8.66-10.57-8.9-10.9S37.43,47.66,37,47.24s-3.76-4.68-4.49-5.71S31.4,39.46,31.08,39a1.83,1.83,0,0,0-.68-.7H28.91s-3.86-5.58-5.46-8.09-4-6-4-6l-.58-.84A15.43,15.43,0,0,1,17,17.07a52.63,52.63,0,0,1,.5-7.93,17.49,17.49,0,0,0,.3-3.23c0-.55.2-2.45.26-2.95s0-.83-.46-.93-1.32-.23-1.51.29-.79,1.75-.79,1.75a6.21,6.21,0,0,1-.17-1.72,6.81,6.81,0,0,0,.33-2A1.3,1.3,0,0,0,14,.25a2.75,2.75,0,0,0-.82,1.63,2.75,2.75,0,0,1-.26.93L12,2.49s-.83.73-.91,1.08a7.48,7.48,0,0,0-.27,2A29.58,29.58,0,0,1,10.58,9s-.19-.81-.53-.91-1.12.46-1.12.46a9.84,9.84,0,0,0-.46,3c0,1.68.11,3.53.11,4.17S8,18.9,8,19.21a4.6,4.6,0,0,0,0,2.33,8.9,8.9,0,0,0,2.33,5c1.65,1.69,3,2.7,3.06,2.82s4.57,8.56,4.73,9.24S22,45.16,22,45.16l-.48.51,7,9.37c2,2.7,4.23,4.48,5.76,7.78s3.09,6.4,3.2,6.61S38.75,73,39.24,74a4.78,4.78,0,0,0,2.13,2.35c.91.43,1.21.52,1.29,1.67L44,81.88c1.14.9,1.19.83,2.62,2.1s4.19,5.27,7,9.18,10.29,13.52,10.68,14,.1,1,.41,1.48.69.5,1,1a8.28,8.28,0,0,1,.43,2.56,4.07,4.07,0,0,0,1.07,2c.32.35.3,1.36.33,1.54A15.75,15.75,0,0,0,69,118.23c.86,1.27,2.58,5.44,2.86,5.93a4.36,4.36,0,0,1,.81,2.47,23.44,23.44,0,0,0,1.16,7c1.11,3.55.92,3.4,2,5.2s1.57,2.42,1.31,3.64-1,2-.68,3.05a3.93,3.93,0,0,0,1.22,2.34c.65.43.93.63.93.63a40.62,40.62,0,0,1-3.13,4.86,135.31,135.31,0,0,0,32.49.41,59.9,59.9,0,0,0,9.28-1.9c-.06-.54-.13-1-.17-1.21a18.14,18.14,0,0,1-.33-4.29,8.92,8.92,0,0,0,0-2.19s1.09-4.23,1.62-6a46.83,46.83,0,0,0,1.58-8.47c0-2.07-.1-7.28-.26-10.62s-1.38-9.26-1.61-11-.45-4.29,0-5.52a21.26,21.26,0,0,1,2.58-6.16c2.16-3.76,4.7-8.44,5-9.29s-.17-1.27.81-2.47,3.92-5.24,4.6-7.08a13.05,13.05,0,0,1,2.3-4.2,26.26,26.26,0,0,0,2-3.19c.72-1.11,1-.93,1.21-2s.45-3,.63-3.54.81-.21,1.57-1.54a13.57,13.57,0,0,0,1.21-3.5c.24-.87,2-2.93,4.75-6.91s4.24-6.18,5.05-7.61a4.08,4.08,0,0,0,.7-2.27s3.64-6.62,3.93-7.08,3.54-6.65,4.39-7.61,1.74-2.78,2.2-3.22a11.33,11.33,0,0,0,1.55-4.58,46.31,46.31,0,0,0,.08-5,27.75,27.75,0,0,1,.56-3.73,10.14,10.14,0,0,0,.14-2.52ZM81.25,58.27l-.52.65-.56.15a.55.55,0,0,1-.3.68c-.47.29-.88.6-.88.6s.24.45,0,.47l-.82.15-.18.67-.34.27.1.5-.47.4a2.7,2.7,0,0,0-.12.69.9.9,0,0,1-.18.69,2.16,2.16,0,0,0-.43.65,5,5,0,0,1-.29,1.67c-.29.78-.36.73-.32,1.35s.46.57.27,1.55,0,1.24-.76,1.53a3.54,3.54,0,0,1-1.19.3,1.7,1.7,0,0,0,0-1.09c-.19-.49-.56-1.76-.56-1.76s1.3-3,1.77-4a15.07,15.07,0,0,1,2.2-3.78,11.67,11.67,0,0,1,2.4-2.09,6.25,6.25,0,0,1,1.13-.29Zm24.16,11.51c-.21,0,.12-.68.12-.68a1.93,1.93,0,0,0-.33-.31c-.11,0,.14-.27.14-.27l-.2-.29v-.68l-.34.16s-.14-.68,0-.75.49-.28.28-.34-.16-.23-.31-.5a3.87,3.87,0,0,1-.39-.79c-.11-.32-.23-.85-.23-.85a1.71,1.71,0,0,0,0-.32c0-.12-.05-.39-.26-.46s-.23-.12-.19-.26a5.42,5.42,0,0,1,.35-.64,23.28,23.28,0,0,0,2.13,3c1,1.19,1.59,1.7,1.76,2.27a2,2,0,0,1,0,1.4c-.17.53-.42.77-.32.94a1.83,1.83,0,0,1,.06.66h-.52s.15-.38-.35-.74a3.21,3.21,0,0,0-1.35-.59Z" transform="translate(0 -0.08)"/><polygon class="a" points="204.14 154.34 326.18 154.34 326.18 124.45 204.14 124.45 204.14 154.34 204.14 154.34"/><g class="b"><path class="c" d="M232.73,138v8.31h-6.26c-2.16,0-3.27-.27-4.3-1.09-1.43-1.12-2.21-3.15-2.21-5.86s.78-4.72,2.19-5.86a7,7,0,0,1,4.45-1.19h6.13v2.49H227c-2.66,0-3.71,1.22-3.71,4.29a6.42,6.42,0,0,0,1,3.84,3.67,3.67,0,0,0,2.86.88h2.69v-3.32h-3.91V138Z" transform="translate(0 -0.08)"/><path class="c" d="M251.27,134.19a8.53,8.53,0,0,1,1.45,5.27,7.13,7.13,0,0,1-2.06,5.5,7.25,7.25,0,0,1-4.64,1.38c-2.62,0-4.72-.84-5.81-2.33a7.7,7.7,0,0,1-1.31-4.68c0-2.6.7-4.62,2-5.71a7.58,7.58,0,0,1,4.91-1.47C248.23,132.15,250.22,132.88,251.27,134.19Zm-8.4,1.68a6.27,6.27,0,0,0-.69,3.36c0,3.27,1.13,4.76,3.65,4.76s3.61-1.49,3.61-4.72-1.11-4.75-3.61-4.75A3.44,3.44,0,0,0,242.87,135.87Z" transform="translate(0 -0.08)"/><path class="c" d="M262.09,140.65a3.08,3.08,0,0,0,.73,2.5,3.65,3.65,0,0,0,2.46.86,3,3,0,0,0,2.77-1.26,4.87,4.87,0,0,0,.29-2.1v-8.39h3v8.25c0,2.16-.45,3.52-1.41,4.41a6.85,6.85,0,0,1-4.71,1.45c-2.16,0-3.71-.47-4.72-1.43s-1.38-2-1.38-4.22v-8.46h3Z" transform="translate(0 -0.08)"/><path class="c" d="M284.37,132.26c2.81,0,4.41.52,5.52,1.8a8.46,8.46,0,0,1,1.49,5.23,12.34,12.34,0,0,1-.55,3.57,4.28,4.28,0,0,1-3.17,3.13,11.69,11.69,0,0,1-3.29.27h-5.95v-14Zm-3,11.5h3a3.63,3.63,0,0,0,2.71-.86,5.88,5.88,0,0,0,1-3.63,5.38,5.38,0,0,0-1.21-3.8,3.49,3.49,0,0,0-2.52-.72h-3Z" transform="translate(0 -0.08)"/></g><text class="d" transform="translate(295.85 146.18)">A</text><polygon class="c" points="132.28 64.65 376.64 64.65 376.64 124.39 132.28 124.39 132.28 64.65 132.28 64.65"/><polygon class="e" points="132.28 64.65 376.64 64.65 376.64 124.39 132.28 124.39 132.28 64.65 132.28 64.65"/><g class="b"><path class="f" d="M160.4,76.58c6.56,0,10.29,1.22,12.88,4.21,2.11,2.35,3.48,7.16,3.48,12.2a29.14,29.14,0,0,1-1.27,8.33,10,10,0,0,1-7.4,7.3c-1.71.49-3.53.64-7.69.64H146.53V76.58Zm-6.91,26.85h6.91c2.94,0,5.19-.74,6.32-2,1.47-1.67,2.4-5,2.4-8.48,0-3.87-1.13-7.35-2.84-8.86-1.37-1.18-3-1.67-5.88-1.67h-6.91Z" transform="translate(0 -0.08)"/><path class="f" d="M177.94,103.43h6.66c7.65.1,8.78-1,8.78-8.53V76.58h7V94.9c.3,10.88-3.82,14.85-15,14.36h-7.4Z" transform="translate(0 -0.08)"/></g><g class="b"><g class="b"><path class="f" d="M240,90.49H228.31c-2.94,0-3.63.4-3.63,2.11a2.12,2.12,0,0,0,1.08,2c.44.29,1.18.39,3.19.39h3.87c5.24,0,8.23,2.45,8.23,6.81,0,2.85-1.52,5.69-3.68,6.76-1,.54-2.64.74-5.53.74H218.26v-5.1h11.66a15.9,15.9,0,0,0,3.53-.19,1.73,1.73,0,0,0,1.18-1.81,2.22,2.22,0,0,0-1.13-2.06,6.72,6.72,0,0,0-2.84-.3h-4c-3,0-4.46-.34-5.88-1.37a7.77,7.77,0,0,1-.24-11.81c1.12-.88,2.59-1.22,5.44-1.22h14Z" transform="translate(0 -0.08)"/><path class="f" d="M266,90.49H258.2c-4.9,0-7,2-7,6.81,0,2.6.78,4.46,2.4,5.64,1.32.93,2.55,1.22,5.29,1.22H266v5.1h-9c-4.8,0-7.3-.88-9.46-3.28a12.54,12.54,0,0,1-3.08-8.72c0-4.17,1.27-7.45,3.67-9.51,2-1.66,4.46-2.35,8.87-2.35h9Z" transform="translate(0 -0.08)"/></g></g><g class="b"><path class="f" d="M276.76,85.4h6.71c6.91-.15,9.7,2.45,9.8,9v14.89h-6.56V95.69c.09-4.07-.89-5.2-4.66-5.2h-5.29v18.77h-6.57V76.58h6.57Z" transform="translate(0 -0.08)"/><path class="f" d="M320.17,88.88a13,13,0,0,1,2.89,8.72c0,7.4-4.9,12-12.74,12s-12.49-4.55-12.49-12.44c0-7.3,4.95-12.1,12.59-12.1C314.78,85.06,318.06,86.33,320.17,88.88ZM304.54,97.4c0,4.71,2,7.16,6,7.16s5.83-2.4,5.83-7.26-2-7.2-5.88-7.2S304.54,92.5,304.54,97.4Z" transform="translate(0 -0.08)"/><path class="f" d="M348.69,88.88a13,13,0,0,1,2.89,8.72c0,7.4-4.9,12-12.74,12s-12.49-4.55-12.49-12.44c0-7.3,4.94-12.1,12.59-12.1C343.3,85.06,346.58,86.33,348.69,88.88ZM333.06,97.4c0,4.71,2,7.16,6,7.16s5.83-2.4,5.83-7.26-2-7.2-5.88-7.2S333.06,92.5,333.06,97.4Z" transform="translate(0 -0.08)"/><path class="f" d="M356.48,109.26V76.58h6.57v32.68Z" transform="translate(0 -0.08)"/></g></svg>