<?xml version="1.0" encoding="utf-8"?>
<!-- Generator: Adobe Illustrator 24.1.3, SVG Export Plug-In . SVG Version: 6.00 Build 0)  -->
<svg version="1.1" id="Layer_1" xmlns="http://www.w3.org/2000/svg" xmlns:xlink="http://www.w3.org/1999/xlink" x="0px" y="0px"
	 viewBox="0 0 408.8 168.2" style="enable-background:new 0 0 408.8 168.2;" xml:space="preserve">
<style type="text/css">
	.st0{fill:#FFFFFF;}
	.st1{fill-rule:evenodd;clip-rule:evenodd;fill:#FFFFFF;}
</style>
<path class="st0" d="M22.4,131.3l8.6,14.1l-9.3,5.1l-7.7-12.3c-0.5-0.8-1-1.5-1.4-2.3c-0.4-0.8-0.8-1.5-1.1-2.2
	c-0.6-1.2-1-2.5-1.4-3.8c-0.3-1.3-0.6-2.7-0.7-4.3c0-0.1,0-0.2,0-0.3c0-0.1,0-0.2,0-0.3c-0.1-0.1-0.1-0.2-0.1-0.3c0-0.1,0-0.2,0-0.3
	c0-0.5,0-0.9,0-1.4c0-0.5,0.1-1,0.1-1.4c0.4-2.8,1.2-5.5,2.4-8.1c1.2-2.6,2.4-4.7,3.8-6.4c0.5-0.7,1-1.2,1.5-1.7
	c0.5-0.5,1-0.8,1.5-1.1l17.4-9.5c0.6-0.3,1.1-0.5,1.6-0.7c0.5-0.2,1-0.4,1.5-0.6c0.4-0.1,0.8-0.2,1.2-0.3c0.4-0.1,0.7-0.1,1.2-0.1
	c0.3,0,0.6,0,0.9,0c0.3,0,0.6,0.1,1,0.2c1.2,0.3,2.5,0.8,3.9,1.4s2.8,1.4,4.2,2.4c1,0.7,2.1,1.5,3.1,2.3c1,0.8,2,1.7,2.9,2.6l2.1,2
	c0.1,0.2,0.2,0.3,0.3,0.4c0.1,0.1,0.2,0.2,0.3,0.3c0.1,0.1,0.2,0.2,0.2,0.3c0.1,0.1,0.1,0.2,0.2,0.3c0.3,0.4,0.6,0.7,1,0.9
	c0.3,0.3,0.8,0.4,1.3,0.4c0.4,0,0.7-0.1,1-0.2c0.3-0.2,0.5-0.3,0.7-0.5c0.1-0.1,0.2-0.2,0.2-0.2c0.1-0.1,0.1-0.1,0.2-0.2
	c0.1-0.1,0.2-0.2,0.3-0.3c0.1-0.1,0.2-0.2,0.3-0.3l14.2-10.1c0.4-0.2,0.7-0.4,1-0.6c0.3-0.2,0.7-0.4,1-0.5c0.5-0.3,1.1-0.5,1.7-0.7
	c0.6-0.2,1.3-0.4,2-0.5c0.1,0,0.1,0,0.1,0c0,0,0.1,0,0.1,0c0.8,0,2.4,0.5,4.7,1.4c2.3,1,4.7,2.3,7.3,4.1c2.9,2.1,5.7,4.6,8.2,7.6
	c2.5,3,4,6.4,4.3,10.2c0,0.1,0,0.2,0,0.3s0,0.2,0.1,0.2c0,0.1,0,0.2,0,0.3c0,0.1,0,0.2,0,0.3c0,0.6,0,1.1-0.1,1.7
	c-0.1,0.6-0.2,1.2-0.3,1.8c-0.4,1.1-0.8,2.3-1.4,3.5c-0.6,1.2-1.2,2.4-1.9,3.6L97.3,143c0.7,0.2,1.3,0.3,1.9,0.4
	c0.6,0.1,1.1,0.1,1.7,0.2c0.6,0.1,1.2,0.1,1.9,0.1c0.6,0,1.3,0,2,0c0.8,0,1.6,0,2.2-0.1c0.7-0.1,1.3-0.1,1.9-0.2
	c0.6-0.1,1.1-0.1,1.7-0.3c0.6-0.1,1.2-0.3,1.9-0.4c-0.3,0.3-0.5,0.6-0.8,0.9c-0.3,0.3-0.5,0.5-0.7,0.7c-0.6,0.5-1.1,1-1.7,1.4
	c-0.6,0.4-1.3,0.8-2.1,1.2c-0.1,0.1-0.2,0.1-0.3,0.2c-0.1,0.1-0.2,0.1-0.3,0.2c-0.7,0.4-1.4,0.7-2.1,0.9c-0.7,0.3-1.3,0.5-2,0.6
	c-1.1,0.3-2.2,0.4-3.3,0.5c-1.1,0.1-2.3,0.2-3.6,0.2c-0.2,0-0.3,0-0.5,0c-0.2,0-0.3,0-0.5,0c-0.7,0-1.4,0-2.1,0
	c-0.6,0-1.3-0.1-1.9-0.2c-0.7-0.1-1.3-0.2-2-0.4c-0.7-0.2-1.4-0.4-2.2-0.6l5.1-8.9c0.6-1,1.2-2.1,1.8-3.3c0.6-1.1,1.2-2.3,1.7-3.5
	c1.1-2.5,2.1-5,2.9-7.3c0.8-2.3,1.2-4.2,1.2-5.6c0.1-0.2,0.1-0.4,0-0.6c0-0.2-0.1-0.3-0.1-0.5c-0.7-2.9-2.2-5.6-4.3-8.1
	c-2.1-2.5-4.5-4.6-6.9-6.4c-1.9-1.3-3.7-2.4-5.5-3.1c-1.8-0.7-3.2-1.1-4.3-1.1c-0.2-0.1-0.4-0.1-0.5,0c-0.2,0-0.3,0.1-0.4,0.1
	c-5.5,1.8-9.1,5.3-10.8,10.3c-1.7,5.1-2.6,10.5-2.7,16.3c0,0.2,0,0.4,0,0.6c0,0.2,0,0.4,0,0.6v18.9l-10.5,3.7l0.6-32.9
	c0-0.1,0-0.2,0-0.2c0-1.2-0.2-2.4-0.6-3.3c-0.4-1-1-1.9-1.7-2.9c-0.1-0.2-0.2-0.3-0.3-0.5c-0.1-0.2-0.3-0.3-0.4-0.5
	c-3.9-4-7.6-6.8-11-8.2c-3.4-1.4-5.9-2.1-7.6-2.1c-0.3,0-0.5,0-0.7,0c-0.2,0-0.4,0.1-0.5,0.1c-1.9,0.6-3.6,2-5.1,4.1
	c-1.5,2.1-2.7,4.5-3.6,6.9c-0.8,2-1.4,3.9-1.8,5.8c-0.4,1.8-0.7,3.3-0.7,4.3c0,0.2,0,0.3,0,0.5c0,0.2,0,0.3,0.1,0.4
	c0.2,0.6,0.3,1.1,0.3,1.7c0.1,0.5,0.2,1,0.3,1.5c0.1,0.5,0.2,1,0.3,1.5c0.1,0.5,0.2,1,0.3,1.4c0.2,0.5,0.3,1,0.5,1.5
	C21.8,130.3,22.1,130.8,22.4,131.3L22.4,131.3z"/>
<path class="st0" d="M190.3,139.8v-37.5l-13-0.2l9.2-4.8h14v7.4l2.2-1.5c0.7-0.4,1.4-0.8,2.1-1.2c0.7-0.4,1.5-0.9,2.2-1.2
	c2.4-1.3,4.7-2.4,6.9-3.3c2.2-0.9,4.1-1.5,5.7-1.7c0,0,0.1,0,0.2,0c0.1,0,0.1,0,0.2-0.1c0,0,0.1,0,0.2,0c0.1,0,0.1,0,0.2,0
	c1.3,0,2.9,0.4,4.7,1.2c1.8,0.8,3.7,1.9,5.7,3.3c3.4,2.4,6.5,5.6,9.4,9.4c2.8,3.9,4.2,7.9,4.2,12.2c0,2.9-0.7,5.7-2,8.4
	c-1.3,2.7-2.8,5.1-4.4,7.3c-1.1,1.4-2.1,2.6-3.1,3.7c-1,1-1.8,1.9-2.3,2.5l-9.6,9.3c-0.3,0.3-0.7,0.7-1.1,1.1s-0.9,0.9-1.5,1.3
	c-0.1,0.1-0.2,0.2-0.3,0.3c-0.1,0.1-0.2,0.2-0.3,0.3c-0.9,0.8-1.7,1.5-2.5,2c-0.8,0.5-1.2,0.6-1.3,0.2c-0.1-0.3,0.2-0.9,0.8-1.7
	c0.7-0.8,1.4-1.7,2.2-2.6c0,0,0-0.1,0-0.1c0,0,0.1-0.1,0.1-0.1c0.3-0.3,0.6-0.7,0.8-1c0.2-0.3,0.5-0.6,0.7-0.9l3-3.9
	c1-1.2,1.9-2.5,2.8-3.7c0.9-1.3,1.7-2.5,2.3-3.8c2.2-3.7,3.7-7.5,4.5-11.4c0.3-1.3,0.4-2.7,0.4-4v-0.3c0-0.1,0-0.1,0-0.2
	c0-3.2-0.8-6.2-2.5-9c-1.7-2.8-3.5-5.2-5.4-7.1c-0.7-0.7-1.5-1.3-2.2-1.8c-0.7-0.5-1.4-1-2-1.3l-4.6-2.6c-0.1,0-0.3-0.1-0.6-0.2
	c-0.3-0.1-0.7-0.3-1.2-0.4c-0.4-0.1-0.8-0.3-1.4-0.4c-0.5-0.1-1-0.2-1.6-0.3c-0.2,0-0.4-0.1-0.5-0.1c-0.2,0-0.3,0-0.5,0
	c-0.2,0-0.5,0-0.7,0c-0.2,0-0.5,0.1-0.7,0.1c-2,0.4-3.9,1.5-5.6,3.3c-1.8,1.8-3,3.7-3.6,5.7c-0.1,0.4-0.2,0.9-0.3,1.3
	s-0.1,0.8-0.1,1.2v32.7c0,1.1-0.7,2.2-1.8,2.6l-8,3V139.8z"/>
<path class="st0" d="M272,150.3c0,0.1-0.1,0.3-0.3,0.6h-12.1l1.4-13.1l0.3-12.6c0-11.6,0-17.4-0.1-17.4c0-0.5-0.1-1.1-0.2-1.9
	c-0.1-1.7-0.1-3.3-0.2-5.1c-0.1-1.7-0.8-3.2-2.2-4.5c0.5,0,1.4,0,2.6-0.1c1.3,0,2,0,1.9,0c1.9,0,3.6-0.1,4.9-0.3
	c1.4-0.2,1.9-0.3,1.7-0.3h0.6c-0.8,6.9-1.3,15-1.5,24.3l-0.2,24.8c0.1,0.8,0.2,1.7,0.3,2.5c0.1,1,0.4,1.8,0.9,2.4
	C269.9,149.5,270.6,149.8,272,150.3z"/>
<path class="st1" d="M211.2,27.6c1.7,0.7,3.8,0.4,5.5,1.1c4.8,1.4,9.1,4.3,11.7,8.9c-0.3,2-1.9,3.1-3.3,4.7
	c-4.7,3.9-10.4,5.7-16.8,4.9c0.4,4.1,4.1,7.9,7.9,9.9c1.9,0.6,3.8,1.3,5.8,1.5l0.1,4.8c-7.5,0-14.3-5.6-17.4-12.1
	c-1.2-3.4-2.4-7.3-1.4-11.2c5.3,3,11.6,3.4,16.9,0.1c0.6-0.8,2.7-1.5,2.1-2.8c-4.1-4.2-10.5-5.7-16.1-3.6c-0.5,0.3-1.1,0.4-1.7,0.7
	l-0.1-0.2c2.6-4.9,2.2-12.2-1.2-16.7c-0.6-0.4-1.1-1.8-2-1.3c-3.9,3.8-5.4,9.6-4.1,14.9l1.1,3c-5.4-2.6-12.2-2.1-16.9,1.6
	c-0.4,0.4-1.2,0.7-1.3,1.3c3.3,4.7,10,6.1,15.4,4.6c1.2-0.5,2.6-1.1,3.9-1.6c1.1,7.3-2.1,14.7-8.6,19.1c-3.2,2-6.8,3.4-10.8,3.4
	l0-4.8c5.3-0.2,10-2.6,12.9-7.4c0.4-1.1,1.3-2,1.2-3.4c-3.2-0.1-6.8-0.1-9.6-1.2c-4-1.4-8-4.5-10.3-8.3c0.1-1.9,1.9-3.1,3.2-4.7
	c4.1-3.8,9.2-5.2,14.6-5.4c0.3-7.1,3.4-13.7,9.7-17.6C207.7,13.6,211.1,20.6,211.2,27.6L211.2,27.6z"/>
<g>
	<path class="st0" d="M292.8,147.9l-0.1-8.8l-0.3-37.9l-11.8,0.2l9.7-5.5l24.8-0.4c0.4,0,0.9,0.1,1.4,0.1c0.5,0,0.9,0.1,1.4,0.1
		c3.4,0.3,6.5,1.3,9.3,3s4.4,4,4.6,7c0,0.1,0,0.1,0,0.1c0,0,0,0.1,0,0.1c0,0.1,0,0.1,0,0.1c0,0.1,0,0.1,0,0.1c0,2.7-1,4.8-2.9,6.5
		c-1.9,1.7-4.2,3-6.7,4.1l-3.3,1.3l3.3,0.7c3.6,0.8,6.9,2.2,9.9,4.2c2.9,2,4.5,4.7,4.7,8.2c0,0,0,0.1,0,0.2s0,0.1,0,0.2
		c0,0.1,0,0.2,0,0.2c0,0.1,0,0.1,0,0.2c0,5.2-2.7,9.3-8.2,12.4c-5.5,3.1-11.6,5.1-18.2,6.1c-1.4,0.2-2.9,0.3-4.3,0.4
		c-1.4,0.1-2.8,0.1-4.2,0.1c-0.3,0-0.6,0-0.8,0c-0.2,0-0.5,0-0.7,0c-3.5,0-5.6,0-6.4-0.3C293.2,150.7,292.8,149.7,292.8,147.9
		L292.8,147.9z M308.5,118.6c0.3,0.1,0.7,0.1,1.1,0c0.4,0,0.7,0,1.1,0c2.7-0.2,5.1-0.9,7.4-2c2.3-1.1,3.6-3,3.9-5.7c0,0,0-0.1,0-0.2
		c0-0.1,0-0.1,0.1-0.2c0,0,0-0.1,0-0.2c0-0.1,0-0.1,0-0.2c0-2.5-1.1-4.5-3.4-5.8c-2.3-1.4-4.8-2.3-7.5-2.7c-0.5,0-1.1-0.1-1.6-0.1
		c-0.5,0-1-0.1-1.6-0.1l-5.5-0.1v17.2L308.5,118.6z M305.4,122.9l-3-0.1v21.2c0,0,0,0.1,0,0.1c0,0,0,0.1,0,0.1v0.1
		c0,0.1,0,0.2,0,0.4c0,0.2,0,0.3,0.1,0.5c0,0.2,0.1,0.4,0.1,0.6c0,0.2,0.1,0.3,0.2,0.4c0.3,0.3,0.7,0.5,1.1,0.6
		c0.5,0.1,1,0.1,1.5,0.1h0.1c0,0,0.1,0,0.2,0c0.1,0,0.1,0,0.2,0l8.2-0.1c0.2,0.1,0.4,0.1,0.6,0.1c0.2,0,0.4,0,0.6-0.1
		c2.9-0.2,5.5-1.2,7.9-3c2.4-1.8,3.6-3.9,3.6-6.5c0-0.1,0-0.2,0-0.3c0-0.1,0-0.1,0-0.2c-0.3-4.7-2.3-8-6.1-10
		c-3.8-2-7.9-3.2-12.4-3.6c-0.5,0-1-0.1-1.4-0.1C306.4,123,305.9,122.9,305.4,122.9L305.4,122.9z"/>
</g>
<path class="st0" d="M175.5,149.4c-1.2-0.6-2.1-1.3-2.7-2.3c-3.5-5.1-7.1-12.5-11-22.2c-2.5-6.6-5-13.2-7.5-19.8
	c-0.7-1.7-1.4-3.4-2.1-5c-1.3-2.6-2.5-4-3.7-4l-8.8,0.2c-0.5,0.1-1.1,0.1-1.7,0.2c-0.6,0.1-0.9,0.3-0.9,0.5c0.2,0.2,0.4,0.3,0.7,0.3
	c0.1,0,0.4,0,0.8,0c0.4-0.1,0.6-0.1,0.7-0.1c0.8,0,1.6,0.3,2.2,0.8c0.6,0.5,0.9,1.2,0.9,2.1c0,1.3-2.5,7.7-7.4,19.4
	c-4.5,10.5-7.8,17.8-9.8,21.9c-2,4.1-4.4,7.2-7.2,9.3c0.8,0,2.2,0.1,4.1,0.3c1.9,0.2,3.3,0.3,4,0.3l10.3-1.2c-1.6-0.5-3.1-1-4.7-1.5
	c-0.7-0.7,4.3-13,8.9-24h11c2.4,4.6,4.1,8.2,5.1,10.7c1.3,2.9,2.6,5.9,3.9,8.9c2.2,4.4,4.9,6.7,7.9,6.7l8.8-0.5
	C177,150.2,176.5,149.9,175.5,149.4z M151.1,123h-9.9c2.2-5.4,4.2-10.2,5.3-13c3.1,8.1,4.7,12.3,4.7,12.4V123z"/>
<path class="st0" d="M399.3,149.4c-1.2-0.6-2.1-1.3-2.7-2.3c-3.5-5.1-7.1-12.5-11-22.2c-2.5-6.6-5-13.2-7.5-19.8
	c-0.7-1.7-1.4-3.4-2.1-5c-1.3-2.6-2.5-4-3.7-4l-8.8,0.2c-0.5,0.1-1.1,0.1-1.7,0.2c-0.6,0.1-0.9,0.3-0.9,0.5c0.2,0.2,0.4,0.3,0.7,0.3
	c0.1,0,0.4,0,0.8,0c0.4-0.1,0.6-0.1,0.7-0.1c0.8,0,1.6,0.3,2.2,0.8c0.6,0.5,0.9,1.2,0.9,2.1c0,1.3-2.5,7.7-7.4,19.4
	c-4.5,10.5-7.8,17.8-9.8,21.9c-2,4.1-4.4,7.2-7.2,9.3c0.8,0,2.2,0.1,4.1,0.3c1.9,0.2,3.3,0.3,4,0.3l10.3-1.2c-1.6-0.5-3.1-1-4.7-1.5
	c-0.7-0.7,4.3-13,8.9-24h11c2.4,4.6,4.1,8.2,5.1,10.7c1.3,2.9,2.6,5.9,3.9,8.9c2.2,4.4,4.9,6.7,7.9,6.7l8.8-0.5
	C400.8,150.2,400.3,149.9,399.3,149.4z M374.9,123h-9.9c2.2-5.4,4.2-10.2,5.3-13c3.1,8.1,4.7,12.3,4.7,12.4V123z"/>
<path class="st0" d="M211.6,111.7"/>
</svg>
