<svg id="Layer_1" data-name="Layer 1" xmlns="http://www.w3.org/2000/svg" viewBox="0 0 493.99 327.52"><defs><style>.cls-1{fill:#5a9942;}.cls-2{fill:#e37d25;}</style></defs><title>ORA logo full</title><path class="cls-1" d="M375.42,71.05H412.8V85.51q10.31-10.8,18.28-14.79,8.15-4.16,19.28-4.15,14.77,0,30.9,9.64l-17.11,34.23q-10.65-7.65-20.77-7.65-30.58,0-30.58,46.19V232.9H375.42Z" transform="translate(-163.23 -66.57)"/><path class="cls-1" d="M619.67,71.05h37.55V232.9H619.67V216q-23.1,21.6-49.68,21.6-33.57,0-55.5-24.26-21.76-24.76-21.77-61.81,0-36.39,21.77-60.65T569,66.57q28.25,0,50.68,23.26Zm-88.73,80.43q0,23.25,12.46,37.88,12.79,14.79,32.24,14.79,20.77,0,33.56-14.29Q622,175.07,622,152.31t-12.8-37.56Q596.41,100.31,576,100.3q-19.28,0-32.23,14.62Q530.95,129.71,530.94,151.48Z" transform="translate(-163.23 -66.57)"/><path class="cls-1" d="M249.47,66.57q-36.06,0-61.15,24.59c-1.15,1.13-2.16,2.31-3.24,3.47,21.17-3.75,44.09-5.36,61,0,41.34,13.08,52.18,55.4,44.07,79.74S252.74,207.6,231,202.91,189.09,160,215.18,137c0,0,31.54-20.64,41.2,15.39,0,0,4.39-52.57-92-15.76a89.57,89.57,0,0,0-1.18,14.16q0,37.22,24.59,61.81,24.59,24.93,61,24.93,36.72,0,62-24.43,25.1-24.59,25.09-61,0-36.06-24.92-60.81Q285.69,66.57,249.47,66.57Z" transform="translate(-163.23 -66.57)"/><path class="cls-2" d="M211.71,306.45v17.9q-4.61-5.62-8.25-7.72a16.12,16.12,0,0,0-8.45-2.16,16.64,16.64,0,0,0-12.63,5.32,18.73,18.73,0,0,0-5,13.35q0,8.22,4.85,13.48a16.36,16.36,0,0,0,12.51,5.26,17.18,17.18,0,0,0,8.56-2.09q3.6-2,8.44-7.91v17.79a35.36,35.36,0,0,1-16.4,4.24q-13.53,0-22.62-8.73a29.16,29.16,0,0,1-9.1-21.85,29.55,29.55,0,0,1,9.21-22,31.19,31.19,0,0,1,22.63-9A33.84,33.84,0,0,1,211.71,306.45Z" transform="translate(-163.23 -66.57)"/><path class="cls-2" d="M222,332.67a29,29,0,0,1,9-21.49,31.88,31.88,0,0,1,44.17.06,31.21,31.21,0,0,1-.06,43.87,30.85,30.85,0,0,1-22.32,8.8,29.62,29.62,0,0,1-22-9Q222,346.08,222,332.67Zm13.77.24q0,8.73,4.67,13.83t12.62,5.14q7.9,0,12.64-5.09t4.72-13.58q0-8.5-4.72-13.59t-12.64-5.15a16.25,16.25,0,0,0-12.5,5.15Q235.77,324.77,235.78,332.91Z" transform="translate(-163.23 -66.57)"/><path class="cls-2" d="M341.43,303.94H355v58.3H341.43v-6.11q-8.32,7.78-17.9,7.78a25.8,25.8,0,0,1-20-8.73q-7.85-8.93-7.84-22.27,0-13.11,7.84-21.85a25.26,25.26,0,0,1,19.63-8.74q10.18,0,18.26,8.38Zm-32,29q0,8.37,4.49,13.64a14.7,14.7,0,0,0,11.61,5.33,15.47,15.47,0,0,0,12.1-5.14q4.6-5.34,4.61-13.53t-4.61-13.53a15.27,15.27,0,0,0-12-5.21,14.91,14.91,0,0,0-11.62,5.27A19.43,19.43,0,0,0,309.46,332.91Z" transform="translate(-163.23 -66.57)"/><path class="cls-2" d="M417.33,306.45v17.9q-4.6-5.62-8.26-7.72a16.08,16.08,0,0,0-8.44-2.16A16.63,16.63,0,0,0,388,319.79a18.73,18.73,0,0,0-5,13.35q0,8.22,4.85,13.48a16.34,16.34,0,0,0,12.51,5.26,17.2,17.2,0,0,0,8.56-2.09q3.58-2,8.44-7.91v17.79a35.39,35.39,0,0,1-16.4,4.24q-13.53,0-22.63-8.73a29.2,29.2,0,0,1-9.1-21.85,29.56,29.56,0,0,1,9.22-22,31.19,31.19,0,0,1,22.63-9A33.84,33.84,0,0,1,417.33,306.45Z" transform="translate(-163.23 -66.57)"/><path class="cls-2" d="M433.56,261.13H447v47.65q7.19-6.46,15.87-6.46,9.87,0,15.79,6.4,5,5.58,5,17.78v35.74H470.25V327.76q0-7-2.49-10.15t-8-3.14q-7.06,0-9.93,4.37T447,334.05v28.19H433.56Z" transform="translate(-163.23 -66.57)"/><path class="cls-2" d="M498.74,279.69a8.81,8.81,0,0,1,8.74-8.68,8.46,8.46,0,0,1,6.22,2.58,8.24,8.24,0,0,1,2.58,6.16A8.49,8.49,0,0,1,513.7,286a8.29,8.29,0,0,1-6.16,2.57,8.79,8.79,0,0,1-8.8-8.86Zm15.51,24.25v58.3H500.77v-58.3Z" transform="translate(-163.23 -66.57)"/><path class="cls-2" d="M531.3,303.94h13.53v5.38q7.06-7,15.93-7,10.17,0,15.86,6.4,4.9,5.46,4.91,17.78v35.74H568V329.71q0-8.61-2.4-11.89c-1.55-2.24-4.39-3.35-8.5-3.35-4.46,0-7.64,1.47-9.51,4.42s-2.76,8-2.76,15.25v28.1H531.3Z" transform="translate(-163.23 -66.57)"/><path class="cls-2" d="M654.91,360.86c0,2.75-.08,5.18-.27,7.27a47.83,47.83,0,0,1-.75,5.54A24.58,24.58,0,0,1,648.27,385q-7.9,9.11-21.73,9.1-11.67,0-19.21-6.31-7.79-6.5-9-17.93h13.52a15.26,15.26,0,0,0,2.58,6.64q4.18,5.46,12.21,5.45,14.79,0,14.79-18.08v-8.13q-8,8.19-18.5,8.19a24.85,24.85,0,0,1-19.52-8.62q-7.65-8.73-7.66-21.84,0-12.75,7.13-21.67,7.65-9.46,20.23-9.46a23.51,23.51,0,0,1,18.32,8.2v-6.58h13.46ZM642,333.24q0-8.49-4.54-13.57a15.1,15.1,0,0,0-11.8-5.2,14.5,14.5,0,0,0-12.09,5.68q-4,5.09-4,13.15t4,13q4.38,5.56,12.09,5.56a14.81,14.81,0,0,0,12.22-5.62C640.61,342.88,642,338.53,642,333.24Z" transform="translate(-163.23 -66.57)"/></svg>