<?xml version="1.0" encoding="utf-8"?>
<!-- Generator: Adobe Illustrator 23.0.5, SVG Export Plug-In . SVG Version: 6.00 Build 0)  -->
<svg version="1.1" id="Layer_1" xmlns="http://www.w3.org/2000/svg" xmlns:xlink="http://www.w3.org/1999/xlink" x="0px" y="0px"
	 viewBox="0 0 200 200" style="enable-background:new 0 0 200 200;" xml:space="preserve">
<style type="text/css">
	.st0{fill:#1D1D1B;}
	.st1{fill:#FFFFFF;}
</style>
<g id="W_1_">
	<path class="st0" d="M104.2,94.6c-2.8,1.4-5,5.1-5,8.2l0.8,90.5c0,3.1,2.3,4.5,5.1,3.1l89.8-45.3c2.8-1.4,5-5.1,5-8.2L199,50.6
		c0-3.1-2.3-4.4-5-2.9l-10.1,5.7c-2.7,1.5-4.9,5.3-4.9,8.4l0.9,66.3c0,3.1-2.2,6.8-5,8.1l-7.3,3.5c-2.8,1.4-5.2-0.1-5.2-3.2
		l-1.1-65.4c-0.1-3.1-2.4-4.5-5.2-3.1L144,74.1c-2.8,1.4-5,5.1-5,8.2l1,64.7c0,3.1-2.2,6.8-5,8.1l-7.3,3.5c-2.8,1.4-5.2-0.1-5.2-3.2
		l-1.1-63.7c-0.1-3.1-2.4-4.5-5.2-3.1L104.2,94.6z"/>
</g>
<g id="D_1_">
	<path class="st0" d="M122.7,1.3C148,3.7,189,28.5,192,34.7c1.1,2.3,0.9,4.6,0.9,4.6l0,0c-0.2,0.8-0.7,2-1.5,3.2
		c-1.3,1.9-3,3.1-6.1,5c-5,3.1-6.5,3.9-6.5,3.9c-5.3,2.7-37.6,19.3-82,42.1L3.9,48.3L89.8,7.8l8.5-4c2.5-0.8,6.2-1.8,10.8-2.4
		C109.1,1.4,115.6,0.6,122.7,1.3z"/>
	<path class="st1" d="M117.5,16.6c15.3,1.6,40,16.8,41.8,20.6c0.7,1.5,0.5,2.8,0.5,2.8l-0.9,2.1c0,0-1,1.5-2,2.4
		c-1.5,0.7-3,1.5-4.5,2.2l-51.1,25.6l-56-27.8l52.3-24.2l5.2-2.4c1.5-0.5,3.8-1.1,6.6-1.4C109.3,16.6,113.2,16.1,117.5,16.6z"/>
</g>
<g id="R_1_">
	<g>
		<g>
			<path class="st0" d="M55,139c8.5,4.6,20.4,11,20.4,11c2.7,1.5,7.5,2.7,10.7,2.7h2.7c3.1,0,5.7-2.6,5.7-5.7l-0.1-44.2
				c0-3.1-2.3-6.8-5.1-8.1L5.1,53.8C2.3,52.4,0,53.9,0,57l0.3,90.1c0,3.1,2.3,6.8,5.1,8.2l10.9,5.4c2.8,1.4,5.1-0.1,5.1-3.2
				l-0.1-30.9c0-3.1,0.9-5.3,2-4.8s5.2,4,6.6,6.8l5.1,10.6c1.4,2.8,3.6,7.4,5,10.2c0,0,10.2,20.3,15.7,32.4
				c9.8,5.5,24.4,13.8,24.4,13.8c2.7,1.5,3.8,0.5,2.4-2.3c0,0-17.6-35.8-27.6-55.2"/>
		</g>
		<g>
			<path class="st1" d="M72.6,116.7c0-3.1-2.3-6.8-5.1-8.2L27,88c-2.8-1.4-5,0-5,3.1v5.5c0,3.1,2.3,6.8,5,8.3L67.6,126
				c2.8,1.4,5,0.1,5-3.1V116.7z"/>
		</g>
	</g>
</g>
</svg>
