<svg xmlns="http://www.w3.org/2000/svg" viewBox="0 0 817.11 162.28"><defs><style>.a{fill:#3d3396;}.b{fill:#504ade;}.c{fill:#fff;}</style></defs><path class="a" d="M198.08,9.27h0a31.64,31.64,0,0,0-44.74,0L76.69,85.91,99,108.24l0,0s0,0,0,0a31.63,31.63,0,0,0,44.69,0h0L198.08,54A31.63,31.63,0,0,0,198.08,9.27Z" transform="translate(-0.01 -0.01)"/><path class="b" d="M143.8,108.28a31.63,31.63,0,0,1-44.69,0l0,0,0,0L76.69,85.91l-15.1-15.1L54,63.22A31.63,31.63,0,0,0,9.27,108L54.33,153a31.64,31.64,0,0,0,44.74,0L116,136.14l4.32-4.32,1.18-1.18,22.35-22.36Z" transform="translate(-0.01 -0.01)"/><path class="c" d="M310.65,148.91l-39.47-122h27.51l27.17,85.78h.34l27.51-85.78h27.68l-40.5,122Z" transform="translate(-0.01 -0.01)"/><path class="c" d="M378.83,87.74q.51-8.53,4.27-14.18a29.08,29.08,0,0,1,9.57-9.06,41.67,41.67,0,0,1,13.07-4.87,74.17,74.17,0,0,1,14.61-1.45,98.54,98.54,0,0,1,13.5.94,41.51,41.51,0,0,1,12.47,3.67,24.67,24.67,0,0,1,9.23,7.6c2.4,3.24,3.59,7.55,3.59,12.9v46a93.48,93.48,0,0,0,.68,11.45,20.54,20.54,0,0,0,2.39,8.2H437.6a33.11,33.11,0,0,1-1.11-4.19,34.65,34.65,0,0,1-.6-4.36,31.52,31.52,0,0,1-13.67,8.37,55,55,0,0,1-16.06,2.39,43.15,43.15,0,0,1-11.79-1.54,27.16,27.16,0,0,1-9.57-4.78,22.33,22.33,0,0,1-6.41-8.2,27.67,27.67,0,0,1-2.31-11.79q0-7.52,2.65-12.39a22.08,22.08,0,0,1,6.83-7.77,30.57,30.57,0,0,1,9.57-4.36A101.68,101.68,0,0,1,406,98q5.46-.86,10.76-1.37a63.81,63.81,0,0,0,9.4-1.54,16.31,16.31,0,0,0,6.49-3,6.58,6.58,0,0,0,2.22-5.72,13,13,0,0,0-1.28-6.24,9.46,9.46,0,0,0-3.42-3.59,13.68,13.68,0,0,0-5-1.71,41.18,41.18,0,0,0-6.07-.43q-7.17,0-11.28,3.08t-4.79,10.25H378.83Zm56.05,17.94a11.12,11.12,0,0,1-3.84,2.14,37.35,37.35,0,0,1-5,1.28c-1.77.34-3.62.63-5.55.85s-3.87.51-5.81.85a43.27,43.27,0,0,0-5.38,1.37,15.69,15.69,0,0,0-4.61,2.31,10.89,10.89,0,0,0-3.16,3.67,11.78,11.78,0,0,0-1.2,5.64,11.37,11.37,0,0,0,1.2,5.47,9.07,9.07,0,0,0,3.25,3.5,13.77,13.77,0,0,0,4.78,1.79,30.65,30.65,0,0,0,5.64.51q7.17,0,11.11-2.39a16,16,0,0,0,5.81-5.72,18.45,18.45,0,0,0,2.31-6.75,47.55,47.55,0,0,0,.43-5.47v-9Z" transform="translate(-0.01 -0.01)"/><path class="c" d="M502.88,26.91v122H478.62v-122Z" transform="translate(-0.01 -0.01)"/><path class="c" d="M522.7,46.9v-20H547v20ZM547,60.57v88.34H522.7V60.57Z" transform="translate(-0.01 -0.01)"/><path class="c" d="M628.82,137.63A25.1,25.1,0,0,1,617.63,148,37.18,37.18,0,0,1,602,151.13a37.8,37.8,0,0,1-17.43-3.84,35.06,35.06,0,0,1-12.39-10.42,47.09,47.09,0,0,1-7.35-15.12A63.52,63.52,0,0,1,562.35,104a59.67,59.67,0,0,1,2.48-17.17,44.64,44.64,0,0,1,7.35-14.61A36.81,36.81,0,0,1,584.4,62a36.37,36.37,0,0,1,17.09-3.84,34.76,34.76,0,0,1,15,3.33,26,26,0,0,1,11.19,9.83H628V26.91h24.26v122H629.16V137.63Zm-1-43.65a25.73,25.73,0,0,0-3.5-8.89,19.81,19.81,0,0,0-6.41-6.24A18.82,18.82,0,0,0,608,76.46a19.74,19.74,0,0,0-10.08,2.39,19,19,0,0,0-6.58,6.32,28,28,0,0,0-3.59,9,48.71,48.71,0,0,0-1.11,10.51,44.83,44.83,0,0,0,1.2,10.25,27.86,27.86,0,0,0,3.84,9.14,21.25,21.25,0,0,0,6.66,6.49A18,18,0,0,0,608,133a19.3,19.3,0,0,0,10-2.39,18.22,18.22,0,0,0,6.41-6.41,29,29,0,0,0,3.42-9.14,53.42,53.42,0,0,0,1-10.59A52.82,52.82,0,0,0,627.79,94Z" transform="translate(-0.01 -0.01)"/><path class="c" d="M669.48,87.74q.51-8.53,4.27-14.18a29.08,29.08,0,0,1,9.57-9.06,41.67,41.67,0,0,1,13.07-4.87A74.17,74.17,0,0,1,711,58.18a98.54,98.54,0,0,1,13.5.94A41.51,41.51,0,0,1,737,62.79a24.67,24.67,0,0,1,9.23,7.6c2.4,3.24,3.59,7.55,3.59,12.9v46a93.48,93.48,0,0,0,.68,11.45,20.54,20.54,0,0,0,2.39,8.2H728.25a33.11,33.11,0,0,1-1.11-4.19,34.65,34.65,0,0,1-.6-4.36,31.52,31.52,0,0,1-13.67,8.37,55,55,0,0,1-16.06,2.39A43.15,43.15,0,0,1,685,149.58a27.16,27.16,0,0,1-9.57-4.78,22.33,22.33,0,0,1-6.41-8.2,27.67,27.67,0,0,1-2.31-11.79q0-7.52,2.65-12.39a22.08,22.08,0,0,1,6.83-7.77,30.57,30.57,0,0,1,9.57-4.36A101.68,101.68,0,0,1,696.63,98q5.46-.86,10.76-1.37a63.81,63.81,0,0,0,9.4-1.54,16.31,16.31,0,0,0,6.49-3,6.58,6.58,0,0,0,2.22-5.72,13,13,0,0,0-1.28-6.24,9.46,9.46,0,0,0-3.42-3.59,13.68,13.68,0,0,0-5-1.71,41.18,41.18,0,0,0-6.07-.43q-7.17,0-11.28,3.08T693.7,87.72H669.48Zm56,17.94a11.12,11.12,0,0,1-3.84,2.14,37.35,37.35,0,0,1-5,1.28c-1.77.34-3.62.63-5.55.85s-3.87.51-5.81.85a43.27,43.27,0,0,0-5.38,1.37,15.69,15.69,0,0,0-4.61,2.31,10.89,10.89,0,0,0-3.16,3.67,11.78,11.78,0,0,0-1.2,5.64,11.37,11.37,0,0,0,1.2,5.47,9.07,9.07,0,0,0,3.25,3.5,13.77,13.77,0,0,0,4.78,1.79,30.65,30.65,0,0,0,5.64.51q7.17,0,11.11-2.39a16,16,0,0,0,5.81-5.72,18.45,18.45,0,0,0,2.31-6.75,47.55,47.55,0,0,0,.43-5.47v-9Z" transform="translate(-0.01 -0.01)"/><path class="c" d="M817.12,60.57V76.8H799.35v43.74q0,6.15,2,8.2t8.2,2c1.37,0,2.67-.06,3.93-.17a32.65,32.65,0,0,0,3.59-.51v18.8a57.36,57.36,0,0,1-6.83.68q-3.76.16-7.35.17a71.17,71.17,0,0,1-10.68-.77,25.23,25.23,0,0,1-8.89-3,15.87,15.87,0,0,1-6.07-6.32q-2.22-4.1-2.22-10.77V76.8h-14.7V60.57h14.7V34.08h24.26V60.57Z" transform="translate(-0.01 -0.01)"/></svg>